<?xml version="1.0" encoding="utf-8" standalone="no"?>
<!DOCTYPE svg PUBLIC "-//W3C//DTD SVG 1.1//EN"
  "http://www.w3.org/Graphics/SVG/1.1/DTD/svg11.dtd">
<!-- Created with matplotlib (https://matplotlib.org/) -->
<svg height="204.33625pt" version="1.1" viewBox="0 0 493.542188 204.33625" width="493.542188pt" xmlns="http://www.w3.org/2000/svg" xmlns:xlink="http://www.w3.org/1999/xlink">
 <metadata>
  <rdf:RDF xmlns:cc="http://creativecommons.org/ns#" xmlns:dc="http://purl.org/dc/elements/1.1/" xmlns:rdf="http://www.w3.org/1999/02/22-rdf-syntax-ns#">
   <cc:Work>
    <dc:type rdf:resource="http://purl.org/dc/dcmitype/StillImage"/>
    <dc:date>2022-03-07T21:17:25.679487</dc:date>
    <dc:format>image/svg+xml</dc:format>
    <dc:creator>
     <cc:Agent>
      <dc:title>Matplotlib v3.3.2, https://matplotlib.org/</dc:title>
     </cc:Agent>
    </dc:creator>
   </cc:Work>
  </rdf:RDF>
 </metadata>
 <defs>
  <style type="text/css">*{stroke-linecap:butt;stroke-linejoin:round;}</style>
 </defs>
 <g id="figure_1">
  <g id="patch_1">
   <path d="M 0 204.33625 
L 493.542188 204.33625 
L 493.542188 0 
L 0 0 
z
" style="fill:none;"/>
  </g>
  <g id="axes_1">
   <g id="patch_2">
    <path d="M 39.942188 170.28 
L 486.342187 170.28 
L 486.342187 7.2 
L 39.942188 7.2 
z
" style="fill:#ffffff;"/>
   </g>
   <g id="PathCollection_1">
    <defs>
     <path d="M 0 3 
C 0.795609 3 1.55874 2.683901 2.12132 2.12132 
C 2.683901 1.55874 3 0.795609 3 0 
C 3 -0.795609 2.683901 -1.55874 2.12132 -2.12132 
C 1.55874 -2.683901 0.795609 -3 0 -3 
C -0.795609 -3 -1.55874 -2.683901 -2.12132 -2.12132 
C -2.683901 -1.55874 -3 -0.795609 -3 0 
C -3 0.795609 -2.683901 1.55874 -2.12132 2.12132 
C -1.55874 2.683901 -0.795609 3 0 3 
z
" id="m02a81f7540" style="stroke:#000000;"/>
    </defs>
    <g clip-path="url(#pc09bfd129d)">
     <use style="stroke:#000000;" x="363.152145" xlink:href="#m02a81f7540" y="32.747345"/>
    </g>
   </g>
   <g id="PathCollection_2">
    <defs>
     <path d="M -3 3 
L 3 -3 
M -3 -3 
L 3 3 
" id="mc0c4f9eb4c" style="stroke:#000000;stroke-width:1.5;"/>
    </defs>
    <g clip-path="url(#pc09bfd129d)">
     <use style="stroke:#000000;stroke-width:1.5;" x="370.782534" xlink:href="#mc0c4f9eb4c" y="69.785766"/>
    </g>
   </g>
   <g id="PathCollection_3">
    <g clip-path="url(#pc09bfd129d)">
     <use style="stroke:#000000;" x="269.365029" xlink:href="#m02a81f7540" y="37.08732"/>
    </g>
   </g>
   <g id="PathCollection_4">
    <g clip-path="url(#pc09bfd129d)">
     <use style="stroke:#000000;stroke-width:1.5;" x="288.774369" xlink:href="#mc0c4f9eb4c" y="89.61424"/>
    </g>
   </g>
   <g id="PathCollection_5">
    <g clip-path="url(#pc09bfd129d)">
     <use style="stroke:#000000;" x="141.352284" xlink:href="#m02a81f7540" y="14.612727"/>
    </g>
   </g>
   <g id="PathCollection_6">
    <g clip-path="url(#pc09bfd129d)">
     <use style="stroke:#000000;stroke-width:1.5;" x="152.834909" xlink:href="#mc0c4f9eb4c" y="45.228164"/>
    </g>
   </g>
   <g id="matplotlib.axis_1">
    <g id="xtick_1">
     <g id="line2d_1">
      <defs>
       <path d="M 0 0 
L 0 -3.5 
" id="mf3b91d7ce1" style="stroke:#000000;stroke-width:0.8;"/>
      </defs>
      <g>
       <use style="stroke:#000000;stroke-width:0.8;" x="468.19964" xlink:href="#mf3b91d7ce1" y="170.28"/>
      </g>
     </g>
     <g id="line2d_2">
      <defs>
       <path d="M 0 0 
L 0 3.5 
" id="m551e2d378b" style="stroke:#000000;stroke-width:0.8;"/>
      </defs>
      <g>
       <use style="stroke:#000000;stroke-width:0.8;" x="468.19964" xlink:href="#m551e2d378b" y="7.2"/>
      </g>
     </g>
     <g id="text_1">
      <!-- 31 -->
      <g transform="translate(461.83714 181.378438)scale(0.1 -0.1)">
       <defs>
        <path d="M 40.578125 39.3125 
Q 47.65625 37.796875 51.625 33 
Q 55.609375 28.21875 55.609375 21.1875 
Q 55.609375 10.40625 48.1875 4.484375 
Q 40.765625 -1.421875 27.09375 -1.421875 
Q 22.515625 -1.421875 17.65625 -0.515625 
Q 12.796875 0.390625 7.625 2.203125 
L 7.625 11.71875 
Q 11.71875 9.328125 16.59375 8.109375 
Q 21.484375 6.890625 26.8125 6.890625 
Q 36.078125 6.890625 40.9375 10.546875 
Q 45.796875 14.203125 45.796875 21.1875 
Q 45.796875 27.640625 41.28125 31.265625 
Q 36.765625 34.90625 28.71875 34.90625 
L 20.21875 34.90625 
L 20.21875 43.015625 
L 29.109375 43.015625 
Q 36.375 43.015625 40.234375 45.921875 
Q 44.09375 48.828125 44.09375 54.296875 
Q 44.09375 59.90625 40.109375 62.90625 
Q 36.140625 65.921875 28.71875 65.921875 
Q 24.65625 65.921875 20.015625 65.03125 
Q 15.375 64.15625 9.8125 62.3125 
L 9.8125 71.09375 
Q 15.4375 72.65625 20.34375 73.4375 
Q 25.25 74.21875 29.59375 74.21875 
Q 40.828125 74.21875 47.359375 69.109375 
Q 53.90625 64.015625 53.90625 55.328125 
Q 53.90625 49.265625 50.4375 45.09375 
Q 46.96875 40.921875 40.578125 39.3125 
z
" id="DejaVuSans-51"/>
        <path d="M 12.40625 8.296875 
L 28.515625 8.296875 
L 28.515625 63.921875 
L 10.984375 60.40625 
L 10.984375 69.390625 
L 28.421875 72.90625 
L 38.28125 72.90625 
L 38.28125 8.296875 
L 54.390625 8.296875 
L 54.390625 0 
L 12.40625 0 
z
" id="DejaVuSans-49"/>
       </defs>
       <use xlink:href="#DejaVuSans-51"/>
       <use x="63.623047" xlink:href="#DejaVuSans-49"/>
      </g>
     </g>
    </g>
    <g id="xtick_2">
     <g id="line2d_3">
      <g>
       <use style="stroke:#000000;stroke-width:0.8;" x="394.118191" xlink:href="#mf3b91d7ce1" y="170.28"/>
      </g>
     </g>
     <g id="line2d_4">
      <g>
       <use style="stroke:#000000;stroke-width:0.8;" x="394.118191" xlink:href="#m551e2d378b" y="7.2"/>
      </g>
     </g>
     <g id="text_2">
      <!-- 32 -->
      <g transform="translate(387.755691 181.378438)scale(0.1 -0.1)">
       <defs>
        <path d="M 19.1875 8.296875 
L 53.609375 8.296875 
L 53.609375 0 
L 7.328125 0 
L 7.328125 8.296875 
Q 12.9375 14.109375 22.625 23.890625 
Q 32.328125 33.6875 34.8125 36.53125 
Q 39.546875 41.84375 41.421875 45.53125 
Q 43.3125 49.21875 43.3125 52.78125 
Q 43.3125 58.59375 39.234375 62.25 
Q 35.15625 65.921875 28.609375 65.921875 
Q 23.96875 65.921875 18.8125 64.3125 
Q 13.671875 62.703125 7.8125 59.421875 
L 7.8125 69.390625 
Q 13.765625 71.78125 18.9375 73 
Q 24.125 74.21875 28.421875 74.21875 
Q 39.75 74.21875 46.484375 68.546875 
Q 53.21875 62.890625 53.21875 53.421875 
Q 53.21875 48.921875 51.53125 44.890625 
Q 49.859375 40.875 45.40625 35.40625 
Q 44.1875 33.984375 37.640625 27.21875 
Q 31.109375 20.453125 19.1875 8.296875 
z
" id="DejaVuSans-50"/>
       </defs>
       <use xlink:href="#DejaVuSans-51"/>
       <use x="63.623047" xlink:href="#DejaVuSans-50"/>
      </g>
     </g>
    </g>
    <g id="xtick_3">
     <g id="line2d_5">
      <g>
       <use style="stroke:#000000;stroke-width:0.8;" x="320.036741" xlink:href="#mf3b91d7ce1" y="170.28"/>
      </g>
     </g>
     <g id="line2d_6">
      <g>
       <use style="stroke:#000000;stroke-width:0.8;" x="320.036741" xlink:href="#m551e2d378b" y="7.2"/>
      </g>
     </g>
     <g id="text_3">
      <!-- 33 -->
      <g transform="translate(313.674241 181.378438)scale(0.1 -0.1)">
       <use xlink:href="#DejaVuSans-51"/>
       <use x="63.623047" xlink:href="#DejaVuSans-51"/>
      </g>
     </g>
    </g>
    <g id="xtick_4">
     <g id="line2d_7">
      <g>
       <use style="stroke:#000000;stroke-width:0.8;" x="245.955291" xlink:href="#mf3b91d7ce1" y="170.28"/>
      </g>
     </g>
     <g id="line2d_8">
      <g>
       <use style="stroke:#000000;stroke-width:0.8;" x="245.955291" xlink:href="#m551e2d378b" y="7.2"/>
      </g>
     </g>
     <g id="text_4">
      <!-- 34 -->
      <g transform="translate(239.592791 181.378438)scale(0.1 -0.1)">
       <defs>
        <path d="M 37.796875 64.3125 
L 12.890625 25.390625 
L 37.796875 25.390625 
z
M 35.203125 72.90625 
L 47.609375 72.90625 
L 47.609375 25.390625 
L 58.015625 25.390625 
L 58.015625 17.1875 
L 47.609375 17.1875 
L 47.609375 0 
L 37.796875 0 
L 37.796875 17.1875 
L 4.890625 17.1875 
L 4.890625 26.703125 
z
" id="DejaVuSans-52"/>
       </defs>
       <use xlink:href="#DejaVuSans-51"/>
       <use x="63.623047" xlink:href="#DejaVuSans-52"/>
      </g>
     </g>
    </g>
    <g id="xtick_5">
     <g id="line2d_9">
      <g>
       <use style="stroke:#000000;stroke-width:0.8;" x="171.873841" xlink:href="#mf3b91d7ce1" y="170.28"/>
      </g>
     </g>
     <g id="line2d_10">
      <g>
       <use style="stroke:#000000;stroke-width:0.8;" x="171.873841" xlink:href="#m551e2d378b" y="7.2"/>
      </g>
     </g>
     <g id="text_5">
      <!-- 35 -->
      <g transform="translate(165.511341 181.378438)scale(0.1 -0.1)">
       <defs>
        <path d="M 10.796875 72.90625 
L 49.515625 72.90625 
L 49.515625 64.59375 
L 19.828125 64.59375 
L 19.828125 46.734375 
Q 21.96875 47.46875 24.109375 47.828125 
Q 26.265625 48.1875 28.421875 48.1875 
Q 40.625 48.1875 47.75 41.5 
Q 54.890625 34.8125 54.890625 23.390625 
Q 54.890625 11.625 47.5625 5.09375 
Q 40.234375 -1.421875 26.90625 -1.421875 
Q 22.3125 -1.421875 17.546875 -0.640625 
Q 12.796875 0.140625 7.71875 1.703125 
L 7.71875 11.625 
Q 12.109375 9.234375 16.796875 8.0625 
Q 21.484375 6.890625 26.703125 6.890625 
Q 35.15625 6.890625 40.078125 11.328125 
Q 45.015625 15.765625 45.015625 23.390625 
Q 45.015625 31 40.078125 35.4375 
Q 35.15625 39.890625 26.703125 39.890625 
Q 22.75 39.890625 18.8125 39.015625 
Q 14.890625 38.140625 10.796875 36.28125 
z
" id="DejaVuSans-53"/>
       </defs>
       <use xlink:href="#DejaVuSans-51"/>
       <use x="63.623047" xlink:href="#DejaVuSans-53"/>
      </g>
     </g>
    </g>
    <g id="xtick_6">
     <g id="line2d_11">
      <g>
       <use style="stroke:#000000;stroke-width:0.8;" x="97.792392" xlink:href="#mf3b91d7ce1" y="170.28"/>
      </g>
     </g>
     <g id="line2d_12">
      <g>
       <use style="stroke:#000000;stroke-width:0.8;" x="97.792392" xlink:href="#m551e2d378b" y="7.2"/>
      </g>
     </g>
     <g id="text_6">
      <!-- 36 -->
      <g transform="translate(91.429892 181.378438)scale(0.1 -0.1)">
       <defs>
        <path d="M 33.015625 40.375 
Q 26.375 40.375 22.484375 35.828125 
Q 18.609375 31.296875 18.609375 23.390625 
Q 18.609375 15.53125 22.484375 10.953125 
Q 26.375 6.390625 33.015625 6.390625 
Q 39.65625 6.390625 43.53125 10.953125 
Q 47.40625 15.53125 47.40625 23.390625 
Q 47.40625 31.296875 43.53125 35.828125 
Q 39.65625 40.375 33.015625 40.375 
z
M 52.59375 71.296875 
L 52.59375 62.3125 
Q 48.875 64.0625 45.09375 64.984375 
Q 41.3125 65.921875 37.59375 65.921875 
Q 27.828125 65.921875 22.671875 59.328125 
Q 17.53125 52.734375 16.796875 39.40625 
Q 19.671875 43.65625 24.015625 45.921875 
Q 28.375 48.1875 33.59375 48.1875 
Q 44.578125 48.1875 50.953125 41.515625 
Q 57.328125 34.859375 57.328125 23.390625 
Q 57.328125 12.15625 50.6875 5.359375 
Q 44.046875 -1.421875 33.015625 -1.421875 
Q 20.359375 -1.421875 13.671875 8.265625 
Q 6.984375 17.96875 6.984375 36.375 
Q 6.984375 53.65625 15.1875 63.9375 
Q 23.390625 74.21875 37.203125 74.21875 
Q 40.921875 74.21875 44.703125 73.484375 
Q 48.484375 72.75 52.59375 71.296875 
z
" id="DejaVuSans-54"/>
       </defs>
       <use xlink:href="#DejaVuSans-51"/>
       <use x="63.623047" xlink:href="#DejaVuSans-54"/>
      </g>
     </g>
    </g>
    <g id="text_7">
     <!-- Time BP (kyr) -->
     <g transform="translate(229.654687 195.056563)scale(0.1 -0.1)">
      <defs>
       <path d="M -0.296875 72.90625 
L 61.375 72.90625 
L 61.375 64.59375 
L 35.5 64.59375 
L 35.5 0 
L 25.59375 0 
L 25.59375 64.59375 
L -0.296875 64.59375 
z
" id="DejaVuSans-84"/>
       <path d="M 9.421875 54.6875 
L 18.40625 54.6875 
L 18.40625 0 
L 9.421875 0 
z
M 9.421875 75.984375 
L 18.40625 75.984375 
L 18.40625 64.59375 
L 9.421875 64.59375 
z
" id="DejaVuSans-105"/>
       <path d="M 52 44.1875 
Q 55.375 50.25 60.0625 53.125 
Q 64.75 56 71.09375 56 
Q 79.640625 56 84.28125 50.015625 
Q 88.921875 44.046875 88.921875 33.015625 
L 88.921875 0 
L 79.890625 0 
L 79.890625 32.71875 
Q 79.890625 40.578125 77.09375 44.375 
Q 74.3125 48.1875 68.609375 48.1875 
Q 61.625 48.1875 57.5625 43.546875 
Q 53.515625 38.921875 53.515625 30.90625 
L 53.515625 0 
L 44.484375 0 
L 44.484375 32.71875 
Q 44.484375 40.625 41.703125 44.40625 
Q 38.921875 48.1875 33.109375 48.1875 
Q 26.21875 48.1875 22.15625 43.53125 
Q 18.109375 38.875 18.109375 30.90625 
L 18.109375 0 
L 9.078125 0 
L 9.078125 54.6875 
L 18.109375 54.6875 
L 18.109375 46.1875 
Q 21.1875 51.21875 25.484375 53.609375 
Q 29.78125 56 35.6875 56 
Q 41.65625 56 45.828125 52.96875 
Q 50 49.953125 52 44.1875 
z
" id="DejaVuSans-109"/>
       <path d="M 56.203125 29.59375 
L 56.203125 25.203125 
L 14.890625 25.203125 
Q 15.484375 15.921875 20.484375 11.0625 
Q 25.484375 6.203125 34.421875 6.203125 
Q 39.59375 6.203125 44.453125 7.46875 
Q 49.3125 8.734375 54.109375 11.28125 
L 54.109375 2.78125 
Q 49.265625 0.734375 44.1875 -0.34375 
Q 39.109375 -1.421875 33.890625 -1.421875 
Q 20.796875 -1.421875 13.15625 6.1875 
Q 5.515625 13.8125 5.515625 26.8125 
Q 5.515625 40.234375 12.765625 48.109375 
Q 20.015625 56 32.328125 56 
Q 43.359375 56 49.78125 48.890625 
Q 56.203125 41.796875 56.203125 29.59375 
z
M 47.21875 32.234375 
Q 47.125 39.59375 43.09375 43.984375 
Q 39.0625 48.390625 32.421875 48.390625 
Q 24.90625 48.390625 20.390625 44.140625 
Q 15.875 39.890625 15.1875 32.171875 
z
" id="DejaVuSans-101"/>
       <path id="DejaVuSans-32"/>
       <path d="M 19.671875 34.8125 
L 19.671875 8.109375 
L 35.5 8.109375 
Q 43.453125 8.109375 47.28125 11.40625 
Q 51.125 14.703125 51.125 21.484375 
Q 51.125 28.328125 47.28125 31.5625 
Q 43.453125 34.8125 35.5 34.8125 
z
M 19.671875 64.796875 
L 19.671875 42.828125 
L 34.28125 42.828125 
Q 41.5 42.828125 45.03125 45.53125 
Q 48.578125 48.25 48.578125 53.8125 
Q 48.578125 59.328125 45.03125 62.0625 
Q 41.5 64.796875 34.28125 64.796875 
z
M 9.8125 72.90625 
L 35.015625 72.90625 
Q 46.296875 72.90625 52.390625 68.21875 
Q 58.5 63.53125 58.5 54.890625 
Q 58.5 48.1875 55.375 44.234375 
Q 52.25 40.28125 46.1875 39.3125 
Q 53.46875 37.75 57.5 32.78125 
Q 61.53125 27.828125 61.53125 20.40625 
Q 61.53125 10.640625 54.890625 5.3125 
Q 48.25 0 35.984375 0 
L 9.8125 0 
z
" id="DejaVuSans-66"/>
       <path d="M 19.671875 64.796875 
L 19.671875 37.40625 
L 32.078125 37.40625 
Q 38.96875 37.40625 42.71875 40.96875 
Q 46.484375 44.53125 46.484375 51.125 
Q 46.484375 57.671875 42.71875 61.234375 
Q 38.96875 64.796875 32.078125 64.796875 
z
M 9.8125 72.90625 
L 32.078125 72.90625 
Q 44.34375 72.90625 50.609375 67.359375 
Q 56.890625 61.8125 56.890625 51.125 
Q 56.890625 40.328125 50.609375 34.8125 
Q 44.34375 29.296875 32.078125 29.296875 
L 19.671875 29.296875 
L 19.671875 0 
L 9.8125 0 
z
" id="DejaVuSans-80"/>
       <path d="M 31 75.875 
Q 24.46875 64.65625 21.28125 53.65625 
Q 18.109375 42.671875 18.109375 31.390625 
Q 18.109375 20.125 21.3125 9.0625 
Q 24.515625 -2 31 -13.1875 
L 23.1875 -13.1875 
Q 15.875 -1.703125 12.234375 9.375 
Q 8.59375 20.453125 8.59375 31.390625 
Q 8.59375 42.28125 12.203125 53.3125 
Q 15.828125 64.359375 23.1875 75.875 
z
" id="DejaVuSans-40"/>
       <path d="M 9.078125 75.984375 
L 18.109375 75.984375 
L 18.109375 31.109375 
L 44.921875 54.6875 
L 56.390625 54.6875 
L 27.390625 29.109375 
L 57.625 0 
L 45.90625 0 
L 18.109375 26.703125 
L 18.109375 0 
L 9.078125 0 
z
" id="DejaVuSans-107"/>
       <path d="M 32.171875 -5.078125 
Q 28.375 -14.84375 24.75 -17.8125 
Q 21.140625 -20.796875 15.09375 -20.796875 
L 7.90625 -20.796875 
L 7.90625 -13.28125 
L 13.1875 -13.28125 
Q 16.890625 -13.28125 18.9375 -11.515625 
Q 21 -9.765625 23.484375 -3.21875 
L 25.09375 0.875 
L 2.984375 54.6875 
L 12.5 54.6875 
L 29.59375 11.921875 
L 46.6875 54.6875 
L 56.203125 54.6875 
z
" id="DejaVuSans-121"/>
       <path d="M 41.109375 46.296875 
Q 39.59375 47.171875 37.8125 47.578125 
Q 36.03125 48 33.890625 48 
Q 26.265625 48 22.1875 43.046875 
Q 18.109375 38.09375 18.109375 28.8125 
L 18.109375 0 
L 9.078125 0 
L 9.078125 54.6875 
L 18.109375 54.6875 
L 18.109375 46.1875 
Q 20.953125 51.171875 25.484375 53.578125 
Q 30.03125 56 36.53125 56 
Q 37.453125 56 38.578125 55.875 
Q 39.703125 55.765625 41.0625 55.515625 
z
" id="DejaVuSans-114"/>
       <path d="M 8.015625 75.875 
L 15.828125 75.875 
Q 23.140625 64.359375 26.78125 53.3125 
Q 30.421875 42.28125 30.421875 31.390625 
Q 30.421875 20.453125 26.78125 9.375 
Q 23.140625 -1.703125 15.828125 -13.1875 
L 8.015625 -13.1875 
Q 14.5 -2 17.703125 9.0625 
Q 20.90625 20.125 20.90625 31.390625 
Q 20.90625 42.671875 17.703125 53.65625 
Q 14.5 64.65625 8.015625 75.875 
z
" id="DejaVuSans-41"/>
      </defs>
      <use xlink:href="#DejaVuSans-84"/>
      <use x="57.958984" xlink:href="#DejaVuSans-105"/>
      <use x="85.742188" xlink:href="#DejaVuSans-109"/>
      <use x="183.154297" xlink:href="#DejaVuSans-101"/>
      <use x="244.677734" xlink:href="#DejaVuSans-32"/>
      <use x="276.464844" xlink:href="#DejaVuSans-66"/>
      <use x="345.068359" xlink:href="#DejaVuSans-80"/>
      <use x="405.371094" xlink:href="#DejaVuSans-32"/>
      <use x="437.158203" xlink:href="#DejaVuSans-40"/>
      <use x="476.171875" xlink:href="#DejaVuSans-107"/>
      <use x="530.457031" xlink:href="#DejaVuSans-121"/>
      <use x="589.636719" xlink:href="#DejaVuSans-114"/>
      <use x="630.75" xlink:href="#DejaVuSans-41"/>
     </g>
    </g>
   </g>
   <g id="matplotlib.axis_2">
    <g id="ytick_1">
     <g id="line2d_13">
      <defs>
       <path d="M 0 0 
L 3.5 0 
" id="me182f4b140" style="stroke:#000000;stroke-width:0.8;"/>
      </defs>
      <g>
       <use style="stroke:#000000;stroke-width:0.8;" x="39.942188" xlink:href="#me182f4b140" y="165.407895"/>
      </g>
     </g>
     <g id="line2d_14">
      <defs>
       <path d="M 0 0 
L -3.5 0 
" id="mdff48fabc7" style="stroke:#000000;stroke-width:0.8;"/>
      </defs>
      <g>
       <use style="stroke:#000000;stroke-width:0.8;" x="486.342187" xlink:href="#mdff48fabc7" y="165.407895"/>
      </g>
     </g>
     <g id="text_8">
      <!-- −1 -->
      <g transform="translate(21.7 169.207113)scale(0.1 -0.1)">
       <defs>
        <path d="M 10.59375 35.5 
L 73.1875 35.5 
L 73.1875 27.203125 
L 10.59375 27.203125 
z
" id="DejaVuSans-8722"/>
       </defs>
       <use xlink:href="#DejaVuSans-8722"/>
       <use x="83.789062" xlink:href="#DejaVuSans-49"/>
      </g>
     </g>
    </g>
    <g id="ytick_2">
     <g id="line2d_15">
      <g>
       <use style="stroke:#000000;stroke-width:0.8;" x="39.942188" xlink:href="#me182f4b140" y="138.530997"/>
      </g>
     </g>
     <g id="line2d_16">
      <g>
       <use style="stroke:#000000;stroke-width:0.8;" x="486.342187" xlink:href="#mdff48fabc7" y="138.530997"/>
      </g>
     </g>
     <g id="text_9">
      <!-- 0 -->
      <g transform="translate(30.079688 142.330215)scale(0.1 -0.1)">
       <defs>
        <path d="M 31.78125 66.40625 
Q 24.171875 66.40625 20.328125 58.90625 
Q 16.5 51.421875 16.5 36.375 
Q 16.5 21.390625 20.328125 13.890625 
Q 24.171875 6.390625 31.78125 6.390625 
Q 39.453125 6.390625 43.28125 13.890625 
Q 47.125 21.390625 47.125 36.375 
Q 47.125 51.421875 43.28125 58.90625 
Q 39.453125 66.40625 31.78125 66.40625 
z
M 31.78125 74.21875 
Q 44.046875 74.21875 50.515625 64.515625 
Q 56.984375 54.828125 56.984375 36.375 
Q 56.984375 17.96875 50.515625 8.265625 
Q 44.046875 -1.421875 31.78125 -1.421875 
Q 19.53125 -1.421875 13.0625 8.265625 
Q 6.59375 17.96875 6.59375 36.375 
Q 6.59375 54.828125 13.0625 64.515625 
Q 19.53125 74.21875 31.78125 74.21875 
z
" id="DejaVuSans-48"/>
       </defs>
       <use xlink:href="#DejaVuSans-48"/>
      </g>
     </g>
    </g>
    <g id="ytick_3">
     <g id="line2d_17">
      <g>
       <use style="stroke:#000000;stroke-width:0.8;" x="39.942188" xlink:href="#me182f4b140" y="111.654099"/>
      </g>
     </g>
     <g id="line2d_18">
      <g>
       <use style="stroke:#000000;stroke-width:0.8;" x="486.342187" xlink:href="#mdff48fabc7" y="111.654099"/>
      </g>
     </g>
     <g id="text_10">
      <!-- 1 -->
      <g transform="translate(30.079688 115.453317)scale(0.1 -0.1)">
       <use xlink:href="#DejaVuSans-49"/>
      </g>
     </g>
    </g>
    <g id="ytick_4">
     <g id="line2d_19">
      <g>
       <use style="stroke:#000000;stroke-width:0.8;" x="39.942188" xlink:href="#me182f4b140" y="84.777201"/>
      </g>
     </g>
     <g id="line2d_20">
      <g>
       <use style="stroke:#000000;stroke-width:0.8;" x="486.342187" xlink:href="#mdff48fabc7" y="84.777201"/>
      </g>
     </g>
     <g id="text_11">
      <!-- 2 -->
      <g transform="translate(30.079688 88.576419)scale(0.1 -0.1)">
       <use xlink:href="#DejaVuSans-50"/>
      </g>
     </g>
    </g>
    <g id="ytick_5">
     <g id="line2d_21">
      <g>
       <use style="stroke:#000000;stroke-width:0.8;" x="39.942188" xlink:href="#me182f4b140" y="57.900303"/>
      </g>
     </g>
     <g id="line2d_22">
      <g>
       <use style="stroke:#000000;stroke-width:0.8;" x="486.342187" xlink:href="#mdff48fabc7" y="57.900303"/>
      </g>
     </g>
     <g id="text_12">
      <!-- 3 -->
      <g transform="translate(30.079688 61.699521)scale(0.1 -0.1)">
       <use xlink:href="#DejaVuSans-51"/>
      </g>
     </g>
    </g>
    <g id="ytick_6">
     <g id="line2d_23">
      <g>
       <use style="stroke:#000000;stroke-width:0.8;" x="39.942188" xlink:href="#me182f4b140" y="31.023405"/>
      </g>
     </g>
     <g id="line2d_24">
      <g>
       <use style="stroke:#000000;stroke-width:0.8;" x="486.342187" xlink:href="#mdff48fabc7" y="31.023405"/>
      </g>
     </g>
     <g id="text_13">
      <!-- 4 -->
      <g transform="translate(30.079688 34.822623)scale(0.1 -0.1)">
       <use xlink:href="#DejaVuSans-52"/>
      </g>
     </g>
    </g>
    <g id="text_14">
     <!-- Shifted $\delta^{18}$O (‰) -->
     <g transform="translate(15.620313 132.19)rotate(-90)scale(0.1 -0.1)">
      <defs>
       <path d="M 53.515625 70.515625 
L 53.515625 60.890625 
Q 47.90625 63.578125 42.921875 64.890625 
Q 37.9375 66.21875 33.296875 66.21875 
Q 25.25 66.21875 20.875 63.09375 
Q 16.5 59.96875 16.5 54.203125 
Q 16.5 49.359375 19.40625 46.890625 
Q 22.3125 44.4375 30.421875 42.921875 
L 36.375 41.703125 
Q 47.40625 39.59375 52.65625 34.296875 
Q 57.90625 29 57.90625 20.125 
Q 57.90625 9.515625 50.796875 4.046875 
Q 43.703125 -1.421875 29.984375 -1.421875 
Q 24.8125 -1.421875 18.96875 -0.25 
Q 13.140625 0.921875 6.890625 3.21875 
L 6.890625 13.375 
Q 12.890625 10.015625 18.65625 8.296875 
Q 24.421875 6.59375 29.984375 6.59375 
Q 38.421875 6.59375 43.015625 9.90625 
Q 47.609375 13.234375 47.609375 19.390625 
Q 47.609375 24.75 44.3125 27.78125 
Q 41.015625 30.8125 33.5 32.328125 
L 27.484375 33.5 
Q 16.453125 35.6875 11.515625 40.375 
Q 6.59375 45.0625 6.59375 53.421875 
Q 6.59375 63.09375 13.40625 68.65625 
Q 20.21875 74.21875 32.171875 74.21875 
Q 37.3125 74.21875 42.625 73.28125 
Q 47.953125 72.359375 53.515625 70.515625 
z
" id="DejaVuSans-83"/>
       <path d="M 54.890625 33.015625 
L 54.890625 0 
L 45.90625 0 
L 45.90625 32.71875 
Q 45.90625 40.484375 42.875 44.328125 
Q 39.84375 48.1875 33.796875 48.1875 
Q 26.515625 48.1875 22.3125 43.546875 
Q 18.109375 38.921875 18.109375 30.90625 
L 18.109375 0 
L 9.078125 0 
L 9.078125 75.984375 
L 18.109375 75.984375 
L 18.109375 46.1875 
Q 21.34375 51.125 25.703125 53.5625 
Q 30.078125 56 35.796875 56 
Q 45.21875 56 50.046875 50.171875 
Q 54.890625 44.34375 54.890625 33.015625 
z
" id="DejaVuSans-104"/>
       <path d="M 37.109375 75.984375 
L 37.109375 68.5 
L 28.515625 68.5 
Q 23.6875 68.5 21.796875 66.546875 
Q 19.921875 64.59375 19.921875 59.515625 
L 19.921875 54.6875 
L 34.71875 54.6875 
L 34.71875 47.703125 
L 19.921875 47.703125 
L 19.921875 0 
L 10.890625 0 
L 10.890625 47.703125 
L 2.296875 47.703125 
L 2.296875 54.6875 
L 10.890625 54.6875 
L 10.890625 58.5 
Q 10.890625 67.625 15.140625 71.796875 
Q 19.390625 75.984375 28.609375 75.984375 
z
" id="DejaVuSans-102"/>
       <path d="M 18.3125 70.21875 
L 18.3125 54.6875 
L 36.8125 54.6875 
L 36.8125 47.703125 
L 18.3125 47.703125 
L 18.3125 18.015625 
Q 18.3125 11.328125 20.140625 9.421875 
Q 21.96875 7.515625 27.59375 7.515625 
L 36.8125 7.515625 
L 36.8125 0 
L 27.59375 0 
Q 17.1875 0 13.234375 3.875 
Q 9.28125 7.765625 9.28125 18.015625 
L 9.28125 47.703125 
L 2.6875 47.703125 
L 2.6875 54.6875 
L 9.28125 54.6875 
L 9.28125 70.21875 
z
" id="DejaVuSans-116"/>
       <path d="M 45.40625 46.390625 
L 45.40625 75.984375 
L 54.390625 75.984375 
L 54.390625 0 
L 45.40625 0 
L 45.40625 8.203125 
Q 42.578125 3.328125 38.25 0.953125 
Q 33.9375 -1.421875 27.875 -1.421875 
Q 17.96875 -1.421875 11.734375 6.484375 
Q 5.515625 14.40625 5.515625 27.296875 
Q 5.515625 40.1875 11.734375 48.09375 
Q 17.96875 56 27.875 56 
Q 33.9375 56 38.25 53.625 
Q 42.578125 51.265625 45.40625 46.390625 
z
M 14.796875 27.296875 
Q 14.796875 17.390625 18.875 11.75 
Q 22.953125 6.109375 30.078125 6.109375 
Q 37.203125 6.109375 41.296875 11.75 
Q 45.40625 17.390625 45.40625 27.296875 
Q 45.40625 37.203125 41.296875 42.84375 
Q 37.203125 48.484375 30.078125 48.484375 
Q 22.953125 48.484375 18.875 42.84375 
Q 14.796875 37.203125 14.796875 27.296875 
z
" id="DejaVuSans-100"/>
       <path d="M 54.25 63.328125 
Q 49.953125 66.75 38.28125 66.75 
Q 25.921875 66.75 24.8125 61.03125 
Q 23.921875 56.546875 36.375 54.203125 
Q 46.140625 52.390625 50.828125 46.921875 
Q 56.5 40.328125 53.859375 26.8125 
Q 51.3125 13.875 43.171875 6.25 
Q 34.96875 -1.421875 23.25 -1.421875 
Q 11.578125 -1.421875 6.34375 6.25 
Q 1.125 13.875 3.765625 27.296875 
Q 5.671875 37.25 13.921875 45.3125 
Q 17.140625 48.4375 21.140625 50.203125 
Q 14.265625 54.046875 15.625 60.9375 
Q 18.21875 74.21875 39.75 74.21875 
Q 50.53125 74.21875 55.71875 70.796875 
z
M 27.390625 47.75 
Q 23.828125 46.34375 20.40625 42.78125 
Q 15.140625 37.25 13.234375 27.296875 
Q 11.28125 17.390625 14.359375 11.8125 
Q 17.484375 6.203125 24.75 6.203125 
Q 31.9375 6.203125 37.203125 11.859375 
Q 42.53125 17.53125 44.34375 26.8125 
Q 46.1875 36.53125 42.671875 41.21875 
Q 38.921875 46.234375 32.859375 46.78125 
Q 29.78125 47.078125 27.390625 47.75 
z
" id="DejaVuSans-Oblique-948"/>
       <path d="M 31.78125 34.625 
Q 24.75 34.625 20.71875 30.859375 
Q 16.703125 27.09375 16.703125 20.515625 
Q 16.703125 13.921875 20.71875 10.15625 
Q 24.75 6.390625 31.78125 6.390625 
Q 38.8125 6.390625 42.859375 10.171875 
Q 46.921875 13.96875 46.921875 20.515625 
Q 46.921875 27.09375 42.890625 30.859375 
Q 38.875 34.625 31.78125 34.625 
z
M 21.921875 38.8125 
Q 15.578125 40.375 12.03125 44.71875 
Q 8.5 49.078125 8.5 55.328125 
Q 8.5 64.0625 14.71875 69.140625 
Q 20.953125 74.21875 31.78125 74.21875 
Q 42.671875 74.21875 48.875 69.140625 
Q 55.078125 64.0625 55.078125 55.328125 
Q 55.078125 49.078125 51.53125 44.71875 
Q 48 40.375 41.703125 38.8125 
Q 48.828125 37.15625 52.796875 32.3125 
Q 56.78125 27.484375 56.78125 20.515625 
Q 56.78125 9.90625 50.3125 4.234375 
Q 43.84375 -1.421875 31.78125 -1.421875 
Q 19.734375 -1.421875 13.25 4.234375 
Q 6.78125 9.90625 6.78125 20.515625 
Q 6.78125 27.484375 10.78125 32.3125 
Q 14.796875 37.15625 21.921875 38.8125 
z
M 18.3125 54.390625 
Q 18.3125 48.734375 21.84375 45.5625 
Q 25.390625 42.390625 31.78125 42.390625 
Q 38.140625 42.390625 41.71875 45.5625 
Q 45.3125 48.734375 45.3125 54.390625 
Q 45.3125 60.0625 41.71875 63.234375 
Q 38.140625 66.40625 31.78125 66.40625 
Q 25.390625 66.40625 21.84375 63.234375 
Q 18.3125 60.0625 18.3125 54.390625 
z
" id="DejaVuSans-56"/>
       <path d="M 39.40625 66.21875 
Q 28.65625 66.21875 22.328125 58.203125 
Q 16.015625 50.203125 16.015625 36.375 
Q 16.015625 22.609375 22.328125 14.59375 
Q 28.65625 6.59375 39.40625 6.59375 
Q 50.140625 6.59375 56.421875 14.59375 
Q 62.703125 22.609375 62.703125 36.375 
Q 62.703125 50.203125 56.421875 58.203125 
Q 50.140625 66.21875 39.40625 66.21875 
z
M 39.40625 74.21875 
Q 54.734375 74.21875 63.90625 63.9375 
Q 73.09375 53.65625 73.09375 36.375 
Q 73.09375 19.140625 63.90625 8.859375 
Q 54.734375 -1.421875 39.40625 -1.421875 
Q 24.03125 -1.421875 14.8125 8.828125 
Q 5.609375 19.09375 5.609375 36.375 
Q 5.609375 53.65625 14.8125 63.9375 
Q 24.03125 74.21875 39.40625 74.21875 
z
" id="DejaVuSans-79"/>
       <path d="M 111.921875 32.078125 
Q 107.671875 32.078125 105.21875 28.46875 
Q 102.78125 24.859375 102.78125 18.40625 
Q 102.78125 12.0625 105.21875 8.421875 
Q 107.671875 4.78125 111.921875 4.78125 
Q 116.0625 4.78125 118.484375 8.421875 
Q 120.90625 12.0625 120.90625 18.40625 
Q 120.90625 24.8125 118.484375 28.4375 
Q 116.0625 32.078125 111.921875 32.078125 
z
M 111.921875 38.28125 
Q 119.625 38.28125 124.171875 32.90625 
Q 128.71875 27.546875 128.71875 18.40625 
Q 128.71875 9.28125 124.140625 3.921875 
Q 119.578125 -1.421875 111.921875 -1.421875 
Q 104.109375 -1.421875 99.5625 3.921875 
Q 95.015625 9.28125 95.015625 18.40625 
Q 95.015625 27.59375 99.578125 32.9375 
Q 104.15625 38.28125 111.921875 38.28125 
z
M 22.3125 74.21875 
Q 30.03125 74.21875 34.609375 68.875 
Q 39.203125 63.53125 39.203125 54.390625 
Q 39.203125 45.171875 34.640625 39.84375 
Q 30.078125 34.515625 22.3125 34.515625 
Q 14.546875 34.515625 10.03125 39.859375 
Q 5.515625 45.21875 5.515625 54.390625 
Q 5.515625 63.484375 10.046875 68.84375 
Q 14.59375 74.21875 22.3125 74.21875 
z
M 66.40625 74.21875 
L 74.21875 74.21875 
L 28.609375 -1.421875 
L 20.796875 -1.421875 
z
M 22.3125 68.015625 
Q 18.109375 68.015625 15.6875 64.375 
Q 13.28125 60.75 13.28125 54.390625 
Q 13.28125 47.953125 15.671875 44.328125 
Q 18.0625 40.71875 22.3125 40.71875 
Q 26.5625 40.71875 28.96875 44.328125 
Q 31.390625 47.953125 31.390625 54.390625 
Q 31.390625 60.6875 28.953125 64.34375 
Q 26.515625 68.015625 22.3125 68.015625 
z
M 72.703125 38.28125 
Q 80.421875 38.28125 84.953125 32.90625 
Q 89.5 27.546875 89.5 18.40625 
Q 89.5 9.28125 84.9375 3.921875 
Q 80.375 -1.421875 72.703125 -1.421875 
Q 64.890625 -1.421875 60.34375 3.921875 
Q 55.8125 9.28125 55.8125 18.40625 
Q 55.8125 27.59375 60.375 32.9375 
Q 64.9375 38.28125 72.703125 38.28125 
z
M 72.703125 32.078125 
Q 68.453125 32.078125 66.03125 28.46875 
Q 63.625 24.859375 63.625 18.40625 
Q 63.625 12.0625 66.03125 8.421875 
Q 68.453125 4.78125 72.703125 4.78125 
Q 76.859375 4.78125 79.265625 8.421875 
Q 81.6875 12.0625 81.6875 18.40625 
Q 81.6875 24.8125 79.265625 28.4375 
Q 76.859375 32.078125 72.703125 32.078125 
z
" id="DejaVuSans-8240"/>
      </defs>
      <use transform="translate(0 0.765625)" xlink:href="#DejaVuSans-83"/>
      <use transform="translate(63.476562 0.765625)" xlink:href="#DejaVuSans-104"/>
      <use transform="translate(126.855469 0.765625)" xlink:href="#DejaVuSans-105"/>
      <use transform="translate(154.638672 0.765625)" xlink:href="#DejaVuSans-102"/>
      <use transform="translate(189.84375 0.765625)" xlink:href="#DejaVuSans-116"/>
      <use transform="translate(229.052734 0.765625)" xlink:href="#DejaVuSans-101"/>
      <use transform="translate(290.576172 0.765625)" xlink:href="#DejaVuSans-100"/>
      <use transform="translate(354.052734 0.765625)" xlink:href="#DejaVuSans-32"/>
      <use transform="translate(385.839844 0.765625)" xlink:href="#DejaVuSans-Oblique-948"/>
      <use transform="translate(454.222005 39.046875)scale(0.7)" xlink:href="#DejaVuSans-49"/>
      <use transform="translate(498.758138 39.046875)scale(0.7)" xlink:href="#DejaVuSans-56"/>
      <use transform="translate(546.028646 0.765625)" xlink:href="#DejaVuSans-79"/>
      <use transform="translate(624.739583 0.765625)" xlink:href="#DejaVuSans-32"/>
      <use transform="translate(656.526693 0.765625)" xlink:href="#DejaVuSans-40"/>
      <use transform="translate(695.540365 0.765625)" xlink:href="#DejaVuSans-8240"/>
      <use transform="translate(829.720052 0.765625)" xlink:href="#DejaVuSans-41"/>
     </g>
    </g>
   </g>
   <g id="line2d_25">
    <path clip-path="url(#pc09bfd129d)" d="M 60.233097 126.385323 
L 61.122074 129.109104 
L 61.93697 130.884645 
L 62.677784 131.962188 
L 63.344517 132.541006 
L 63.937169 132.777462 
L 64.529821 132.780896 
L 65.196554 132.540494 
L 65.937368 132.016009 
L 66.826346 131.102338 
L 68.08573 129.449348 
L 71.345314 124.974046 
L 71.419396 124.926751 
L 71.493477 125.05635 
L 71.64164 124.862122 
L 71.863884 125.446545 
L 71.937966 125.282552 
L 72.012047 125.326227 
L 72.086129 125.238572 
L 72.308373 124.730025 
L 72.456536 124.784042 
L 72.752862 125.965941 
L 72.826943 125.987919 
L 73.049187 125.619133 
L 73.271432 126.456381 
L 73.345513 126.54784 
L 73.419595 126.43823 
L 73.71592 125.023086 
L 73.864083 124.583527 
L 73.938165 124.500426 
L 74.160409 125.468242 
L 74.234491 125.437711 
L 74.308572 125.702417 
L 74.382653 125.484074 
L 74.456735 125.602079 
L 74.827142 126.819253 
L 75.123468 127.513858 
L 75.197549 127.539476 
L 75.271631 127.75971 
L 75.345712 127.705341 
L 75.567957 127.381049 
L 75.642038 127.512256 
L 76.160608 129.310676 
L 76.382853 129.121773 
L 76.456934 128.843916 
L 76.531016 128.989238 
L 76.75326 129.593198 
L 77.197749 131.869717 
L 77.642237 132.772956 
L 77.864482 133.700989 
L 77.938563 133.802622 
L 78.160807 133.236313 
L 78.457133 134.118422 
L 78.605296 134.971689 
L 80.235088 149.5128 
L 80.605495 150.529937 
L 80.679577 150.386125 
L 80.753658 150.456319 
L 80.975903 151.17942 
L 81.049984 150.998578 
L 81.642636 148.202409 
L 81.938961 149.28954 
L 82.087124 149.481396 
L 82.161206 149.480952 
L 82.753857 147.345561 
L 82.827939 147.504372 
L 82.976102 147.230867 
L 83.050183 147.087356 
L 83.124265 147.16283 
L 83.494672 148.15237 
L 83.568753 147.953405 
L 84.013242 149.303956 
L 84.235486 148.460552 
L 84.605894 146.033142 
L 84.679975 145.972017 
L 84.754056 145.745217 
L 84.828138 145.832253 
L 84.902219 145.821905 
L 84.976301 145.666565 
L 85.124464 145.770038 
L 85.198545 145.530614 
L 85.272627 145.695148 
L 85.346708 145.578114 
L 85.494871 146.032414 
L 85.643034 145.784489 
L 85.791197 146.36775 
L 85.865278 146.282477 
L 86.087523 146.120378 
L 86.45793 147.393353 
L 86.680174 146.976928 
L 86.828337 147.353458 
L 87.050581 148.305758 
L 87.272826 148.143076 
L 87.346907 148.211475 
L 87.49507 147.821215 
L 87.569152 147.903881 
L 87.939559 148.859111 
L 88.01364 148.890337 
L 88.087722 148.739152 
L 88.235885 147.758253 
L 88.309966 147.828732 
L 88.458129 147.747373 
L 88.53221 147.774217 
L 88.680373 147.460689 
L 88.828536 147.920723 
L 88.902618 147.857168 
L 89.198943 147.478677 
L 89.347106 147.696687 
L 89.569351 147.414618 
L 89.643432 147.6249 
L 89.791595 147.235484 
L 90.013839 146.503691 
L 90.458328 145.074957 
L 90.606491 144.882765 
L 91.05098 143.038031 
L 91.273224 143.501174 
L 91.421387 143.229937 
L 91.56955 143.148666 
L 92.014039 144.968207 
L 92.08812 144.830216 
L 92.236283 144.980995 
L 92.310364 144.938751 
L 92.384446 145.069028 
L 92.680772 144.512738 
L 93.12526 141.91411 
L 93.495668 140.023657 
L 93.569749 139.890863 
L 94.236482 141.00835 
L 94.384645 141.012375 
L 94.458726 141.13998 
L 94.680971 140.662627 
L 95.051378 139.365546 
L 95.273622 138.82984 
L 96.014437 133.645053 
L 96.310763 133.371056 
L 96.458926 132.38089 
L 96.68117 131.47058 
L 96.755251 131.346729 
L 97.125659 128.708431 
L 97.347903 127.669268 
L 97.496066 127.218295 
L 97.644229 126.697459 
L 97.71831 126.685731 
L 98.088717 125.455208 
L 98.23688 125.666226 
L 98.310962 125.610507 
L 98.533206 126.396879 
L 99.051776 129.321648 
L 99.199939 129.871344 
L 99.570346 130.99929 
L 99.644428 131.049664 
L 99.792591 131.315223 
L 99.940754 131.023437 
L 100.162998 130.643671 
L 100.385242 130.910632 
L 100.459324 130.780284 
L 100.533405 130.578322 
L 100.607487 130.622042 
L 100.681568 130.609622 
L 100.903813 131.140721 
L 101.496464 128.600194 
L 102.237279 122.680947 
L 102.459523 121.712259 
L 102.904012 122.134615 
L 102.978093 122.370526 
L 103.274419 121.731419 
L 103.422582 122.337295 
L 103.718908 123.764597 
L 104.163396 125.504836 
L 104.237478 125.3598 
L 104.607885 123.865888 
L 104.756048 123.698514 
L 104.978292 124.0153 
L 105.274618 125.41422 
L 105.348699 125.390932 
L 105.793188 124.126871 
L 105.86727 124.40473 
L 105.941351 124.362098 
L 106.163595 123.870859 
L 106.38584 122.784424 
L 106.459921 122.682889 
L 106.756247 123.005313 
L 106.90441 122.634385 
L 106.978491 122.742725 
L 107.052573 122.802656 
L 107.200736 122.591503 
L 107.274817 122.825094 
L 107.348899 122.680776 
L 107.42298 122.768798 
L 107.571143 122.829933 
L 107.793387 123.425286 
L 107.94155 123.731898 
L 108.089713 123.397948 
L 108.163795 123.476185 
L 108.756446 124.94348 
L 109.052772 126.138855 
L 109.275016 126.269776 
L 109.497261 126.152997 
L 109.719505 126.790334 
L 110.608482 133.934903 
L 110.682564 133.888441 
L 110.904808 133.260157 
L 111.052971 133.700278 
L 111.275215 135.030967 
L 111.49746 135.276322 
L 111.941949 137.245298 
L 112.164193 137.697771 
L 112.238274 137.676673 
L 112.312356 137.523209 
L 112.386437 137.606414 
L 112.460519 137.719909 
L 112.905007 136.509464 
L 113.05317 136.664346 
L 113.201333 137.13607 
L 113.349496 136.650493 
L 113.645822 136.122815 
L 113.719903 136.117145 
L 113.942148 135.543163 
L 114.312555 133.310387 
L 114.905207 134.775778 
L 115.201532 134.681664 
L 115.57194 133.773147 
L 115.646021 133.845817 
L 115.868265 133.274383 
L 116.09051 132.280586 
L 116.238673 131.748224 
L 116.979487 129.392676 
L 117.12765 129.648117 
L 117.201731 129.468583 
L 117.275813 129.582507 
L 117.423976 128.926757 
L 117.572139 128.5518 
L 117.794383 129.189758 
L 117.868465 129.109969 
L 118.016627 129.323937 
L 118.461116 127.850751 
L 118.68336 127.276655 
L 118.905605 128.256764 
L 118.979686 128.231424 
L 119.127849 127.869534 
L 119.942745 130.645262 
L 120.68356 134.14497 
L 120.831722 134.108437 
L 121.128048 133.313685 
L 121.20213 133.381655 
L 121.350293 133.128271 
L 121.572537 133.356345 
L 121.7207 133.371195 
L 122.017026 134.812608 
L 122.165189 135.424987 
L 122.313351 136.195212 
L 122.387433 136.172777 
L 122.461514 136.14801 
L 122.75784 136.80262 
L 123.202329 138.303755 
L 124.017225 144.618332 
L 124.239469 146.309343 
L 124.683958 150.059857 
L 124.906202 150.951173 
L 125.202528 151.507736 
L 125.350691 151.350896 
L 125.424772 151.517093 
L 125.498854 151.419899 
L 125.647017 151.509903 
L 125.79518 151.394382 
L 126.610076 148.579175 
L 127.276809 146.978847 
L 127.795379 144.043394 
L 128.091705 142.872728 
L 129.128845 135.94242 
L 129.425171 133.945609 
L 129.795578 130.847604 
L 129.943741 130.110373 
L 130.314148 127.783202 
L 130.462311 126.970333 
L 131.277207 119.930195 
L 131.721696 116.383491 
L 131.795777 116.214704 
L 132.166184 112.335159 
L 132.758836 103.062988 
L 134.610872 78.181701 
L 135.351687 67.764985 
L 135.648012 64.972516 
L 135.944338 61.701954 
L 136.314746 57.026318 
L 136.53699 54.901861 
L 136.907397 49.249144 
L 137.425967 41.551614 
L 139.055759 27.34613 
L 139.426166 24.295412 
L 140.759632 16.93137 
L 140.833714 16.989025 
L 140.981877 16.357653 
L 141.352284 14.612727 
L 141.64861 14.866709 
L 141.870854 15.407895 
L 142.093099 15.891847 
L 142.463506 17.367161 
L 142.907995 17.526178 
L 143.056157 18.103871 
L 144.093298 23.349399 
L 144.537786 24.265595 
L 144.834112 26.285035 
L 145.574927 30.417075 
L 145.797171 30.629625 
L 145.945334 31.078162 
L 146.389823 31.663018 
L 146.463904 32.064014 
L 146.537986 32.016191 
L 146.612067 31.896772 
L 146.908393 32.601418 
L 147.204719 31.807381 
L 147.2788 31.868997 
L 147.352882 31.727703 
L 147.426963 31.814963 
L 147.945533 33.865695 
L 148.167777 33.529488 
L 148.686348 31.922537 
L 148.834511 32.231968 
L 148.908592 32.099322 
L 149.130836 31.723456 
L 149.278999 32.012448 
L 150.019814 35.664852 
L 150.538384 34.701183 
L 150.612465 34.804232 
L 150.760628 34.885182 
L 150.908791 34.636817 
L 151.501443 37.066753 
L 153.501642 50.153115 
L 153.797968 52.558184 
L 154.168375 54.884088 
L 154.464701 56.181392 
L 154.835108 57.909113 
L 155.057352 58.92217 
L 155.798167 63.694472 
L 156.020411 65.07499 
L 157.650203 75.266563 
L 157.872447 77.427308 
L 158.168773 78.575453 
L 158.53918 82.05904 
L 159.205913 85.733567 
L 159.650402 88.674476 
L 160.020809 91.982422 
L 160.909787 102.945264 
L 161.206113 104.336856 
L 161.280194 104.495171 
L 161.724683 106.943764 
L 162.465497 108.698423 
L 162.539579 108.758081 
L 162.761823 109.982018 
L 163.058149 112.405021 
L 163.13223 112.612742 
L 163.798963 118.3826 
L 164.021208 119.74394 
L 164.613859 123.979679 
L 164.984267 124.440716 
L 165.651 128.945059 
L 165.725081 128.949444 
L 165.947325 129.56932 
L 166.095488 129.804715 
L 166.16957 129.828698 
L 166.836303 132.539421 
L 166.984466 132.717907 
L 167.132629 132.560529 
L 167.280792 133.418989 
L 167.503036 134.565341 
L 167.577117 134.851993 
L 167.72528 133.921312 
L 167.947525 133.06381 
L 168.021606 133.023523 
L 168.466095 134.172499 
L 168.688339 135.020187 
L 168.76242 134.900802 
L 168.910583 135.268799 
L 169.058746 134.41945 
L 169.206909 133.497537 
L 169.280991 133.549277 
L 169.355072 133.341933 
L 169.429154 133.505799 
L 169.725479 133.112771 
L 170.095887 130.769961 
L 170.318131 129.904356 
L 170.540375 129.753589 
L 170.688538 130.438403 
L 170.910783 131.56115 
L 170.984864 131.610453 
L 171.207108 130.943126 
L 171.503434 131.660183 
L 171.577516 131.515716 
L 171.651597 131.581629 
L 171.725678 131.553027 
L 172.31833 128.943585 
L 172.392412 129.0196 
L 172.540574 129.623056 
L 172.8369 131.084167 
L 173.133226 132.475283 
L 173.799959 136.268714 
L 173.948122 136.532993 
L 174.022203 136.480537 
L 174.096285 136.747126 
L 174.170366 136.726092 
L 174.688936 135.389671 
L 174.837099 135.472365 
L 175.059344 136.08201 
L 175.281588 136.70246 
L 175.651995 137.195253 
L 176.170565 135.10645 
L 176.318728 134.841778 
L 176.689136 136.213938 
L 176.763217 136.007463 
L 176.837299 136.084838 
L 177.207706 136.607027 
L 177.800357 134.798389 
L 178.096683 135.091789 
L 178.170765 134.942705 
L 178.244846 134.989087 
L 178.46709 135.254145 
L 178.615253 135.446304 
L 178.837498 135.88222 
L 178.985661 135.598703 
L 179.207905 134.35193 
L 179.356068 134.734909 
L 179.800557 136.765905 
L 180.022801 136.19244 
L 180.096882 135.819418 
L 180.170964 135.906337 
L 180.319127 136.323624 
L 180.689534 138.257745 
L 181.356267 141.656515 
L 181.578511 141.415744 
L 181.726674 141.737417 
L 181.874837 141.271686 
L 181.948919 141.445343 
L 182.023 141.403221 
L 182.097081 141.563669 
L 182.319326 140.915514 
L 182.615652 139.599313 
L 182.986059 136.468822 
L 183.282385 134.592421 
L 183.430548 134.329564 
L 183.57871 134.771972 
L 184.097281 137.314562 
L 184.171362 137.141068 
L 184.245443 137.328586 
L 184.393606 137.209282 
L 184.689932 137.746582 
L 185.801154 143.882127 
L 185.875235 143.937406 
L 186.09748 144.691442 
L 186.245643 144.297333 
L 186.986457 141.730198 
L 187.208701 142.948288 
L 187.356864 143.613086 
L 187.430946 143.748012 
L 187.505027 143.696698 
L 187.65319 143.505361 
L 187.801353 143.813862 
L 188.023597 143.457893 
L 188.468086 142.491488 
L 188.616249 142.334005 
L 188.912575 140.730029 
L 189.060738 140.573681 
L 189.357064 140.5616 
L 189.505226 140.886199 
L 189.801552 139.786672 
L 189.875634 139.919091 
L 190.394204 143.100989 
L 190.616448 143.200982 
L 190.838693 142.621179 
L 191.135018 141.106893 
L 191.357263 140.137262 
L 191.431344 140.160368 
L 191.505426 139.997674 
L 191.653588 140.14004 
L 191.949914 139.398299 
L 192.172159 140.003047 
L 192.468484 139.731933 
L 192.690729 139.435759 
L 192.76481 139.068857 
L 192.838892 139.176257 
L 192.912973 139.241557 
L 193.431543 137.565975 
L 193.505625 137.622612 
L 193.801951 137.286001 
L 194.172358 135.772382 
L 194.320521 135.724839 
L 194.394602 135.57075 
L 194.468684 135.697562 
L 194.765009 137.043814 
L 194.913172 136.786866 
L 195.061335 136.622384 
L 195.431742 135.599616 
L 195.653987 136.11856 
L 196.098475 134.659253 
L 196.617046 133.037165 
L 196.765209 132.921664 
L 197.061534 133.481712 
L 197.209697 133.629547 
L 197.431942 133.171822 
L 197.950512 130.775621 
L 198.024593 130.882262 
L 198.098675 130.754302 
L 198.469082 132.074387 
L 198.543163 132.336969 
L 198.617245 132.298402 
L 198.913571 130.642398 
L 199.135815 129.860752 
L 199.432141 129.132455 
L 199.580304 129.373418 
L 199.876629 130.05339 
L 200.469281 129.157961 
L 200.617444 129.561278 
L 200.91377 129.057025 
L 200.987851 129.244621 
L 201.136014 129.070895 
L 201.284177 129.14029 
L 201.580503 129.695632 
L 201.728666 129.240953 
L 201.802747 129.362301 
L 201.95091 129.135698 
L 202.024991 129.218806 
L 202.173154 130.152403 
L 202.395399 131.276623 
L 202.617643 131.65065 
L 202.913969 130.60283 
L 202.98805 130.724329 
L 203.284376 131.209365 
L 203.50662 131.391585 
L 203.580702 131.518217 
L 203.951109 133.16489 
L 204.173353 133.841202 
L 204.247435 133.705846 
L 204.469679 134.031254 
L 204.543761 133.82012 
L 204.617842 133.906723 
L 204.988249 134.823619 
L 206.099471 140.82882 
L 206.173553 140.923773 
L 206.321716 140.366059 
L 206.395797 140.545031 
L 207.06253 144.536757 
L 207.136611 144.798275 
L 207.358856 144.015953 
L 207.803345 141.004978 
L 207.951507 140.823896 
L 208.395996 139.900793 
L 209.284974 142.735292 
L 209.507218 142.728744 
L 209.951707 140.736764 
L 210.322114 138.585007 
L 211.211091 141.428015 
L 211.285173 141.485282 
L 211.729661 141.078882 
L 211.877824 141.56496 
L 212.396394 143.276584 
L 212.840883 142.642917 
L 213.359453 139.610386 
L 214.026186 135.901486 
L 214.100268 135.895675 
L 214.618838 133.177875 
L 214.841082 133.743152 
L 215.21149 132.156269 
L 215.655978 130.641301 
L 215.73006 130.663539 
L 216.026385 129.179011 
L 216.174548 129.354746 
L 216.396793 129.412507 
L 216.544956 128.950784 
L 217.359852 126.204239 
L 217.433933 126.041696 
L 217.582096 126.640635 
L 217.656177 126.412987 
L 217.730259 126.556787 
L 217.952503 126.303874 
L 218.248829 127.502136 
L 218.32291 127.648492 
L 218.396992 127.580439 
L 218.471073 127.594196 
L 218.693318 128.520964 
L 218.915562 129.416014 
L 219.063725 129.902894 
L 219.285969 130.778331 
L 219.434132 130.670757 
L 219.656376 130.169547 
L 219.804539 129.557674 
L 219.952702 129.647575 
L 220.026784 129.60054 
L 220.174947 129.903925 
L 220.471272 129.24473 
L 220.915761 126.665598 
L 220.989843 126.619782 
L 221.063924 126.422101 
L 221.138005 126.477877 
L 221.36025 126.868977 
L 221.952901 125.085601 
L 222.026983 125.208354 
L 222.175146 125.885054 
L 222.841879 130.984045 
L 222.91596 131.050648 
L 223.212286 132.482242 
L 223.360449 132.529249 
L 223.730856 133.272125 
L 223.879019 132.993152 
L 224.471671 134.179003 
L 224.545752 134.256787 
L 224.693915 134.114365 
L 224.916159 134.460938 
L 225.138404 135.317448 
L 225.43473 134.962823 
L 225.656974 135.190203 
L 225.805137 135.167163 
L 226.323707 136.736165 
L 226.397788 136.579311 
L 226.47187 136.63081 
L 226.620033 136.806906 
L 226.768196 136.790273 
L 227.064521 137.784133 
L 227.138603 137.703046 
L 227.286766 138.179117 
L 227.360847 138.125925 
L 227.50901 137.798979 
L 227.583092 137.845049 
L 227.879417 138.682906 
L 227.953499 138.785813 
L 228.472069 137.119696 
L 228.620232 137.309061 
L 228.694313 137.209335 
L 229.509209 133.756216 
L 229.583291 133.843653 
L 229.731454 135.349008 
L 230.027779 138.454212 
L 230.250024 139.017389 
L 230.472268 139.294108 
L 230.990838 140.657666 
L 231.139001 141.560784 
L 231.213083 141.468388 
L 231.657571 143.04543 
L 231.805734 143.146746 
L 231.953897 143.439273 
L 232.10206 143.211929 
L 232.176141 143.426603 
L 232.472467 145.017264 
L 232.62063 145.389829 
L 232.694712 145.303577 
L 232.842875 145.523035 
L 233.065119 144.788552 
L 233.213282 144.155828 
L 233.361445 144.146331 
L 233.509608 144.186032 
L 233.583689 144.254621 
L 233.65777 144.119335 
L 233.805933 144.641373 
L 234.028178 145.185455 
L 234.102259 144.79297 
L 234.176341 144.812077 
L 234.250422 144.873115 
L 234.324504 144.721392 
L 234.768992 141.599617 
L 235.213481 139.286731 
L 235.287562 139.333413 
L 235.583888 139.954954 
L 235.65797 140.048649 
L 235.954295 140.946122 
L 236.028377 140.974733 
L 236.324703 141.607219 
L 236.398784 141.513127 
L 236.472866 141.712796 
L 236.69511 140.638361 
L 236.917354 139.316104 
L 237.139599 137.440757 
L 237.287762 137.190139 
L 237.361843 137.312814 
L 237.584087 136.451186 
L 237.658169 136.03064 
L 237.73225 136.079762 
L 238.028576 135.456001 
L 238.102657 135.57928 
L 238.25082 136.219137 
L 238.398983 135.727485 
L 238.473065 135.943702 
L 238.695309 135.655981 
L 238.769391 135.67789 
L 239.287961 137.002278 
L 239.362042 137.048089 
L 239.510205 137.627209 
L 239.806531 139.804815 
L 240.028775 139.976505 
L 240.25102 139.468217 
L 240.473264 138.417084 
L 240.621427 138.125591 
L 240.695508 138.323596 
L 240.917753 138.980897 
L 241.362241 138.188622 
L 241.584486 136.639713 
L 241.880811 135.770196 
L 242.103056 136.089078 
L 242.3253 135.396935 
L 242.399382 135.293683 
L 242.547544 134.74303 
L 242.695707 135.064838 
L 242.992033 137.185399 
L 243.140196 138.11027 
L 243.214278 138.087282 
L 243.288359 137.885996 
L 243.36244 138.038045 
L 243.732848 137.46738 
L 244.103255 139.284102 
L 244.621825 141.893447 
L 244.918151 141.777381 
L 245.288558 142.507726 
L 245.584884 141.911053 
L 245.658965 142.238819 
L 245.733047 142.133388 
L 246.029373 142.56187 
L 246.547943 144.667375 
L 246.844269 144.982284 
L 247.140594 146.146979 
L 247.214676 145.855793 
L 247.43692 145.504682 
L 247.511002 145.590477 
L 247.585083 145.512573 
L 247.95549 143.942942 
L 248.177735 144.52776 
L 248.399979 144.407024 
L 248.548142 144.126823 
L 248.844468 145.22052 
L 249.140793 146.722506 
L 249.437119 147.365164 
L 249.511201 147.347824 
L 249.585282 147.14693 
L 250.103852 148.143042 
L 250.326097 147.689827 
L 250.400178 147.829112 
L 250.47426 147.907437 
L 250.844667 147.505125 
L 250.99283 147.413643 
L 251.585481 149.318535 
L 251.659563 149.49819 
L 251.733644 149.278082 
L 251.881807 149.635786 
L 252.02997 148.577347 
L 252.474459 145.32262 
L 252.54854 145.181575 
L 252.918947 143.077948 
L 252.993029 142.86505 
L 253.659762 136.924479 
L 254.104251 131.799356 
L 254.400576 129.136732 
L 254.548739 127.44464 
L 254.845065 124.047536 
L 257.067509 103.81791 
L 257.363834 100.914004 
L 257.956486 92.510855 
L 258.475056 85.215768 
L 258.771382 81.29185 
L 259.067708 77.699795 
L 259.808522 71.074453 
L 260.253011 67.68522 
L 260.919744 63.082307 
L 261.512396 59.142884 
L 262.030966 54.772791 
L 262.25321 53.624829 
L 262.327292 53.66237 
L 262.845862 51.881156 
L 263.29035 49.077815 
L 263.660758 46.094062 
L 263.957083 45.692459 
L 264.401572 44.600195 
L 264.549735 44.83104 
L 264.771979 45.173359 
L 264.920142 45.676899 
L 265.29055 44.21526 
L 265.512794 43.206887 
L 265.586875 43.270272 
L 265.660957 43.044967 
L 265.883201 43.693495 
L 266.031364 44.082653 
L 266.549934 44.637014 
L 266.624016 44.56583 
L 266.920341 44.023705 
L 267.587074 39.601654 
L 267.8834 40.645522 
L 267.957482 40.593835 
L 268.031563 40.551765 
L 268.105645 40.641975 
L 268.179726 40.340709 
L 268.253808 40.370341 
L 268.476052 39.808635 
L 268.698296 38.95165 
L 268.846459 38.629932 
L 268.994622 37.832542 
L 269.068703 37.931521 
L 269.216866 37.681102 
L 269.365029 37.08732 
L 269.439111 37.124474 
L 269.735437 39.28548 
L 270.772577 46.737888 
L 271.068903 47.395062 
L 271.217066 47.587963 
L 271.513391 48.974113 
L 271.587473 49.175272 
L 271.883799 51.163346 
L 271.95788 51.397266 
L 272.328287 53.992856 
L 272.624613 54.826138 
L 272.772776 54.625745 
L 273.143183 55.982669 
L 273.439509 57.803711 
L 273.735835 58.840786 
L 273.809916 58.765989 
L 274.106242 59.785411 
L 274.402568 61.324763 
L 274.624812 62.340682 
L 274.698894 62.242476 
L 274.772975 62.375003 
L 274.847057 62.207484 
L 275.143382 63.303855 
L 275.291545 63.35159 
L 275.51379 63.5435 
L 275.661953 64.01551 
L 275.736034 63.902922 
L 275.884197 64.089591 
L 276.106441 64.27855 
L 276.180523 64.329373 
L 276.328686 64.978364 
L 276.402767 64.897421 
L 276.625011 65.105853 
L 276.773174 64.584981 
L 276.847256 64.649463 
L 276.995419 64.95937 
L 277.365826 64.212451 
L 277.513989 64.422634 
L 277.58807 64.452981 
L 277.736233 65.018553 
L 277.884396 65.295462 
L 277.958477 65.235636 
L 278.032559 65.204692 
L 278.10664 65.478807 
L 278.180722 65.454794 
L 278.328885 65.503693 
L 278.477048 64.796489 
L 278.551129 64.871545 
L 278.995618 62.144668 
L 279.217862 61.800128 
L 279.291944 61.911293 
L 279.588269 63.191826 
L 279.662351 63.094847 
L 279.736432 63.168068 
L 279.884595 63.22243 
L 280.255002 62.470778 
L 280.403165 61.857089 
L 280.847654 63.33505 
L 281.14398 64.738661 
L 282.69969 73.9155 
L 283.070097 75.988188 
L 283.21826 76.218234 
L 283.292342 76.156222 
L 283.514586 76.899236 
L 283.810912 78.842874 
L 284.033156 79.338407 
L 284.107238 79.421877 
L 284.477645 78.854953 
L 284.551726 78.991796 
L 284.625808 78.842558 
L 284.699889 78.923888 
L 284.848052 78.75738 
L 284.996215 78.411105 
L 285.070297 78.263872 
L 285.21846 78.607398 
L 285.292541 78.442267 
L 285.366622 78.138727 
L 285.440704 78.255313 
L 285.514785 78.374163 
L 286.403763 82.662021 
L 286.551926 83.321614 
L 286.626007 83.411609 
L 286.922333 84.278182 
L 286.996414 84.203668 
L 287.070496 84.391467 
L 287.218659 84.119578 
L 287.29274 84.288525 
L 287.589066 83.837524 
L 287.81131 84.131501 
L 287.885392 84.216496 
L 288.403962 86.771419 
L 289.070695 90.881086 
L 289.144776 90.956981 
L 289.811509 95.151545 
L 289.885591 95.388792 
L 290.033754 95.040833 
L 290.33008 95.671705 
L 290.404161 95.529466 
L 290.700487 96.970739 
L 291.441301 103.929025 
L 292.700686 116.620025 
L 292.997012 118.044269 
L 293.145175 118.893731 
L 293.515582 121.54151 
L 293.663745 121.679767 
L 294.034152 122.543483 
L 294.108234 122.57871 
L 294.256396 123.02043 
L 294.330478 122.861453 
L 294.404559 122.931426 
L 294.849048 124.730392 
L 294.997211 125.896617 
L 295.4417 128.404603 
L 296.034351 129.723337 
L 296.182514 129.719569 
L 296.47884 131.469917 
L 296.627003 131.457971 
L 296.775166 131.295856 
L 297.145573 131.852192 
L 297.219654 131.699369 
L 297.293736 131.766973 
L 297.51598 131.978506 
L 297.738225 132.009272 
L 297.886387 132.493547 
L 297.960469 132.301387 
L 298.701283 134.637208 
L 298.775365 134.650042 
L 299.293935 135.763263 
L 299.368016 135.646387 
L 299.516179 135.892736 
L 299.812505 137.085946 
L 299.886587 137.28806 
L 299.960668 137.175429 
L 300.182912 137.452014 
L 300.331075 137.905567 
L 300.479238 137.319874 
L 300.55332 137.346078 
L 300.849645 138.530418 
L 301.145971 140.818566 
L 301.664541 145.153692 
L 301.960867 146.281445 
L 302.479437 148.128926 
L 302.775763 150.588416 
L 302.849845 150.785362 
L 302.923926 150.58944 
L 303.14617 151.153106 
L 303.220252 151.106495 
L 303.294333 151.088615 
L 303.442496 151.46208 
L 303.516578 151.518781 
L 304.257392 148.398207 
L 304.331474 147.850193 
L 304.405555 147.861761 
L 304.553718 147.830315 
L 304.627799 147.626058 
L 304.701881 147.654533 
L 304.775962 147.641893 
L 304.924125 146.700084 
L 305.14637 144.707229 
L 305.220451 144.671456 
L 305.516777 144.043782 
L 305.739021 144.675973 
L 305.887184 144.012522 
L 306.331673 141.800726 
L 306.553917 142.298476 
L 306.70208 142.628682 
L 306.850243 143.089653 
L 307.072487 142.996257 
L 307.22065 143.889721 
L 307.516976 145.476631 
L 307.665139 145.496028 
L 308.035546 144.799927 
L 308.554116 144.213863 
L 308.776361 143.853588 
L 308.924523 143.716859 
L 309.517175 141.138053 
L 309.665338 141.004008 
L 309.739419 141.014009 
L 309.887582 141.231202 
L 310.25799 140.793918 
L 310.332071 140.878616 
L 310.480234 141.202808 
L 310.628397 141.502423 
L 310.702478 141.518232 
L 310.850641 140.86764 
L 311.443293 136.633372 
L 311.887781 134.801854 
L 312.035944 135.070446 
L 312.110026 135.001649 
L 312.184107 134.895549 
L 312.406352 135.410822 
L 312.554514 135.085422 
L 312.628596 135.163887 
L 312.999003 135.756188 
L 313.147166 135.707787 
L 313.443492 135.096362 
L 313.887981 136.093603 
L 313.962062 136.114111 
L 314.332469 136.942547 
L 314.406551 137.014777 
L 314.554714 136.695195 
L 314.702877 136.708685 
L 315.147365 137.614414 
L 315.295528 137.701545 
L 315.443691 137.436591 
L 315.665935 137.637599 
L 315.740017 137.75568 
L 315.88818 137.606617 
L 316.036343 137.557316 
L 316.184506 137.234202 
L 316.258587 137.391539 
L 316.554913 139.604787 
L 316.777157 141.182157 
L 316.999401 141.910153 
L 317.073483 142.050635 
L 317.147564 141.89509 
L 317.295727 142.289987 
L 317.44389 142.291987 
L 317.888379 141.759594 
L 317.96246 141.893529 
L 318.184705 142.344507 
L 318.332868 142.042279 
L 318.406949 142.144258 
L 318.48103 142.262261 
L 318.555112 142.173483 
L 318.777356 141.567293 
L 318.999601 141.469054 
L 319.147764 141.128311 
L 319.295926 141.509201 
L 319.370008 141.42187 
L 319.444089 141.330526 
L 320.036741 142.728767 
L 320.110822 142.589621 
L 320.184904 142.719805 
L 320.258985 143.107285 
L 320.333067 142.917977 
L 320.925718 141.437189 
L 320.9998 141.523942 
L 321.073881 141.6811 
L 321.222044 141.370733 
L 321.740614 142.72909 
L 321.814696 142.653265 
L 322.03694 142.171893 
L 322.111022 142.041882 
L 322.259184 142.357999 
L 322.333266 142.270719 
L 322.481429 142.159224 
L 322.55551 142.040568 
L 322.925917 144.303045 
L 322.999999 144.391053 
L 323.222243 144.994853 
L 323.518569 144.980006 
L 323.888976 143.751991 
L 323.963058 143.70912 
L 324.037139 143.472659 
L 324.111221 143.550691 
L 324.481628 142.653857 
L 324.703872 142.99528 
L 324.777954 143.135903 
L 324.926117 142.749731 
L 325.07428 142.908672 
L 325.222442 142.653303 
L 325.444687 141.316647 
L 325.518768 141.380338 
L 325.815094 141.015101 
L 326.037338 141.644055 
L 326.185501 141.235123 
L 326.259583 141.27503 
L 326.481827 141.169381 
L 326.926316 142.151355 
L 327.14856 141.612188 
L 327.222642 141.694254 
L 327.444886 142.177313 
L 327.593049 142.24109 
L 327.963456 140.295414 
L 328.1857 139.533752 
L 328.259782 139.633658 
L 328.407945 140.227834 
L 328.482026 140.19955 
L 328.630189 139.614318 
L 328.926515 137.693177 
L 329.371004 135.884554 
L 329.593248 134.987792 
L 329.741411 134.567327 
L 329.815492 134.73494 
L 329.889574 134.686926 
L 330.037737 134.631968 
L 330.1859 134.907851 
L 330.408144 134.607963 
L 331.22304 132.236609 
L 331.519366 131.911338 
L 331.667529 132.010991 
L 331.815691 132.083213 
L 332.112017 131.471737 
L 332.186099 130.971436 
L 332.26018 130.989847 
L 332.630587 130.662136 
L 333.075076 129.001082 
L 333.149158 129.010777 
L 333.889972 131.436476 
L 334.556705 134.968407 
L 334.704868 135.180243 
L 335.001194 136.460113 
L 335.075275 136.603371 
L 335.445682 135.62858 
L 335.667927 136.330132 
L 335.964253 137.632493 
L 336.186497 137.413464 
L 336.33466 136.741295 
L 336.408741 136.799799 
L 336.482823 136.679613 
L 336.556904 136.766051 
L 336.630986 136.879021 
L 337.149556 139.061668 
L 337.445882 138.734038 
L 337.519963 138.760863 
L 338.260778 140.890957 
L 338.40894 141.020101 
L 338.483022 141.235556 
L 338.557103 141.177388 
L 338.705266 140.782975 
L 339.371999 137.237767 
L 340.483221 130.30113 
L 340.557303 130.314141 
L 340.705465 130.528521 
L 340.779547 130.61922 
L 340.92771 130.05343 
L 341.372198 127.145677 
L 341.742606 126.616617 
L 341.816687 126.741366 
L 342.187094 125.959654 
L 342.261176 125.771595 
L 342.335257 125.849917 
L 342.779746 125.15045 
L 343.076072 123.911216 
L 343.150153 123.973672 
L 343.372398 123.775722 
L 343.446479 123.968848 
L 343.52056 123.858888 
L 343.742805 122.995458 
L 343.816886 123.165878 
L 344.557701 126.578239 
L 344.854027 128.962341 
L 345.002189 128.917326 
L 345.372597 129.933602 
L 345.594841 130.119463 
L 345.965248 131.408301 
L 346.113411 131.733651 
L 346.483818 130.930445 
L 346.706063 131.509851 
L 346.928307 131.93652 
L 347.07647 131.418824 
L 347.150552 131.675457 
L 347.446877 130.645066 
L 347.59504 131.263395 
L 348.261773 129.052483 
L 348.335855 128.716019 
L 348.409936 128.87936 
L 348.558099 128.929612 
L 349.002588 126.356411 
L 349.298914 124.147563 
L 349.447076 124.267731 
L 349.817484 122.428779 
L 349.965647 121.438461 
L 350.039728 121.519081 
L 350.261972 120.539249 
L 351.076868 115.440997 
L 351.15095 115.546936 
L 351.299113 115.241986 
L 351.595439 113.864422 
L 351.66952 113.770499 
L 351.817683 112.89586 
L 352.558497 107.081225 
L 352.854823 105.486473 
L 353.447475 100.455351 
L 353.669719 98.924028 
L 353.817882 98.179528 
L 354.114208 95.970526 
L 354.262371 95.448333 
L 355.373592 88.887379 
L 355.669918 87.085593 
L 355.818081 86.634098 
L 356.114407 84.335741 
L 356.78114 77.259694 
L 357.003384 75.727982 
L 357.521955 70.338362 
L 357.670117 70.143986 
L 357.966443 68.205555 
L 358.485013 63.956815 
L 358.633176 64.218562 
L 359.003583 62.57994 
L 360.707457 46.597964 
L 361.89276 37.642792 
L 362.115004 36.921093 
L 362.337249 36.373257 
L 362.41133 36.407085 
L 362.559493 35.878517 
L 363.152145 32.747345 
L 363.226226 32.768867 
L 363.670715 34.691317 
L 363.892959 35.329269 
L 364.115204 35.011707 
L 364.337448 34.356577 
L 364.930099 36.178892 
L 365.078262 36.357815 
L 365.226425 36.923191 
L 365.744995 40.036361 
L 366.189484 44.729365 
L 366.48581 46.201263 
L 366.782136 48.718556 
L 367.00438 49.384749 
L 367.078462 49.314162 
L 367.300706 49.571775 
L 367.597032 49.867139 
L 367.671113 49.736439 
L 367.893357 51.412518 
L 367.967439 51.281726 
L 368.04152 51.280432 
L 368.782335 55.858006 
L 369.152742 57.200836 
L 369.300905 57.85861 
L 370.338045 65.831727 
L 370.708453 69.327001 
L 371.004778 71.763697 
L 371.301104 73.798191 
L 371.59743 75.244502 
L 371.671511 75.150744 
L 371.745593 75.117891 
L 371.819674 75.259676 
L 372.116 76.702745 
L 372.338244 77.481739 
L 372.708652 79.534637 
L 372.930896 80.59695 
L 373.449466 84.65662 
L 374.560688 94.971525 
L 374.634769 94.899211 
L 375.005177 96.513615 
L 375.745991 100.469019 
L 375.968235 101.660372 
L 376.116398 102.216214 
L 376.486806 103.740075 
L 376.783131 105.687489 
L 378.042516 117.806784 
L 378.709249 122.769135 
L 378.931493 122.935823 
L 379.375982 125.127299 
L 379.598227 126.038933 
L 379.746389 126.641781 
L 381.228018 137.63386 
L 381.746589 138.913181 
L 381.968833 138.830111 
L 382.191077 139.007102 
L 383.005973 136.81565 
L 383.080055 136.862446 
L 383.598625 139.183737 
L 383.746788 139.091643 
L 383.820869 139.282468 
L 384.043114 139.039254 
L 384.117195 138.96988 
L 384.709847 136.612611 
L 384.783928 136.769115 
L 385.006172 137.432309 
L 385.080254 137.237043 
L 385.154335 137.323471 
L 385.228417 137.209105 
L 385.450661 136.636257 
L 385.598824 136.550643 
L 385.746987 136.345462 
L 385.89515 136.094236 
L 386.41372 132.474818 
L 386.561883 132.529782 
L 387.228616 129.357371 
L 387.376779 129.353633 
L 387.524942 129.573891 
L 387.599023 129.827856 
L 387.96943 128.917143 
L 388.636163 126.309464 
L 388.710245 126.308836 
L 389.154734 124.675953 
L 389.228815 124.843936 
L 389.451059 125.455155 
L 389.969629 127.4742 
L 390.340037 126.221766 
L 390.562281 125.895112 
L 390.932688 124.817767 
L 391.00677 124.817785 
L 391.451258 126.872983 
L 391.821666 128.59575 
L 392.04391 129.122061 
L 392.117992 129.08188 
L 392.488399 127.722779 
L 392.932887 125.523414 
L 393.377376 124.36931 
L 393.599621 124.520143 
L 393.747783 124.820832 
L 393.821865 124.831357 
L 394.044109 125.749631 
L 394.414516 127.191026 
L 394.562679 127.353361 
L 394.933087 129.919716 
L 395.229412 131.412671 
L 395.377575 131.82311 
L 395.747983 133.179671 
L 395.822064 133.223218 
L 395.970227 133.440454 
L 396.340634 133.362894 
L 396.488797 133.041806 
L 396.711041 132.335404 
L 396.785123 132.568711 
L 396.859204 132.428562 
L 397.081449 132.874267 
L 397.377774 133.481364 
L 398.118589 138.578469 
L 398.414915 140.004577 
L 398.488996 140.073173 
L 398.933485 141.731918 
L 399.229811 142.294936 
L 399.600218 141.209589 
L 399.822462 141.216124 
L 400.118788 140.696421 
L 400.266951 141.136293 
L 400.637358 140.002891 
L 400.71144 139.957129 
L 400.785521 140.062795 
L 400.859603 139.953279 
L 400.933684 140.013109 
L 401.378173 141.138585 
L 401.526336 141.464334 
L 401.822661 142.634396 
L 402.118987 143.123016 
L 402.193069 143.150782 
L 402.711639 144.415031 
L 402.78572 144.346478 
L 403.082046 145.021685 
L 403.156128 145.00547 
L 403.230209 145.116922 
L 403.822861 144.145375 
L 404.489594 142.046812 
L 404.934082 143.329627 
L 405.378571 145.633407 
L 405.748978 144.181574 
L 406.34163 138.762746 
L 406.489793 138.380695 
L 406.712037 137.692568 
L 406.786119 137.550362 
L 407.008363 136.60644 
L 407.156526 135.791252 
L 407.452852 134.262818 
L 407.749177 132.276395 
L 408.045503 129.68122 
L 408.193666 128.820233 
L 408.41591 129.287276 
L 408.489992 129.244363 
L 408.638155 128.765861 
L 408.934481 127.150677 
L 409.156725 125.866641 
L 409.230806 125.900782 
L 409.378969 126.467259 
L 409.453051 126.432089 
L 409.601214 126.684487 
L 409.749377 126.173605 
L 409.971621 125.308957 
L 410.119784 125.266311 
L 410.41611 123.918771 
L 410.490191 123.857997 
L 410.564273 123.984156 
L 410.638354 123.913618 
L 410.93468 123.731497 
L 411.231006 124.032052 
L 411.379168 123.804712 
L 411.527331 123.835986 
L 411.897739 123.080712 
L 412.045902 122.473128 
L 412.194064 122.738175 
L 412.49039 124.17335 
L 412.860797 126.348558 
L 413.305286 128.49011 
L 413.453449 128.397244 
L 413.601612 128.468266 
L 414.120182 127.719859 
L 414.194264 127.812089 
L 414.490589 129.077547 
L 414.786915 130.360175 
L 414.860997 130.473193 
L 414.935078 130.410644 
L 415.083241 130.323553 
L 415.749974 133.63046 
L 415.898137 133.55874 
L 416.0463 133.518759 
L 416.342626 135.090618 
L 416.416707 135.337434 
L 416.56487 134.874586 
L 416.638951 135.03439 
L 416.787114 135.862641 
L 417.009359 137.228379 
L 417.453847 136.552102 
L 417.676092 136.354869 
L 417.824255 136.277805 
L 418.416906 132.798672 
L 418.713232 131.270064 
L 418.787313 131.113174 
L 419.009558 131.522357 
L 419.157721 131.537766 
L 419.305884 131.202329 
L 419.379965 131.28046 
L 419.750372 130.056743 
L 420.565268 124.992869 
L 420.63935 125.011806 
L 420.713431 125.188503 
L 421.009757 126.831132 
L 421.232001 127.766917 
L 421.454246 128.142051 
L 421.528327 128.286847 
L 421.898734 130.644678 
L 421.972816 130.510632 
L 422.269142 131.293525 
L 422.491386 132.706599 
L 422.565467 132.727647 
L 422.861793 134.169549 
L 423.158119 136.084552 
L 423.306282 136.369834 
L 423.380363 136.180858 
L 423.454445 136.253031 
L 423.750771 136.863834 
L 423.824852 136.923291 
L 423.973015 136.529081 
L 424.195259 136.965139 
L 424.417504 137.756311 
L 424.491585 137.788369 
L 424.565667 137.646383 
L 425.602807 131.679839 
L 425.899133 130.926818 
L 426.491784 128.674682 
L 426.565866 128.627427 
L 426.936273 127.503078 
L 427.010354 127.484725 
L 427.30668 126.017182 
L 427.603006 123.573771 
L 427.751169 122.771917 
L 428.047495 121.122613 
L 428.269739 120.692806 
L 428.34382 120.748519 
L 428.417902 120.958067 
L 428.714228 120.512012 
L 428.862391 120.990516 
L 429.529124 124.739708 
L 429.603205 124.916732 
L 429.677287 124.793295 
L 429.825449 124.978903 
L 429.973612 124.924281 
L 430.492183 126.416135 
L 430.714427 126.280177 
L 430.936671 126.760904 
L 431.084834 127.285891 
L 431.38116 129.478955 
L 431.455241 129.251129 
L 431.751567 127.741622 
L 431.973812 126.544384 
L 432.121974 127.059147 
L 432.196056 127.035349 
L 432.344219 126.65563 
L 432.4183 126.719487 
L 432.93687 128.949564 
L 433.010952 129.090055 
L 433.159115 128.820552 
L 433.307278 129.323396 
L 433.381359 129.28362 
L 433.825848 131.009182 
L 434.196255 132.516267 
L 434.270336 132.848658 
L 434.344418 132.811119 
L 434.492581 132.535169 
L 434.566662 132.729404 
L 434.788907 133.770127 
L 434.862988 133.599993 
L 434.93707 133.702533 
L 435.085232 133.671835 
L 435.307477 134.304494 
L 435.45564 134.557251 
L 435.677884 136.009516 
L 436.122373 138.929013 
L 436.863187 142.271113 
L 437.085432 143.075112 
L 437.604002 147.263661 
L 437.678083 147.297303 
L 437.974409 146.647055 
L 438.344816 148.865295 
L 438.418898 148.703613 
L 438.567061 148.436977 
L 438.789305 148.307545 
L 439.011549 148.440069 
L 439.159712 148.145292 
L 439.604201 145.899814 
L 439.678282 145.955904 
L 439.974608 145.113569 
L 440.122771 145.038811 
L 440.345015 145.605343 
L 440.715423 147.963779 
L 441.011748 150.02418 
L 441.08583 150.187099 
L 441.159911 149.976637 
L 441.233993 150.086616 
L 441.456237 150.143304 
L 441.826644 150.957774 
L 441.900726 150.989912 
L 442.048889 151.832343 
L 442.493377 155.821103 
L 442.789703 158.404251 
L 443.011948 160.029396 
L 443.308273 160.479718 
L 443.456436 160.8602 
L 443.826843 162.757181 
L 443.900925 162.867273 
L 443.975006 162.782912 
L 444.567658 160.759072 
L 444.641739 160.27953 
L 444.715821 160.400268 
L 444.789902 160.422532 
L 444.938065 160.692901 
L 445.086228 160.6382 
L 445.827043 155.979271 
L 446.049287 155.056694 
L 446.790101 150.787898 
L 446.864183 150.59653 
L 447.086427 150.963475 
L 447.160509 151.140176 
L 447.382753 150.174088 
L 447.530916 150.288199 
L 448.123568 148.067652 
L 448.197649 148.106506 
L 448.345812 148.502631 
L 448.568056 149.323132 
L 448.716219 149.781359 
L 448.938464 150.640096 
L 449.012545 150.825983 
L 449.308871 150.527514 
L 449.457034 150.434559 
L 449.605197 149.834057 
L 449.753359 150.022553 
L 449.901522 149.975614 
L 450.197848 149.923335 
L 450.346011 149.717455 
L 451.086826 147.026365 
L 452.198047 139.639148 
L 452.642536 138.271715 
L 453.531513 131.32623 
L 453.679676 130.317742 
L 453.753758 130.36091 
L 454.124165 129.738614 
L 454.198246 129.876833 
L 454.494572 130.130196 
L 454.568654 130.186937 
L 455.087224 131.690145 
L 455.753957 131.704753 
L 456.42069 131.947286 
L 457.161504 132.456844 
L 458.050482 133.359984 
L 459.087622 134.748697 
L 460.421088 136.934593 
L 462.495369 140.834498 
L 465.162301 145.774938 
L 466.051278 147.179153 
L 466.051278 147.179153 
" style="fill:none;stroke:#000000;stroke-linecap:square;stroke-width:1.5;"/>
   </g>
   <g id="line2d_26">
    <path clip-path="url(#pc09bfd129d)" d="M 429.825449 118.73953 
L 422.639549 113.967969 
L 415.972218 109.275128 
L 409.823458 104.676417 
L 404.193268 100.191094 
L 399.007566 95.778128 
L 394.266354 91.453839 
L 389.969629 87.239344 
L 386.043313 83.08054 
L 382.487403 78.992454 
L 379.301901 74.995622 
L 376.412724 71.011237 
L 373.893955 67.163344 
L 371.671511 63.369205 
L 369.745394 59.651569 
L 368.115602 56.047087 
L 366.708054 52.409362 
L 365.522751 48.715693 
L 364.633774 45.248667 
L 363.967041 41.816758 
L 363.522552 38.483346 
L 363.300308 35.615347 
L 363.226226 32.750778 
L 363.226226 32.750778 
" style="fill:none;stroke:#000000;stroke-dasharray:5.55,2.4;stroke-dashoffset:0;stroke-opacity:0.5;stroke-width:1.5;"/>
   </g>
   <g id="line2d_27">
    <path clip-path="url(#pc09bfd129d)" d="M 336.038334 119.215032 
L 328.778352 114.609528 
L 322.03694 110.073234 
L 315.814098 105.619894 
L 310.109827 101.266778 
L 304.924125 97.035725 
L 300.182912 92.887285 
L 295.812107 88.768792 
L 291.88579 84.766765 
L 288.32988 80.82744 
L 285.144378 76.969401 
L 282.329283 73.218696 
L 279.810514 69.496937 
L 277.58807 65.815375 
L 275.661953 62.191701 
L 274.032161 58.655114 
L 272.698695 55.256538 
L 271.587473 51.837893 
L 270.698495 48.380971 
L 270.031762 44.834701 
L 269.661355 41.831604 
L 269.513192 39.826436 
L 269.439111 37.091332 
L 269.439111 37.091332 
" style="fill:none;stroke:#000000;stroke-dasharray:5.55,2.4;stroke-dashoffset:0;stroke-opacity:0.5;stroke-width:1.5;"/>
   </g>
   <g id="line2d_28">
    <path clip-path="url(#pc09bfd129d)" d="M 208.025589 69.04276 
L 199.506222 65.442338 
L 191.72767 61.916267 
L 184.764014 58.520023 
L 178.46709 55.205036 
L 172.8369 51.992933 
L 167.799362 48.864555 
L 163.354475 45.845073 
L 159.428158 42.911128 
L 156.020411 40.092284 
L 153.057153 37.358913 
L 150.538384 34.745858 
L 148.390022 32.213134 
L 146.537986 29.692101 
L 145.056357 27.320131 
L 143.796972 24.88186 
L 142.833913 22.525626 
L 142.16718 20.353349 
L 141.722691 18.243417 
L 141.500447 16.428077 
L 141.426366 14.617538 
L 141.426366 14.617538 
" style="fill:none;stroke:#000000;stroke-dasharray:5.55,2.4;stroke-dashoffset:0;stroke-opacity:0.5;stroke-width:1.5;"/>
   </g>
   <g id="patch_3">
    <path d="M 39.942188 170.28 
L 39.942188 7.2 
" style="fill:none;stroke:#000000;stroke-linecap:square;stroke-linejoin:miter;stroke-width:0.8;"/>
   </g>
   <g id="patch_4">
    <path d="M 486.342187 170.28 
L 486.342187 7.2 
" style="fill:none;stroke:#000000;stroke-linecap:square;stroke-linejoin:miter;stroke-width:0.8;"/>
   </g>
   <g id="patch_5">
    <path d="M 39.942187 170.28 
L 486.342187 170.28 
" style="fill:none;stroke:#000000;stroke-linecap:square;stroke-linejoin:miter;stroke-width:0.8;"/>
   </g>
   <g id="patch_6">
    <path d="M 39.942187 7.2 
L 486.342187 7.2 
" style="fill:none;stroke:#000000;stroke-linecap:square;stroke-linejoin:miter;stroke-width:0.8;"/>
   </g>
   <g id="legend_1">
    <g id="patch_7">
     <path d="M 46.942188 165.28 
L 160.670313 165.28 
Q 162.670313 165.28 162.670313 163.28 
L 162.670313 105.5675 
Q 162.670313 103.5675 160.670313 103.5675 
L 46.942188 103.5675 
Q 44.942188 103.5675 44.942188 105.5675 
L 44.942188 163.28 
Q 44.942188 165.28 46.942188 165.28 
z
" style="fill:#ffffff;opacity:0.8;stroke:#cccccc;stroke-linejoin:miter;"/>
    </g>
    <g id="line2d_29">
     <path d="M 48.942188 111.665937 
L 68.942188 111.665937 
" style="fill:none;stroke:#000000;stroke-linecap:square;stroke-width:1.5;"/>
    </g>
    <g id="line2d_30"/>
    <g id="text_15">
     <!-- SavGol fit -->
     <g transform="translate(76.942188 115.165937)scale(0.1 -0.1)">
      <defs>
       <path d="M 34.28125 27.484375 
Q 23.390625 27.484375 19.1875 25 
Q 14.984375 22.515625 14.984375 16.5 
Q 14.984375 11.71875 18.140625 8.90625 
Q 21.296875 6.109375 26.703125 6.109375 
Q 34.1875 6.109375 38.703125 11.40625 
Q 43.21875 16.703125 43.21875 25.484375 
L 43.21875 27.484375 
z
M 52.203125 31.203125 
L 52.203125 0 
L 43.21875 0 
L 43.21875 8.296875 
Q 40.140625 3.328125 35.546875 0.953125 
Q 30.953125 -1.421875 24.3125 -1.421875 
Q 15.921875 -1.421875 10.953125 3.296875 
Q 6 8.015625 6 15.921875 
Q 6 25.140625 12.171875 29.828125 
Q 18.359375 34.515625 30.609375 34.515625 
L 43.21875 34.515625 
L 43.21875 35.40625 
Q 43.21875 41.609375 39.140625 45 
Q 35.0625 48.390625 27.6875 48.390625 
Q 23 48.390625 18.546875 47.265625 
Q 14.109375 46.140625 10.015625 43.890625 
L 10.015625 52.203125 
Q 14.9375 54.109375 19.578125 55.046875 
Q 24.21875 56 28.609375 56 
Q 40.484375 56 46.34375 49.84375 
Q 52.203125 43.703125 52.203125 31.203125 
z
" id="DejaVuSans-97"/>
       <path d="M 2.984375 54.6875 
L 12.5 54.6875 
L 29.59375 8.796875 
L 46.6875 54.6875 
L 56.203125 54.6875 
L 35.6875 0 
L 23.484375 0 
z
" id="DejaVuSans-118"/>
       <path d="M 59.515625 10.40625 
L 59.515625 29.984375 
L 43.40625 29.984375 
L 43.40625 38.09375 
L 69.28125 38.09375 
L 69.28125 6.78125 
Q 63.578125 2.734375 56.6875 0.65625 
Q 49.8125 -1.421875 42 -1.421875 
Q 24.90625 -1.421875 15.25 8.5625 
Q 5.609375 18.5625 5.609375 36.375 
Q 5.609375 54.25 15.25 64.234375 
Q 24.90625 74.21875 42 74.21875 
Q 49.125 74.21875 55.546875 72.453125 
Q 61.96875 70.703125 67.390625 67.28125 
L 67.390625 56.78125 
Q 61.921875 61.421875 55.765625 63.765625 
Q 49.609375 66.109375 42.828125 66.109375 
Q 29.4375 66.109375 22.71875 58.640625 
Q 16.015625 51.171875 16.015625 36.375 
Q 16.015625 21.625 22.71875 14.15625 
Q 29.4375 6.6875 42.828125 6.6875 
Q 48.046875 6.6875 52.140625 7.59375 
Q 56.25 8.5 59.515625 10.40625 
z
" id="DejaVuSans-71"/>
       <path d="M 30.609375 48.390625 
Q 23.390625 48.390625 19.1875 42.75 
Q 14.984375 37.109375 14.984375 27.296875 
Q 14.984375 17.484375 19.15625 11.84375 
Q 23.34375 6.203125 30.609375 6.203125 
Q 37.796875 6.203125 41.984375 11.859375 
Q 46.1875 17.53125 46.1875 27.296875 
Q 46.1875 37.015625 41.984375 42.703125 
Q 37.796875 48.390625 30.609375 48.390625 
z
M 30.609375 56 
Q 42.328125 56 49.015625 48.375 
Q 55.71875 40.765625 55.71875 27.296875 
Q 55.71875 13.875 49.015625 6.21875 
Q 42.328125 -1.421875 30.609375 -1.421875 
Q 18.84375 -1.421875 12.171875 6.21875 
Q 5.515625 13.875 5.515625 27.296875 
Q 5.515625 40.765625 12.171875 48.375 
Q 18.84375 56 30.609375 56 
z
" id="DejaVuSans-111"/>
       <path d="M 9.421875 75.984375 
L 18.40625 75.984375 
L 18.40625 0 
L 9.421875 0 
z
" id="DejaVuSans-108"/>
      </defs>
      <use xlink:href="#DejaVuSans-83"/>
      <use x="63.476562" xlink:href="#DejaVuSans-97"/>
      <use x="124.755859" xlink:href="#DejaVuSans-118"/>
      <use x="183.935547" xlink:href="#DejaVuSans-71"/>
      <use x="261.425781" xlink:href="#DejaVuSans-111"/>
      <use x="322.607422" xlink:href="#DejaVuSans-108"/>
      <use x="350.390625" xlink:href="#DejaVuSans-32"/>
      <use x="382.177734" xlink:href="#DejaVuSans-102"/>
      <use x="417.382812" xlink:href="#DejaVuSans-105"/>
      <use x="445.166016" xlink:href="#DejaVuSans-116"/>
     </g>
    </g>
    <g id="line2d_31">
     <path d="M 48.942188 126.344063 
L 68.942188 126.344063 
" style="fill:none;"/>
    </g>
    <g id="line2d_32">
     <g>
      <use style="stroke:#000000;" x="58.942188" xlink:href="#m02a81f7540" y="126.344063"/>
     </g>
    </g>
    <g id="text_16">
     <!-- Interstadial max -->
     <g transform="translate(76.942188 129.844063)scale(0.1 -0.1)">
      <defs>
       <path d="M 9.8125 72.90625 
L 19.671875 72.90625 
L 19.671875 0 
L 9.8125 0 
z
" id="DejaVuSans-73"/>
       <path d="M 54.890625 33.015625 
L 54.890625 0 
L 45.90625 0 
L 45.90625 32.71875 
Q 45.90625 40.484375 42.875 44.328125 
Q 39.84375 48.1875 33.796875 48.1875 
Q 26.515625 48.1875 22.3125 43.546875 
Q 18.109375 38.921875 18.109375 30.90625 
L 18.109375 0 
L 9.078125 0 
L 9.078125 54.6875 
L 18.109375 54.6875 
L 18.109375 46.1875 
Q 21.34375 51.125 25.703125 53.5625 
Q 30.078125 56 35.796875 56 
Q 45.21875 56 50.046875 50.171875 
Q 54.890625 44.34375 54.890625 33.015625 
z
" id="DejaVuSans-110"/>
       <path d="M 44.28125 53.078125 
L 44.28125 44.578125 
Q 40.484375 46.53125 36.375 47.5 
Q 32.28125 48.484375 27.875 48.484375 
Q 21.1875 48.484375 17.84375 46.4375 
Q 14.5 44.390625 14.5 40.28125 
Q 14.5 37.15625 16.890625 35.375 
Q 19.28125 33.59375 26.515625 31.984375 
L 29.59375 31.296875 
Q 39.15625 29.25 43.1875 25.515625 
Q 47.21875 21.78125 47.21875 15.09375 
Q 47.21875 7.46875 41.1875 3.015625 
Q 35.15625 -1.421875 24.609375 -1.421875 
Q 20.21875 -1.421875 15.453125 -0.5625 
Q 10.6875 0.296875 5.421875 2 
L 5.421875 11.28125 
Q 10.40625 8.6875 15.234375 7.390625 
Q 20.0625 6.109375 24.8125 6.109375 
Q 31.15625 6.109375 34.5625 8.28125 
Q 37.984375 10.453125 37.984375 14.40625 
Q 37.984375 18.0625 35.515625 20.015625 
Q 33.0625 21.96875 24.703125 23.78125 
L 21.578125 24.515625 
Q 13.234375 26.265625 9.515625 29.90625 
Q 5.8125 33.546875 5.8125 39.890625 
Q 5.8125 47.609375 11.28125 51.796875 
Q 16.75 56 26.8125 56 
Q 31.78125 56 36.171875 55.265625 
Q 40.578125 54.546875 44.28125 53.078125 
z
" id="DejaVuSans-115"/>
       <path d="M 54.890625 54.6875 
L 35.109375 28.078125 
L 55.90625 0 
L 45.3125 0 
L 29.390625 21.484375 
L 13.484375 0 
L 2.875 0 
L 24.125 28.609375 
L 4.6875 54.6875 
L 15.28125 54.6875 
L 29.78125 35.203125 
L 44.28125 54.6875 
z
" id="DejaVuSans-120"/>
      </defs>
      <use xlink:href="#DejaVuSans-73"/>
      <use x="29.492188" xlink:href="#DejaVuSans-110"/>
      <use x="92.871094" xlink:href="#DejaVuSans-116"/>
      <use x="132.080078" xlink:href="#DejaVuSans-101"/>
      <use x="193.603516" xlink:href="#DejaVuSans-114"/>
      <use x="234.716797" xlink:href="#DejaVuSans-115"/>
      <use x="286.816406" xlink:href="#DejaVuSans-116"/>
      <use x="326.025391" xlink:href="#DejaVuSans-97"/>
      <use x="387.304688" xlink:href="#DejaVuSans-100"/>
      <use x="450.78125" xlink:href="#DejaVuSans-105"/>
      <use x="478.564453" xlink:href="#DejaVuSans-97"/>
      <use x="539.84375" xlink:href="#DejaVuSans-108"/>
      <use x="567.626953" xlink:href="#DejaVuSans-32"/>
      <use x="599.414062" xlink:href="#DejaVuSans-109"/>
      <use x="696.826172" xlink:href="#DejaVuSans-97"/>
      <use x="758.105469" xlink:href="#DejaVuSans-120"/>
     </g>
    </g>
    <g id="line2d_33">
     <path d="M 48.942188 141.022188 
L 68.942188 141.022188 
" style="fill:none;stroke:#000000;stroke-dasharray:5.55,2.4;stroke-dashoffset:0;stroke-opacity:0.5;stroke-width:1.5;"/>
    </g>
    <g id="line2d_34"/>
    <g id="text_17">
     <!-- Interstadial fit -->
     <g transform="translate(76.942188 144.522188)scale(0.1 -0.1)">
      <use xlink:href="#DejaVuSans-73"/>
      <use x="29.492188" xlink:href="#DejaVuSans-110"/>
      <use x="92.871094" xlink:href="#DejaVuSans-116"/>
      <use x="132.080078" xlink:href="#DejaVuSans-101"/>
      <use x="193.603516" xlink:href="#DejaVuSans-114"/>
      <use x="234.716797" xlink:href="#DejaVuSans-115"/>
      <use x="286.816406" xlink:href="#DejaVuSans-116"/>
      <use x="326.025391" xlink:href="#DejaVuSans-97"/>
      <use x="387.304688" xlink:href="#DejaVuSans-100"/>
      <use x="450.78125" xlink:href="#DejaVuSans-105"/>
      <use x="478.564453" xlink:href="#DejaVuSans-97"/>
      <use x="539.84375" xlink:href="#DejaVuSans-108"/>
      <use x="567.626953" xlink:href="#DejaVuSans-32"/>
      <use x="599.414062" xlink:href="#DejaVuSans-102"/>
      <use x="634.619141" xlink:href="#DejaVuSans-105"/>
      <use x="662.402344" xlink:href="#DejaVuSans-116"/>
     </g>
    </g>
    <g id="line2d_35">
     <path d="M 48.942188 155.700312 
L 68.942188 155.700312 
" style="fill:none;"/>
    </g>
    <g id="line2d_36">
     <defs>
      <path d="M -3 3 
L 3 -3 
M -3 -3 
L 3 3 
" id="m918ebbfbc3" style="stroke:#000000;"/>
     </defs>
     <g>
      <use style="stroke:#000000;" x="58.942188" xlink:href="#m918ebbfbc3" y="155.700312"/>
     </g>
    </g>
    <g id="text_18">
     <!-- Interstadial end -->
     <g transform="translate(76.942188 159.200312)scale(0.1 -0.1)">
      <use xlink:href="#DejaVuSans-73"/>
      <use x="29.492188" xlink:href="#DejaVuSans-110"/>
      <use x="92.871094" xlink:href="#DejaVuSans-116"/>
      <use x="132.080078" xlink:href="#DejaVuSans-101"/>
      <use x="193.603516" xlink:href="#DejaVuSans-114"/>
      <use x="234.716797" xlink:href="#DejaVuSans-115"/>
      <use x="286.816406" xlink:href="#DejaVuSans-116"/>
      <use x="326.025391" xlink:href="#DejaVuSans-97"/>
      <use x="387.304688" xlink:href="#DejaVuSans-100"/>
      <use x="450.78125" xlink:href="#DejaVuSans-105"/>
      <use x="478.564453" xlink:href="#DejaVuSans-97"/>
      <use x="539.84375" xlink:href="#DejaVuSans-108"/>
      <use x="567.626953" xlink:href="#DejaVuSans-32"/>
      <use x="599.414062" xlink:href="#DejaVuSans-101"/>
      <use x="660.9375" xlink:href="#DejaVuSans-110"/>
      <use x="724.316406" xlink:href="#DejaVuSans-100"/>
     </g>
    </g>
   </g>
  </g>
 </g>
 <defs>
  <clipPath id="pc09bfd129d">
   <rect height="163.08" width="446.4" x="39.942188" y="7.2"/>
  </clipPath>
 </defs>
</svg>
