<?xml version="1.0" encoding="utf-8" standalone="no"?>
<!DOCTYPE svg PUBLIC "-//W3C//DTD SVG 1.1//EN"
  "http://www.w3.org/Graphics/SVG/1.1/DTD/svg11.dtd">
<!-- Created with matplotlib (https://matplotlib.org/) -->
<svg height="204.33625pt" version="1.1" viewBox="0 0 493.542188 204.33625" width="493.542188pt" xmlns="http://www.w3.org/2000/svg" xmlns:xlink="http://www.w3.org/1999/xlink">
 <metadata>
  <rdf:RDF xmlns:cc="http://creativecommons.org/ns#" xmlns:dc="http://purl.org/dc/elements/1.1/" xmlns:rdf="http://www.w3.org/1999/02/22-rdf-syntax-ns#">
   <cc:Work>
    <dc:type rdf:resource="http://purl.org/dc/dcmitype/StillImage"/>
    <dc:date>2022-03-07T21:16:50.367874</dc:date>
    <dc:format>image/svg+xml</dc:format>
    <dc:creator>
     <cc:Agent>
      <dc:title>Matplotlib v3.3.2, https://matplotlib.org/</dc:title>
     </cc:Agent>
    </dc:creator>
   </cc:Work>
  </rdf:RDF>
 </metadata>
 <defs>
  <style type="text/css">*{stroke-linecap:butt;stroke-linejoin:round;}</style>
 </defs>
 <g id="figure_1">
  <g id="patch_1">
   <path d="M 0 204.33625 
L 493.542188 204.33625 
L 493.542188 0 
L 0 0 
z
" style="fill:none;"/>
  </g>
  <g id="axes_1">
   <g id="patch_2">
    <path d="M 39.942188 170.28 
L 486.342187 170.28 
L 486.342187 7.2 
L 39.942188 7.2 
z
" style="fill:#ffffff;"/>
   </g>
   <g id="PathCollection_1">
    <defs>
     <path d="M 0 3 
C 0.795609 3 1.55874 2.683901 2.12132 2.12132 
C 2.683901 1.55874 3 0.795609 3 0 
C 3 -0.795609 2.683901 -1.55874 2.12132 -2.12132 
C 1.55874 -2.683901 0.795609 -3 0 -3 
C -0.795609 -3 -1.55874 -2.683901 -2.12132 -2.12132 
C -2.683901 -1.55874 -3 -0.795609 -3 0 
C -3 0.795609 -2.683901 1.55874 -2.12132 2.12132 
C -1.55874 2.683901 -0.795609 3 0 3 
z
" id="m992cfae554" style="stroke:#000000;"/>
    </defs>
    <g clip-path="url(#pf1e61aa333)">
     <use style="stroke:#000000;" x="363.522552" xlink:href="#m992cfae554" y="31.420739"/>
    </g>
   </g>
   <g id="PathCollection_2">
    <defs>
     <path d="M -3 3 
L 3 -3 
M -3 -3 
L 3 3 
" id="m88849f88f0" style="stroke:#000000;stroke-width:1.5;"/>
    </defs>
    <g clip-path="url(#pf1e61aa333)">
     <use style="stroke:#000000;stroke-width:1.5;" x="383.894951" xlink:href="#m88849f88f0" y="72.689723"/>
    </g>
   </g>
   <g id="PathCollection_3">
    <g clip-path="url(#pf1e61aa333)">
     <use style="stroke:#000000;" x="273.883998" xlink:href="#m992cfae554" y="33.111821"/>
    </g>
   </g>
   <g id="PathCollection_4">
    <g clip-path="url(#pf1e61aa333)">
     <use style="stroke:#000000;stroke-width:1.5;" x="286.700089" xlink:href="#m88849f88f0" y="53.663742"/>
    </g>
   </g>
   <g id="PathCollection_5">
    <g clip-path="url(#pf1e61aa333)">
     <use style="stroke:#000000;" x="144.982275" xlink:href="#m992cfae554" y="14.612727"/>
    </g>
   </g>
   <g id="PathCollection_6">
    <g clip-path="url(#pf1e61aa333)">
     <use style="stroke:#000000;stroke-width:1.5;" x="184.986258" xlink:href="#m88849f88f0" y="58.684698"/>
    </g>
   </g>
   <g id="matplotlib.axis_1">
    <g id="xtick_1">
     <g id="line2d_1">
      <defs>
       <path d="M 0 0 
L 0 -3.5 
" id="mf5af1557a1" style="stroke:#000000;stroke-width:0.8;"/>
      </defs>
      <g>
       <use style="stroke:#000000;stroke-width:0.8;" x="468.19964" xlink:href="#mf5af1557a1" y="170.28"/>
      </g>
     </g>
     <g id="line2d_2">
      <defs>
       <path d="M 0 0 
L 0 3.5 
" id="m79d3ac1c7c" style="stroke:#000000;stroke-width:0.8;"/>
      </defs>
      <g>
       <use style="stroke:#000000;stroke-width:0.8;" x="468.19964" xlink:href="#m79d3ac1c7c" y="7.2"/>
      </g>
     </g>
     <g id="text_1">
      <!-- 31 -->
      <g transform="translate(461.83714 181.378438)scale(0.1 -0.1)">
       <defs>
        <path d="M 40.578125 39.3125 
Q 47.65625 37.796875 51.625 33 
Q 55.609375 28.21875 55.609375 21.1875 
Q 55.609375 10.40625 48.1875 4.484375 
Q 40.765625 -1.421875 27.09375 -1.421875 
Q 22.515625 -1.421875 17.65625 -0.515625 
Q 12.796875 0.390625 7.625 2.203125 
L 7.625 11.71875 
Q 11.71875 9.328125 16.59375 8.109375 
Q 21.484375 6.890625 26.8125 6.890625 
Q 36.078125 6.890625 40.9375 10.546875 
Q 45.796875 14.203125 45.796875 21.1875 
Q 45.796875 27.640625 41.28125 31.265625 
Q 36.765625 34.90625 28.71875 34.90625 
L 20.21875 34.90625 
L 20.21875 43.015625 
L 29.109375 43.015625 
Q 36.375 43.015625 40.234375 45.921875 
Q 44.09375 48.828125 44.09375 54.296875 
Q 44.09375 59.90625 40.109375 62.90625 
Q 36.140625 65.921875 28.71875 65.921875 
Q 24.65625 65.921875 20.015625 65.03125 
Q 15.375 64.15625 9.8125 62.3125 
L 9.8125 71.09375 
Q 15.4375 72.65625 20.34375 73.4375 
Q 25.25 74.21875 29.59375 74.21875 
Q 40.828125 74.21875 47.359375 69.109375 
Q 53.90625 64.015625 53.90625 55.328125 
Q 53.90625 49.265625 50.4375 45.09375 
Q 46.96875 40.921875 40.578125 39.3125 
z
" id="DejaVuSans-51"/>
        <path d="M 12.40625 8.296875 
L 28.515625 8.296875 
L 28.515625 63.921875 
L 10.984375 60.40625 
L 10.984375 69.390625 
L 28.421875 72.90625 
L 38.28125 72.90625 
L 38.28125 8.296875 
L 54.390625 8.296875 
L 54.390625 0 
L 12.40625 0 
z
" id="DejaVuSans-49"/>
       </defs>
       <use xlink:href="#DejaVuSans-51"/>
       <use x="63.623047" xlink:href="#DejaVuSans-49"/>
      </g>
     </g>
    </g>
    <g id="xtick_2">
     <g id="line2d_3">
      <g>
       <use style="stroke:#000000;stroke-width:0.8;" x="394.118191" xlink:href="#mf5af1557a1" y="170.28"/>
      </g>
     </g>
     <g id="line2d_4">
      <g>
       <use style="stroke:#000000;stroke-width:0.8;" x="394.118191" xlink:href="#m79d3ac1c7c" y="7.2"/>
      </g>
     </g>
     <g id="text_2">
      <!-- 32 -->
      <g transform="translate(387.755691 181.378438)scale(0.1 -0.1)">
       <defs>
        <path d="M 19.1875 8.296875 
L 53.609375 8.296875 
L 53.609375 0 
L 7.328125 0 
L 7.328125 8.296875 
Q 12.9375 14.109375 22.625 23.890625 
Q 32.328125 33.6875 34.8125 36.53125 
Q 39.546875 41.84375 41.421875 45.53125 
Q 43.3125 49.21875 43.3125 52.78125 
Q 43.3125 58.59375 39.234375 62.25 
Q 35.15625 65.921875 28.609375 65.921875 
Q 23.96875 65.921875 18.8125 64.3125 
Q 13.671875 62.703125 7.8125 59.421875 
L 7.8125 69.390625 
Q 13.765625 71.78125 18.9375 73 
Q 24.125 74.21875 28.421875 74.21875 
Q 39.75 74.21875 46.484375 68.546875 
Q 53.21875 62.890625 53.21875 53.421875 
Q 53.21875 48.921875 51.53125 44.890625 
Q 49.859375 40.875 45.40625 35.40625 
Q 44.1875 33.984375 37.640625 27.21875 
Q 31.109375 20.453125 19.1875 8.296875 
z
" id="DejaVuSans-50"/>
       </defs>
       <use xlink:href="#DejaVuSans-51"/>
       <use x="63.623047" xlink:href="#DejaVuSans-50"/>
      </g>
     </g>
    </g>
    <g id="xtick_3">
     <g id="line2d_5">
      <g>
       <use style="stroke:#000000;stroke-width:0.8;" x="320.036741" xlink:href="#mf5af1557a1" y="170.28"/>
      </g>
     </g>
     <g id="line2d_6">
      <g>
       <use style="stroke:#000000;stroke-width:0.8;" x="320.036741" xlink:href="#m79d3ac1c7c" y="7.2"/>
      </g>
     </g>
     <g id="text_3">
      <!-- 33 -->
      <g transform="translate(313.674241 181.378438)scale(0.1 -0.1)">
       <use xlink:href="#DejaVuSans-51"/>
       <use x="63.623047" xlink:href="#DejaVuSans-51"/>
      </g>
     </g>
    </g>
    <g id="xtick_4">
     <g id="line2d_7">
      <g>
       <use style="stroke:#000000;stroke-width:0.8;" x="245.955291" xlink:href="#mf5af1557a1" y="170.28"/>
      </g>
     </g>
     <g id="line2d_8">
      <g>
       <use style="stroke:#000000;stroke-width:0.8;" x="245.955291" xlink:href="#m79d3ac1c7c" y="7.2"/>
      </g>
     </g>
     <g id="text_4">
      <!-- 34 -->
      <g transform="translate(239.592791 181.378438)scale(0.1 -0.1)">
       <defs>
        <path d="M 37.796875 64.3125 
L 12.890625 25.390625 
L 37.796875 25.390625 
z
M 35.203125 72.90625 
L 47.609375 72.90625 
L 47.609375 25.390625 
L 58.015625 25.390625 
L 58.015625 17.1875 
L 47.609375 17.1875 
L 47.609375 0 
L 37.796875 0 
L 37.796875 17.1875 
L 4.890625 17.1875 
L 4.890625 26.703125 
z
" id="DejaVuSans-52"/>
       </defs>
       <use xlink:href="#DejaVuSans-51"/>
       <use x="63.623047" xlink:href="#DejaVuSans-52"/>
      </g>
     </g>
    </g>
    <g id="xtick_5">
     <g id="line2d_9">
      <g>
       <use style="stroke:#000000;stroke-width:0.8;" x="171.873841" xlink:href="#mf5af1557a1" y="170.28"/>
      </g>
     </g>
     <g id="line2d_10">
      <g>
       <use style="stroke:#000000;stroke-width:0.8;" x="171.873841" xlink:href="#m79d3ac1c7c" y="7.2"/>
      </g>
     </g>
     <g id="text_5">
      <!-- 35 -->
      <g transform="translate(165.511341 181.378438)scale(0.1 -0.1)">
       <defs>
        <path d="M 10.796875 72.90625 
L 49.515625 72.90625 
L 49.515625 64.59375 
L 19.828125 64.59375 
L 19.828125 46.734375 
Q 21.96875 47.46875 24.109375 47.828125 
Q 26.265625 48.1875 28.421875 48.1875 
Q 40.625 48.1875 47.75 41.5 
Q 54.890625 34.8125 54.890625 23.390625 
Q 54.890625 11.625 47.5625 5.09375 
Q 40.234375 -1.421875 26.90625 -1.421875 
Q 22.3125 -1.421875 17.546875 -0.640625 
Q 12.796875 0.140625 7.71875 1.703125 
L 7.71875 11.625 
Q 12.109375 9.234375 16.796875 8.0625 
Q 21.484375 6.890625 26.703125 6.890625 
Q 35.15625 6.890625 40.078125 11.328125 
Q 45.015625 15.765625 45.015625 23.390625 
Q 45.015625 31 40.078125 35.4375 
Q 35.15625 39.890625 26.703125 39.890625 
Q 22.75 39.890625 18.8125 39.015625 
Q 14.890625 38.140625 10.796875 36.28125 
z
" id="DejaVuSans-53"/>
       </defs>
       <use xlink:href="#DejaVuSans-51"/>
       <use x="63.623047" xlink:href="#DejaVuSans-53"/>
      </g>
     </g>
    </g>
    <g id="xtick_6">
     <g id="line2d_11">
      <g>
       <use style="stroke:#000000;stroke-width:0.8;" x="97.792392" xlink:href="#mf5af1557a1" y="170.28"/>
      </g>
     </g>
     <g id="line2d_12">
      <g>
       <use style="stroke:#000000;stroke-width:0.8;" x="97.792392" xlink:href="#m79d3ac1c7c" y="7.2"/>
      </g>
     </g>
     <g id="text_6">
      <!-- 36 -->
      <g transform="translate(91.429892 181.378438)scale(0.1 -0.1)">
       <defs>
        <path d="M 33.015625 40.375 
Q 26.375 40.375 22.484375 35.828125 
Q 18.609375 31.296875 18.609375 23.390625 
Q 18.609375 15.53125 22.484375 10.953125 
Q 26.375 6.390625 33.015625 6.390625 
Q 39.65625 6.390625 43.53125 10.953125 
Q 47.40625 15.53125 47.40625 23.390625 
Q 47.40625 31.296875 43.53125 35.828125 
Q 39.65625 40.375 33.015625 40.375 
z
M 52.59375 71.296875 
L 52.59375 62.3125 
Q 48.875 64.0625 45.09375 64.984375 
Q 41.3125 65.921875 37.59375 65.921875 
Q 27.828125 65.921875 22.671875 59.328125 
Q 17.53125 52.734375 16.796875 39.40625 
Q 19.671875 43.65625 24.015625 45.921875 
Q 28.375 48.1875 33.59375 48.1875 
Q 44.578125 48.1875 50.953125 41.515625 
Q 57.328125 34.859375 57.328125 23.390625 
Q 57.328125 12.15625 50.6875 5.359375 
Q 44.046875 -1.421875 33.015625 -1.421875 
Q 20.359375 -1.421875 13.671875 8.265625 
Q 6.984375 17.96875 6.984375 36.375 
Q 6.984375 53.65625 15.1875 63.9375 
Q 23.390625 74.21875 37.203125 74.21875 
Q 40.921875 74.21875 44.703125 73.484375 
Q 48.484375 72.75 52.59375 71.296875 
z
" id="DejaVuSans-54"/>
       </defs>
       <use xlink:href="#DejaVuSans-51"/>
       <use x="63.623047" xlink:href="#DejaVuSans-54"/>
      </g>
     </g>
    </g>
    <g id="text_7">
     <!-- Time BP (kyr) -->
     <g transform="translate(229.654687 195.056563)scale(0.1 -0.1)">
      <defs>
       <path d="M -0.296875 72.90625 
L 61.375 72.90625 
L 61.375 64.59375 
L 35.5 64.59375 
L 35.5 0 
L 25.59375 0 
L 25.59375 64.59375 
L -0.296875 64.59375 
z
" id="DejaVuSans-84"/>
       <path d="M 9.421875 54.6875 
L 18.40625 54.6875 
L 18.40625 0 
L 9.421875 0 
z
M 9.421875 75.984375 
L 18.40625 75.984375 
L 18.40625 64.59375 
L 9.421875 64.59375 
z
" id="DejaVuSans-105"/>
       <path d="M 52 44.1875 
Q 55.375 50.25 60.0625 53.125 
Q 64.75 56 71.09375 56 
Q 79.640625 56 84.28125 50.015625 
Q 88.921875 44.046875 88.921875 33.015625 
L 88.921875 0 
L 79.890625 0 
L 79.890625 32.71875 
Q 79.890625 40.578125 77.09375 44.375 
Q 74.3125 48.1875 68.609375 48.1875 
Q 61.625 48.1875 57.5625 43.546875 
Q 53.515625 38.921875 53.515625 30.90625 
L 53.515625 0 
L 44.484375 0 
L 44.484375 32.71875 
Q 44.484375 40.625 41.703125 44.40625 
Q 38.921875 48.1875 33.109375 48.1875 
Q 26.21875 48.1875 22.15625 43.53125 
Q 18.109375 38.875 18.109375 30.90625 
L 18.109375 0 
L 9.078125 0 
L 9.078125 54.6875 
L 18.109375 54.6875 
L 18.109375 46.1875 
Q 21.1875 51.21875 25.484375 53.609375 
Q 29.78125 56 35.6875 56 
Q 41.65625 56 45.828125 52.96875 
Q 50 49.953125 52 44.1875 
z
" id="DejaVuSans-109"/>
       <path d="M 56.203125 29.59375 
L 56.203125 25.203125 
L 14.890625 25.203125 
Q 15.484375 15.921875 20.484375 11.0625 
Q 25.484375 6.203125 34.421875 6.203125 
Q 39.59375 6.203125 44.453125 7.46875 
Q 49.3125 8.734375 54.109375 11.28125 
L 54.109375 2.78125 
Q 49.265625 0.734375 44.1875 -0.34375 
Q 39.109375 -1.421875 33.890625 -1.421875 
Q 20.796875 -1.421875 13.15625 6.1875 
Q 5.515625 13.8125 5.515625 26.8125 
Q 5.515625 40.234375 12.765625 48.109375 
Q 20.015625 56 32.328125 56 
Q 43.359375 56 49.78125 48.890625 
Q 56.203125 41.796875 56.203125 29.59375 
z
M 47.21875 32.234375 
Q 47.125 39.59375 43.09375 43.984375 
Q 39.0625 48.390625 32.421875 48.390625 
Q 24.90625 48.390625 20.390625 44.140625 
Q 15.875 39.890625 15.1875 32.171875 
z
" id="DejaVuSans-101"/>
       <path id="DejaVuSans-32"/>
       <path d="M 19.671875 34.8125 
L 19.671875 8.109375 
L 35.5 8.109375 
Q 43.453125 8.109375 47.28125 11.40625 
Q 51.125 14.703125 51.125 21.484375 
Q 51.125 28.328125 47.28125 31.5625 
Q 43.453125 34.8125 35.5 34.8125 
z
M 19.671875 64.796875 
L 19.671875 42.828125 
L 34.28125 42.828125 
Q 41.5 42.828125 45.03125 45.53125 
Q 48.578125 48.25 48.578125 53.8125 
Q 48.578125 59.328125 45.03125 62.0625 
Q 41.5 64.796875 34.28125 64.796875 
z
M 9.8125 72.90625 
L 35.015625 72.90625 
Q 46.296875 72.90625 52.390625 68.21875 
Q 58.5 63.53125 58.5 54.890625 
Q 58.5 48.1875 55.375 44.234375 
Q 52.25 40.28125 46.1875 39.3125 
Q 53.46875 37.75 57.5 32.78125 
Q 61.53125 27.828125 61.53125 20.40625 
Q 61.53125 10.640625 54.890625 5.3125 
Q 48.25 0 35.984375 0 
L 9.8125 0 
z
" id="DejaVuSans-66"/>
       <path d="M 19.671875 64.796875 
L 19.671875 37.40625 
L 32.078125 37.40625 
Q 38.96875 37.40625 42.71875 40.96875 
Q 46.484375 44.53125 46.484375 51.125 
Q 46.484375 57.671875 42.71875 61.234375 
Q 38.96875 64.796875 32.078125 64.796875 
z
M 9.8125 72.90625 
L 32.078125 72.90625 
Q 44.34375 72.90625 50.609375 67.359375 
Q 56.890625 61.8125 56.890625 51.125 
Q 56.890625 40.328125 50.609375 34.8125 
Q 44.34375 29.296875 32.078125 29.296875 
L 19.671875 29.296875 
L 19.671875 0 
L 9.8125 0 
z
" id="DejaVuSans-80"/>
       <path d="M 31 75.875 
Q 24.46875 64.65625 21.28125 53.65625 
Q 18.109375 42.671875 18.109375 31.390625 
Q 18.109375 20.125 21.3125 9.0625 
Q 24.515625 -2 31 -13.1875 
L 23.1875 -13.1875 
Q 15.875 -1.703125 12.234375 9.375 
Q 8.59375 20.453125 8.59375 31.390625 
Q 8.59375 42.28125 12.203125 53.3125 
Q 15.828125 64.359375 23.1875 75.875 
z
" id="DejaVuSans-40"/>
       <path d="M 9.078125 75.984375 
L 18.109375 75.984375 
L 18.109375 31.109375 
L 44.921875 54.6875 
L 56.390625 54.6875 
L 27.390625 29.109375 
L 57.625 0 
L 45.90625 0 
L 18.109375 26.703125 
L 18.109375 0 
L 9.078125 0 
z
" id="DejaVuSans-107"/>
       <path d="M 32.171875 -5.078125 
Q 28.375 -14.84375 24.75 -17.8125 
Q 21.140625 -20.796875 15.09375 -20.796875 
L 7.90625 -20.796875 
L 7.90625 -13.28125 
L 13.1875 -13.28125 
Q 16.890625 -13.28125 18.9375 -11.515625 
Q 21 -9.765625 23.484375 -3.21875 
L 25.09375 0.875 
L 2.984375 54.6875 
L 12.5 54.6875 
L 29.59375 11.921875 
L 46.6875 54.6875 
L 56.203125 54.6875 
z
" id="DejaVuSans-121"/>
       <path d="M 41.109375 46.296875 
Q 39.59375 47.171875 37.8125 47.578125 
Q 36.03125 48 33.890625 48 
Q 26.265625 48 22.1875 43.046875 
Q 18.109375 38.09375 18.109375 28.8125 
L 18.109375 0 
L 9.078125 0 
L 9.078125 54.6875 
L 18.109375 54.6875 
L 18.109375 46.1875 
Q 20.953125 51.171875 25.484375 53.578125 
Q 30.03125 56 36.53125 56 
Q 37.453125 56 38.578125 55.875 
Q 39.703125 55.765625 41.0625 55.515625 
z
" id="DejaVuSans-114"/>
       <path d="M 8.015625 75.875 
L 15.828125 75.875 
Q 23.140625 64.359375 26.78125 53.3125 
Q 30.421875 42.28125 30.421875 31.390625 
Q 30.421875 20.453125 26.78125 9.375 
Q 23.140625 -1.703125 15.828125 -13.1875 
L 8.015625 -13.1875 
Q 14.5 -2 17.703125 9.0625 
Q 20.90625 20.125 20.90625 31.390625 
Q 20.90625 42.671875 17.703125 53.65625 
Q 14.5 64.65625 8.015625 75.875 
z
" id="DejaVuSans-41"/>
      </defs>
      <use xlink:href="#DejaVuSans-84"/>
      <use x="57.958984" xlink:href="#DejaVuSans-105"/>
      <use x="85.742188" xlink:href="#DejaVuSans-109"/>
      <use x="183.154297" xlink:href="#DejaVuSans-101"/>
      <use x="244.677734" xlink:href="#DejaVuSans-32"/>
      <use x="276.464844" xlink:href="#DejaVuSans-66"/>
      <use x="345.068359" xlink:href="#DejaVuSans-80"/>
      <use x="405.371094" xlink:href="#DejaVuSans-32"/>
      <use x="437.158203" xlink:href="#DejaVuSans-40"/>
      <use x="476.171875" xlink:href="#DejaVuSans-107"/>
      <use x="530.457031" xlink:href="#DejaVuSans-121"/>
      <use x="589.636719" xlink:href="#DejaVuSans-114"/>
      <use x="630.75" xlink:href="#DejaVuSans-41"/>
     </g>
    </g>
   </g>
   <g id="matplotlib.axis_2">
    <g id="ytick_1">
     <g id="line2d_13">
      <defs>
       <path d="M 0 0 
L 3.5 0 
" id="mbb1bf9c396" style="stroke:#000000;stroke-width:0.8;"/>
      </defs>
      <g>
       <use style="stroke:#000000;stroke-width:0.8;" x="39.942188" xlink:href="#mbb1bf9c396" y="162.664771"/>
      </g>
     </g>
     <g id="line2d_14">
      <defs>
       <path d="M 0 0 
L -3.5 0 
" id="ma89a9a7a37" style="stroke:#000000;stroke-width:0.8;"/>
      </defs>
      <g>
       <use style="stroke:#000000;stroke-width:0.8;" x="486.342187" xlink:href="#ma89a9a7a37" y="162.664771"/>
      </g>
     </g>
     <g id="text_8">
      <!-- −2 -->
      <g transform="translate(21.7 166.46399)scale(0.1 -0.1)">
       <defs>
        <path d="M 10.59375 35.5 
L 73.1875 35.5 
L 73.1875 27.203125 
L 10.59375 27.203125 
z
" id="DejaVuSans-8722"/>
       </defs>
       <use xlink:href="#DejaVuSans-8722"/>
       <use x="83.789062" xlink:href="#DejaVuSans-50"/>
      </g>
     </g>
    </g>
    <g id="ytick_2">
     <g id="line2d_15">
      <g>
       <use style="stroke:#000000;stroke-width:0.8;" x="39.942188" xlink:href="#mbb1bf9c396" y="138.846941"/>
      </g>
     </g>
     <g id="line2d_16">
      <g>
       <use style="stroke:#000000;stroke-width:0.8;" x="486.342187" xlink:href="#ma89a9a7a37" y="138.846941"/>
      </g>
     </g>
     <g id="text_9">
      <!-- −1 -->
      <g transform="translate(21.7 142.64616)scale(0.1 -0.1)">
       <use xlink:href="#DejaVuSans-8722"/>
       <use x="83.789062" xlink:href="#DejaVuSans-49"/>
      </g>
     </g>
    </g>
    <g id="ytick_3">
     <g id="line2d_17">
      <g>
       <use style="stroke:#000000;stroke-width:0.8;" x="39.942188" xlink:href="#mbb1bf9c396" y="115.029111"/>
      </g>
     </g>
     <g id="line2d_18">
      <g>
       <use style="stroke:#000000;stroke-width:0.8;" x="486.342187" xlink:href="#ma89a9a7a37" y="115.029111"/>
      </g>
     </g>
     <g id="text_10">
      <!-- 0 -->
      <g transform="translate(30.079688 118.82833)scale(0.1 -0.1)">
       <defs>
        <path d="M 31.78125 66.40625 
Q 24.171875 66.40625 20.328125 58.90625 
Q 16.5 51.421875 16.5 36.375 
Q 16.5 21.390625 20.328125 13.890625 
Q 24.171875 6.390625 31.78125 6.390625 
Q 39.453125 6.390625 43.28125 13.890625 
Q 47.125 21.390625 47.125 36.375 
Q 47.125 51.421875 43.28125 58.90625 
Q 39.453125 66.40625 31.78125 66.40625 
z
M 31.78125 74.21875 
Q 44.046875 74.21875 50.515625 64.515625 
Q 56.984375 54.828125 56.984375 36.375 
Q 56.984375 17.96875 50.515625 8.265625 
Q 44.046875 -1.421875 31.78125 -1.421875 
Q 19.53125 -1.421875 13.0625 8.265625 
Q 6.59375 17.96875 6.59375 36.375 
Q 6.59375 54.828125 13.0625 64.515625 
Q 19.53125 74.21875 31.78125 74.21875 
z
" id="DejaVuSans-48"/>
       </defs>
       <use xlink:href="#DejaVuSans-48"/>
      </g>
     </g>
    </g>
    <g id="ytick_4">
     <g id="line2d_19">
      <g>
       <use style="stroke:#000000;stroke-width:0.8;" x="39.942188" xlink:href="#mbb1bf9c396" y="91.211281"/>
      </g>
     </g>
     <g id="line2d_20">
      <g>
       <use style="stroke:#000000;stroke-width:0.8;" x="486.342187" xlink:href="#ma89a9a7a37" y="91.211281"/>
      </g>
     </g>
     <g id="text_11">
      <!-- 1 -->
      <g transform="translate(30.079688 95.0105)scale(0.1 -0.1)">
       <use xlink:href="#DejaVuSans-49"/>
      </g>
     </g>
    </g>
    <g id="ytick_5">
     <g id="line2d_21">
      <g>
       <use style="stroke:#000000;stroke-width:0.8;" x="39.942188" xlink:href="#mbb1bf9c396" y="67.393451"/>
      </g>
     </g>
     <g id="line2d_22">
      <g>
       <use style="stroke:#000000;stroke-width:0.8;" x="486.342187" xlink:href="#ma89a9a7a37" y="67.393451"/>
      </g>
     </g>
     <g id="text_12">
      <!-- 2 -->
      <g transform="translate(30.079688 71.19267)scale(0.1 -0.1)">
       <use xlink:href="#DejaVuSans-50"/>
      </g>
     </g>
    </g>
    <g id="ytick_6">
     <g id="line2d_23">
      <g>
       <use style="stroke:#000000;stroke-width:0.8;" x="39.942188" xlink:href="#mbb1bf9c396" y="43.575622"/>
      </g>
     </g>
     <g id="line2d_24">
      <g>
       <use style="stroke:#000000;stroke-width:0.8;" x="486.342187" xlink:href="#ma89a9a7a37" y="43.575622"/>
      </g>
     </g>
     <g id="text_13">
      <!-- 3 -->
      <g transform="translate(30.079688 47.37484)scale(0.1 -0.1)">
       <use xlink:href="#DejaVuSans-51"/>
      </g>
     </g>
    </g>
    <g id="ytick_7">
     <g id="line2d_25">
      <g>
       <use style="stroke:#000000;stroke-width:0.8;" x="39.942188" xlink:href="#mbb1bf9c396" y="19.757792"/>
      </g>
     </g>
     <g id="line2d_26">
      <g>
       <use style="stroke:#000000;stroke-width:0.8;" x="486.342187" xlink:href="#ma89a9a7a37" y="19.757792"/>
      </g>
     </g>
     <g id="text_14">
      <!-- 4 -->
      <g transform="translate(30.079688 23.55701)scale(0.1 -0.1)">
       <use xlink:href="#DejaVuSans-52"/>
      </g>
     </g>
    </g>
    <g id="text_15">
     <!-- Shifted $\delta^{18}$O (‰) -->
     <g transform="translate(15.620313 132.19)rotate(-90)scale(0.1 -0.1)">
      <defs>
       <path d="M 53.515625 70.515625 
L 53.515625 60.890625 
Q 47.90625 63.578125 42.921875 64.890625 
Q 37.9375 66.21875 33.296875 66.21875 
Q 25.25 66.21875 20.875 63.09375 
Q 16.5 59.96875 16.5 54.203125 
Q 16.5 49.359375 19.40625 46.890625 
Q 22.3125 44.4375 30.421875 42.921875 
L 36.375 41.703125 
Q 47.40625 39.59375 52.65625 34.296875 
Q 57.90625 29 57.90625 20.125 
Q 57.90625 9.515625 50.796875 4.046875 
Q 43.703125 -1.421875 29.984375 -1.421875 
Q 24.8125 -1.421875 18.96875 -0.25 
Q 13.140625 0.921875 6.890625 3.21875 
L 6.890625 13.375 
Q 12.890625 10.015625 18.65625 8.296875 
Q 24.421875 6.59375 29.984375 6.59375 
Q 38.421875 6.59375 43.015625 9.90625 
Q 47.609375 13.234375 47.609375 19.390625 
Q 47.609375 24.75 44.3125 27.78125 
Q 41.015625 30.8125 33.5 32.328125 
L 27.484375 33.5 
Q 16.453125 35.6875 11.515625 40.375 
Q 6.59375 45.0625 6.59375 53.421875 
Q 6.59375 63.09375 13.40625 68.65625 
Q 20.21875 74.21875 32.171875 74.21875 
Q 37.3125 74.21875 42.625 73.28125 
Q 47.953125 72.359375 53.515625 70.515625 
z
" id="DejaVuSans-83"/>
       <path d="M 54.890625 33.015625 
L 54.890625 0 
L 45.90625 0 
L 45.90625 32.71875 
Q 45.90625 40.484375 42.875 44.328125 
Q 39.84375 48.1875 33.796875 48.1875 
Q 26.515625 48.1875 22.3125 43.546875 
Q 18.109375 38.921875 18.109375 30.90625 
L 18.109375 0 
L 9.078125 0 
L 9.078125 75.984375 
L 18.109375 75.984375 
L 18.109375 46.1875 
Q 21.34375 51.125 25.703125 53.5625 
Q 30.078125 56 35.796875 56 
Q 45.21875 56 50.046875 50.171875 
Q 54.890625 44.34375 54.890625 33.015625 
z
" id="DejaVuSans-104"/>
       <path d="M 37.109375 75.984375 
L 37.109375 68.5 
L 28.515625 68.5 
Q 23.6875 68.5 21.796875 66.546875 
Q 19.921875 64.59375 19.921875 59.515625 
L 19.921875 54.6875 
L 34.71875 54.6875 
L 34.71875 47.703125 
L 19.921875 47.703125 
L 19.921875 0 
L 10.890625 0 
L 10.890625 47.703125 
L 2.296875 47.703125 
L 2.296875 54.6875 
L 10.890625 54.6875 
L 10.890625 58.5 
Q 10.890625 67.625 15.140625 71.796875 
Q 19.390625 75.984375 28.609375 75.984375 
z
" id="DejaVuSans-102"/>
       <path d="M 18.3125 70.21875 
L 18.3125 54.6875 
L 36.8125 54.6875 
L 36.8125 47.703125 
L 18.3125 47.703125 
L 18.3125 18.015625 
Q 18.3125 11.328125 20.140625 9.421875 
Q 21.96875 7.515625 27.59375 7.515625 
L 36.8125 7.515625 
L 36.8125 0 
L 27.59375 0 
Q 17.1875 0 13.234375 3.875 
Q 9.28125 7.765625 9.28125 18.015625 
L 9.28125 47.703125 
L 2.6875 47.703125 
L 2.6875 54.6875 
L 9.28125 54.6875 
L 9.28125 70.21875 
z
" id="DejaVuSans-116"/>
       <path d="M 45.40625 46.390625 
L 45.40625 75.984375 
L 54.390625 75.984375 
L 54.390625 0 
L 45.40625 0 
L 45.40625 8.203125 
Q 42.578125 3.328125 38.25 0.953125 
Q 33.9375 -1.421875 27.875 -1.421875 
Q 17.96875 -1.421875 11.734375 6.484375 
Q 5.515625 14.40625 5.515625 27.296875 
Q 5.515625 40.1875 11.734375 48.09375 
Q 17.96875 56 27.875 56 
Q 33.9375 56 38.25 53.625 
Q 42.578125 51.265625 45.40625 46.390625 
z
M 14.796875 27.296875 
Q 14.796875 17.390625 18.875 11.75 
Q 22.953125 6.109375 30.078125 6.109375 
Q 37.203125 6.109375 41.296875 11.75 
Q 45.40625 17.390625 45.40625 27.296875 
Q 45.40625 37.203125 41.296875 42.84375 
Q 37.203125 48.484375 30.078125 48.484375 
Q 22.953125 48.484375 18.875 42.84375 
Q 14.796875 37.203125 14.796875 27.296875 
z
" id="DejaVuSans-100"/>
       <path d="M 54.25 63.328125 
Q 49.953125 66.75 38.28125 66.75 
Q 25.921875 66.75 24.8125 61.03125 
Q 23.921875 56.546875 36.375 54.203125 
Q 46.140625 52.390625 50.828125 46.921875 
Q 56.5 40.328125 53.859375 26.8125 
Q 51.3125 13.875 43.171875 6.25 
Q 34.96875 -1.421875 23.25 -1.421875 
Q 11.578125 -1.421875 6.34375 6.25 
Q 1.125 13.875 3.765625 27.296875 
Q 5.671875 37.25 13.921875 45.3125 
Q 17.140625 48.4375 21.140625 50.203125 
Q 14.265625 54.046875 15.625 60.9375 
Q 18.21875 74.21875 39.75 74.21875 
Q 50.53125 74.21875 55.71875 70.796875 
z
M 27.390625 47.75 
Q 23.828125 46.34375 20.40625 42.78125 
Q 15.140625 37.25 13.234375 27.296875 
Q 11.28125 17.390625 14.359375 11.8125 
Q 17.484375 6.203125 24.75 6.203125 
Q 31.9375 6.203125 37.203125 11.859375 
Q 42.53125 17.53125 44.34375 26.8125 
Q 46.1875 36.53125 42.671875 41.21875 
Q 38.921875 46.234375 32.859375 46.78125 
Q 29.78125 47.078125 27.390625 47.75 
z
" id="DejaVuSans-Oblique-948"/>
       <path d="M 31.78125 34.625 
Q 24.75 34.625 20.71875 30.859375 
Q 16.703125 27.09375 16.703125 20.515625 
Q 16.703125 13.921875 20.71875 10.15625 
Q 24.75 6.390625 31.78125 6.390625 
Q 38.8125 6.390625 42.859375 10.171875 
Q 46.921875 13.96875 46.921875 20.515625 
Q 46.921875 27.09375 42.890625 30.859375 
Q 38.875 34.625 31.78125 34.625 
z
M 21.921875 38.8125 
Q 15.578125 40.375 12.03125 44.71875 
Q 8.5 49.078125 8.5 55.328125 
Q 8.5 64.0625 14.71875 69.140625 
Q 20.953125 74.21875 31.78125 74.21875 
Q 42.671875 74.21875 48.875 69.140625 
Q 55.078125 64.0625 55.078125 55.328125 
Q 55.078125 49.078125 51.53125 44.71875 
Q 48 40.375 41.703125 38.8125 
Q 48.828125 37.15625 52.796875 32.3125 
Q 56.78125 27.484375 56.78125 20.515625 
Q 56.78125 9.90625 50.3125 4.234375 
Q 43.84375 -1.421875 31.78125 -1.421875 
Q 19.734375 -1.421875 13.25 4.234375 
Q 6.78125 9.90625 6.78125 20.515625 
Q 6.78125 27.484375 10.78125 32.3125 
Q 14.796875 37.15625 21.921875 38.8125 
z
M 18.3125 54.390625 
Q 18.3125 48.734375 21.84375 45.5625 
Q 25.390625 42.390625 31.78125 42.390625 
Q 38.140625 42.390625 41.71875 45.5625 
Q 45.3125 48.734375 45.3125 54.390625 
Q 45.3125 60.0625 41.71875 63.234375 
Q 38.140625 66.40625 31.78125 66.40625 
Q 25.390625 66.40625 21.84375 63.234375 
Q 18.3125 60.0625 18.3125 54.390625 
z
" id="DejaVuSans-56"/>
       <path d="M 39.40625 66.21875 
Q 28.65625 66.21875 22.328125 58.203125 
Q 16.015625 50.203125 16.015625 36.375 
Q 16.015625 22.609375 22.328125 14.59375 
Q 28.65625 6.59375 39.40625 6.59375 
Q 50.140625 6.59375 56.421875 14.59375 
Q 62.703125 22.609375 62.703125 36.375 
Q 62.703125 50.203125 56.421875 58.203125 
Q 50.140625 66.21875 39.40625 66.21875 
z
M 39.40625 74.21875 
Q 54.734375 74.21875 63.90625 63.9375 
Q 73.09375 53.65625 73.09375 36.375 
Q 73.09375 19.140625 63.90625 8.859375 
Q 54.734375 -1.421875 39.40625 -1.421875 
Q 24.03125 -1.421875 14.8125 8.828125 
Q 5.609375 19.09375 5.609375 36.375 
Q 5.609375 53.65625 14.8125 63.9375 
Q 24.03125 74.21875 39.40625 74.21875 
z
" id="DejaVuSans-79"/>
       <path d="M 111.921875 32.078125 
Q 107.671875 32.078125 105.21875 28.46875 
Q 102.78125 24.859375 102.78125 18.40625 
Q 102.78125 12.0625 105.21875 8.421875 
Q 107.671875 4.78125 111.921875 4.78125 
Q 116.0625 4.78125 118.484375 8.421875 
Q 120.90625 12.0625 120.90625 18.40625 
Q 120.90625 24.8125 118.484375 28.4375 
Q 116.0625 32.078125 111.921875 32.078125 
z
M 111.921875 38.28125 
Q 119.625 38.28125 124.171875 32.90625 
Q 128.71875 27.546875 128.71875 18.40625 
Q 128.71875 9.28125 124.140625 3.921875 
Q 119.578125 -1.421875 111.921875 -1.421875 
Q 104.109375 -1.421875 99.5625 3.921875 
Q 95.015625 9.28125 95.015625 18.40625 
Q 95.015625 27.59375 99.578125 32.9375 
Q 104.15625 38.28125 111.921875 38.28125 
z
M 22.3125 74.21875 
Q 30.03125 74.21875 34.609375 68.875 
Q 39.203125 63.53125 39.203125 54.390625 
Q 39.203125 45.171875 34.640625 39.84375 
Q 30.078125 34.515625 22.3125 34.515625 
Q 14.546875 34.515625 10.03125 39.859375 
Q 5.515625 45.21875 5.515625 54.390625 
Q 5.515625 63.484375 10.046875 68.84375 
Q 14.59375 74.21875 22.3125 74.21875 
z
M 66.40625 74.21875 
L 74.21875 74.21875 
L 28.609375 -1.421875 
L 20.796875 -1.421875 
z
M 22.3125 68.015625 
Q 18.109375 68.015625 15.6875 64.375 
Q 13.28125 60.75 13.28125 54.390625 
Q 13.28125 47.953125 15.671875 44.328125 
Q 18.0625 40.71875 22.3125 40.71875 
Q 26.5625 40.71875 28.96875 44.328125 
Q 31.390625 47.953125 31.390625 54.390625 
Q 31.390625 60.6875 28.953125 64.34375 
Q 26.515625 68.015625 22.3125 68.015625 
z
M 72.703125 38.28125 
Q 80.421875 38.28125 84.953125 32.90625 
Q 89.5 27.546875 89.5 18.40625 
Q 89.5 9.28125 84.9375 3.921875 
Q 80.375 -1.421875 72.703125 -1.421875 
Q 64.890625 -1.421875 60.34375 3.921875 
Q 55.8125 9.28125 55.8125 18.40625 
Q 55.8125 27.59375 60.375 32.9375 
Q 64.9375 38.28125 72.703125 38.28125 
z
M 72.703125 32.078125 
Q 68.453125 32.078125 66.03125 28.46875 
Q 63.625 24.859375 63.625 18.40625 
Q 63.625 12.0625 66.03125 8.421875 
Q 68.453125 4.78125 72.703125 4.78125 
Q 76.859375 4.78125 79.265625 8.421875 
Q 81.6875 12.0625 81.6875 18.40625 
Q 81.6875 24.8125 79.265625 28.4375 
Q 76.859375 32.078125 72.703125 32.078125 
z
" id="DejaVuSans-8240"/>
      </defs>
      <use transform="translate(0 0.765625)" xlink:href="#DejaVuSans-83"/>
      <use transform="translate(63.476562 0.765625)" xlink:href="#DejaVuSans-104"/>
      <use transform="translate(126.855469 0.765625)" xlink:href="#DejaVuSans-105"/>
      <use transform="translate(154.638672 0.765625)" xlink:href="#DejaVuSans-102"/>
      <use transform="translate(189.84375 0.765625)" xlink:href="#DejaVuSans-116"/>
      <use transform="translate(229.052734 0.765625)" xlink:href="#DejaVuSans-101"/>
      <use transform="translate(290.576172 0.765625)" xlink:href="#DejaVuSans-100"/>
      <use transform="translate(354.052734 0.765625)" xlink:href="#DejaVuSans-32"/>
      <use transform="translate(385.839844 0.765625)" xlink:href="#DejaVuSans-Oblique-948"/>
      <use transform="translate(454.222005 39.046875)scale(0.7)" xlink:href="#DejaVuSans-49"/>
      <use transform="translate(498.758138 39.046875)scale(0.7)" xlink:href="#DejaVuSans-56"/>
      <use transform="translate(546.028646 0.765625)" xlink:href="#DejaVuSans-79"/>
      <use transform="translate(624.739583 0.765625)" xlink:href="#DejaVuSans-32"/>
      <use transform="translate(656.526693 0.765625)" xlink:href="#DejaVuSans-40"/>
      <use transform="translate(695.540365 0.765625)" xlink:href="#DejaVuSans-8240"/>
      <use transform="translate(829.720052 0.765625)" xlink:href="#DejaVuSans-41"/>
     </g>
    </g>
   </g>
   <g id="line2d_27">
    <path clip-path="url(#pf1e61aa333)" d="M 466.051278 116.937313 
L 463.976998 122.424194 
L 459.309866 134.956655 
L 457.754156 138.439114 
L 456.494771 140.755191 
L 455.457631 142.238616 
L 454.939061 142.815461 
L 454.716817 143.534194 
L 454.494572 143.535374 
L 454.346409 143.477286 
L 454.124165 143.75538 
L 454.050084 143.620509 
L 453.827839 142.326795 
L 453.531513 140.773023 
L 453.38335 140.74008 
L 453.309269 140.701408 
L 453.161106 140.250074 
L 452.642536 138.1694 
L 451.82764 135.651622 
L 451.457233 135.921838 
L 451.160907 136.31566 
L 451.012744 136.155621 
L 450.642337 134.926235 
L 450.123767 133.277108 
L 449.975604 133.726294 
L 449.679278 134.904473 
L 449.457034 135.084108 
L 449.160708 134.636232 
L 449.086626 134.717289 
L 448.938464 135.271828 
L 448.345812 139.375598 
L 448.27173 139.298997 
L 448.049486 139.171645 
L 447.901323 139.663313 
L 447.382753 141.962031 
L 447.23459 141.826226 
L 446.938264 141.53423 
L 446.864183 141.495877 
L 446.71602 141.030395 
L 446.493776 140.333036 
L 446.345613 140.060967 
L 445.901124 138.807768 
L 445.530717 139.219596 
L 445.308472 138.955064 
L 445.086228 138.364494 
L 444.938065 138.172319 
L 444.715821 139.116307 
L 444.271332 141.012315 
L 444.123169 140.596414 
L 443.752762 139.0334 
L 443.530518 138.704656 
L 443.382355 138.723837 
L 443.086029 139.197534 
L 442.863785 139.371532 
L 442.345214 139.714789 
L 442.12297 138.991405 
L 441.900726 138.154395 
L 441.678481 137.931724 
L 441.456237 136.747416 
L 440.789504 133.293689 
L 440.56726 132.967073 
L 440.419097 133.158621 
L 440.122771 133.471952 
L 439.974608 133.343039 
L 439.752364 132.539372 
L 439.604201 132.207091 
L 439.456038 132.31053 
L 438.863386 133.763687 
L 438.418898 136.588785 
L 438.04849 135.512571 
L 437.678083 134.31152 
L 437.52992 134.577211 
L 437.01135 135.901606 
L 436.863187 135.747484 
L 436.640943 134.873668 
L 436.196454 132.940298 
L 436.122373 132.914325 
L 435.97421 133.286496 
L 435.307477 136.209312 
L 435.085232 136.442598 
L 434.714825 136.625548 
L 434.196255 137.214934 
L 434.048092 136.936201 
L 432.714626 132.230589 
L 431.677486 132.584619 
L 431.158916 133.011289 
L 431.010753 132.874019 
L 430.640345 133.252283 
L 430.047694 131.632484 
L 429.751368 131.033227 
L 429.380961 131.765049 
L 429.232798 131.907009 
L 429.010554 132.65224 
L 428.714228 133.873706 
L 428.566065 134.357245 
L 427.751169 138.445346 
L 427.603006 138.580026 
L 427.084436 140.059065 
L 426.78811 141.436326 
L 426.491784 142.88937 
L 426.195458 142.473859 
L 426.121377 142.506969 
L 425.602807 143.872799 
L 425.528725 143.86624 
L 425.084237 143.14179 
L 424.491585 143.998466 
L 423.824852 145.798436 
L 423.306282 145.87825 
L 422.935875 146.308778 
L 422.787712 146.389542 
L 422.71363 146.299362 
L 422.417304 144.591787 
L 422.046897 140.683875 
L 421.67649 137.386862 
L 421.454246 136.92514 
L 421.232001 136.970814 
L 421.083838 137.086302 
L 420.935676 136.846856 
L 420.046698 133.823982 
L 419.824454 134.116377 
L 419.602209 134.371333 
L 419.454047 134.443353 
L 419.083639 135.424499 
L 418.787313 134.726297 
L 418.639151 134.880698 
L 418.490988 135.007104 
L 418.342825 134.896963 
L 418.12058 134.156693 
L 417.824255 133.109098 
L 417.676092 133.302108 
L 417.231603 134.373436 
L 417.157522 134.2995 
L 416.935277 133.581617 
L 416.638951 131.972434 
L 416.120381 128.116835 
L 415.898137 127.777998 
L 415.675893 127.826421 
L 415.453648 127.825826 
L 415.305485 128.209184 
L 415.083241 128.736913 
L 414.935078 128.693499 
L 414.712834 129.208957 
L 413.897938 131.320439 
L 413.675693 131.009102 
L 412.638553 128.506646 
L 412.49039 128.412874 
L 412.268146 127.716004 
L 412.045902 127.067806 
L 411.897739 127.146618 
L 411.675494 127.861724 
L 411.008761 131.082003 
L 410.93468 131.038936 
L 410.786517 131.65561 
L 410.490191 132.917179 
L 410.41611 132.922535 
L 410.267947 132.588812 
L 409.897539 131.861563 
L 409.675295 131.655456 
L 409.527132 131.82685 
L 409.304888 132.759632 
L 409.156725 133.165118 
L 408.934481 132.519353 
L 408.489992 131.19253 
L 408.41591 131.256844 
L 408.193666 132.300521 
L 407.526933 135.680505 
L 407.156526 136.371236 
L 406.934281 136.775962 
L 406.786119 136.763964 
L 406.489793 136.501651 
L 406.267548 137.56475 
L 405.748978 139.656947 
L 405.526734 140.039699 
L 405.156327 140.108447 
L 404.934082 140.339657 
L 404.637757 139.625851 
L 404.341431 139.680467 
L 404.193268 139.764266 
L 403.896942 139.94132 
L 403.748779 139.623729 
L 403.452453 138.876801 
L 403.30429 138.889517 
L 403.230209 138.899435 
L 402.933883 138.251144 
L 402.489395 137.352201 
L 402.044906 137.99607 
L 401.822661 137.518534 
L 401.600417 137.073969 
L 401.452254 137.563091 
L 400.933684 139.725254 
L 400.785521 139.72062 
L 400.563277 139.446441 
L 400.415114 139.869104 
L 400.044707 141.092763 
L 399.748381 141.908787 
L 399.452055 142.145677 
L 399.155729 142.135896 
L 399.081648 142.1233 
L 398.933485 141.60189 
L 398.711241 140.863876 
L 398.563078 140.76189 
L 398.414915 140.900314 
L 398.118589 141.229734 
L 397.970426 141.193023 
L 397.822263 140.694736 
L 397.525937 138.447438 
L 396.711041 132.311544 
L 396.488797 131.944044 
L 396.414716 131.956041 
L 396.266553 131.226759 
L 395.970227 129.685979 
L 395.747983 129.590035 
L 395.59982 129.770097 
L 395.451657 129.35313 
L 395.007168 127.239559 
L 394.710842 127.306606 
L 394.488598 126.63034 
L 393.895946 124.510878 
L 393.821865 124.579776 
L 393.673702 124.700202 
L 393.303295 124.207782 
L 392.932887 122.504913 
L 391.673503 114.074783 
L 391.303096 112.860307 
L 390.858607 110.850799 
L 390.636363 110.662919 
L 390.414118 109.265006 
L 390.117792 107.593045 
L 389.969629 107.415853 
L 389.821467 106.798074 
L 389.080652 101.04558 
L 388.710245 97.635763 
L 388.562082 97.241158 
L 388.339838 95.712695 
L 388.043512 93.831618 
L 387.673105 92.822423 
L 387.228616 90.679707 
L 386.339638 84.698865 
L 385.969231 83.377684 
L 385.746987 81.516579 
L 385.228417 77.647121 
L 385.080254 77.476296 
L 384.858009 77.243804 
L 384.487602 76.159442 
L 383.672706 70.797161 
L 383.302299 67.893817 
L 382.561485 64.773527 
L 382.413322 64.709577 
L 382.265159 64.254863 
L 381.968833 62.968652 
L 381.524344 62.863761 
L 381.376181 62.867138 
L 381.153937 62.984808 
L 380.709448 62.822314 
L 380.635367 62.883202 
L 380.190878 63.894514 
L 379.820471 64.193373 
L 379.450064 63.90919 
L 379.375982 63.887626 
L 379.227819 64.02162 
L 379.079656 63.535381 
L 378.26476 59.287119 
L 378.116598 58.892766 
L 377.820272 57.827965 
L 377.523946 57.229074 
L 377.449864 57.072903 
L 377.375783 57.160384 
L 377.005376 58.344481 
L 376.857213 58.583733 
L 375.968235 56.79709 
L 375.745991 56.43928 
L 375.597828 56.370589 
L 375.375584 55.665031 
L 375.079258 54.976024 
L 374.782932 54.973801 
L 374.560688 55.284226 
L 374.412525 55.86625 
L 374.190281 56.338831 
L 374.116199 56.187912 
L 374.042118 56.229394 
L 373.745792 57.129725 
L 373.671711 57.058234 
L 373.375385 56.885055 
L 373.15314 56.034647 
L 372.930896 55.921474 
L 372.63457 55.449936 
L 372.486407 55.75357 
L 371.967837 54.885073 
L 371.819674 54.922102 
L 371.671511 54.963397 
L 371.449267 54.777571 
L 371.301104 55.111589 
L 371.07886 55.376823 
L 370.930697 55.248018 
L 370.634371 54.534441 
L 370.412127 54.181883 
L 370.04172 54.123023 
L 369.374986 52.391713 
L 369.078661 51.115476 
L 368.930498 51.345171 
L 368.782335 51.065401 
L 368.560091 50.065442 
L 368.115602 47.485995 
L 367.893357 47.244585 
L 367.52295 45.246401 
L 366.337647 38.258615 
L 365.96724 36.243417 
L 365.004181 32.680995 
L 364.633774 32.691676 
L 364.337448 32.295472 
L 363.967041 33.211517 
L 363.818878 32.782086 
L 363.522552 31.420739 
L 363.44847 31.448076 
L 363.300308 31.552604 
L 363.152145 32.002105 
L 362.633575 34.271991 
L 362.263167 35.698909 
L 361.744597 38.238917 
L 361.37419 39.831824 
L 360.707457 44.504748 
L 360.114805 48.7487 
L 359.522154 55.509487 
L 359.151746 58.23642 
L 357.744199 72.274913 
L 357.151547 75.007358 
L 356.632977 80.019461 
L 355.447674 95.636429 
L 355.151348 99.654012 
L 354.780941 103.927869 
L 354.558697 104.861455 
L 354.410534 105.285072 
L 353.966045 108.175064 
L 353.595638 111.343161 
L 353.299312 113.788568 
L 352.484416 123.562316 
L 352.114009 126.212747 
L 351.66952 129.43577 
L 350.336054 140.406019 
L 350.187891 140.800805 
L 349.965647 143.058761 
L 349.447076 148.710321 
L 349.224832 149.557878 
L 349.150751 149.540535 
L 348.780343 148.831089 
L 348.484018 149.178716 
L 348.261773 148.945085 
L 348.11361 149.200917 
L 347.817285 149.689196 
L 347.59504 150.157449 
L 347.372796 150.563965 
L 347.224633 150.300567 
L 347.002389 149.75735 
L 346.854226 149.537392 
L 346.483818 147.900184 
L 345.891167 145.47445 
L 345.743004 145.175418 
L 345.52076 143.709095 
L 345.224434 141.913656 
L 345.076271 141.822926 
L 344.928108 141.940782 
L 344.779945 141.506154 
L 344.631782 141.336707 
L 344.335456 141.859716 
L 344.113212 141.817388 
L 343.890968 141.997654 
L 343.224235 143.06366 
L 342.853827 143.767123 
L 342.705665 143.817895 
L 342.557502 143.713951 
L 342.038932 142.853583 
L 341.96485 142.919035 
L 341.594443 144.352855 
L 341.149954 146.517373 
L 340.779547 148.877997 
L 340.557303 149.157918 
L 340.335058 148.650325 
L 339.742407 146.922225 
L 339.668325 146.93524 
L 339.520162 147.411221 
L 338.927511 150.497932 
L 338.853429 150.495951 
L 338.705266 150.92059 
L 338.334859 152.330076 
L 337.594045 154.421486 
L 337.223637 155.091943 
L 336.408741 157.928648 
L 336.33466 157.929663 
L 336.186497 157.43454 
L 335.742008 155.184404 
L 335.593845 155.084754 
L 335.445682 155.33633 
L 335.223438 156.883086 
L 334.704868 160.296609 
L 333.593646 162.774657 
L 333.445483 162.867273 
L 333.29732 162.620935 
L 332.852832 160.45347 
L 332.408343 157.489709 
L 332.334262 157.357451 
L 332.26018 157.45148 
L 331.815691 159.497358 
L 331.74161 159.395266 
L 331.519366 158.07549 
L 330.852633 153.225147 
L 330.408144 150.01287 
L 330.259981 149.802849 
L 330.037737 150.630079 
L 329.371004 153.142928 
L 329.148759 153.129151 
L 329.000596 153.173234 
L 328.852433 152.985325 
L 327.593049 149.874855 
L 326.704071 145.697063 
L 326.185501 143.900905 
L 325.963257 143.205474 
L 325.666931 141.027953 
L 325.07428 136.672199 
L 324.777954 136.208378 
L 324.555709 135.240369 
L 324.111221 131.778126 
L 323.814895 130.01272 
L 323.222243 128.475038 
L 322.999999 128.277358 
L 322.851836 128.279615 
L 322.703673 128.006166 
L 321.740614 124.530282 
L 321.666533 124.57629 
L 321.147963 125.989035 
L 320.9998 125.463077 
L 320.777555 124.892568 
L 320.407148 124.775204 
L 320.258985 125.021152 
L 320.036741 126.224825 
L 319.666334 128.51936 
L 319.444089 127.456171 
L 319.295926 126.930232 
L 319.221845 126.949215 
L 318.851438 128.676945 
L 318.777356 128.647778 
L 318.48103 128.037329 
L 318.406949 128.079112 
L 318.258786 128.468293 
L 316.777157 135.211617 
L 316.554913 135.008697 
L 316.258587 134.5664 
L 316.110424 135.068817 
L 315.295528 138.4465 
L 315.221447 138.443114 
L 315.073284 138.065155 
L 314.776958 137.09887 
L 314.554714 136.809499 
L 314.332469 135.441698 
L 314.036143 133.741854 
L 313.962062 133.64748 
L 313.813899 134.136021 
L 313.517573 134.892376 
L 313.221248 135.435683 
L 312.999003 135.954759 
L 312.776759 135.619481 
L 312.628596 135.395821 
L 312.480433 135.753921 
L 312.258189 136.304295 
L 312.035944 135.543845 
L 311.221048 131.460288 
L 310.77656 131.310201 
L 310.406152 130.259664 
L 310.332071 130.288435 
L 310.109827 130.63924 
L 309.961664 130.792358 
L 309.813501 130.303537 
L 309.369012 128.324601 
L 309.220849 128.488369 
L 308.25779 130.99701 
L 308.109628 131.49189 
L 308.035546 131.426159 
L 307.813302 130.438241 
L 307.516976 127.934416 
L 307.22065 125.647832 
L 307.072487 125.493285 
L 306.924324 125.879589 
L 306.18351 129.168878 
L 305.887184 129.659701 
L 305.739021 129.639579 
L 304.924125 128.206293 
L 304.701881 127.551706 
L 304.627799 127.626731 
L 304.479636 128.768815 
L 304.109229 131.642646 
L 303.664741 131.829032 
L 302.923926 133.474199 
L 302.775763 133.107173 
L 302.553519 132.798988 
L 302.405356 133.021393 
L 302.257193 133.292595 
L 302.10903 133.322342 
L 301.886786 134.429 
L 301.368216 136.639659 
L 301.294134 136.770341 
L 301.145971 136.24256 
L 300.923727 135.667107 
L 300.55332 136.381317 
L 300.405157 136.442923 
L 300.108831 137.125914 
L 299.812505 138.572525 
L 299.368016 140.485103 
L 299.219854 140.032748 
L 298.849446 138.831599 
L 298.55312 138.72525 
L 298.330876 138.432403 
L 297.960469 138.537174 
L 297.441899 136.963632 
L 297.367817 137.086978 
L 297.145573 137.612198 
L 296.99741 137.305072 
L 296.849247 136.575151 
L 296.330677 132.961617 
L 295.886188 130.97412 
L 295.589862 129.537208 
L 295.4417 129.357124 
L 295.071292 127.584426 
L 294.774967 124.741653 
L 294.404559 121.064985 
L 294.034152 118.958523 
L 293.663745 115.124412 
L 292.848849 105.726854 
L 292.478442 103.758911 
L 291.811709 98.584109 
L 289.218858 77.984682 
L 288.700288 71.933725 
L 288.403962 68.566182 
L 288.033555 66.42926 
L 286.551926 53.096849 
L 286.403763 52.747567 
L 286.107437 51.087611 
L 285.662948 48.003883 
L 285.514785 48.127885 
L 284.699889 50.260081 
L 284.551726 49.424179 
L 284.033156 45.26034 
L 283.810912 44.597448 
L 283.736831 44.579019 
L 283.588668 44.923504 
L 283.514586 44.869562 
L 283.21826 44.355647 
L 282.921935 43.515241 
L 282.625609 43.6483 
L 282.329283 44.296034 
L 282.18112 43.657869 
L 281.884794 42.185507 
L 281.736631 42.057128 
L 281.588468 42.188147 
L 281.366224 42.80467 
L 281.14398 43.456955 
L 280.995817 43.607497 
L 280.773573 43.912577 
L 280.403165 43.613232 
L 280.032758 42.476593 
L 279.736432 42.128097 
L 279.514188 41.569112 
L 279.440106 41.656801 
L 279.217862 42.355876 
L 279.069699 42.029013 
L 278.995618 41.823609 
L 278.921536 41.886534 
L 278.625211 42.880254 
L 278.10664 41.480225 
L 277.810315 40.72805 
L 277.217663 40.483631 
L 276.328686 38.302433 
L 276.106441 38.192652 
L 275.958278 37.815608 
L 275.661953 36.777632 
L 275.291545 36.56451 
L 275.069301 35.749924 
L 274.624812 33.755259 
L 274.476649 33.660594 
L 274.328486 33.664028 
L 273.883998 33.111821 
L 273.735835 33.283434 
L 273.587672 33.111838 
L 273.291346 33.621823 
L 272.698695 33.525246 
L 272.47645 33.486084 
L 272.328287 33.540226 
L 272.031961 33.88277 
L 271.809717 34.547946 
L 271.365228 36.768023 
L 270.994821 38.398936 
L 270.624414 39.489623 
L 270.40217 38.911904 
L 270.328088 38.968788 
L 270.179925 39.338671 
L 269.439111 43.205528 
L 269.290948 43.414462 
L 269.142785 44.132093 
L 268.624215 47.184388 
L 268.476052 47.838011 
L 267.8834 51.178373 
L 267.512993 52.111056 
L 267.216667 52.650613 
L 266.994423 52.539986 
L 266.84626 52.456447 
L 266.698097 52.875829 
L 266.475853 54.39062 
L 265.80912 60.668169 
L 264.771979 69.418268 
L 264.401572 73.487867 
L 263.883002 76.162602 
L 263.660758 76.237416 
L 263.438513 77.534707 
L 262.475454 84.047612 
L 262.25321 85.717078 
L 261.808721 89.478621 
L 261.512396 91.220477 
L 261.438314 91.322224 
L 261.364233 91.267469 
L 261.290151 91.300333 
L 261.067907 92.463639 
L 260.771581 95.464618 
L 260.104848 101.895612 
L 259.734441 103.61305 
L 259.586278 103.441665 
L 259.438115 103.631166 
L 258.771382 104.792677 
L 258.623219 104.817039 
L 258.475056 104.69365 
L 258.326893 105.185395 
L 257.586079 109.665429 
L 257.215672 110.355055 
L 257.14159 110.344288 
L 256.919346 109.941761 
L 256.771183 110.261361 
L 256.10445 112.162537 
L 256.030368 112.090609 
L 255.882205 111.954256 
L 255.734043 112.12104 
L 255.58588 112.307911 
L 255.437717 112.157665 
L 254.919147 110.956877 
L 254.845065 111.085887 
L 254.548739 112.981725 
L 254.178332 115.262027 
L 253.956088 116.123462 
L 253.511599 119.584405 
L 253.437518 119.540822 
L 253.215273 118.618451 
L 252.918947 117.384364 
L 252.622622 117.348662 
L 252.400377 117.802954 
L 252.02997 118.789719 
L 251.585481 120.500543 
L 251.437318 120.29637 
L 251.066911 119.372 
L 250.918748 119.391205 
L 250.770585 119.839908 
L 250.548341 120.729109 
L 250.252015 120.853415 
L 249.437119 122.426666 
L 249.214875 122.584473 
L 249.066712 122.396512 
L 248.844468 122.076135 
L 248.770386 122.05576 
L 248.622223 121.569829 
L 248.251816 119.705017 
L 248.029572 119.696502 
L 247.881409 119.385898 
L 247.511002 117.955562 
L 247.362839 117.968053 
L 247.288757 118.090912 
L 246.844269 119.840016 
L 246.696106 120.065547 
L 246.325698 119.882558 
L 246.029373 120.288424 
L 245.88121 120.143862 
L 245.288558 119.025606 
L 245.066314 119.499399 
L 244.769988 120.556332 
L 244.251418 123.311159 
L 244.029173 123.574353 
L 243.881011 123.441892 
L 243.732848 122.949649 
L 243.288359 120.696941 
L 243.140196 120.500956 
L 242.917952 120.760144 
L 242.769789 120.399281 
L 242.473463 117.96976 
L 241.732649 112.84006 
L 241.658567 112.938089 
L 241.065915 116.151571 
L 240.917753 115.503189 
L 240.695508 114.819143 
L 240.547345 115.08463 
L 240.176938 115.700622 
L 240.028775 115.508392 
L 239.806531 114.292833 
L 239.510205 113.104898 
L 239.362042 112.915197 
L 239.139798 113.566551 
L 238.843472 114.112438 
L 238.695309 114.087475 
L 238.473065 113.692203 
L 238.102657 111.83545 
L 237.806332 110.696008 
L 237.584087 110.600055 
L 237.435924 110.874526 
L 236.991436 112.113116 
L 236.843273 112.059982 
L 236.472866 111.49852 
L 236.324703 112.081442 
L 236.17654 112.734078 
L 236.102458 112.691312 
L 235.287562 109.985037 
L 235.065318 109.93223 
L 234.694911 109.702203 
L 234.250422 109.495895 
L 234.176341 109.53927 
L 234.028178 109.240829 
L 233.731852 108.356332 
L 233.287363 108.773109 
L 233.1392 108.930829 
L 232.916956 109.674726 
L 232.472467 111.0548 
L 232.324304 110.518771 
L 232.027979 109.351926 
L 231.879816 109.468144 
L 231.657571 109.807936 
L 231.435327 108.733206 
L 231.213083 107.88739 
L 231.139001 108.070135 
L 230.620431 110.942937 
L 230.472268 111.019558 
L 230.250024 111.760727 
L 229.879617 112.97527 
L 229.731454 112.896151 
L 229.286965 112.15074 
L 229.138802 112.658705 
L 228.916558 113.817114 
L 228.768395 113.894436 
L 228.620232 113.532123 
L 228.101662 112.028337 
L 227.879417 111.697403 
L 227.731255 111.700932 
L 227.50901 111.816714 
L 227.360847 111.649948 
L 227.064521 110.846182 
L 226.768196 110.078868 
L 226.545951 110.279773 
L 226.397788 110.756824 
L 225.212485 117.914596 
L 225.064322 118.138269 
L 224.916159 117.659764 
L 224.693915 117.140371 
L 224.545752 117.206972 
L 224.101263 118.576995 
L 224.027182 118.519243 
L 223.730856 117.594845 
L 223.656775 117.661574 
L 223.43453 118.333287 
L 222.91596 120.350505 
L 222.619634 120.387056 
L 222.175146 121.537917 
L 221.87882 122.228324 
L 221.730657 121.892283 
L 221.36025 120.286218 
L 221.212087 120.194808 
L 220.989843 119.527854 
L 220.619435 118.427128 
L 220.471272 118.439358 
L 220.32311 118.80164 
L 219.360051 122.711013 
L 219.211888 122.730122 
L 218.989643 122.95631 
L 218.248829 121.286927 
L 217.656177 118.723759 
L 217.508014 118.775321 
L 217.28577 118.892187 
L 217.137607 118.814484 
L 216.989444 118.420066 
L 216.693118 117.44922 
L 216.396793 117.471152 
L 216.174548 117.065291 
L 215.507815 115.316736 
L 215.285571 114.941753 
L 214.841082 115.547465 
L 214.692919 115.112022 
L 214.322512 113.89254 
L 214.100268 113.665578 
L 213.729861 112.79213 
L 213.433535 112.937719 
L 213.21129 113.029426 
L 212.989046 112.712883 
L 212.766802 112.336366 
L 212.322313 112.970485 
L 212.100069 112.741214 
L 211.803743 111.910625 
L 211.729661 111.975812 
L 211.433336 112.724669 
L 211.13701 112.790869 
L 210.914765 113.382944 
L 210.322114 115.328863 
L 210.248032 115.321381 
L 210.025788 115.012772 
L 209.655381 115.587639 
L 209.359055 115.621526 
L 209.062729 116.272222 
L 208.766403 116.887891 
L 208.61824 116.824267 
L 208.247833 117.615901 
L 207.877426 118.512314 
L 207.655182 118.845668 
L 207.507019 118.96951 
L 207.284774 118.788752 
L 207.136611 119.298465 
L 206.914367 120.047342 
L 206.766204 119.446671 
L 206.54396 118.680932 
L 206.469878 118.676807 
L 206.321716 119.048831 
L 205.654982 121.782303 
L 205.210494 121.793481 
L 204.766005 120.511083 
L 204.691924 120.561753 
L 204.469679 120.595797 
L 204.173353 121.278851 
L 204.099272 121.201581 
L 203.877028 119.645058 
L 203.654783 118.887047 
L 203.580702 118.903814 
L 203.432539 119.232283 
L 203.358458 119.175799 
L 203.136213 118.273682 
L 203.062132 118.294036 
L 202.98805 118.315687 
L 202.839887 117.746105 
L 202.543562 116.177928 
L 202.395399 116.098165 
L 202.247236 116.215601 
L 202.173154 116.145289 
L 202.099073 116.23176 
L 201.802747 117.640729 
L 201.358258 121.004473 
L 201.284177 121.091046 
L 201.210095 121.01768 
L 200.987851 120.187308 
L 200.543362 118.723214 
L 200.321118 118.962887 
L 200.024792 118.69985 
L 199.728467 116.936567 
L 199.506222 116.151573 
L 199.358059 116.51189 
L 198.691326 119.756257 
L 198.543163 119.913939 
L 198.395 119.788839 
L 198.172756 119.102151 
L 197.209697 115.106178 
L 197.061534 114.685327 
L 195.876231 107.375767 
L 195.505824 105.900167 
L 194.542765 100.36425 
L 194.394602 99.789348 
L 193.876032 96.803661 
L 193.579706 96.09816 
L 193.061136 94.867915 
L 192.838892 93.151181 
L 192.320322 88.371685 
L 192.023996 86.866676 
L 191.431344 83.365734 
L 191.060937 80.767402 
L 190.69053 78.736089 
L 190.097878 75.378418 
L 189.875634 74.360033 
L 189.801552 74.336392 
L 189.505226 74.72579 
L 189.357064 74.072624 
L 188.986656 72.091013 
L 188.764412 71.804959 
L 188.616249 71.56577 
L 188.468086 70.839284 
L 187.875435 65.61763 
L 187.801353 65.766025 
L 187.356864 66.635941 
L 187.060539 67.090605 
L 186.912376 66.731023 
L 186.61605 65.344347 
L 186.319724 63.781797 
L 186.245643 63.713824 
L 185.949317 64.208726 
L 185.652991 63.219407 
L 185.430747 61.472326 
L 185.134421 59.236626 
L 183.949118 54.445721 
L 183.430548 52.703037 
L 183.356466 52.71839 
L 182.986059 53.153077 
L 182.689733 53.638735 
L 182.54157 53.87767 
L 182.319326 53.666122 
L 182.171163 53.398028 
L 181.948919 52.799069 
L 181.800756 53.127103 
L 181.726674 53.112529 
L 181.50443 54.070903 
L 181.134023 55.380605 
L 180.689534 57.688906 
L 180.393208 60.822367 
L 180.022801 64.000648 
L 179.726475 65.471508 
L 179.578312 65.660939 
L 179.356068 65.624984 
L 179.133823 66.052973 
L 178.985661 66.316715 
L 178.689335 68.118762 
L 178.170765 70.707548 
L 177.281787 73.671969 
L 177.207706 73.641696 
L 176.985461 73.092037 
L 176.689136 72.134468 
L 176.096484 70.602559 
L 175.800158 70.075013 
L 175.651995 69.882264 
L 174.911181 67.881241 
L 174.540774 66.52894 
L 174.392611 66.334689 
L 173.651796 64.610454 
L 173.281389 63.848268 
L 172.762819 62.223454 
L 172.540574 61.609614 
L 172.392412 61.086751 
L 172.096086 59.655983 
L 171.873841 59.299054 
L 171.651597 58.849861 
L 171.503434 58.851741 
L 171.28119 58.522229 
L 171.133027 58.519785 
L 170.984864 58.122928 
L 170.392212 55.446106 
L 170.095887 54.950531 
L 169.873642 54.318029 
L 169.725479 54.362521 
L 169.651398 54.395339 
L 169.503235 54.069421 
L 168.910583 52.21972 
L 168.688339 52.281512 
L 168.540176 51.68688 
L 168.169769 50.05898 
L 167.799362 48.785411 
L 167.651199 48.467409 
L 167.428954 47.142798 
L 166.910384 43.513126 
L 166.68814 43.373919 
L 166.539977 42.706112 
L 166.243651 41.272868 
L 166.095488 41.489851 
L 165.947325 42.287657 
L 165.502837 45.882456 
L 165.428755 45.824054 
L 165.132429 45.153503 
L 164.984267 44.713288 
L 164.613859 42.835341 
L 164.317534 43.337024 
L 164.169371 43.154667 
L 163.947126 42.167868 
L 163.576719 39.797304 
L 163.206312 39.064678 
L 162.761823 39.738757 
L 162.61366 39.593634 
L 162.465497 39.471706 
L 162.317334 39.535734 
L 162.09509 39.265815 
L 161.872846 39.540301 
L 161.650601 39.804482 
L 161.502438 39.726796 
L 161.206113 39.239489 
L 160.909787 39.473315 
L 160.613461 39.083704 
L 160.53938 39.157831 
L 160.391217 39.314466 
L 160.243054 39.185104 
L 160.094891 39.708506 
L 159.724484 41.35879 
L 159.650402 41.442595 
L 159.576321 41.269249 
L 159.502239 41.320724 
L 159.279995 41.94487 
L 159.057751 41.999685 
L 158.53918 41.257125 
L 158.168773 40.214033 
L 157.650203 42.047459 
L 157.576122 41.994122 
L 157.427959 41.713931 
L 156.390818 43.569129 
L 155.724085 41.936002 
L 154.909189 39.915683 
L 154.612864 39.536015 
L 154.538782 39.614156 
L 154.464701 39.522677 
L 154.242456 38.255499 
L 153.946131 37.192193 
L 153.501642 35.947375 
L 153.131235 34.354207 
L 152.760827 33.985775 
L 152.020013 32.111951 
L 151.945931 32.204002 
L 151.797769 32.480705 
L 151.501443 32.329046 
L 151.35328 32.599705 
L 151.131035 32.079334 
L 150.686547 31.132824 
L 150.612465 31.142055 
L 149.945732 32.150348 
L 149.871651 32.133202 
L 149.204918 30.502751 
L 148.686348 28.022759 
L 148.538185 28.000319 
L 148.241859 27.73935 
L 148.019615 26.74808 
L 147.426963 23.56018 
L 147.056556 22.226105 
L 146.686148 21.389516 
L 146.463904 20.342312 
L 146.24166 19.172331 
L 146.167578 19.198073 
L 146.019415 18.876625 
L 145.649008 17.518622 
L 145.204519 15.099663 
L 144.982275 14.612727 
L 144.834112 14.956802 
L 144.389624 16.728227 
L 144.019216 17.269886 
L 143.945135 17.172206 
L 143.574728 16.411325 
L 143.278402 15.55927 
L 143.130239 15.73854 
L 142.907995 16.002056 
L 142.68575 15.778123 
L 142.537587 16.24439 
L 142.241261 17.561678 
L 142.019017 17.265123 
L 141.64861 16.671648 
L 141.500447 17.258615 
L 140.981877 21.579136 
L 140.241062 29.717954 
L 139.722492 33.165507 
L 139.278003 35.535681 
L 138.240863 45.054578 
L 137.648212 48.87726 
L 136.611071 58.870977 
L 136.388827 60.741017 
L 135.49985 72.049181 
L 133.425569 92.448472 
L 132.98108 94.489574 
L 132.906999 94.530559 
L 132.758836 95.071191 
L 131.721696 101.687775 
L 131.351288 104.497225 
L 130.9068 108.026706 
L 130.38823 112.259214 
L 130.017822 113.75628 
L 129.721496 115.212533 
L 128.906601 116.863016 
L 128.610275 117.823888 
L 128.313949 118.218799 
L 128.017623 117.601972 
L 127.943542 117.653301 
L 127.499053 118.790642 
L 127.35089 118.436415 
L 126.610076 116.05758 
L 126.165587 113.473474 
L 125.721098 110.145091 
L 125.350691 107.872511 
L 124.832121 103.997115 
L 124.535795 103.109077 
L 124.017225 102.083813 
L 123.350492 99.20517 
L 123.27641 99.168712 
L 123.128247 99.563614 
L 122.906003 99.886799 
L 122.535596 99.923097 
L 122.387433 99.776125 
L 121.7207 98.09383 
L 121.424374 97.320977 
L 121.128048 96.58759 
L 121.053967 96.605946 
L 120.905804 96.992119 
L 120.535397 98.841179 
L 120.313152 99.581548 
L 120.239071 99.530045 
L 119.794582 98.355282 
L 119.646419 98.619713 
L 119.498256 99.28578 
L 119.053768 101.876866 
L 118.757442 102.477936 
L 118.609279 102.531332 
L 118.461116 102.201659 
L 118.090709 101.17844 
L 117.794383 100.980702 
L 117.64622 101.208128 
L 117.423976 102.14231 
L 117.053569 103.903119 
L 116.60908 104.792613 
L 115.497858 111.511919 
L 115.127451 113.673178 
L 114.682962 115.799084 
L 114.312555 119.635826 
L 113.942148 122.533838 
L 113.201333 125.20373 
L 112.682763 131.624689 
L 112.386437 134.210839 
L 112.164193 134.759217 
L 112.090111 134.722433 
L 111.867867 133.969883 
L 111.719704 133.412831 
L 111.645623 133.464018 
L 111.275215 134.754605 
L 111.127053 134.772545 
L 110.97889 135.463424 
L 110.312157 139.753576 
L 110.089912 140.483623 
L 109.571342 143.603797 
L 109.497261 143.586716 
L 109.349098 143.421652 
L 109.200935 143.799267 
L 108.608283 146.900899 
L 108.534202 146.876097 
L 108.311957 145.824495 
L 108.015632 145.003567 
L 107.719306 145.010751 
L 107.571143 144.906779 
L 107.274817 145.101338 
L 106.978491 145.675055 
L 106.830328 145.253288 
L 106.534003 143.342887 
L 106.237677 141.834954 
L 106.015433 141.658166 
L 105.86727 141.692225 
L 105.719107 141.500881 
L 105.570944 140.901484 
L 104.311559 132.521244 
L 103.792989 130.063447 
L 103.644826 130.067954 
L 103.422582 130.380523 
L 103.200337 130.735309 
L 103.052175 130.714138 
L 102.755849 131.202122 
L 102.681767 131.122246 
L 102.459523 130.347977 
L 102.237279 129.461576 
L 102.089116 129.195012 
L 101.422383 126.819609 
L 101.27422 126.798061 
L 101.051975 126.91057 
L 100.903813 126.554121 
L 99.644428 120.760646 
L 99.496265 120.45509 
L 99.422184 120.513045 
L 99.199939 121.536218 
L 98.903613 122.710462 
L 98.829532 122.634934 
L 98.681369 121.772254 
L 98.162799 117.54052 
L 97.866473 116.619674 
L 97.644229 116.119378 
L 97.421984 115.765437 
L 96.458926 117.975313 
L 96.310763 117.759013 
L 95.718111 116.588847 
L 95.64403 116.597378 
L 95.495867 117.01527 
L 95.199541 117.990579 
L 95.051378 118.123005 
L 94.829134 118.982042 
L 94.162401 122.431076 
L 94.014238 122.439072 
L 93.791993 121.631115 
L 93.569749 120.830563 
L 93.495668 120.923091 
L 93.273423 121.33919 
L 93.051179 120.689677 
L 92.60669 119.730588 
L 92.384446 119.037733 
L 92.162201 118.620225 
L 91.865876 118.824346 
L 91.643631 119.546966 
L 91.347305 120.304515 
L 90.976898 121.363797 
L 90.902817 121.290145 
L 90.680572 120.484007 
L 90.310165 117.656769 
L 89.939758 115.515634 
L 89.791595 115.227994 
L 89.569351 115.40765 
L 89.421188 115.269174 
L 89.273025 114.487117 
L 89.050781 113.349316 
L 88.976699 113.376669 
L 88.680373 114.105512 
L 88.235885 113.882687 
L 87.865477 114.241499 
L 87.717314 113.737826 
L 87.124663 110.964759 
L 86.309767 108.449038 
L 86.087523 108.956154 
L 85.791197 109.342287 
L 85.568952 109.296484 
L 85.198545 109.90933 
L 85.124464 109.861216 
L 84.976301 109.293957 
L 84.679975 107.691578 
L 84.531812 107.891917 
L 83.790998 110.093068 
L 83.346509 109.264555 
L 83.272427 109.343649 
L 82.531613 111.624981 
L 81.790798 115.128759 
L 81.198147 116.70882 
L 80.679577 116.261227 
L 80.457332 115.667566 
L 80.309169 115.691891 
L 80.012844 116.620994 
L 79.938762 116.527369 
L 79.716518 116.043582 
L 79.197948 115.705025 
L 79.049785 115.222492 
L 78.753459 113.789474 
L 78.679378 113.854222 
L 78.160807 115.701904 
L 78.012645 114.989722 
L 77.716319 113.548684 
L 77.642237 113.46355 
L 77.568156 113.529811 
L 77.197749 114.416666 
L 77.123667 114.354766 
L 76.679178 113.017689 
L 76.605097 113.155558 
L 76.160608 114.841758 
L 75.864282 114.430878 
L 75.419794 113.522864 
L 75.197549 113.418254 
L 74.975305 113.765071 
L 74.827142 113.937648 
L 74.678979 113.488224 
L 74.530816 112.916011 
L 74.456735 112.945412 
L 74.086328 113.498585 
L 73.938165 113.575339 
L 73.567758 115.471515 
L 73.19735 116.594558 
L 72.975106 116.593782 
L 72.67878 116.351981 
L 72.530617 115.588133 
L 71.715721 109.910775 
L 71.567558 110.06491 
L 71.345314 110.607808 
L 71.271233 110.540936 
L 68.159812 107.591254 
L 66.381857 105.579564 
L 64.826146 103.467932 
L 63.418599 101.182019 
L 62.011051 98.458232 
L 60.603504 95.218073 
L 60.233097 94.269733 
L 60.233097 94.269733 
" style="fill:none;stroke:#000000;stroke-linecap:square;stroke-width:1.5;"/>
   </g>
   <g id="line2d_28">
    <path clip-path="url(#pf1e61aa333)" d="M 430.195857 93.094846 
L 422.046897 89.198609 
L 414.638752 85.41314 
L 407.89734 81.721392 
L 401.822661 78.145585 
L 396.340634 74.665566 
L 391.377177 71.25334 
L 386.93229 67.927921 
L 383.005973 64.71533 
L 379.524145 61.581498 
L 376.486806 58.55373 
L 373.819873 55.584392 
L 371.523349 52.697962 
L 369.597231 49.93326 
L 367.967439 47.220447 
L 366.633973 44.591626 
L 365.522751 41.909152 
L 364.707855 39.387262 
L 364.115204 36.862913 
L 363.744796 34.329709 
L 363.596633 31.427456 
L 363.596633 31.427456 
" style="fill:none;stroke:#000000;stroke-dasharray:5.55,2.4;stroke-dashoffset:0;stroke-opacity:0.5;stroke-width:1.5;"/>
   </g>
   <g id="line2d_29">
    <path clip-path="url(#pf1e61aa333)" d="M 340.557303 63.530189 
L 329.519166 60.895305 
L 319.888578 58.372901 
L 311.517374 55.955184 
L 304.331474 53.65407 
L 298.182713 51.457337 
L 292.997012 49.375644 
L 288.626206 47.387233 
L 284.996215 45.495486 
L 282.032957 43.70361 
L 279.662351 42.014105 
L 277.810315 40.427552 
L 276.402767 38.939734 
L 275.365627 37.533965 
L 274.624812 36.155349 
L 274.180324 34.869003 
L 274.032161 34.126331 
L 273.958079 33.112845 
L 273.958079 33.112845 
" style="fill:none;stroke:#000000;stroke-dasharray:5.55,2.4;stroke-dashoffset:0;stroke-opacity:0.5;stroke-width:1.5;"/>
   </g>
   <g id="line2d_30">
    <path clip-path="url(#pf1e61aa333)" d="M 211.65558 71.746006 
L 203.284376 68.03478 
L 195.653987 64.411616 
L 188.764412 60.897199 
L 182.54157 57.475924 
L 176.985461 54.171967 
L 172.022004 50.96738 
L 167.577117 47.836282 
L 163.6508 44.801549 
L 160.243054 41.895358 
L 157.205714 39.015054 
L 154.612864 36.255065 
L 152.39042 33.572229 
L 150.538384 31.004472 
L 148.982673 28.484989 
L 147.723289 26.045738 
L 146.686148 23.550323 
L 145.945334 21.21358 
L 145.426764 18.873562 
L 145.130438 16.518236 
L 145.056357 14.618099 
L 145.056357 14.618099 
" style="fill:none;stroke:#000000;stroke-dasharray:5.55,2.4;stroke-dashoffset:0;stroke-opacity:0.5;stroke-width:1.5;"/>
   </g>
   <g id="patch_3">
    <path d="M 39.942188 170.28 
L 39.942188 7.2 
" style="fill:none;stroke:#000000;stroke-linecap:square;stroke-linejoin:miter;stroke-width:0.8;"/>
   </g>
   <g id="patch_4">
    <path d="M 486.342187 170.28 
L 486.342187 7.2 
" style="fill:none;stroke:#000000;stroke-linecap:square;stroke-linejoin:miter;stroke-width:0.8;"/>
   </g>
   <g id="patch_5">
    <path d="M 39.942187 170.28 
L 486.342187 170.28 
" style="fill:none;stroke:#000000;stroke-linecap:square;stroke-linejoin:miter;stroke-width:0.8;"/>
   </g>
   <g id="patch_6">
    <path d="M 39.942187 7.2 
L 486.342187 7.2 
" style="fill:none;stroke:#000000;stroke-linecap:square;stroke-linejoin:miter;stroke-width:0.8;"/>
   </g>
   <g id="legend_1">
    <g id="patch_7">
     <path d="M 46.942188 165.28 
L 160.670313 165.28 
Q 162.670313 165.28 162.670313 163.28 
L 162.670313 105.5675 
Q 162.670313 103.5675 160.670313 103.5675 
L 46.942188 103.5675 
Q 44.942188 103.5675 44.942188 105.5675 
L 44.942188 163.28 
Q 44.942188 165.28 46.942188 165.28 
z
" style="fill:#ffffff;opacity:0.8;stroke:#cccccc;stroke-linejoin:miter;"/>
    </g>
    <g id="line2d_31">
     <path d="M 48.942188 111.665938 
L 68.942188 111.665938 
" style="fill:none;stroke:#000000;stroke-linecap:square;stroke-width:1.5;"/>
    </g>
    <g id="line2d_32"/>
    <g id="text_16">
     <!-- SavGol fit -->
     <g transform="translate(76.942188 115.165938)scale(0.1 -0.1)">
      <defs>
       <path d="M 34.28125 27.484375 
Q 23.390625 27.484375 19.1875 25 
Q 14.984375 22.515625 14.984375 16.5 
Q 14.984375 11.71875 18.140625 8.90625 
Q 21.296875 6.109375 26.703125 6.109375 
Q 34.1875 6.109375 38.703125 11.40625 
Q 43.21875 16.703125 43.21875 25.484375 
L 43.21875 27.484375 
z
M 52.203125 31.203125 
L 52.203125 0 
L 43.21875 0 
L 43.21875 8.296875 
Q 40.140625 3.328125 35.546875 0.953125 
Q 30.953125 -1.421875 24.3125 -1.421875 
Q 15.921875 -1.421875 10.953125 3.296875 
Q 6 8.015625 6 15.921875 
Q 6 25.140625 12.171875 29.828125 
Q 18.359375 34.515625 30.609375 34.515625 
L 43.21875 34.515625 
L 43.21875 35.40625 
Q 43.21875 41.609375 39.140625 45 
Q 35.0625 48.390625 27.6875 48.390625 
Q 23 48.390625 18.546875 47.265625 
Q 14.109375 46.140625 10.015625 43.890625 
L 10.015625 52.203125 
Q 14.9375 54.109375 19.578125 55.046875 
Q 24.21875 56 28.609375 56 
Q 40.484375 56 46.34375 49.84375 
Q 52.203125 43.703125 52.203125 31.203125 
z
" id="DejaVuSans-97"/>
       <path d="M 2.984375 54.6875 
L 12.5 54.6875 
L 29.59375 8.796875 
L 46.6875 54.6875 
L 56.203125 54.6875 
L 35.6875 0 
L 23.484375 0 
z
" id="DejaVuSans-118"/>
       <path d="M 59.515625 10.40625 
L 59.515625 29.984375 
L 43.40625 29.984375 
L 43.40625 38.09375 
L 69.28125 38.09375 
L 69.28125 6.78125 
Q 63.578125 2.734375 56.6875 0.65625 
Q 49.8125 -1.421875 42 -1.421875 
Q 24.90625 -1.421875 15.25 8.5625 
Q 5.609375 18.5625 5.609375 36.375 
Q 5.609375 54.25 15.25 64.234375 
Q 24.90625 74.21875 42 74.21875 
Q 49.125 74.21875 55.546875 72.453125 
Q 61.96875 70.703125 67.390625 67.28125 
L 67.390625 56.78125 
Q 61.921875 61.421875 55.765625 63.765625 
Q 49.609375 66.109375 42.828125 66.109375 
Q 29.4375 66.109375 22.71875 58.640625 
Q 16.015625 51.171875 16.015625 36.375 
Q 16.015625 21.625 22.71875 14.15625 
Q 29.4375 6.6875 42.828125 6.6875 
Q 48.046875 6.6875 52.140625 7.59375 
Q 56.25 8.5 59.515625 10.40625 
z
" id="DejaVuSans-71"/>
       <path d="M 30.609375 48.390625 
Q 23.390625 48.390625 19.1875 42.75 
Q 14.984375 37.109375 14.984375 27.296875 
Q 14.984375 17.484375 19.15625 11.84375 
Q 23.34375 6.203125 30.609375 6.203125 
Q 37.796875 6.203125 41.984375 11.859375 
Q 46.1875 17.53125 46.1875 27.296875 
Q 46.1875 37.015625 41.984375 42.703125 
Q 37.796875 48.390625 30.609375 48.390625 
z
M 30.609375 56 
Q 42.328125 56 49.015625 48.375 
Q 55.71875 40.765625 55.71875 27.296875 
Q 55.71875 13.875 49.015625 6.21875 
Q 42.328125 -1.421875 30.609375 -1.421875 
Q 18.84375 -1.421875 12.171875 6.21875 
Q 5.515625 13.875 5.515625 27.296875 
Q 5.515625 40.765625 12.171875 48.375 
Q 18.84375 56 30.609375 56 
z
" id="DejaVuSans-111"/>
       <path d="M 9.421875 75.984375 
L 18.40625 75.984375 
L 18.40625 0 
L 9.421875 0 
z
" id="DejaVuSans-108"/>
      </defs>
      <use xlink:href="#DejaVuSans-83"/>
      <use x="63.476562" xlink:href="#DejaVuSans-97"/>
      <use x="124.755859" xlink:href="#DejaVuSans-118"/>
      <use x="183.935547" xlink:href="#DejaVuSans-71"/>
      <use x="261.425781" xlink:href="#DejaVuSans-111"/>
      <use x="322.607422" xlink:href="#DejaVuSans-108"/>
      <use x="350.390625" xlink:href="#DejaVuSans-32"/>
      <use x="382.177734" xlink:href="#DejaVuSans-102"/>
      <use x="417.382812" xlink:href="#DejaVuSans-105"/>
      <use x="445.166016" xlink:href="#DejaVuSans-116"/>
     </g>
    </g>
    <g id="line2d_33">
     <path d="M 48.942188 126.344063 
L 68.942188 126.344063 
" style="fill:none;"/>
    </g>
    <g id="line2d_34">
     <g>
      <use style="stroke:#000000;" x="58.942188" xlink:href="#m992cfae554" y="126.344063"/>
     </g>
    </g>
    <g id="text_17">
     <!-- Interstadial max -->
     <g transform="translate(76.942188 129.844063)scale(0.1 -0.1)">
      <defs>
       <path d="M 9.8125 72.90625 
L 19.671875 72.90625 
L 19.671875 0 
L 9.8125 0 
z
" id="DejaVuSans-73"/>
       <path d="M 54.890625 33.015625 
L 54.890625 0 
L 45.90625 0 
L 45.90625 32.71875 
Q 45.90625 40.484375 42.875 44.328125 
Q 39.84375 48.1875 33.796875 48.1875 
Q 26.515625 48.1875 22.3125 43.546875 
Q 18.109375 38.921875 18.109375 30.90625 
L 18.109375 0 
L 9.078125 0 
L 9.078125 54.6875 
L 18.109375 54.6875 
L 18.109375 46.1875 
Q 21.34375 51.125 25.703125 53.5625 
Q 30.078125 56 35.796875 56 
Q 45.21875 56 50.046875 50.171875 
Q 54.890625 44.34375 54.890625 33.015625 
z
" id="DejaVuSans-110"/>
       <path d="M 44.28125 53.078125 
L 44.28125 44.578125 
Q 40.484375 46.53125 36.375 47.5 
Q 32.28125 48.484375 27.875 48.484375 
Q 21.1875 48.484375 17.84375 46.4375 
Q 14.5 44.390625 14.5 40.28125 
Q 14.5 37.15625 16.890625 35.375 
Q 19.28125 33.59375 26.515625 31.984375 
L 29.59375 31.296875 
Q 39.15625 29.25 43.1875 25.515625 
Q 47.21875 21.78125 47.21875 15.09375 
Q 47.21875 7.46875 41.1875 3.015625 
Q 35.15625 -1.421875 24.609375 -1.421875 
Q 20.21875 -1.421875 15.453125 -0.5625 
Q 10.6875 0.296875 5.421875 2 
L 5.421875 11.28125 
Q 10.40625 8.6875 15.234375 7.390625 
Q 20.0625 6.109375 24.8125 6.109375 
Q 31.15625 6.109375 34.5625 8.28125 
Q 37.984375 10.453125 37.984375 14.40625 
Q 37.984375 18.0625 35.515625 20.015625 
Q 33.0625 21.96875 24.703125 23.78125 
L 21.578125 24.515625 
Q 13.234375 26.265625 9.515625 29.90625 
Q 5.8125 33.546875 5.8125 39.890625 
Q 5.8125 47.609375 11.28125 51.796875 
Q 16.75 56 26.8125 56 
Q 31.78125 56 36.171875 55.265625 
Q 40.578125 54.546875 44.28125 53.078125 
z
" id="DejaVuSans-115"/>
       <path d="M 54.890625 54.6875 
L 35.109375 28.078125 
L 55.90625 0 
L 45.3125 0 
L 29.390625 21.484375 
L 13.484375 0 
L 2.875 0 
L 24.125 28.609375 
L 4.6875 54.6875 
L 15.28125 54.6875 
L 29.78125 35.203125 
L 44.28125 54.6875 
z
" id="DejaVuSans-120"/>
      </defs>
      <use xlink:href="#DejaVuSans-73"/>
      <use x="29.492188" xlink:href="#DejaVuSans-110"/>
      <use x="92.871094" xlink:href="#DejaVuSans-116"/>
      <use x="132.080078" xlink:href="#DejaVuSans-101"/>
      <use x="193.603516" xlink:href="#DejaVuSans-114"/>
      <use x="234.716797" xlink:href="#DejaVuSans-115"/>
      <use x="286.816406" xlink:href="#DejaVuSans-116"/>
      <use x="326.025391" xlink:href="#DejaVuSans-97"/>
      <use x="387.304688" xlink:href="#DejaVuSans-100"/>
      <use x="450.78125" xlink:href="#DejaVuSans-105"/>
      <use x="478.564453" xlink:href="#DejaVuSans-97"/>
      <use x="539.84375" xlink:href="#DejaVuSans-108"/>
      <use x="567.626953" xlink:href="#DejaVuSans-32"/>
      <use x="599.414062" xlink:href="#DejaVuSans-109"/>
      <use x="696.826172" xlink:href="#DejaVuSans-97"/>
      <use x="758.105469" xlink:href="#DejaVuSans-120"/>
     </g>
    </g>
    <g id="line2d_35">
     <path d="M 48.942188 141.022188 
L 68.942188 141.022188 
" style="fill:none;stroke:#000000;stroke-dasharray:5.55,2.4;stroke-dashoffset:0;stroke-opacity:0.5;stroke-width:1.5;"/>
    </g>
    <g id="line2d_36"/>
    <g id="text_18">
     <!-- Interstadial fit -->
     <g transform="translate(76.942188 144.522188)scale(0.1 -0.1)">
      <use xlink:href="#DejaVuSans-73"/>
      <use x="29.492188" xlink:href="#DejaVuSans-110"/>
      <use x="92.871094" xlink:href="#DejaVuSans-116"/>
      <use x="132.080078" xlink:href="#DejaVuSans-101"/>
      <use x="193.603516" xlink:href="#DejaVuSans-114"/>
      <use x="234.716797" xlink:href="#DejaVuSans-115"/>
      <use x="286.816406" xlink:href="#DejaVuSans-116"/>
      <use x="326.025391" xlink:href="#DejaVuSans-97"/>
      <use x="387.304688" xlink:href="#DejaVuSans-100"/>
      <use x="450.78125" xlink:href="#DejaVuSans-105"/>
      <use x="478.564453" xlink:href="#DejaVuSans-97"/>
      <use x="539.84375" xlink:href="#DejaVuSans-108"/>
      <use x="567.626953" xlink:href="#DejaVuSans-32"/>
      <use x="599.414062" xlink:href="#DejaVuSans-102"/>
      <use x="634.619141" xlink:href="#DejaVuSans-105"/>
      <use x="662.402344" xlink:href="#DejaVuSans-116"/>
     </g>
    </g>
    <g id="line2d_37">
     <path d="M 48.942188 155.700313 
L 68.942188 155.700313 
" style="fill:none;"/>
    </g>
    <g id="line2d_38">
     <defs>
      <path d="M -3 3 
L 3 -3 
M -3 -3 
L 3 3 
" id="m10415992b5" style="stroke:#000000;"/>
     </defs>
     <g>
      <use style="stroke:#000000;" x="58.942188" xlink:href="#m10415992b5" y="155.700313"/>
     </g>
    </g>
    <g id="text_19">
     <!-- Interstadial end -->
     <g transform="translate(76.942188 159.200313)scale(0.1 -0.1)">
      <use xlink:href="#DejaVuSans-73"/>
      <use x="29.492188" xlink:href="#DejaVuSans-110"/>
      <use x="92.871094" xlink:href="#DejaVuSans-116"/>
      <use x="132.080078" xlink:href="#DejaVuSans-101"/>
      <use x="193.603516" xlink:href="#DejaVuSans-114"/>
      <use x="234.716797" xlink:href="#DejaVuSans-115"/>
      <use x="286.816406" xlink:href="#DejaVuSans-116"/>
      <use x="326.025391" xlink:href="#DejaVuSans-97"/>
      <use x="387.304688" xlink:href="#DejaVuSans-100"/>
      <use x="450.78125" xlink:href="#DejaVuSans-105"/>
      <use x="478.564453" xlink:href="#DejaVuSans-97"/>
      <use x="539.84375" xlink:href="#DejaVuSans-108"/>
      <use x="567.626953" xlink:href="#DejaVuSans-32"/>
      <use x="599.414062" xlink:href="#DejaVuSans-101"/>
      <use x="660.9375" xlink:href="#DejaVuSans-110"/>
      <use x="724.316406" xlink:href="#DejaVuSans-100"/>
     </g>
    </g>
   </g>
  </g>
 </g>
 <defs>
  <clipPath id="pf1e61aa333">
   <rect height="163.08" width="446.4" x="39.942188" y="7.2"/>
  </clipPath>
 </defs>
</svg>
