<?xml version="1.0" encoding="utf-8" standalone="no"?>
<!DOCTYPE svg PUBLIC "-//W3C//DTD SVG 1.1//EN"
  "http://www.w3.org/Graphics/SVG/1.1/DTD/svg11.dtd">
<!-- Created with matplotlib (https://matplotlib.org/) -->
<svg height="204.902156pt" version="1.1" viewBox="0 0 282.814887 204.902156" width="282.814887pt" xmlns="http://www.w3.org/2000/svg" xmlns:xlink="http://www.w3.org/1999/xlink">
 <metadata>
  <rdf:RDF xmlns:cc="http://creativecommons.org/ns#" xmlns:dc="http://purl.org/dc/elements/1.1/" xmlns:rdf="http://www.w3.org/1999/02/22-rdf-syntax-ns#">
   <cc:Work>
    <dc:type rdf:resource="http://purl.org/dc/dcmitype/StillImage"/>
    <dc:date>2022-03-07T21:16:47.326566</dc:date>
    <dc:format>image/svg+xml</dc:format>
    <dc:creator>
     <cc:Agent>
      <dc:title>Matplotlib v3.3.2, https://matplotlib.org/</dc:title>
     </cc:Agent>
    </dc:creator>
   </cc:Work>
  </rdf:RDF>
 </metadata>
 <defs>
  <style type="text/css">*{stroke-linecap:butt;stroke-linejoin:round;}</style>
 </defs>
 <g id="figure_1">
  <g id="patch_1">
   <path d="M 0 204.902156 
L 282.814887 204.902156 
L 282.814887 0 
L 0 0 
z
" style="fill:none;"/>
  </g>
  <g id="axes_1">
   <g id="patch_2">
    <path d="M 46.304688 170.845906 
L 269.504687 170.845906 
L 269.504687 7.765906 
L 46.304688 7.765906 
z
" style="fill:#ffffff;"/>
   </g>
   <g id="matplotlib.axis_1">
    <g id="xtick_1">
     <g id="line2d_1">
      <defs>
       <path d="M 0 0 
L 0 -3.5 
" id="ma7c52a5c44" style="stroke:#000000;stroke-width:0.8;"/>
      </defs>
      <g>
       <use style="stroke:#000000;stroke-width:0.8;" x="264.482075" xlink:href="#ma7c52a5c44" y="170.845906"/>
      </g>
     </g>
     <g id="line2d_2">
      <defs>
       <path d="M 0 0 
L 0 3.5 
" id="mcd093379c6" style="stroke:#000000;stroke-width:0.8;"/>
      </defs>
      <g>
       <use style="stroke:#000000;stroke-width:0.8;" x="264.482075" xlink:href="#mcd093379c6" y="7.765906"/>
      </g>
     </g>
     <g id="text_1">
      <!-- 33.8 -->
      <g transform="translate(253.349262 181.944343)scale(0.1 -0.1)">
       <defs>
        <path d="M 40.578125 39.3125 
Q 47.65625 37.796875 51.625 33 
Q 55.609375 28.21875 55.609375 21.1875 
Q 55.609375 10.40625 48.1875 4.484375 
Q 40.765625 -1.421875 27.09375 -1.421875 
Q 22.515625 -1.421875 17.65625 -0.515625 
Q 12.796875 0.390625 7.625 2.203125 
L 7.625 11.71875 
Q 11.71875 9.328125 16.59375 8.109375 
Q 21.484375 6.890625 26.8125 6.890625 
Q 36.078125 6.890625 40.9375 10.546875 
Q 45.796875 14.203125 45.796875 21.1875 
Q 45.796875 27.640625 41.28125 31.265625 
Q 36.765625 34.90625 28.71875 34.90625 
L 20.21875 34.90625 
L 20.21875 43.015625 
L 29.109375 43.015625 
Q 36.375 43.015625 40.234375 45.921875 
Q 44.09375 48.828125 44.09375 54.296875 
Q 44.09375 59.90625 40.109375 62.90625 
Q 36.140625 65.921875 28.71875 65.921875 
Q 24.65625 65.921875 20.015625 65.03125 
Q 15.375 64.15625 9.8125 62.3125 
L 9.8125 71.09375 
Q 15.4375 72.65625 20.34375 73.4375 
Q 25.25 74.21875 29.59375 74.21875 
Q 40.828125 74.21875 47.359375 69.109375 
Q 53.90625 64.015625 53.90625 55.328125 
Q 53.90625 49.265625 50.4375 45.09375 
Q 46.96875 40.921875 40.578125 39.3125 
z
" id="DejaVuSans-51"/>
        <path d="M 10.6875 12.40625 
L 21 12.40625 
L 21 0 
L 10.6875 0 
z
" id="DejaVuSans-46"/>
        <path d="M 31.78125 34.625 
Q 24.75 34.625 20.71875 30.859375 
Q 16.703125 27.09375 16.703125 20.515625 
Q 16.703125 13.921875 20.71875 10.15625 
Q 24.75 6.390625 31.78125 6.390625 
Q 38.8125 6.390625 42.859375 10.171875 
Q 46.921875 13.96875 46.921875 20.515625 
Q 46.921875 27.09375 42.890625 30.859375 
Q 38.875 34.625 31.78125 34.625 
z
M 21.921875 38.8125 
Q 15.578125 40.375 12.03125 44.71875 
Q 8.5 49.078125 8.5 55.328125 
Q 8.5 64.0625 14.71875 69.140625 
Q 20.953125 74.21875 31.78125 74.21875 
Q 42.671875 74.21875 48.875 69.140625 
Q 55.078125 64.0625 55.078125 55.328125 
Q 55.078125 49.078125 51.53125 44.71875 
Q 48 40.375 41.703125 38.8125 
Q 48.828125 37.15625 52.796875 32.3125 
Q 56.78125 27.484375 56.78125 20.515625 
Q 56.78125 9.90625 50.3125 4.234375 
Q 43.84375 -1.421875 31.78125 -1.421875 
Q 19.734375 -1.421875 13.25 4.234375 
Q 6.78125 9.90625 6.78125 20.515625 
Q 6.78125 27.484375 10.78125 32.3125 
Q 14.796875 37.15625 21.921875 38.8125 
z
M 18.3125 54.390625 
Q 18.3125 48.734375 21.84375 45.5625 
Q 25.390625 42.390625 31.78125 42.390625 
Q 38.140625 42.390625 41.71875 45.5625 
Q 45.3125 48.734375 45.3125 54.390625 
Q 45.3125 60.0625 41.71875 63.234375 
Q 38.140625 66.40625 31.78125 66.40625 
Q 25.390625 66.40625 21.84375 63.234375 
Q 18.3125 60.0625 18.3125 54.390625 
z
" id="DejaVuSans-56"/>
       </defs>
       <use xlink:href="#DejaVuSans-51"/>
       <use x="63.623047" xlink:href="#DejaVuSans-51"/>
       <use x="127.246094" xlink:href="#DejaVuSans-46"/>
       <use x="159.033203" xlink:href="#DejaVuSans-56"/>
      </g>
     </g>
    </g>
    <g id="xtick_2">
     <g id="line2d_3">
      <g>
       <use style="stroke:#000000;stroke-width:0.8;" x="219.935623" xlink:href="#ma7c52a5c44" y="170.845906"/>
      </g>
     </g>
     <g id="line2d_4">
      <g>
       <use style="stroke:#000000;stroke-width:0.8;" x="219.935623" xlink:href="#mcd093379c6" y="7.765906"/>
      </g>
     </g>
     <g id="text_2">
      <!-- 34.0 -->
      <g transform="translate(208.80281 181.944343)scale(0.1 -0.1)">
       <defs>
        <path d="M 37.796875 64.3125 
L 12.890625 25.390625 
L 37.796875 25.390625 
z
M 35.203125 72.90625 
L 47.609375 72.90625 
L 47.609375 25.390625 
L 58.015625 25.390625 
L 58.015625 17.1875 
L 47.609375 17.1875 
L 47.609375 0 
L 37.796875 0 
L 37.796875 17.1875 
L 4.890625 17.1875 
L 4.890625 26.703125 
z
" id="DejaVuSans-52"/>
        <path d="M 31.78125 66.40625 
Q 24.171875 66.40625 20.328125 58.90625 
Q 16.5 51.421875 16.5 36.375 
Q 16.5 21.390625 20.328125 13.890625 
Q 24.171875 6.390625 31.78125 6.390625 
Q 39.453125 6.390625 43.28125 13.890625 
Q 47.125 21.390625 47.125 36.375 
Q 47.125 51.421875 43.28125 58.90625 
Q 39.453125 66.40625 31.78125 66.40625 
z
M 31.78125 74.21875 
Q 44.046875 74.21875 50.515625 64.515625 
Q 56.984375 54.828125 56.984375 36.375 
Q 56.984375 17.96875 50.515625 8.265625 
Q 44.046875 -1.421875 31.78125 -1.421875 
Q 19.53125 -1.421875 13.0625 8.265625 
Q 6.59375 17.96875 6.59375 36.375 
Q 6.59375 54.828125 13.0625 64.515625 
Q 19.53125 74.21875 31.78125 74.21875 
z
" id="DejaVuSans-48"/>
       </defs>
       <use xlink:href="#DejaVuSans-51"/>
       <use x="63.623047" xlink:href="#DejaVuSans-52"/>
       <use x="127.246094" xlink:href="#DejaVuSans-46"/>
       <use x="159.033203" xlink:href="#DejaVuSans-48"/>
      </g>
     </g>
    </g>
    <g id="xtick_3">
     <g id="line2d_5">
      <g>
       <use style="stroke:#000000;stroke-width:0.8;" x="175.38917" xlink:href="#ma7c52a5c44" y="170.845906"/>
      </g>
     </g>
     <g id="line2d_6">
      <g>
       <use style="stroke:#000000;stroke-width:0.8;" x="175.38917" xlink:href="#mcd093379c6" y="7.765906"/>
      </g>
     </g>
     <g id="text_3">
      <!-- 34.2 -->
      <g transform="translate(164.256358 181.944343)scale(0.1 -0.1)">
       <defs>
        <path d="M 19.1875 8.296875 
L 53.609375 8.296875 
L 53.609375 0 
L 7.328125 0 
L 7.328125 8.296875 
Q 12.9375 14.109375 22.625 23.890625 
Q 32.328125 33.6875 34.8125 36.53125 
Q 39.546875 41.84375 41.421875 45.53125 
Q 43.3125 49.21875 43.3125 52.78125 
Q 43.3125 58.59375 39.234375 62.25 
Q 35.15625 65.921875 28.609375 65.921875 
Q 23.96875 65.921875 18.8125 64.3125 
Q 13.671875 62.703125 7.8125 59.421875 
L 7.8125 69.390625 
Q 13.765625 71.78125 18.9375 73 
Q 24.125 74.21875 28.421875 74.21875 
Q 39.75 74.21875 46.484375 68.546875 
Q 53.21875 62.890625 53.21875 53.421875 
Q 53.21875 48.921875 51.53125 44.890625 
Q 49.859375 40.875 45.40625 35.40625 
Q 44.1875 33.984375 37.640625 27.21875 
Q 31.109375 20.453125 19.1875 8.296875 
z
" id="DejaVuSans-50"/>
       </defs>
       <use xlink:href="#DejaVuSans-51"/>
       <use x="63.623047" xlink:href="#DejaVuSans-52"/>
       <use x="127.246094" xlink:href="#DejaVuSans-46"/>
       <use x="159.033203" xlink:href="#DejaVuSans-50"/>
      </g>
     </g>
    </g>
    <g id="xtick_4">
     <g id="line2d_7">
      <g>
       <use style="stroke:#000000;stroke-width:0.8;" x="130.842718" xlink:href="#ma7c52a5c44" y="170.845906"/>
      </g>
     </g>
     <g id="line2d_8">
      <g>
       <use style="stroke:#000000;stroke-width:0.8;" x="130.842718" xlink:href="#mcd093379c6" y="7.765906"/>
      </g>
     </g>
     <g id="text_4">
      <!-- 34.4 -->
      <g transform="translate(119.709905 181.944343)scale(0.1 -0.1)">
       <use xlink:href="#DejaVuSans-51"/>
       <use x="63.623047" xlink:href="#DejaVuSans-52"/>
       <use x="127.246094" xlink:href="#DejaVuSans-46"/>
       <use x="159.033203" xlink:href="#DejaVuSans-52"/>
      </g>
     </g>
    </g>
    <g id="xtick_5">
     <g id="line2d_9">
      <g>
       <use style="stroke:#000000;stroke-width:0.8;" x="86.296265" xlink:href="#ma7c52a5c44" y="170.845906"/>
      </g>
     </g>
     <g id="line2d_10">
      <g>
       <use style="stroke:#000000;stroke-width:0.8;" x="86.296265" xlink:href="#mcd093379c6" y="7.765906"/>
      </g>
     </g>
     <g id="text_5">
      <!-- 34.6 -->
      <g transform="translate(75.163453 181.944343)scale(0.1 -0.1)">
       <defs>
        <path d="M 33.015625 40.375 
Q 26.375 40.375 22.484375 35.828125 
Q 18.609375 31.296875 18.609375 23.390625 
Q 18.609375 15.53125 22.484375 10.953125 
Q 26.375 6.390625 33.015625 6.390625 
Q 39.65625 6.390625 43.53125 10.953125 
Q 47.40625 15.53125 47.40625 23.390625 
Q 47.40625 31.296875 43.53125 35.828125 
Q 39.65625 40.375 33.015625 40.375 
z
M 52.59375 71.296875 
L 52.59375 62.3125 
Q 48.875 64.0625 45.09375 64.984375 
Q 41.3125 65.921875 37.59375 65.921875 
Q 27.828125 65.921875 22.671875 59.328125 
Q 17.53125 52.734375 16.796875 39.40625 
Q 19.671875 43.65625 24.015625 45.921875 
Q 28.375 48.1875 33.59375 48.1875 
Q 44.578125 48.1875 50.953125 41.515625 
Q 57.328125 34.859375 57.328125 23.390625 
Q 57.328125 12.15625 50.6875 5.359375 
Q 44.046875 -1.421875 33.015625 -1.421875 
Q 20.359375 -1.421875 13.671875 8.265625 
Q 6.984375 17.96875 6.984375 36.375 
Q 6.984375 53.65625 15.1875 63.9375 
Q 23.390625 74.21875 37.203125 74.21875 
Q 40.921875 74.21875 44.703125 73.484375 
Q 48.484375 72.75 52.59375 71.296875 
z
" id="DejaVuSans-54"/>
       </defs>
       <use xlink:href="#DejaVuSans-51"/>
       <use x="63.623047" xlink:href="#DejaVuSans-52"/>
       <use x="127.246094" xlink:href="#DejaVuSans-46"/>
       <use x="159.033203" xlink:href="#DejaVuSans-54"/>
      </g>
     </g>
    </g>
    <g id="text_6">
     <!-- Time BP (kyr) -->
     <g transform="translate(124.417187 195.622468)scale(0.1 -0.1)">
      <defs>
       <path d="M -0.296875 72.90625 
L 61.375 72.90625 
L 61.375 64.59375 
L 35.5 64.59375 
L 35.5 0 
L 25.59375 0 
L 25.59375 64.59375 
L -0.296875 64.59375 
z
" id="DejaVuSans-84"/>
       <path d="M 9.421875 54.6875 
L 18.40625 54.6875 
L 18.40625 0 
L 9.421875 0 
z
M 9.421875 75.984375 
L 18.40625 75.984375 
L 18.40625 64.59375 
L 9.421875 64.59375 
z
" id="DejaVuSans-105"/>
       <path d="M 52 44.1875 
Q 55.375 50.25 60.0625 53.125 
Q 64.75 56 71.09375 56 
Q 79.640625 56 84.28125 50.015625 
Q 88.921875 44.046875 88.921875 33.015625 
L 88.921875 0 
L 79.890625 0 
L 79.890625 32.71875 
Q 79.890625 40.578125 77.09375 44.375 
Q 74.3125 48.1875 68.609375 48.1875 
Q 61.625 48.1875 57.5625 43.546875 
Q 53.515625 38.921875 53.515625 30.90625 
L 53.515625 0 
L 44.484375 0 
L 44.484375 32.71875 
Q 44.484375 40.625 41.703125 44.40625 
Q 38.921875 48.1875 33.109375 48.1875 
Q 26.21875 48.1875 22.15625 43.53125 
Q 18.109375 38.875 18.109375 30.90625 
L 18.109375 0 
L 9.078125 0 
L 9.078125 54.6875 
L 18.109375 54.6875 
L 18.109375 46.1875 
Q 21.1875 51.21875 25.484375 53.609375 
Q 29.78125 56 35.6875 56 
Q 41.65625 56 45.828125 52.96875 
Q 50 49.953125 52 44.1875 
z
" id="DejaVuSans-109"/>
       <path d="M 56.203125 29.59375 
L 56.203125 25.203125 
L 14.890625 25.203125 
Q 15.484375 15.921875 20.484375 11.0625 
Q 25.484375 6.203125 34.421875 6.203125 
Q 39.59375 6.203125 44.453125 7.46875 
Q 49.3125 8.734375 54.109375 11.28125 
L 54.109375 2.78125 
Q 49.265625 0.734375 44.1875 -0.34375 
Q 39.109375 -1.421875 33.890625 -1.421875 
Q 20.796875 -1.421875 13.15625 6.1875 
Q 5.515625 13.8125 5.515625 26.8125 
Q 5.515625 40.234375 12.765625 48.109375 
Q 20.015625 56 32.328125 56 
Q 43.359375 56 49.78125 48.890625 
Q 56.203125 41.796875 56.203125 29.59375 
z
M 47.21875 32.234375 
Q 47.125 39.59375 43.09375 43.984375 
Q 39.0625 48.390625 32.421875 48.390625 
Q 24.90625 48.390625 20.390625 44.140625 
Q 15.875 39.890625 15.1875 32.171875 
z
" id="DejaVuSans-101"/>
       <path id="DejaVuSans-32"/>
       <path d="M 19.671875 34.8125 
L 19.671875 8.109375 
L 35.5 8.109375 
Q 43.453125 8.109375 47.28125 11.40625 
Q 51.125 14.703125 51.125 21.484375 
Q 51.125 28.328125 47.28125 31.5625 
Q 43.453125 34.8125 35.5 34.8125 
z
M 19.671875 64.796875 
L 19.671875 42.828125 
L 34.28125 42.828125 
Q 41.5 42.828125 45.03125 45.53125 
Q 48.578125 48.25 48.578125 53.8125 
Q 48.578125 59.328125 45.03125 62.0625 
Q 41.5 64.796875 34.28125 64.796875 
z
M 9.8125 72.90625 
L 35.015625 72.90625 
Q 46.296875 72.90625 52.390625 68.21875 
Q 58.5 63.53125 58.5 54.890625 
Q 58.5 48.1875 55.375 44.234375 
Q 52.25 40.28125 46.1875 39.3125 
Q 53.46875 37.75 57.5 32.78125 
Q 61.53125 27.828125 61.53125 20.40625 
Q 61.53125 10.640625 54.890625 5.3125 
Q 48.25 0 35.984375 0 
L 9.8125 0 
z
" id="DejaVuSans-66"/>
       <path d="M 19.671875 64.796875 
L 19.671875 37.40625 
L 32.078125 37.40625 
Q 38.96875 37.40625 42.71875 40.96875 
Q 46.484375 44.53125 46.484375 51.125 
Q 46.484375 57.671875 42.71875 61.234375 
Q 38.96875 64.796875 32.078125 64.796875 
z
M 9.8125 72.90625 
L 32.078125 72.90625 
Q 44.34375 72.90625 50.609375 67.359375 
Q 56.890625 61.8125 56.890625 51.125 
Q 56.890625 40.328125 50.609375 34.8125 
Q 44.34375 29.296875 32.078125 29.296875 
L 19.671875 29.296875 
L 19.671875 0 
L 9.8125 0 
z
" id="DejaVuSans-80"/>
       <path d="M 31 75.875 
Q 24.46875 64.65625 21.28125 53.65625 
Q 18.109375 42.671875 18.109375 31.390625 
Q 18.109375 20.125 21.3125 9.0625 
Q 24.515625 -2 31 -13.1875 
L 23.1875 -13.1875 
Q 15.875 -1.703125 12.234375 9.375 
Q 8.59375 20.453125 8.59375 31.390625 
Q 8.59375 42.28125 12.203125 53.3125 
Q 15.828125 64.359375 23.1875 75.875 
z
" id="DejaVuSans-40"/>
       <path d="M 9.078125 75.984375 
L 18.109375 75.984375 
L 18.109375 31.109375 
L 44.921875 54.6875 
L 56.390625 54.6875 
L 27.390625 29.109375 
L 57.625 0 
L 45.90625 0 
L 18.109375 26.703125 
L 18.109375 0 
L 9.078125 0 
z
" id="DejaVuSans-107"/>
       <path d="M 32.171875 -5.078125 
Q 28.375 -14.84375 24.75 -17.8125 
Q 21.140625 -20.796875 15.09375 -20.796875 
L 7.90625 -20.796875 
L 7.90625 -13.28125 
L 13.1875 -13.28125 
Q 16.890625 -13.28125 18.9375 -11.515625 
Q 21 -9.765625 23.484375 -3.21875 
L 25.09375 0.875 
L 2.984375 54.6875 
L 12.5 54.6875 
L 29.59375 11.921875 
L 46.6875 54.6875 
L 56.203125 54.6875 
z
" id="DejaVuSans-121"/>
       <path d="M 41.109375 46.296875 
Q 39.59375 47.171875 37.8125 47.578125 
Q 36.03125 48 33.890625 48 
Q 26.265625 48 22.1875 43.046875 
Q 18.109375 38.09375 18.109375 28.8125 
L 18.109375 0 
L 9.078125 0 
L 9.078125 54.6875 
L 18.109375 54.6875 
L 18.109375 46.1875 
Q 20.953125 51.171875 25.484375 53.578125 
Q 30.03125 56 36.53125 56 
Q 37.453125 56 38.578125 55.875 
Q 39.703125 55.765625 41.0625 55.515625 
z
" id="DejaVuSans-114"/>
       <path d="M 8.015625 75.875 
L 15.828125 75.875 
Q 23.140625 64.359375 26.78125 53.3125 
Q 30.421875 42.28125 30.421875 31.390625 
Q 30.421875 20.453125 26.78125 9.375 
Q 23.140625 -1.703125 15.828125 -13.1875 
L 8.015625 -13.1875 
Q 14.5 -2 17.703125 9.0625 
Q 20.90625 20.125 20.90625 31.390625 
Q 20.90625 42.671875 17.703125 53.65625 
Q 14.5 64.65625 8.015625 75.875 
z
" id="DejaVuSans-41"/>
      </defs>
      <use xlink:href="#DejaVuSans-84"/>
      <use x="57.958984" xlink:href="#DejaVuSans-105"/>
      <use x="85.742188" xlink:href="#DejaVuSans-109"/>
      <use x="183.154297" xlink:href="#DejaVuSans-101"/>
      <use x="244.677734" xlink:href="#DejaVuSans-32"/>
      <use x="276.464844" xlink:href="#DejaVuSans-66"/>
      <use x="345.068359" xlink:href="#DejaVuSans-80"/>
      <use x="405.371094" xlink:href="#DejaVuSans-32"/>
      <use x="437.158203" xlink:href="#DejaVuSans-40"/>
      <use x="476.171875" xlink:href="#DejaVuSans-107"/>
      <use x="530.457031" xlink:href="#DejaVuSans-121"/>
      <use x="589.636719" xlink:href="#DejaVuSans-114"/>
      <use x="630.75" xlink:href="#DejaVuSans-41"/>
     </g>
    </g>
   </g>
   <g id="matplotlib.axis_2">
    <g id="ytick_1">
     <g id="line2d_11">
      <defs>
       <path d="M 0 0 
L 3.5 0 
" id="m2ff744cdf1" style="stroke:#000000;stroke-width:0.8;"/>
      </defs>
      <g>
       <use style="stroke:#000000;stroke-width:0.8;" x="46.304688" xlink:href="#m2ff744cdf1" y="164.590231"/>
      </g>
     </g>
     <g id="line2d_12">
      <defs>
       <path d="M 0 0 
L -3.5 0 
" id="m6720229a83" style="stroke:#000000;stroke-width:0.8;"/>
      </defs>
      <g>
       <use style="stroke:#000000;stroke-width:0.8;" x="269.504687" xlink:href="#m6720229a83" y="164.590231"/>
      </g>
     </g>
     <g id="text_7">
      <!-- −48 -->
      <g transform="translate(21.7 168.38945)scale(0.1 -0.1)">
       <defs>
        <path d="M 10.59375 35.5 
L 73.1875 35.5 
L 73.1875 27.203125 
L 10.59375 27.203125 
z
" id="DejaVuSans-8722"/>
       </defs>
       <use xlink:href="#DejaVuSans-8722"/>
       <use x="83.789062" xlink:href="#DejaVuSans-52"/>
       <use x="147.412109" xlink:href="#DejaVuSans-56"/>
      </g>
     </g>
    </g>
    <g id="ytick_2">
     <g id="line2d_13">
      <g>
       <use style="stroke:#000000;stroke-width:0.8;" x="46.304688" xlink:href="#m2ff744cdf1" y="133.872028"/>
      </g>
     </g>
     <g id="line2d_14">
      <g>
       <use style="stroke:#000000;stroke-width:0.8;" x="269.504687" xlink:href="#m6720229a83" y="133.872028"/>
      </g>
     </g>
     <g id="text_8">
      <!-- −46 -->
      <g transform="translate(21.7 137.671247)scale(0.1 -0.1)">
       <use xlink:href="#DejaVuSans-8722"/>
       <use x="83.789062" xlink:href="#DejaVuSans-52"/>
       <use x="147.412109" xlink:href="#DejaVuSans-54"/>
      </g>
     </g>
    </g>
    <g id="ytick_3">
     <g id="line2d_15">
      <g>
       <use style="stroke:#000000;stroke-width:0.8;" x="46.304688" xlink:href="#m2ff744cdf1" y="103.153826"/>
      </g>
     </g>
     <g id="line2d_16">
      <g>
       <use style="stroke:#000000;stroke-width:0.8;" x="269.504687" xlink:href="#m6720229a83" y="103.153826"/>
      </g>
     </g>
     <g id="text_9">
      <!-- −44 -->
      <g transform="translate(21.7 106.953045)scale(0.1 -0.1)">
       <use xlink:href="#DejaVuSans-8722"/>
       <use x="83.789062" xlink:href="#DejaVuSans-52"/>
       <use x="147.412109" xlink:href="#DejaVuSans-52"/>
      </g>
     </g>
    </g>
    <g id="ytick_4">
     <g id="line2d_17">
      <g>
       <use style="stroke:#000000;stroke-width:0.8;" x="46.304688" xlink:href="#m2ff744cdf1" y="72.435624"/>
      </g>
     </g>
     <g id="line2d_18">
      <g>
       <use style="stroke:#000000;stroke-width:0.8;" x="269.504687" xlink:href="#m6720229a83" y="72.435624"/>
      </g>
     </g>
     <g id="text_10">
      <!-- −42 -->
      <g transform="translate(21.7 76.234842)scale(0.1 -0.1)">
       <use xlink:href="#DejaVuSans-8722"/>
       <use x="83.789062" xlink:href="#DejaVuSans-52"/>
       <use x="147.412109" xlink:href="#DejaVuSans-50"/>
      </g>
     </g>
    </g>
    <g id="ytick_5">
     <g id="line2d_19">
      <g>
       <use style="stroke:#000000;stroke-width:0.8;" x="46.304688" xlink:href="#m2ff744cdf1" y="41.717421"/>
      </g>
     </g>
     <g id="line2d_20">
      <g>
       <use style="stroke:#000000;stroke-width:0.8;" x="269.504687" xlink:href="#m6720229a83" y="41.717421"/>
      </g>
     </g>
     <g id="text_11">
      <!-- −40 -->
      <g transform="translate(21.7 45.51664)scale(0.1 -0.1)">
       <use xlink:href="#DejaVuSans-8722"/>
       <use x="83.789062" xlink:href="#DejaVuSans-52"/>
       <use x="147.412109" xlink:href="#DejaVuSans-48"/>
      </g>
     </g>
    </g>
    <g id="ytick_6">
     <g id="line2d_21">
      <g>
       <use style="stroke:#000000;stroke-width:0.8;" x="46.304688" xlink:href="#m2ff744cdf1" y="10.999219"/>
      </g>
     </g>
     <g id="line2d_22">
      <g>
       <use style="stroke:#000000;stroke-width:0.8;" x="269.504687" xlink:href="#m6720229a83" y="10.999219"/>
      </g>
     </g>
     <g id="text_12">
      <!-- −38 -->
      <g transform="translate(21.7 14.798437)scale(0.1 -0.1)">
       <use xlink:href="#DejaVuSans-8722"/>
       <use x="83.789062" xlink:href="#DejaVuSans-51"/>
       <use x="147.412109" xlink:href="#DejaVuSans-56"/>
      </g>
     </g>
    </g>
    <g id="text_13">
     <!-- $\delta^{18}$O (‰) -->
     <g transform="translate(15.620312 113.455906)rotate(-90)scale(0.1 -0.1)">
      <defs>
       <path d="M 54.25 63.328125 
Q 49.953125 66.75 38.28125 66.75 
Q 25.921875 66.75 24.8125 61.03125 
Q 23.921875 56.546875 36.375 54.203125 
Q 46.140625 52.390625 50.828125 46.921875 
Q 56.5 40.328125 53.859375 26.8125 
Q 51.3125 13.875 43.171875 6.25 
Q 34.96875 -1.421875 23.25 -1.421875 
Q 11.578125 -1.421875 6.34375 6.25 
Q 1.125 13.875 3.765625 27.296875 
Q 5.671875 37.25 13.921875 45.3125 
Q 17.140625 48.4375 21.140625 50.203125 
Q 14.265625 54.046875 15.625 60.9375 
Q 18.21875 74.21875 39.75 74.21875 
Q 50.53125 74.21875 55.71875 70.796875 
z
M 27.390625 47.75 
Q 23.828125 46.34375 20.40625 42.78125 
Q 15.140625 37.25 13.234375 27.296875 
Q 11.28125 17.390625 14.359375 11.8125 
Q 17.484375 6.203125 24.75 6.203125 
Q 31.9375 6.203125 37.203125 11.859375 
Q 42.53125 17.53125 44.34375 26.8125 
Q 46.1875 36.53125 42.671875 41.21875 
Q 38.921875 46.234375 32.859375 46.78125 
Q 29.78125 47.078125 27.390625 47.75 
z
" id="DejaVuSans-Oblique-948"/>
       <path d="M 12.40625 8.296875 
L 28.515625 8.296875 
L 28.515625 63.921875 
L 10.984375 60.40625 
L 10.984375 69.390625 
L 28.421875 72.90625 
L 38.28125 72.90625 
L 38.28125 8.296875 
L 54.390625 8.296875 
L 54.390625 0 
L 12.40625 0 
z
" id="DejaVuSans-49"/>
       <path d="M 39.40625 66.21875 
Q 28.65625 66.21875 22.328125 58.203125 
Q 16.015625 50.203125 16.015625 36.375 
Q 16.015625 22.609375 22.328125 14.59375 
Q 28.65625 6.59375 39.40625 6.59375 
Q 50.140625 6.59375 56.421875 14.59375 
Q 62.703125 22.609375 62.703125 36.375 
Q 62.703125 50.203125 56.421875 58.203125 
Q 50.140625 66.21875 39.40625 66.21875 
z
M 39.40625 74.21875 
Q 54.734375 74.21875 63.90625 63.9375 
Q 73.09375 53.65625 73.09375 36.375 
Q 73.09375 19.140625 63.90625 8.859375 
Q 54.734375 -1.421875 39.40625 -1.421875 
Q 24.03125 -1.421875 14.8125 8.828125 
Q 5.609375 19.09375 5.609375 36.375 
Q 5.609375 53.65625 14.8125 63.9375 
Q 24.03125 74.21875 39.40625 74.21875 
z
" id="DejaVuSans-79"/>
       <path d="M 111.921875 32.078125 
Q 107.671875 32.078125 105.21875 28.46875 
Q 102.78125 24.859375 102.78125 18.40625 
Q 102.78125 12.0625 105.21875 8.421875 
Q 107.671875 4.78125 111.921875 4.78125 
Q 116.0625 4.78125 118.484375 8.421875 
Q 120.90625 12.0625 120.90625 18.40625 
Q 120.90625 24.8125 118.484375 28.4375 
Q 116.0625 32.078125 111.921875 32.078125 
z
M 111.921875 38.28125 
Q 119.625 38.28125 124.171875 32.90625 
Q 128.71875 27.546875 128.71875 18.40625 
Q 128.71875 9.28125 124.140625 3.921875 
Q 119.578125 -1.421875 111.921875 -1.421875 
Q 104.109375 -1.421875 99.5625 3.921875 
Q 95.015625 9.28125 95.015625 18.40625 
Q 95.015625 27.59375 99.578125 32.9375 
Q 104.15625 38.28125 111.921875 38.28125 
z
M 22.3125 74.21875 
Q 30.03125 74.21875 34.609375 68.875 
Q 39.203125 63.53125 39.203125 54.390625 
Q 39.203125 45.171875 34.640625 39.84375 
Q 30.078125 34.515625 22.3125 34.515625 
Q 14.546875 34.515625 10.03125 39.859375 
Q 5.515625 45.21875 5.515625 54.390625 
Q 5.515625 63.484375 10.046875 68.84375 
Q 14.59375 74.21875 22.3125 74.21875 
z
M 66.40625 74.21875 
L 74.21875 74.21875 
L 28.609375 -1.421875 
L 20.796875 -1.421875 
z
M 22.3125 68.015625 
Q 18.109375 68.015625 15.6875 64.375 
Q 13.28125 60.75 13.28125 54.390625 
Q 13.28125 47.953125 15.671875 44.328125 
Q 18.0625 40.71875 22.3125 40.71875 
Q 26.5625 40.71875 28.96875 44.328125 
Q 31.390625 47.953125 31.390625 54.390625 
Q 31.390625 60.6875 28.953125 64.34375 
Q 26.515625 68.015625 22.3125 68.015625 
z
M 72.703125 38.28125 
Q 80.421875 38.28125 84.953125 32.90625 
Q 89.5 27.546875 89.5 18.40625 
Q 89.5 9.28125 84.9375 3.921875 
Q 80.375 -1.421875 72.703125 -1.421875 
Q 64.890625 -1.421875 60.34375 3.921875 
Q 55.8125 9.28125 55.8125 18.40625 
Q 55.8125 27.59375 60.375 32.9375 
Q 64.9375 38.28125 72.703125 38.28125 
z
M 72.703125 32.078125 
Q 68.453125 32.078125 66.03125 28.46875 
Q 63.625 24.859375 63.625 18.40625 
Q 63.625 12.0625 66.03125 8.421875 
Q 68.453125 4.78125 72.703125 4.78125 
Q 76.859375 4.78125 79.265625 8.421875 
Q 81.6875 12.0625 81.6875 18.40625 
Q 81.6875 24.8125 79.265625 28.4375 
Q 76.859375 32.078125 72.703125 32.078125 
z
" id="DejaVuSans-8240"/>
      </defs>
      <use transform="translate(0 0.765625)" xlink:href="#DejaVuSans-Oblique-948"/>
      <use transform="translate(68.382161 39.046875)scale(0.7)" xlink:href="#DejaVuSans-49"/>
      <use transform="translate(112.918294 39.046875)scale(0.7)" xlink:href="#DejaVuSans-56"/>
      <use transform="translate(160.188802 0.765625)" xlink:href="#DejaVuSans-79"/>
      <use transform="translate(238.89974 0.765625)" xlink:href="#DejaVuSans-32"/>
      <use transform="translate(270.686849 0.765625)" xlink:href="#DejaVuSans-40"/>
      <use transform="translate(309.700521 0.765625)" xlink:href="#DejaVuSans-8240"/>
      <use transform="translate(443.880208 0.765625)" xlink:href="#DejaVuSans-41"/>
     </g>
    </g>
   </g>
   <g id="LineCollection_1">
    <path clip-path="url(#pa52b286db4)" d="M 259.359233 86.231933 
L 56.450142 86.231933 
" style="fill:none;stroke:#000000;stroke-dasharray:5.55,2.4;stroke-dashoffset:0;stroke-width:1.5;"/>
   </g>
   <g id="line2d_23">
    <path clip-path="url(#pa52b286db4)" d="M 259.359233 84.353747 
L 258.913768 58.416327 
L 258.691036 55.892968 
L 258.245572 64.781289 
L 257.800107 52.897471 
L 257.577375 58.283309 
L 257.13191 104.382554 
L 256.686446 109.121934 
L 256.463714 103.367518 
L 256.018249 83.73458 
L 255.350052 71.584573 
L 254.681855 92.304061 
L 254.459123 87.297558 
L 254.013659 65.222075 
L 253.345462 55.676468 
L 252.677265 58.715654 
L 252.231801 70.592531 
L 251.786336 83.356753 
L 251.118139 93.938365 
L 250.22721 132.373171 
L 249.781746 158.026181 
L 249.559013 156.70414 
L 249.336281 152.350266 
L 248.890817 126.07596 
L 248.22262 87.873596 
L 247.777155 68.626199 
L 247.331691 55.006416 
L 246.663494 56.810195 
L 245.995297 72.184447 
L 245.772565 71.250779 
L 245.549833 67.932116 
L 245.3271 66.840522 
L 244.658904 93.631183 
L 243.767975 47.517201 
L 243.545242 32.799973 
L 243.32251 31.975042 
L 242.208849 65.371886 
L 241.986116 72.382114 
L 241.31792 69.011039 
L 241.095187 75.526929 
L 240.204258 149.364242 
L 239.981526 163.433178 
L 239.758794 156.31635 
L 238.867865 79.006473 
L 238.4224 28.056577 
L 238.199668 39.794567 
L 237.754204 80.680142 
L 237.308739 97.652804 
L 236.640542 88.02982 
L 236.41781 82.528325 
L 235.749613 58.838472 
L 235.304149 55.592775 
L 235.081416 60.181965 
L 234.41322 96.949257 
L 233.967755 92.559854 
L 233.745023 96.246228 
L 233.076826 135.132102 
L 232.408629 122.014175 
L 230.849503 62.109016 
L 230.181307 63.096702 
L 229.735842 64.459483 
L 229.290378 65.984801 
L 228.176716 106.798481 
L 227.731252 126.376391 
L 227.508519 124.591571 
L 227.063055 115.604738 
L 226.394858 95.32177 
L 226.172126 95.179531 
L 225.503929 106.099245 
L 224.835732 140.682196 
L 224.613 142.7639 
L 224.167536 121.18459 
L 223.499339 65.36252 
L 223.053874 79.043204 
L 222.831142 79.148187 
L 222.385677 60.499148 
L 222.162945 62.986024 
L 221.494748 91.339109 
L 220.603819 102.108375 
L 219.935623 100.900297 
L 219.267426 85.099484 
L 218.821961 92.172069 
L 218.153764 82.57263 
L 217.485568 78.86999 
L 216.594639 125.992326 
L 216.371906 120.356019 
L 215.70371 94.552729 
L 215.035513 99.991247 
L 214.590048 107.432993 
L 214.144584 114.51669 
L 213.476387 111.261135 
L 212.80819 43.253331 
L 212.585458 39.211505 
L 212.139993 43.418453 
L 211.471797 61.129849 
L 211.026332 64.76464 
L 210.8036 65.998263 
L 210.135403 15.178633 
L 209.689938 29.293937 
L 209.244474 65.739752 
L 208.576277 121.114493 
L 208.130813 142.511049 
L 207.90808 145.062641 
L 207.239884 91.617275 
L 207.017151 94.88933 
L 206.571687 104.441057 
L 205.90349 96.353298 
L 205.458025 81.539437 
L 205.012561 65.658888 
L 204.344364 68.086376 
L 203.8989 79.844888 
L 203.230703 101.576027 
L 202.785238 116.209062 
L 201.894309 95.184936 
L 200.780648 78.742864 
L 200.335183 71.312511 
L 199.666987 86.479509 
L 198.99879 82.345972 
L 198.776058 80.102918 
L 197.885129 61.321677 
L 197.216932 39.839079 
L 196.9942 40.131966 
L 196.548735 43.699241 
L 196.10327 65.901497 
L 195.657806 90.970675 
L 195.435074 95.136672 
L 194.989609 99.284371 
L 194.544145 112.49517 
L 194.09868 127.863849 
L 193.875948 129.435387 
L 193.430483 129.085433 
L 193.207751 128.113926 
L 192.539554 120.027203 
L 191.871357 135.744657 
L 190.980428 71.95612 
L 190.312232 43.019515 
L 189.644035 88.873582 
L 189.19857 70.562708 
L 188.975838 67.913904 
L 188.307641 93.1317 
L 187.862177 91.593293 
L 187.639445 84.740292 
L 187.19398 57.132985 
L 186.525783 60.859499 
L 186.303051 65.501476 
L 185.634854 83.328424 
L 184.966657 79.882761 
L 184.743925 76.80259 
L 184.075728 58.869801 
L 183.852996 62.940121 
L 183.184799 86.826812 
L 182.516602 85.853103 
L 182.29387 84.816898 
L 181.625673 77.865457 
L 180.734744 63.009188 
L 180.28928 63.923152 
L 180.066548 73.166814 
L 179.621083 107.763049 
L 179.398351 111.181696 
L 178.730154 108.946112 
L 178.507422 99.046573 
L 178.061957 69.260938 
L 177.839225 62.84497 
L 177.171028 75.008947 
L 176.502831 102.687664 
L 176.280099 106.827723 
L 175.611902 103.989361 
L 174.943706 110.008786 
L 174.720973 114.802921 
L 174.275509 136.611591 
L 174.052777 141.44054 
L 173.38458 64.796598 
L 173.161847 68.023607 
L 172.716383 81.827612 
L 172.048186 64.932431 
L 171.825454 67.719256 
L 171.157257 83.295632 
L 170.934525 80.395958 
L 170.266328 60.671482 
L 169.598131 53.665735 
L 169.152667 48.664964 
L 168.707202 53.69752 
L 168.039005 99.774824 
L 167.816273 103.393291 
L 167.370809 100.566823 
L 167.148076 97.203049 
L 166.47988 66.63105 
L 166.257147 69.936816 
L 165.588951 87.215805 
L 165.366218 86.793906 
L 164.920754 83.702267 
L 164.029825 73.566612 
L 163.361628 91.796469 
L 162.916163 95.947693 
L 162.693431 95.734672 
L 162.025234 65.699366 
L 160.688841 66.090726 
L 160.466109 66.133096 
L 159.575179 59.419454 
L 158.016054 114.287873 
L 157.347857 62.097443 
L 156.67966 107.231883 
L 156.011463 106.487756 
L 155.788731 104.915243 
L 155.565999 102.312586 
L 155.343266 97.240955 
L 154.897802 76.604559 
L 154.67507 76.933157 
L 154.006873 87.566268 
L 153.338676 110.628074 
L 152.893212 91.626578 
L 152.670479 90.626016 
L 151.77955 94.70632 
L 151.334086 77.759244 
L 151.111354 73.822937 
L 150.220424 127.811981 
L 149.77496 124.683468 
L 149.106763 105.984567 
L 148.884031 105.570711 
L 148.438566 106.926949 
L 148.215834 106.246831 
L 147.547637 89.944999 
L 146.656708 98.539762 
L 146.211244 91.418522 
L 145.988511 87.161645 
L 145.765779 92.442092 
L 145.320315 117.308972 
L 145.097582 114.394365 
L 143.983921 56.80945 
L 143.761189 58.664348 
L 143.092992 77.608706 
L 142.424795 88.816005 
L 142.202063 81.180908 
L 141.756598 46.0117 
L 141.533866 38.49201 
L 140.865669 98.968471 
L 140.642937 101.771507 
L 140.197473 98.699687 
L 139.306544 72.376094 
L 138.638347 59.157587 
L 138.415615 61.929038 
L 137.524686 85.757029 
L 137.079221 99.563979 
L 136.411024 103.032136 
L 135.742827 52.171498 
L 134.629166 117.194725 
L 134.406434 129.175911 
L 134.183702 132.610297 
L 133.515505 111.126906 
L 132.847308 125.653203 
L 132.624576 124.370851 
L 131.956379 106.073854 
L 131.288182 84.29575 
L 130.842718 87.459857 
L 130.619985 87.086871 
L 130.174521 80.475779 
L 129.951789 80.285521 
L 129.506324 92.366152 
L 129.283592 94.536075 
L 128.838127 95.779607 
L 128.615395 95.463037 
L 128.16993 94.20434 
L 127.947198 88.793066 
L 127.279001 43.867695 
L 126.388072 85.542971 
L 125.942608 99.267425 
L 125.719876 98.68623 
L 125.274411 74.130229 
L 125.051679 79.450687 
L 124.606214 98.325793 
L 123.938018 75.488827 
L 123.715285 77.831992 
L 123.047088 123.261226 
L 122.824356 119.6227 
L 122.378892 106.085115 
L 121.933427 60.226063 
L 121.710695 58.473782 
L 120.374301 119.728644 
L 119.928837 117.747365 
L 119.26064 63.987172 
L 118.815175 61.148734 
L 118.146979 47.655334 
L 117.701514 49.481517 
L 117.478782 50.974393 
L 116.810585 74.585898 
L 115.919656 66.219277 
L 115.251459 55.815962 
L 114.583262 38.941642 
L 113.915066 67.076518 
L 113.246869 118.126315 
L 112.801404 110.912366 
L 112.578672 106.680435 
L 112.35594 104.760132 
L 111.465011 139.481539 
L 110.574082 86.114393 
L 110.35135 81.121599 
L 109.683153 76.877637 
L 109.014956 60.369356 
L 108.792224 59.33004 
L 108.124027 87.291889 
L 107.901295 85.592005 
L 107.45583 67.498234 
L 107.010366 80.462953 
L 106.564901 93.750092 
L 106.119437 63.428254 
L 105.896704 61.182128 
L 105.228507 93.188132 
L 105.005775 95.163959 
L 104.114846 93.731148 
L 103.669382 93.16989 
L 103.446649 96.129058 
L 102.778453 116.669835 
L 101.887524 81.071332 
L 101.664791 80.407025 
L 101.219327 82.607834 
L 100.996594 85.113863 
L 100.328398 97.317368 
L 99.660201 92.890447 
L 99.437469 97.851757 
L 98.992004 117.677379 
L 98.769272 111.05523 
L 98.323807 84.582966 
L 98.101075 79.230862 
L 97.210146 90.021794 
L 95.873752 116.739795 
L 95.65102 117.015625 
L 94.982823 112.662201 
L 94.537359 84.507877 
L 94.091894 51.762273 
L 93.64643 44.746236 
L 93.200965 39.874329 
L 92.310036 92.816794 
L 91.641839 108.518057 
L 90.973643 106.367262 
L 90.528178 100.359331 
L 90.305446 96.76243 
L 90.082714 96.057346 
L 89.414517 97.021305 
L 88.523588 89.574658 
L 87.855391 79.885505 
L 87.409926 91.614466 
L 86.964462 104.996918 
L 86.296265 69.159015 
L 86.073533 72.387255 
L 85.182604 94.008304 
L 84.737139 103.291627 
L 84.068943 107.425666 
L 83.84621 103.099816 
L 83.400746 84.466357 
L 83.178014 88.745879 
L 82.732549 124.497425 
L 82.509817 125.24736 
L 81.618888 100.877806 
L 80.727959 74.710431 
L 80.282494 64.756073 
L 79.391565 90.712954 
L 78.723368 127.620874 
L 76.496046 72.731835 
L 76.273313 72.995488 
L 75.605117 75.314216 
L 75.159652 64.869758 
L 74.93692 58.791081 
L 74.714188 56.251278 
L 74.268723 60.179716 
L 73.823259 76.51303 
L 73.600526 86.11102 
L 73.377794 88.834143 
L 72.709597 51.629399 
L 72.486865 53.071341 
L 72.0414 59.644838 
L 71.373204 32.046804 
L 71.150471 40.434484 
L 70.705007 79.193628 
L 70.482275 80.166371 
L 70.259542 79.145443 
L 69.814078 43.211169 
L 69.591346 37.130462 
L 68.923149 72.4 
L 68.477684 94.859911 
L 67.364023 77.623106 
L 67.141291 71.755562 
L 66.695826 51.087361 
L 66.473094 48.425258 
L 65.582165 78.100296 
L 65.1367 96.499107 
L 64.468503 68.708572 
L 64.023039 91.123819 
L 63.800307 104.485182 
L 63.577574 108.597558 
L 63.13211 111.537173 
L 62.686645 79.939642 
L 62.463913 77.010637 
L 62.241181 87.314934 
L 62.018449 90.638636 
L 61.350252 55.993769 
L 60.682055 74.046306 
L 60.236591 114.483142 
L 60.013858 118.033815 
L 58.900197 71.418083 
L 58.677465 63.066572 
L 58.009268 122.967067 
L 57.563803 87.421718 
L 57.341071 79.906959 
L 56.672874 137.374418 
L 56.450142 145.179373 
L 56.450142 145.179373 
" style="fill:none;stroke:#000000;stroke-linecap:square;"/>
   </g>
   <g id="patch_3">
    <path d="M 46.304688 170.845906 
L 46.304688 7.765906 
" style="fill:none;stroke:#000000;stroke-linecap:square;stroke-linejoin:miter;stroke-width:0.8;"/>
   </g>
   <g id="patch_4">
    <path d="M 269.504687 170.845906 
L 269.504687 7.765906 
" style="fill:none;stroke:#000000;stroke-linecap:square;stroke-linejoin:miter;stroke-width:0.8;"/>
   </g>
   <g id="patch_5">
    <path d="M 46.304687 170.845906 
L 269.504687 170.845906 
" style="fill:none;stroke:#000000;stroke-linecap:square;stroke-linejoin:miter;stroke-width:0.8;"/>
   </g>
   <g id="patch_6">
    <path d="M 46.304687 7.765906 
L 269.504687 7.765906 
" style="fill:none;stroke:#000000;stroke-linecap:square;stroke-linejoin:miter;stroke-width:0.8;"/>
   </g>
   <g id="legend_1">
    <g id="patch_7">
     <path d="M 148.604687 30.464343 
L 262.504687 30.464343 
Q 264.504687 30.464343 264.504687 28.464343 
L 264.504687 14.765906 
Q 264.504687 12.765906 262.504687 12.765906 
L 148.604687 12.765906 
Q 146.604687 12.765906 146.604687 14.765906 
L 146.604687 28.464343 
Q 146.604687 30.464343 148.604687 30.464343 
z
" style="fill:#ffffff;opacity:0.8;stroke:#cccccc;stroke-linejoin:miter;"/>
    </g>
    <g id="line2d_24">
     <path d="M 150.604687 20.864343 
L 150.604687 20.864343 
" style="fill:none;stroke:#000000;stroke-linecap:square;"/>
    </g>
    <g id="line2d_25"/>
    <g id="text_14">
     <!-- $\mu_\mathrm{s}$: -42.9$\quad$Var$_\mathrm{s}$: 2.26 -->
     <g transform="translate(158.604687 24.364343)scale(0.1 -0.1)">
      <defs>
       <path d="M -1.3125 -20.796875 
L 13.375 54.6875 
L 22.40625 54.6875 
L 15.765625 20.65625 
Q 15.578125 19.625 15.421875 18.359375 
Q 15.28125 17.09375 15.28125 15.828125 
Q 15.28125 11.28125 18.140625 8.828125 
Q 21 6.390625 26.3125 6.390625 
Q 33.546875 6.390625 37.984375 10.484375 
Q 42.4375 14.59375 44 22.796875 
L 50.203125 54.6875 
L 59.1875 54.6875 
L 51.03125 12.640625 
Q 50.828125 11.71875 50.75 11.03125 
Q 50.6875 10.359375 50.6875 9.8125 
Q 50.6875 8.296875 51.296875 7.59375 
Q 51.90625 6.890625 53.21875 6.890625 
Q 53.71875 6.890625 54.5625 7.125 
Q 55.421875 7.375 56.984375 8.015625 
L 55.609375 0.78125 
Q 53.46875 -0.296875 51.515625 -0.859375 
Q 49.5625 -1.421875 47.703125 -1.421875 
Q 44.484375 -1.421875 42.65625 0.625 
Q 40.828125 2.6875 40.828125 6.296875 
Q 38.09375 2.390625 34.296875 0.484375 
Q 30.515625 -1.421875 25.390625 -1.421875 
Q 20.84375 -1.421875 17.453125 0.671875 
Q 14.0625 2.78125 12.984375 6.203125 
L 7.71875 -20.796875 
z
" id="DejaVuSans-Oblique-956"/>
       <path d="M 44.28125 53.078125 
L 44.28125 44.578125 
Q 40.484375 46.53125 36.375 47.5 
Q 32.28125 48.484375 27.875 48.484375 
Q 21.1875 48.484375 17.84375 46.4375 
Q 14.5 44.390625 14.5 40.28125 
Q 14.5 37.15625 16.890625 35.375 
Q 19.28125 33.59375 26.515625 31.984375 
L 29.59375 31.296875 
Q 39.15625 29.25 43.1875 25.515625 
Q 47.21875 21.78125 47.21875 15.09375 
Q 47.21875 7.46875 41.1875 3.015625 
Q 35.15625 -1.421875 24.609375 -1.421875 
Q 20.21875 -1.421875 15.453125 -0.5625 
Q 10.6875 0.296875 5.421875 2 
L 5.421875 11.28125 
Q 10.40625 8.6875 15.234375 7.390625 
Q 20.0625 6.109375 24.8125 6.109375 
Q 31.15625 6.109375 34.5625 8.28125 
Q 37.984375 10.453125 37.984375 14.40625 
Q 37.984375 18.0625 35.515625 20.015625 
Q 33.0625 21.96875 24.703125 23.78125 
L 21.578125 24.515625 
Q 13.234375 26.265625 9.515625 29.90625 
Q 5.8125 33.546875 5.8125 39.890625 
Q 5.8125 47.609375 11.28125 51.796875 
Q 16.75 56 26.8125 56 
Q 31.78125 56 36.171875 55.265625 
Q 40.578125 54.546875 44.28125 53.078125 
z
" id="DejaVuSans-115"/>
       <path d="M 11.71875 12.40625 
L 22.015625 12.40625 
L 22.015625 0 
L 11.71875 0 
z
M 11.71875 51.703125 
L 22.015625 51.703125 
L 22.015625 39.3125 
L 11.71875 39.3125 
z
" id="DejaVuSans-58"/>
       <path d="M 4.890625 31.390625 
L 31.203125 31.390625 
L 31.203125 23.390625 
L 4.890625 23.390625 
z
" id="DejaVuSans-45"/>
       <path d="M 10.984375 1.515625 
L 10.984375 10.5 
Q 14.703125 8.734375 18.5 7.8125 
Q 22.3125 6.890625 25.984375 6.890625 
Q 35.75 6.890625 40.890625 13.453125 
Q 46.046875 20.015625 46.78125 33.40625 
Q 43.953125 29.203125 39.59375 26.953125 
Q 35.25 24.703125 29.984375 24.703125 
Q 19.046875 24.703125 12.671875 31.3125 
Q 6.296875 37.9375 6.296875 49.421875 
Q 6.296875 60.640625 12.9375 67.421875 
Q 19.578125 74.21875 30.609375 74.21875 
Q 43.265625 74.21875 49.921875 64.515625 
Q 56.59375 54.828125 56.59375 36.375 
Q 56.59375 19.140625 48.40625 8.859375 
Q 40.234375 -1.421875 26.421875 -1.421875 
Q 22.703125 -1.421875 18.890625 -0.6875 
Q 15.09375 0.046875 10.984375 1.515625 
z
M 30.609375 32.421875 
Q 37.25 32.421875 41.125 36.953125 
Q 45.015625 41.5 45.015625 49.421875 
Q 45.015625 57.28125 41.125 61.84375 
Q 37.25 66.40625 30.609375 66.40625 
Q 23.96875 66.40625 20.09375 61.84375 
Q 16.21875 57.28125 16.21875 49.421875 
Q 16.21875 41.5 20.09375 36.953125 
Q 23.96875 32.421875 30.609375 32.421875 
z
" id="DejaVuSans-57"/>
       <path d="M 28.609375 0 
L 0.78125 72.90625 
L 11.078125 72.90625 
L 34.1875 11.53125 
L 57.328125 72.90625 
L 67.578125 72.90625 
L 39.796875 0 
z
" id="DejaVuSans-86"/>
       <path d="M 34.28125 27.484375 
Q 23.390625 27.484375 19.1875 25 
Q 14.984375 22.515625 14.984375 16.5 
Q 14.984375 11.71875 18.140625 8.90625 
Q 21.296875 6.109375 26.703125 6.109375 
Q 34.1875 6.109375 38.703125 11.40625 
Q 43.21875 16.703125 43.21875 25.484375 
L 43.21875 27.484375 
z
M 52.203125 31.203125 
L 52.203125 0 
L 43.21875 0 
L 43.21875 8.296875 
Q 40.140625 3.328125 35.546875 0.953125 
Q 30.953125 -1.421875 24.3125 -1.421875 
Q 15.921875 -1.421875 10.953125 3.296875 
Q 6 8.015625 6 15.921875 
Q 6 25.140625 12.171875 29.828125 
Q 18.359375 34.515625 30.609375 34.515625 
L 43.21875 34.515625 
L 43.21875 35.40625 
Q 43.21875 41.609375 39.140625 45 
Q 35.0625 48.390625 27.6875 48.390625 
Q 23 48.390625 18.546875 47.265625 
Q 14.109375 46.140625 10.015625 43.890625 
L 10.015625 52.203125 
Q 14.9375 54.109375 19.578125 55.046875 
Q 24.21875 56 28.609375 56 
Q 40.484375 56 46.34375 49.84375 
Q 52.203125 43.703125 52.203125 31.203125 
z
" id="DejaVuSans-97"/>
      </defs>
      <use transform="translate(0 0.78125)" xlink:href="#DejaVuSans-Oblique-956"/>
      <use transform="translate(63.623047 -15.625)scale(0.7)" xlink:href="#DejaVuSans-115"/>
      <use transform="translate(102.827148 0.78125)" xlink:href="#DejaVuSans-58"/>
      <use transform="translate(136.518555 0.78125)" xlink:href="#DejaVuSans-32"/>
      <use transform="translate(168.305664 0.78125)" xlink:href="#DejaVuSans-45"/>
      <use transform="translate(204.389648 0.78125)" xlink:href="#DejaVuSans-52"/>
      <use transform="translate(268.012695 0.78125)" xlink:href="#DejaVuSans-50"/>
      <use transform="translate(331.635742 0.78125)" xlink:href="#DejaVuSans-46"/>
      <use transform="translate(363.422852 0.78125)" xlink:href="#DejaVuSans-57"/>
      <use transform="translate(524.458008 0.78125)" xlink:href="#DejaVuSans-86"/>
      <use transform="translate(592.866211 0.78125)" xlink:href="#DejaVuSans-97"/>
      <use transform="translate(654.145508 0.78125)" xlink:href="#DejaVuSans-114"/>
      <use transform="translate(696.21582 -15.625)scale(0.7)" xlink:href="#DejaVuSans-115"/>
      <use transform="translate(735.419922 0.78125)" xlink:href="#DejaVuSans-58"/>
      <use transform="translate(769.111328 0.78125)" xlink:href="#DejaVuSans-32"/>
      <use transform="translate(800.898438 0.78125)" xlink:href="#DejaVuSans-50"/>
      <use transform="translate(864.521484 0.78125)" xlink:href="#DejaVuSans-46"/>
      <use transform="translate(890.808594 0.78125)" xlink:href="#DejaVuSans-50"/>
      <use transform="translate(954.431641 0.78125)" xlink:href="#DejaVuSans-54"/>
     </g>
    </g>
   </g>
  </g>
 </g>
 <defs>
  <clipPath id="pa52b286db4">
   <rect height="163.08" width="223.2" x="46.304688" y="7.765906"/>
  </clipPath>
 </defs>
</svg>
