<?xml version="1.0" encoding="utf-8" standalone="no"?>
<!DOCTYPE svg PUBLIC "-//W3C//DTD SVG 1.1//EN"
  "http://www.w3.org/Graphics/SVG/1.1/DTD/svg11.dtd">
<!-- Created with matplotlib (https://matplotlib.org/) -->
<svg height="191.274375pt" version="1.1" viewBox="0 0 471.967188 191.274375" width="471.967188pt" xmlns="http://www.w3.org/2000/svg" xmlns:xlink="http://www.w3.org/1999/xlink">
 <metadata>
  <rdf:RDF xmlns:cc="http://creativecommons.org/ns#" xmlns:dc="http://purl.org/dc/elements/1.1/" xmlns:rdf="http://www.w3.org/1999/02/22-rdf-syntax-ns#">
   <cc:Work>
    <dc:type rdf:resource="http://purl.org/dc/dcmitype/StillImage"/>
    <dc:date>2022-03-08T10:12:07.094864</dc:date>
    <dc:format>image/svg+xml</dc:format>
    <dc:creator>
     <cc:Agent>
      <dc:title>Matplotlib v3.3.2, https://matplotlib.org/</dc:title>
     </cc:Agent>
    </dc:creator>
   </cc:Work>
  </rdf:RDF>
 </metadata>
 <defs>
  <style type="text/css">*{stroke-linecap:butt;stroke-linejoin:round;}</style>
 </defs>
 <g id="figure_1">
  <g id="patch_1">
   <path d="M 0 191.274375 
L 471.967188 191.274375 
L 471.967188 0 
L 0 0 
z
" style="fill:none;"/>
  </g>
  <g id="axes_1">
   <g id="patch_2">
    <path d="M 52.160938 153.718125 
L 193.585938 153.718125 
L 193.585938 22.318125 
L 52.160938 22.318125 
z
" style="fill:#ffffff;"/>
   </g>
   <g id="matplotlib.axis_1">
    <g id="xtick_1">
     <g id="line2d_1">
      <defs>
       <path d="M 0 0 
L 0 3.5 
" id="m8a049d78fe" style="stroke:#000000;stroke-width:0.8;"/>
      </defs>
      <g>
       <use style="stroke:#000000;stroke-width:0.8;" x="58.589347" xlink:href="#m8a049d78fe" y="153.718125"/>
      </g>
     </g>
     <g id="text_1">
      <!-- 0 -->
      <g transform="translate(55.408097 168.316562)scale(0.1 -0.1)">
       <defs>
        <path d="M 31.78125 66.40625 
Q 24.171875 66.40625 20.328125 58.90625 
Q 16.5 51.421875 16.5 36.375 
Q 16.5 21.390625 20.328125 13.890625 
Q 24.171875 6.390625 31.78125 6.390625 
Q 39.453125 6.390625 43.28125 13.890625 
Q 47.125 21.390625 47.125 36.375 
Q 47.125 51.421875 43.28125 58.90625 
Q 39.453125 66.40625 31.78125 66.40625 
z
M 31.78125 74.21875 
Q 44.046875 74.21875 50.515625 64.515625 
Q 56.984375 54.828125 56.984375 36.375 
Q 56.984375 17.96875 50.515625 8.265625 
Q 44.046875 -1.421875 31.78125 -1.421875 
Q 19.53125 -1.421875 13.0625 8.265625 
Q 6.59375 17.96875 6.59375 36.375 
Q 6.59375 54.828125 13.0625 64.515625 
Q 19.53125 74.21875 31.78125 74.21875 
z
" id="DejaVuSans-48"/>
       </defs>
       <use xlink:href="#DejaVuSans-48"/>
      </g>
     </g>
    </g>
    <g id="xtick_2">
     <g id="line2d_2">
      <g>
       <use style="stroke:#000000;stroke-width:0.8;" x="101.445407" xlink:href="#m8a049d78fe" y="153.718125"/>
      </g>
     </g>
     <g id="text_2">
      <!-- 20 -->
      <g transform="translate(95.082907 168.316562)scale(0.1 -0.1)">
       <defs>
        <path d="M 19.1875 8.296875 
L 53.609375 8.296875 
L 53.609375 0 
L 7.328125 0 
L 7.328125 8.296875 
Q 12.9375 14.109375 22.625 23.890625 
Q 32.328125 33.6875 34.8125 36.53125 
Q 39.546875 41.84375 41.421875 45.53125 
Q 43.3125 49.21875 43.3125 52.78125 
Q 43.3125 58.59375 39.234375 62.25 
Q 35.15625 65.921875 28.609375 65.921875 
Q 23.96875 65.921875 18.8125 64.3125 
Q 13.671875 62.703125 7.8125 59.421875 
L 7.8125 69.390625 
Q 13.765625 71.78125 18.9375 73 
Q 24.125 74.21875 28.421875 74.21875 
Q 39.75 74.21875 46.484375 68.546875 
Q 53.21875 62.890625 53.21875 53.421875 
Q 53.21875 48.921875 51.53125 44.890625 
Q 49.859375 40.875 45.40625 35.40625 
Q 44.1875 33.984375 37.640625 27.21875 
Q 31.109375 20.453125 19.1875 8.296875 
z
" id="DejaVuSans-50"/>
       </defs>
       <use xlink:href="#DejaVuSans-50"/>
       <use x="63.623047" xlink:href="#DejaVuSans-48"/>
      </g>
     </g>
    </g>
    <g id="xtick_3">
     <g id="line2d_3">
      <g>
       <use style="stroke:#000000;stroke-width:0.8;" x="144.301468" xlink:href="#m8a049d78fe" y="153.718125"/>
      </g>
     </g>
     <g id="text_3">
      <!-- 40 -->
      <g transform="translate(137.938968 168.316562)scale(0.1 -0.1)">
       <defs>
        <path d="M 37.796875 64.3125 
L 12.890625 25.390625 
L 37.796875 25.390625 
z
M 35.203125 72.90625 
L 47.609375 72.90625 
L 47.609375 25.390625 
L 58.015625 25.390625 
L 58.015625 17.1875 
L 47.609375 17.1875 
L 47.609375 0 
L 37.796875 0 
L 37.796875 17.1875 
L 4.890625 17.1875 
L 4.890625 26.703125 
z
" id="DejaVuSans-52"/>
       </defs>
       <use xlink:href="#DejaVuSans-52"/>
       <use x="63.623047" xlink:href="#DejaVuSans-48"/>
      </g>
     </g>
    </g>
    <g id="xtick_4">
     <g id="line2d_4">
      <g>
       <use style="stroke:#000000;stroke-width:0.8;" x="187.157528" xlink:href="#m8a049d78fe" y="153.718125"/>
      </g>
     </g>
     <g id="text_4">
      <!-- 60 -->
      <g transform="translate(180.795028 168.316562)scale(0.1 -0.1)">
       <defs>
        <path d="M 33.015625 40.375 
Q 26.375 40.375 22.484375 35.828125 
Q 18.609375 31.296875 18.609375 23.390625 
Q 18.609375 15.53125 22.484375 10.953125 
Q 26.375 6.390625 33.015625 6.390625 
Q 39.65625 6.390625 43.53125 10.953125 
Q 47.40625 15.53125 47.40625 23.390625 
Q 47.40625 31.296875 43.53125 35.828125 
Q 39.65625 40.375 33.015625 40.375 
z
M 52.59375 71.296875 
L 52.59375 62.3125 
Q 48.875 64.0625 45.09375 64.984375 
Q 41.3125 65.921875 37.59375 65.921875 
Q 27.828125 65.921875 22.671875 59.328125 
Q 17.53125 52.734375 16.796875 39.40625 
Q 19.671875 43.65625 24.015625 45.921875 
Q 28.375 48.1875 33.59375 48.1875 
Q 44.578125 48.1875 50.953125 41.515625 
Q 57.328125 34.859375 57.328125 23.390625 
Q 57.328125 12.15625 50.6875 5.359375 
Q 44.046875 -1.421875 33.015625 -1.421875 
Q 20.359375 -1.421875 13.671875 8.265625 
Q 6.984375 17.96875 6.984375 36.375 
Q 6.984375 53.65625 15.1875 63.9375 
Q 23.390625 74.21875 37.203125 74.21875 
Q 40.921875 74.21875 44.703125 73.484375 
Q 48.484375 72.75 52.59375 71.296875 
z
" id="DejaVuSans-54"/>
       </defs>
       <use xlink:href="#DejaVuSans-54"/>
       <use x="63.623047" xlink:href="#DejaVuSans-48"/>
      </g>
     </g>
    </g>
    <g id="text_5">
     <!-- Time -->
     <g transform="translate(110.639844 181.994687)scale(0.1 -0.1)">
      <defs>
       <path d="M -0.296875 72.90625 
L 61.375 72.90625 
L 61.375 64.59375 
L 35.5 64.59375 
L 35.5 0 
L 25.59375 0 
L 25.59375 64.59375 
L -0.296875 64.59375 
z
" id="DejaVuSans-84"/>
       <path d="M 9.421875 54.6875 
L 18.40625 54.6875 
L 18.40625 0 
L 9.421875 0 
z
M 9.421875 75.984375 
L 18.40625 75.984375 
L 18.40625 64.59375 
L 9.421875 64.59375 
z
" id="DejaVuSans-105"/>
       <path d="M 52 44.1875 
Q 55.375 50.25 60.0625 53.125 
Q 64.75 56 71.09375 56 
Q 79.640625 56 84.28125 50.015625 
Q 88.921875 44.046875 88.921875 33.015625 
L 88.921875 0 
L 79.890625 0 
L 79.890625 32.71875 
Q 79.890625 40.578125 77.09375 44.375 
Q 74.3125 48.1875 68.609375 48.1875 
Q 61.625 48.1875 57.5625 43.546875 
Q 53.515625 38.921875 53.515625 30.90625 
L 53.515625 0 
L 44.484375 0 
L 44.484375 32.71875 
Q 44.484375 40.625 41.703125 44.40625 
Q 38.921875 48.1875 33.109375 48.1875 
Q 26.21875 48.1875 22.15625 43.53125 
Q 18.109375 38.875 18.109375 30.90625 
L 18.109375 0 
L 9.078125 0 
L 9.078125 54.6875 
L 18.109375 54.6875 
L 18.109375 46.1875 
Q 21.1875 51.21875 25.484375 53.609375 
Q 29.78125 56 35.6875 56 
Q 41.65625 56 45.828125 52.96875 
Q 50 49.953125 52 44.1875 
z
" id="DejaVuSans-109"/>
       <path d="M 56.203125 29.59375 
L 56.203125 25.203125 
L 14.890625 25.203125 
Q 15.484375 15.921875 20.484375 11.0625 
Q 25.484375 6.203125 34.421875 6.203125 
Q 39.59375 6.203125 44.453125 7.46875 
Q 49.3125 8.734375 54.109375 11.28125 
L 54.109375 2.78125 
Q 49.265625 0.734375 44.1875 -0.34375 
Q 39.109375 -1.421875 33.890625 -1.421875 
Q 20.796875 -1.421875 13.15625 6.1875 
Q 5.515625 13.8125 5.515625 26.8125 
Q 5.515625 40.234375 12.765625 48.109375 
Q 20.015625 56 32.328125 56 
Q 43.359375 56 49.78125 48.890625 
Q 56.203125 41.796875 56.203125 29.59375 
z
M 47.21875 32.234375 
Q 47.125 39.59375 43.09375 43.984375 
Q 39.0625 48.390625 32.421875 48.390625 
Q 24.90625 48.390625 20.390625 44.140625 
Q 15.875 39.890625 15.1875 32.171875 
z
" id="DejaVuSans-101"/>
      </defs>
      <use xlink:href="#DejaVuSans-84"/>
      <use x="57.958984" xlink:href="#DejaVuSans-105"/>
      <use x="85.742188" xlink:href="#DejaVuSans-109"/>
      <use x="183.154297" xlink:href="#DejaVuSans-101"/>
     </g>
    </g>
   </g>
   <g id="matplotlib.axis_2">
    <g id="ytick_1">
     <g id="line2d_5">
      <defs>
       <path d="M 0 0 
L -3.5 0 
" id="m8193598701" style="stroke:#000000;stroke-width:0.8;"/>
      </defs>
      <g>
       <use style="stroke:#000000;stroke-width:0.8;" x="52.160938" xlink:href="#m8193598701" y="134.317907"/>
      </g>
     </g>
     <g id="text_6">
      <!-- −2.0 -->
      <g transform="translate(20.878125 138.117126)scale(0.1 -0.1)">
       <defs>
        <path d="M 10.59375 35.5 
L 73.1875 35.5 
L 73.1875 27.203125 
L 10.59375 27.203125 
z
" id="DejaVuSans-8722"/>
        <path d="M 10.6875 12.40625 
L 21 12.40625 
L 21 0 
L 10.6875 0 
z
" id="DejaVuSans-46"/>
       </defs>
       <use xlink:href="#DejaVuSans-8722"/>
       <use x="83.789062" xlink:href="#DejaVuSans-50"/>
       <use x="147.412109" xlink:href="#DejaVuSans-46"/>
       <use x="179.199219" xlink:href="#DejaVuSans-48"/>
      </g>
     </g>
    </g>
    <g id="ytick_2">
     <g id="line2d_6">
      <g>
       <use style="stroke:#000000;stroke-width:0.8;" x="52.160938" xlink:href="#m8193598701" y="108.6526"/>
      </g>
     </g>
     <g id="text_7">
      <!-- −1.5 -->
      <g transform="translate(20.878125 112.451819)scale(0.1 -0.1)">
       <defs>
        <path d="M 12.40625 8.296875 
L 28.515625 8.296875 
L 28.515625 63.921875 
L 10.984375 60.40625 
L 10.984375 69.390625 
L 28.421875 72.90625 
L 38.28125 72.90625 
L 38.28125 8.296875 
L 54.390625 8.296875 
L 54.390625 0 
L 12.40625 0 
z
" id="DejaVuSans-49"/>
        <path d="M 10.796875 72.90625 
L 49.515625 72.90625 
L 49.515625 64.59375 
L 19.828125 64.59375 
L 19.828125 46.734375 
Q 21.96875 47.46875 24.109375 47.828125 
Q 26.265625 48.1875 28.421875 48.1875 
Q 40.625 48.1875 47.75 41.5 
Q 54.890625 34.8125 54.890625 23.390625 
Q 54.890625 11.625 47.5625 5.09375 
Q 40.234375 -1.421875 26.90625 -1.421875 
Q 22.3125 -1.421875 17.546875 -0.640625 
Q 12.796875 0.140625 7.71875 1.703125 
L 7.71875 11.625 
Q 12.109375 9.234375 16.796875 8.0625 
Q 21.484375 6.890625 26.703125 6.890625 
Q 35.15625 6.890625 40.078125 11.328125 
Q 45.015625 15.765625 45.015625 23.390625 
Q 45.015625 31 40.078125 35.4375 
Q 35.15625 39.890625 26.703125 39.890625 
Q 22.75 39.890625 18.8125 39.015625 
Q 14.890625 38.140625 10.796875 36.28125 
z
" id="DejaVuSans-53"/>
       </defs>
       <use xlink:href="#DejaVuSans-8722"/>
       <use x="83.789062" xlink:href="#DejaVuSans-49"/>
       <use x="147.412109" xlink:href="#DejaVuSans-46"/>
       <use x="179.199219" xlink:href="#DejaVuSans-53"/>
      </g>
     </g>
    </g>
    <g id="ytick_3">
     <g id="line2d_7">
      <g>
       <use style="stroke:#000000;stroke-width:0.8;" x="52.160938" xlink:href="#m8193598701" y="82.987294"/>
      </g>
     </g>
     <g id="text_8">
      <!-- −1.0 -->
      <g transform="translate(20.878125 86.786513)scale(0.1 -0.1)">
       <use xlink:href="#DejaVuSans-8722"/>
       <use x="83.789062" xlink:href="#DejaVuSans-49"/>
       <use x="147.412109" xlink:href="#DejaVuSans-46"/>
       <use x="179.199219" xlink:href="#DejaVuSans-48"/>
      </g>
     </g>
    </g>
    <g id="ytick_4">
     <g id="line2d_8">
      <g>
       <use style="stroke:#000000;stroke-width:0.8;" x="52.160938" xlink:href="#m8193598701" y="57.321988"/>
      </g>
     </g>
     <g id="text_9">
      <!-- −0.5 -->
      <g transform="translate(20.878125 61.121207)scale(0.1 -0.1)">
       <use xlink:href="#DejaVuSans-8722"/>
       <use x="83.789062" xlink:href="#DejaVuSans-48"/>
       <use x="147.412109" xlink:href="#DejaVuSans-46"/>
       <use x="179.199219" xlink:href="#DejaVuSans-53"/>
      </g>
     </g>
    </g>
    <g id="ytick_5">
     <g id="line2d_9">
      <g>
       <use style="stroke:#000000;stroke-width:0.8;" x="52.160938" xlink:href="#m8193598701" y="31.656682"/>
      </g>
     </g>
     <g id="text_10">
      <!-- 0.0 -->
      <g transform="translate(29.257812 35.4559)scale(0.1 -0.1)">
       <use xlink:href="#DejaVuSans-48"/>
       <use x="63.623047" xlink:href="#DejaVuSans-46"/>
       <use x="95.410156" xlink:href="#DejaVuSans-48"/>
      </g>
     </g>
    </g>
    <g id="text_11">
     <!-- x -->
     <g transform="translate(14.798438 90.9775)rotate(-90)scale(0.1 -0.1)">
      <defs>
       <path d="M 54.890625 54.6875 
L 35.109375 28.078125 
L 55.90625 0 
L 45.3125 0 
L 29.390625 21.484375 
L 13.484375 0 
L 2.875 0 
L 24.125 28.609375 
L 4.6875 54.6875 
L 15.28125 54.6875 
L 29.78125 35.203125 
L 44.28125 54.6875 
z
" id="DejaVuSans-120"/>
      </defs>
      <use xlink:href="#DejaVuSans-120"/>
     </g>
    </g>
   </g>
   <g id="line2d_10">
    <path clip-path="url(#pa7a8cea007)" d="M 58.589347 31.656682 
L 60.390502 80.526228 
L 61.677041 109.726877 
L 62.706273 128.724329 
L 63.563966 140.747034 
L 64.164351 146.22888 
L 64.507428 147.668742 
L 64.678967 147.674052 
L 64.850506 147.024697 
L 65.193583 144.342793 
L 66.308584 132.569419 
L 68.195508 113.578861 
L 69.996664 97.623559 
L 71.797819 83.648805 
L 73.513205 72.036459 
L 75.228591 61.939113 
L 76.858208 53.623742 
L 78.487824 46.433132 
L 80.117441 40.252413 
L 81.661288 35.228064 
L 83.205136 30.920778 
L 84.148598 28.736653 
L 84.491675 28.320492 
L 84.663214 28.304509 
L 84.834753 28.483169 
L 85.092061 29.257517 
L 85.349368 30.850884 
L 85.692446 34.576668 
L 86.121292 41.860648 
L 86.893216 59.569327 
L 88.951679 107.794746 
L 90.06668 128.501357 
L 90.924373 140.530913 
L 91.524758 146.042035 
L 91.867835 147.515465 
L 92.039374 147.547143 
L 92.210912 146.927708 
L 92.55399 144.278366 
L 93.668991 132.524606 
L 95.555915 113.539822 
L 97.357071 97.589249 
L 99.158226 83.618864 
L 100.873612 72.010338 
L 102.588998 61.916478 
L 104.218615 53.604112 
L 105.848231 46.41621 
L 107.477848 40.23791 
L 109.021695 35.2156 
L 110.565543 30.91012 
L 111.509005 28.729494 
L 111.852082 28.318239 
L 112.023621 28.306278 
L 112.19516 28.490375 
L 112.452467 29.275997 
L 112.709775 30.884369 
L 113.052853 34.633435 
L 113.481699 41.943054 
L 114.253623 59.671276 
L 116.312086 107.880213 
L 117.427087 128.568451 
L 118.28478 140.578442 
L 118.885165 146.068564 
L 119.228242 147.522763 
L 119.399781 147.540293 
L 119.571319 146.905165 
L 119.914397 144.239664 
L 121.029398 132.480525 
L 122.916322 113.500834 
L 124.717477 97.554983 
L 126.518633 83.588962 
L 128.234019 71.984252 
L 129.949405 61.893875 
L 131.579022 53.584508 
L 133.208638 46.39931 
L 134.838255 40.223429 
L 136.382102 35.203157 
L 137.92595 30.89948 
L 138.869412 28.722387 
L 139.212489 28.316078 
L 139.384028 28.308169 
L 139.555566 28.497737 
L 139.812874 29.294693 
L 140.070182 30.918118 
L 140.41326 34.690473 
L 140.927875 43.782825 
L 141.871338 66.156411 
L 143.586724 106.181183 
L 144.701725 127.228664 
L 145.559418 139.618612 
L 146.159803 145.510992 
L 146.50288 147.326665 
L 146.674418 147.605378 
L 146.760188 147.533049 
L 146.931726 146.882328 
L 147.274804 144.200875 
L 148.389804 132.436474 
L 150.276729 113.461876 
L 152.077884 97.520744 
L 153.87904 83.559084 
L 155.594426 71.958187 
L 157.309812 61.87129 
L 158.939428 53.56492 
L 160.569045 46.382425 
L 162.198662 40.20896 
L 163.742509 35.190723 
L 165.286357 30.888848 
L 166.229819 28.715325 
L 166.572896 28.314003 
L 166.744435 28.310177 
L 166.915973 28.505255 
L 167.173281 29.313606 
L 167.430589 30.952136 
L 167.773666 34.747793 
L 168.288282 43.869448 
L 169.231745 66.259148 
L 170.947131 106.26772 
L 172.062131 127.297202 
L 172.919824 139.668239 
L 173.52021 145.540869 
L 173.863287 147.339123 
L 174.034825 147.605474 
L 174.120595 147.5254 
L 174.292133 146.859185 
L 174.635211 144.161979 
L 175.750211 132.39243 
L 177.637136 113.422928 
L 179.438291 97.486513 
L 181.239447 83.529213 
L 182.954833 71.93213 
L 184.670219 61.848711 
L 186.299835 53.545339 
L 187.157528 49.633804 
L 187.157528 49.633804 
" style="fill:none;stroke:#0000ff;stroke-linecap:square;stroke-opacity:0.5;stroke-width:1.5;"/>
   </g>
   <g id="patch_3">
    <path d="M 52.160938 153.718125 
L 52.160938 22.318125 
" style="fill:none;stroke:#000000;stroke-linecap:square;stroke-linejoin:miter;stroke-width:0.8;"/>
   </g>
   <g id="patch_4">
    <path d="M 193.585938 153.718125 
L 193.585938 22.318125 
" style="fill:none;stroke:#000000;stroke-linecap:square;stroke-linejoin:miter;stroke-width:0.8;"/>
   </g>
   <g id="patch_5">
    <path d="M 52.160938 153.718125 
L 193.585938 153.718125 
" style="fill:none;stroke:#000000;stroke-linecap:square;stroke-linejoin:miter;stroke-width:0.8;"/>
   </g>
   <g id="patch_6">
    <path d="M 52.160938 22.318125 
L 193.585938 22.318125 
" style="fill:none;stroke:#000000;stroke-linecap:square;stroke-linejoin:miter;stroke-width:0.8;"/>
   </g>
   <g id="text_12">
    <!-- {'a': -4.7, 'b': 3.6, 'c': 1, 'd': 1.2} -->
    <g transform="translate(25.690313 16.318125)scale(0.12 -0.12)">
     <defs>
      <path d="M 51.125 -9.28125 
L 51.125 -16.3125 
L 48.09375 -16.3125 
Q 35.9375 -16.3125 31.8125 -12.6875 
Q 27.6875 -9.078125 27.6875 1.703125 
L 27.6875 13.375 
Q 27.6875 20.75 25.046875 23.578125 
Q 22.40625 26.421875 15.484375 26.421875 
L 12.5 26.421875 
L 12.5 33.40625 
L 15.484375 33.40625 
Q 22.46875 33.40625 25.078125 36.203125 
Q 27.6875 39.015625 27.6875 46.296875 
L 27.6875 58.015625 
Q 27.6875 68.796875 31.8125 72.390625 
Q 35.9375 75.984375 48.09375 75.984375 
L 51.125 75.984375 
L 51.125 69 
L 47.796875 69 
Q 40.921875 69 38.8125 66.84375 
Q 36.71875 64.703125 36.71875 57.8125 
L 36.71875 45.703125 
Q 36.71875 38.03125 34.5 34.5625 
Q 32.28125 31.109375 26.90625 29.890625 
Q 32.328125 28.5625 34.515625 25.09375 
Q 36.71875 21.625 36.71875 14.015625 
L 36.71875 1.90625 
Q 36.71875 -4.984375 38.8125 -7.125 
Q 40.921875 -9.28125 47.796875 -9.28125 
z
" id="DejaVuSans-123"/>
      <path d="M 17.921875 72.90625 
L 17.921875 45.796875 
L 9.625 45.796875 
L 9.625 72.90625 
z
" id="DejaVuSans-39"/>
      <path d="M 34.28125 27.484375 
Q 23.390625 27.484375 19.1875 25 
Q 14.984375 22.515625 14.984375 16.5 
Q 14.984375 11.71875 18.140625 8.90625 
Q 21.296875 6.109375 26.703125 6.109375 
Q 34.1875 6.109375 38.703125 11.40625 
Q 43.21875 16.703125 43.21875 25.484375 
L 43.21875 27.484375 
z
M 52.203125 31.203125 
L 52.203125 0 
L 43.21875 0 
L 43.21875 8.296875 
Q 40.140625 3.328125 35.546875 0.953125 
Q 30.953125 -1.421875 24.3125 -1.421875 
Q 15.921875 -1.421875 10.953125 3.296875 
Q 6 8.015625 6 15.921875 
Q 6 25.140625 12.171875 29.828125 
Q 18.359375 34.515625 30.609375 34.515625 
L 43.21875 34.515625 
L 43.21875 35.40625 
Q 43.21875 41.609375 39.140625 45 
Q 35.0625 48.390625 27.6875 48.390625 
Q 23 48.390625 18.546875 47.265625 
Q 14.109375 46.140625 10.015625 43.890625 
L 10.015625 52.203125 
Q 14.9375 54.109375 19.578125 55.046875 
Q 24.21875 56 28.609375 56 
Q 40.484375 56 46.34375 49.84375 
Q 52.203125 43.703125 52.203125 31.203125 
z
" id="DejaVuSans-97"/>
      <path d="M 11.71875 12.40625 
L 22.015625 12.40625 
L 22.015625 0 
L 11.71875 0 
z
M 11.71875 51.703125 
L 22.015625 51.703125 
L 22.015625 39.3125 
L 11.71875 39.3125 
z
" id="DejaVuSans-58"/>
      <path id="DejaVuSans-32"/>
      <path d="M 4.890625 31.390625 
L 31.203125 31.390625 
L 31.203125 23.390625 
L 4.890625 23.390625 
z
" id="DejaVuSans-45"/>
      <path d="M 8.203125 72.90625 
L 55.078125 72.90625 
L 55.078125 68.703125 
L 28.609375 0 
L 18.3125 0 
L 43.21875 64.59375 
L 8.203125 64.59375 
z
" id="DejaVuSans-55"/>
      <path d="M 11.71875 12.40625 
L 22.015625 12.40625 
L 22.015625 4 
L 14.015625 -11.625 
L 7.71875 -11.625 
L 11.71875 4 
z
" id="DejaVuSans-44"/>
      <path d="M 48.6875 27.296875 
Q 48.6875 37.203125 44.609375 42.84375 
Q 40.53125 48.484375 33.40625 48.484375 
Q 26.265625 48.484375 22.1875 42.84375 
Q 18.109375 37.203125 18.109375 27.296875 
Q 18.109375 17.390625 22.1875 11.75 
Q 26.265625 6.109375 33.40625 6.109375 
Q 40.53125 6.109375 44.609375 11.75 
Q 48.6875 17.390625 48.6875 27.296875 
z
M 18.109375 46.390625 
Q 20.953125 51.265625 25.265625 53.625 
Q 29.59375 56 35.59375 56 
Q 45.5625 56 51.78125 48.09375 
Q 58.015625 40.1875 58.015625 27.296875 
Q 58.015625 14.40625 51.78125 6.484375 
Q 45.5625 -1.421875 35.59375 -1.421875 
Q 29.59375 -1.421875 25.265625 0.953125 
Q 20.953125 3.328125 18.109375 8.203125 
L 18.109375 0 
L 9.078125 0 
L 9.078125 75.984375 
L 18.109375 75.984375 
z
" id="DejaVuSans-98"/>
      <path d="M 40.578125 39.3125 
Q 47.65625 37.796875 51.625 33 
Q 55.609375 28.21875 55.609375 21.1875 
Q 55.609375 10.40625 48.1875 4.484375 
Q 40.765625 -1.421875 27.09375 -1.421875 
Q 22.515625 -1.421875 17.65625 -0.515625 
Q 12.796875 0.390625 7.625 2.203125 
L 7.625 11.71875 
Q 11.71875 9.328125 16.59375 8.109375 
Q 21.484375 6.890625 26.8125 6.890625 
Q 36.078125 6.890625 40.9375 10.546875 
Q 45.796875 14.203125 45.796875 21.1875 
Q 45.796875 27.640625 41.28125 31.265625 
Q 36.765625 34.90625 28.71875 34.90625 
L 20.21875 34.90625 
L 20.21875 43.015625 
L 29.109375 43.015625 
Q 36.375 43.015625 40.234375 45.921875 
Q 44.09375 48.828125 44.09375 54.296875 
Q 44.09375 59.90625 40.109375 62.90625 
Q 36.140625 65.921875 28.71875 65.921875 
Q 24.65625 65.921875 20.015625 65.03125 
Q 15.375 64.15625 9.8125 62.3125 
L 9.8125 71.09375 
Q 15.4375 72.65625 20.34375 73.4375 
Q 25.25 74.21875 29.59375 74.21875 
Q 40.828125 74.21875 47.359375 69.109375 
Q 53.90625 64.015625 53.90625 55.328125 
Q 53.90625 49.265625 50.4375 45.09375 
Q 46.96875 40.921875 40.578125 39.3125 
z
" id="DejaVuSans-51"/>
      <path d="M 48.78125 52.59375 
L 48.78125 44.1875 
Q 44.96875 46.296875 41.140625 47.34375 
Q 37.3125 48.390625 33.40625 48.390625 
Q 24.65625 48.390625 19.8125 42.84375 
Q 14.984375 37.3125 14.984375 27.296875 
Q 14.984375 17.28125 19.8125 11.734375 
Q 24.65625 6.203125 33.40625 6.203125 
Q 37.3125 6.203125 41.140625 7.25 
Q 44.96875 8.296875 48.78125 10.40625 
L 48.78125 2.09375 
Q 45.015625 0.34375 40.984375 -0.53125 
Q 36.96875 -1.421875 32.421875 -1.421875 
Q 20.0625 -1.421875 12.78125 6.34375 
Q 5.515625 14.109375 5.515625 27.296875 
Q 5.515625 40.671875 12.859375 48.328125 
Q 20.21875 56 33.015625 56 
Q 37.15625 56 41.109375 55.140625 
Q 45.0625 54.296875 48.78125 52.59375 
z
" id="DejaVuSans-99"/>
      <path d="M 45.40625 46.390625 
L 45.40625 75.984375 
L 54.390625 75.984375 
L 54.390625 0 
L 45.40625 0 
L 45.40625 8.203125 
Q 42.578125 3.328125 38.25 0.953125 
Q 33.9375 -1.421875 27.875 -1.421875 
Q 17.96875 -1.421875 11.734375 6.484375 
Q 5.515625 14.40625 5.515625 27.296875 
Q 5.515625 40.1875 11.734375 48.09375 
Q 17.96875 56 27.875 56 
Q 33.9375 56 38.25 53.625 
Q 42.578125 51.265625 45.40625 46.390625 
z
M 14.796875 27.296875 
Q 14.796875 17.390625 18.875 11.75 
Q 22.953125 6.109375 30.078125 6.109375 
Q 37.203125 6.109375 41.296875 11.75 
Q 45.40625 17.390625 45.40625 27.296875 
Q 45.40625 37.203125 41.296875 42.84375 
Q 37.203125 48.484375 30.078125 48.484375 
Q 22.953125 48.484375 18.875 42.84375 
Q 14.796875 37.203125 14.796875 27.296875 
z
" id="DejaVuSans-100"/>
      <path d="M 12.5 -9.28125 
L 15.921875 -9.28125 
Q 22.75 -9.28125 24.828125 -7.171875 
Q 26.90625 -5.078125 26.90625 1.90625 
L 26.90625 14.015625 
Q 26.90625 21.625 29.09375 25.09375 
Q 31.296875 28.5625 36.71875 29.890625 
Q 31.296875 31.109375 29.09375 34.5625 
Q 26.90625 38.03125 26.90625 45.703125 
L 26.90625 57.8125 
Q 26.90625 64.75 24.828125 66.875 
Q 22.75 69 15.921875 69 
L 12.5 69 
L 12.5 75.984375 
L 15.578125 75.984375 
Q 27.734375 75.984375 31.8125 72.390625 
Q 35.890625 68.796875 35.890625 58.015625 
L 35.890625 46.296875 
Q 35.890625 39.015625 38.515625 36.203125 
Q 41.15625 33.40625 48.09375 33.40625 
L 51.125 33.40625 
L 51.125 26.421875 
L 48.09375 26.421875 
Q 41.15625 26.421875 38.515625 23.578125 
Q 35.890625 20.75 35.890625 13.375 
L 35.890625 1.703125 
Q 35.890625 -9.078125 31.8125 -12.6875 
Q 27.734375 -16.3125 15.578125 -16.3125 
L 12.5 -16.3125 
z
" id="DejaVuSans-125"/>
     </defs>
     <use xlink:href="#DejaVuSans-123"/>
     <use x="63.623047" xlink:href="#DejaVuSans-39"/>
     <use x="91.113281" xlink:href="#DejaVuSans-97"/>
     <use x="152.392578" xlink:href="#DejaVuSans-39"/>
     <use x="179.882812" xlink:href="#DejaVuSans-58"/>
     <use x="213.574219" xlink:href="#DejaVuSans-32"/>
     <use x="245.361328" xlink:href="#DejaVuSans-45"/>
     <use x="281.445312" xlink:href="#DejaVuSans-52"/>
     <use x="345.068359" xlink:href="#DejaVuSans-46"/>
     <use x="376.855469" xlink:href="#DejaVuSans-55"/>
     <use x="440.478516" xlink:href="#DejaVuSans-44"/>
     <use x="472.265625" xlink:href="#DejaVuSans-32"/>
     <use x="504.052734" xlink:href="#DejaVuSans-39"/>
     <use x="531.542969" xlink:href="#DejaVuSans-98"/>
     <use x="595.019531" xlink:href="#DejaVuSans-39"/>
     <use x="622.509766" xlink:href="#DejaVuSans-58"/>
     <use x="656.201172" xlink:href="#DejaVuSans-32"/>
     <use x="687.988281" xlink:href="#DejaVuSans-51"/>
     <use x="751.611328" xlink:href="#DejaVuSans-46"/>
     <use x="783.398438" xlink:href="#DejaVuSans-54"/>
     <use x="847.021484" xlink:href="#DejaVuSans-44"/>
     <use x="878.808594" xlink:href="#DejaVuSans-32"/>
     <use x="910.595703" xlink:href="#DejaVuSans-39"/>
     <use x="938.085938" xlink:href="#DejaVuSans-99"/>
     <use x="993.066406" xlink:href="#DejaVuSans-39"/>
     <use x="1020.556641" xlink:href="#DejaVuSans-58"/>
     <use x="1054.248047" xlink:href="#DejaVuSans-32"/>
     <use x="1086.035156" xlink:href="#DejaVuSans-49"/>
     <use x="1149.658203" xlink:href="#DejaVuSans-44"/>
     <use x="1181.445312" xlink:href="#DejaVuSans-32"/>
     <use x="1213.232422" xlink:href="#DejaVuSans-39"/>
     <use x="1240.722656" xlink:href="#DejaVuSans-100"/>
     <use x="1304.199219" xlink:href="#DejaVuSans-39"/>
     <use x="1331.689453" xlink:href="#DejaVuSans-58"/>
     <use x="1365.380859" xlink:href="#DejaVuSans-32"/>
     <use x="1397.167969" xlink:href="#DejaVuSans-49"/>
     <use x="1460.791016" xlink:href="#DejaVuSans-46"/>
     <use x="1492.578125" xlink:href="#DejaVuSans-50"/>
     <use x="1556.201172" xlink:href="#DejaVuSans-125"/>
    </g>
   </g>
   <g id="legend_1">
    <g id="patch_7">
     <path d="M 103.914062 148.718125 
L 141.832812 148.718125 
Q 143.832812 148.718125 143.832812 146.718125 
L 143.832812 118.361875 
Q 143.832812 116.361875 141.832812 116.361875 
L 103.914062 116.361875 
Q 101.914062 116.361875 101.914062 118.361875 
L 101.914062 146.718125 
Q 101.914062 148.718125 103.914062 148.718125 
z
" style="fill:#ffffff;opacity:0.8;stroke:#cccccc;stroke-linejoin:miter;"/>
    </g>
    <g id="line2d_11">
     <path d="M 105.914062 124.460312 
L 125.914062 124.460312 
" style="fill:none;stroke:#ff0000;stroke-linecap:square;stroke-width:1.5;"/>
    </g>
    <g id="line2d_12"/>
    <g id="text_13">
     <!-- y -->
     <g transform="translate(133.914062 127.960312)scale(0.1 -0.1)">
      <defs>
       <path d="M 32.171875 -5.078125 
Q 28.375 -14.84375 24.75 -17.8125 
Q 21.140625 -20.796875 15.09375 -20.796875 
L 7.90625 -20.796875 
L 7.90625 -13.28125 
L 13.1875 -13.28125 
Q 16.890625 -13.28125 18.9375 -11.515625 
Q 21 -9.765625 23.484375 -3.21875 
L 25.09375 0.875 
L 2.984375 54.6875 
L 12.5 54.6875 
L 29.59375 11.921875 
L 46.6875 54.6875 
L 56.203125 54.6875 
z
" id="DejaVuSans-121"/>
      </defs>
      <use xlink:href="#DejaVuSans-121"/>
     </g>
    </g>
    <g id="line2d_13">
     <path d="M 105.914062 139.138437 
L 125.914062 139.138437 
" style="fill:none;stroke:#0000ff;stroke-linecap:square;stroke-opacity:0.5;stroke-width:1.5;"/>
    </g>
    <g id="line2d_14"/>
    <g id="text_14">
     <!-- x -->
     <g transform="translate(133.914062 142.638437)scale(0.1 -0.1)">
      <use xlink:href="#DejaVuSans-120"/>
     </g>
    </g>
   </g>
  </g>
  <g id="axes_2">
   <g id="patch_8">
    <path d="M 286.760938 153.718125 
L 428.185938 153.718125 
L 428.185938 22.318125 
L 286.760938 22.318125 
z
" style="fill:#ffffff;"/>
   </g>
   <g id="matplotlib.axis_3">
    <g id="xtick_5">
     <g id="line2d_15">
      <g>
       <use style="stroke:#000000;stroke-width:0.8;" x="293.189347" xlink:href="#m8a049d78fe" y="153.718125"/>
      </g>
     </g>
     <g id="text_15">
      <!-- 0 -->
      <g transform="translate(290.008097 168.316562)scale(0.1 -0.1)">
       <use xlink:href="#DejaVuSans-48"/>
      </g>
     </g>
    </g>
    <g id="xtick_6">
     <g id="line2d_16">
      <g>
       <use style="stroke:#000000;stroke-width:0.8;" x="336.045407" xlink:href="#m8a049d78fe" y="153.718125"/>
      </g>
     </g>
     <g id="text_16">
      <!-- 20 -->
      <g transform="translate(329.682907 168.316562)scale(0.1 -0.1)">
       <use xlink:href="#DejaVuSans-50"/>
       <use x="63.623047" xlink:href="#DejaVuSans-48"/>
      </g>
     </g>
    </g>
    <g id="xtick_7">
     <g id="line2d_17">
      <g>
       <use style="stroke:#000000;stroke-width:0.8;" x="378.901468" xlink:href="#m8a049d78fe" y="153.718125"/>
      </g>
     </g>
     <g id="text_17">
      <!-- 40 -->
      <g transform="translate(372.538968 168.316562)scale(0.1 -0.1)">
       <use xlink:href="#DejaVuSans-52"/>
       <use x="63.623047" xlink:href="#DejaVuSans-48"/>
      </g>
     </g>
    </g>
    <g id="xtick_8">
     <g id="line2d_18">
      <g>
       <use style="stroke:#000000;stroke-width:0.8;" x="421.757528" xlink:href="#m8a049d78fe" y="153.718125"/>
      </g>
     </g>
     <g id="text_18">
      <!-- 60 -->
      <g transform="translate(415.395028 168.316562)scale(0.1 -0.1)">
       <use xlink:href="#DejaVuSans-54"/>
       <use x="63.623047" xlink:href="#DejaVuSans-48"/>
      </g>
     </g>
    </g>
    <g id="text_19">
     <!-- Time -->
     <g transform="translate(345.239844 181.994687)scale(0.1 -0.1)">
      <use xlink:href="#DejaVuSans-84"/>
      <use x="57.958984" xlink:href="#DejaVuSans-105"/>
      <use x="85.742188" xlink:href="#DejaVuSans-109"/>
      <use x="183.154297" xlink:href="#DejaVuSans-101"/>
     </g>
    </g>
   </g>
   <g id="matplotlib.axis_4">
    <g id="ytick_6">
     <g id="line2d_19">
      <g>
       <use style="stroke:#000000;stroke-width:0.8;" x="286.760938" xlink:href="#m8193598701" y="134.317907"/>
      </g>
     </g>
     <g id="text_20">
      <!-- −2.0 -->
      <g transform="translate(255.478125 138.117126)scale(0.1 -0.1)">
       <use xlink:href="#DejaVuSans-8722"/>
       <use x="83.789062" xlink:href="#DejaVuSans-50"/>
       <use x="147.412109" xlink:href="#DejaVuSans-46"/>
       <use x="179.199219" xlink:href="#DejaVuSans-48"/>
      </g>
     </g>
    </g>
    <g id="ytick_7">
     <g id="line2d_20">
      <g>
       <use style="stroke:#000000;stroke-width:0.8;" x="286.760938" xlink:href="#m8193598701" y="108.6526"/>
      </g>
     </g>
     <g id="text_21">
      <!-- −1.5 -->
      <g transform="translate(255.478125 112.451819)scale(0.1 -0.1)">
       <use xlink:href="#DejaVuSans-8722"/>
       <use x="83.789062" xlink:href="#DejaVuSans-49"/>
       <use x="147.412109" xlink:href="#DejaVuSans-46"/>
       <use x="179.199219" xlink:href="#DejaVuSans-53"/>
      </g>
     </g>
    </g>
    <g id="ytick_8">
     <g id="line2d_21">
      <g>
       <use style="stroke:#000000;stroke-width:0.8;" x="286.760938" xlink:href="#m8193598701" y="82.987294"/>
      </g>
     </g>
     <g id="text_22">
      <!-- −1.0 -->
      <g transform="translate(255.478125 86.786513)scale(0.1 -0.1)">
       <use xlink:href="#DejaVuSans-8722"/>
       <use x="83.789062" xlink:href="#DejaVuSans-49"/>
       <use x="147.412109" xlink:href="#DejaVuSans-46"/>
       <use x="179.199219" xlink:href="#DejaVuSans-48"/>
      </g>
     </g>
    </g>
    <g id="ytick_9">
     <g id="line2d_22">
      <g>
       <use style="stroke:#000000;stroke-width:0.8;" x="286.760938" xlink:href="#m8193598701" y="57.321988"/>
      </g>
     </g>
     <g id="text_23">
      <!-- −0.5 -->
      <g transform="translate(255.478125 61.121207)scale(0.1 -0.1)">
       <use xlink:href="#DejaVuSans-8722"/>
       <use x="83.789062" xlink:href="#DejaVuSans-48"/>
       <use x="147.412109" xlink:href="#DejaVuSans-46"/>
       <use x="179.199219" xlink:href="#DejaVuSans-53"/>
      </g>
     </g>
    </g>
    <g id="ytick_10">
     <g id="line2d_23">
      <g>
       <use style="stroke:#000000;stroke-width:0.8;" x="286.760938" xlink:href="#m8193598701" y="31.656682"/>
      </g>
     </g>
     <g id="text_24">
      <!-- 0.0 -->
      <g transform="translate(263.857813 35.4559)scale(0.1 -0.1)">
       <use xlink:href="#DejaVuSans-48"/>
       <use x="63.623047" xlink:href="#DejaVuSans-46"/>
       <use x="95.410156" xlink:href="#DejaVuSans-48"/>
      </g>
     </g>
    </g>
    <g id="text_25">
     <!-- x -->
     <g transform="translate(249.398438 90.9775)rotate(-90)scale(0.1 -0.1)">
      <use xlink:href="#DejaVuSans-120"/>
     </g>
    </g>
   </g>
   <g id="line2d_24">
    <path clip-path="url(#p46a942f613)" d="M 293.189347 31.656682 
L 294.990502 80.526228 
L 296.277041 109.726877 
L 297.306273 128.724329 
L 298.163966 140.747034 
L 298.764351 146.22888 
L 299.107428 147.668742 
L 299.278967 147.674052 
L 299.450506 147.024697 
L 299.793583 144.342793 
L 300.908584 132.569419 
L 302.795508 113.578861 
L 304.596664 97.623559 
L 306.397819 83.648805 
L 308.113205 72.036459 
L 309.828591 61.939113 
L 311.458208 53.623742 
L 313.087824 46.433132 
L 314.717441 40.252413 
L 316.261288 35.228064 
L 317.805136 30.920778 
L 318.748598 28.736653 
L 319.091675 28.320492 
L 319.263214 28.304509 
L 319.434753 28.483169 
L 319.692061 29.257517 
L 319.949368 30.850884 
L 320.292446 34.576668 
L 320.721292 41.860648 
L 321.493216 59.569327 
L 323.551679 107.794746 
L 324.66668 128.501357 
L 325.524373 140.530913 
L 326.124758 146.042035 
L 326.467835 147.515465 
L 326.639374 147.547143 
L 326.810912 146.927708 
L 327.15399 144.278366 
L 328.268991 132.524606 
L 330.155915 113.539822 
L 331.957071 97.589249 
L 333.758226 83.618864 
L 335.473612 72.010338 
L 337.188998 61.916478 
L 338.818615 53.604112 
L 340.448231 46.41621 
L 342.077848 40.23791 
L 343.621695 35.2156 
L 345.165543 30.91012 
L 346.109005 28.729494 
L 346.452082 28.318239 
L 346.623621 28.306278 
L 346.79516 28.490375 
L 347.052467 29.275997 
L 347.309775 30.884369 
L 347.652853 34.633435 
L 348.081699 41.943054 
L 348.853623 59.671276 
L 350.912086 107.880213 
L 352.027087 128.568451 
L 352.88478 140.578442 
L 353.485165 146.068564 
L 353.828242 147.522763 
L 353.999781 147.540293 
L 354.171319 146.905165 
L 354.514397 144.239664 
L 355.629398 132.480525 
L 357.516322 113.500834 
L 359.317477 97.554983 
L 361.118633 83.588962 
L 362.834019 71.984252 
L 364.549405 61.893875 
L 366.179022 53.584508 
L 367.808638 46.39931 
L 369.438255 40.223429 
L 370.982102 35.203157 
L 372.52595 30.89948 
L 373.469412 28.722387 
L 373.812489 28.316078 
L 373.984028 28.308169 
L 374.155566 28.497737 
L 374.412874 29.294693 
L 374.670182 30.918118 
L 375.01326 34.690473 
L 375.527875 43.782825 
L 376.471338 66.156411 
L 378.186724 106.181183 
L 379.301725 127.228664 
L 380.159418 139.618612 
L 380.759803 145.510992 
L 381.10288 147.326665 
L 381.274418 147.605378 
L 381.360188 147.533049 
L 381.531726 146.882328 
L 381.874804 144.200875 
L 382.989804 132.436474 
L 384.876729 113.461876 
L 386.677884 97.520744 
L 388.47904 83.559084 
L 390.194426 71.958187 
L 391.909812 61.87129 
L 393.539428 53.56492 
L 395.169045 46.382425 
L 396.798662 40.20896 
L 398.342509 35.190723 
L 399.886357 30.888848 
L 400.829819 28.715325 
L 401.172896 28.314003 
L 401.344435 28.310177 
L 401.515973 28.505255 
L 401.773281 29.313606 
L 402.030589 30.952136 
L 402.373666 34.747793 
L 402.888282 43.869448 
L 403.831745 66.259148 
L 405.547131 106.26772 
L 406.662131 127.297202 
L 407.519824 139.668239 
L 408.12021 145.540869 
L 408.463287 147.339123 
L 408.634825 147.605474 
L 408.720595 147.5254 
L 408.892133 146.859185 
L 409.235211 144.161979 
L 410.350211 132.39243 
L 412.237136 113.422928 
L 414.038291 97.486513 
L 415.839447 83.529213 
L 417.554833 71.93213 
L 419.270219 61.848711 
L 420.899835 53.545339 
L 421.757528 49.633804 
L 421.757528 49.633804 
" style="fill:none;stroke:#0000ff;stroke-linecap:square;stroke-opacity:0.5;stroke-width:1.5;"/>
   </g>
   <g id="patch_9">
    <path d="M 286.760938 153.718125 
L 286.760938 22.318125 
" style="fill:none;stroke:#000000;stroke-linecap:square;stroke-linejoin:miter;stroke-width:0.8;"/>
   </g>
   <g id="patch_10">
    <path d="M 428.185938 153.718125 
L 428.185938 22.318125 
" style="fill:none;stroke:#000000;stroke-linecap:square;stroke-linejoin:miter;stroke-width:0.8;"/>
   </g>
   <g id="patch_11">
    <path d="M 286.760938 153.718125 
L 428.185938 153.718125 
" style="fill:none;stroke:#000000;stroke-linecap:square;stroke-linejoin:miter;stroke-width:0.8;"/>
   </g>
   <g id="patch_12">
    <path d="M 286.760938 22.318125 
L 428.185938 22.318125 
" style="fill:none;stroke:#000000;stroke-linecap:square;stroke-linejoin:miter;stroke-width:0.8;"/>
   </g>
   <g id="text_26">
    <!-- {'a': -4.7, 'b': 3.6, 'c': 1, 'd': 1.2} -->
    <g transform="translate(260.290313 16.318125)scale(0.12 -0.12)">
     <use xlink:href="#DejaVuSans-123"/>
     <use x="63.623047" xlink:href="#DejaVuSans-39"/>
     <use x="91.113281" xlink:href="#DejaVuSans-97"/>
     <use x="152.392578" xlink:href="#DejaVuSans-39"/>
     <use x="179.882812" xlink:href="#DejaVuSans-58"/>
     <use x="213.574219" xlink:href="#DejaVuSans-32"/>
     <use x="245.361328" xlink:href="#DejaVuSans-45"/>
     <use x="281.445312" xlink:href="#DejaVuSans-52"/>
     <use x="345.068359" xlink:href="#DejaVuSans-46"/>
     <use x="376.855469" xlink:href="#DejaVuSans-55"/>
     <use x="440.478516" xlink:href="#DejaVuSans-44"/>
     <use x="472.265625" xlink:href="#DejaVuSans-32"/>
     <use x="504.052734" xlink:href="#DejaVuSans-39"/>
     <use x="531.542969" xlink:href="#DejaVuSans-98"/>
     <use x="595.019531" xlink:href="#DejaVuSans-39"/>
     <use x="622.509766" xlink:href="#DejaVuSans-58"/>
     <use x="656.201172" xlink:href="#DejaVuSans-32"/>
     <use x="687.988281" xlink:href="#DejaVuSans-51"/>
     <use x="751.611328" xlink:href="#DejaVuSans-46"/>
     <use x="783.398438" xlink:href="#DejaVuSans-54"/>
     <use x="847.021484" xlink:href="#DejaVuSans-44"/>
     <use x="878.808594" xlink:href="#DejaVuSans-32"/>
     <use x="910.595703" xlink:href="#DejaVuSans-39"/>
     <use x="938.085938" xlink:href="#DejaVuSans-99"/>
     <use x="993.066406" xlink:href="#DejaVuSans-39"/>
     <use x="1020.556641" xlink:href="#DejaVuSans-58"/>
     <use x="1054.248047" xlink:href="#DejaVuSans-32"/>
     <use x="1086.035156" xlink:href="#DejaVuSans-49"/>
     <use x="1149.658203" xlink:href="#DejaVuSans-44"/>
     <use x="1181.445312" xlink:href="#DejaVuSans-32"/>
     <use x="1213.232422" xlink:href="#DejaVuSans-39"/>
     <use x="1240.722656" xlink:href="#DejaVuSans-100"/>
     <use x="1304.199219" xlink:href="#DejaVuSans-39"/>
     <use x="1331.689453" xlink:href="#DejaVuSans-58"/>
     <use x="1365.380859" xlink:href="#DejaVuSans-32"/>
     <use x="1397.167969" xlink:href="#DejaVuSans-49"/>
     <use x="1460.791016" xlink:href="#DejaVuSans-46"/>
     <use x="1492.578125" xlink:href="#DejaVuSans-50"/>
     <use x="1556.201172" xlink:href="#DejaVuSans-125"/>
    </g>
   </g>
   <g id="legend_2">
    <g id="patch_13">
     <path d="M 338.514063 148.718125 
L 376.432813 148.718125 
Q 378.432813 148.718125 378.432813 146.718125 
L 378.432813 118.361875 
Q 378.432813 116.361875 376.432813 116.361875 
L 338.514063 116.361875 
Q 336.514063 116.361875 336.514063 118.361875 
L 336.514063 146.718125 
Q 336.514063 148.718125 338.514063 148.718125 
z
" style="fill:#ffffff;opacity:0.8;stroke:#cccccc;stroke-linejoin:miter;"/>
    </g>
    <g id="line2d_25">
     <path d="M 340.514063 124.460312 
L 360.514063 124.460312 
" style="fill:none;stroke:#ff0000;stroke-linecap:square;stroke-width:1.5;"/>
    </g>
    <g id="line2d_26"/>
    <g id="text_27">
     <!-- y -->
     <g transform="translate(368.514063 127.960312)scale(0.1 -0.1)">
      <use xlink:href="#DejaVuSans-121"/>
     </g>
    </g>
    <g id="line2d_27">
     <path d="M 340.514063 139.138437 
L 360.514063 139.138437 
" style="fill:none;stroke:#0000ff;stroke-linecap:square;stroke-opacity:0.5;stroke-width:1.5;"/>
    </g>
    <g id="line2d_28"/>
    <g id="text_28">
     <!-- x -->
     <g transform="translate(368.514063 142.638437)scale(0.1 -0.1)">
      <use xlink:href="#DejaVuSans-120"/>
     </g>
    </g>
   </g>
  </g>
  <g id="axes_3">
   <g id="matplotlib.axis_5">
    <g id="ytick_11">
     <g id="line2d_29">
      <defs>
       <path d="M 0 0 
L 3.5 0 
" id="m7a2589edd0" style="stroke:#000000;stroke-width:0.8;"/>
      </defs>
      <g>
       <use style="stroke:#000000;stroke-width:0.8;" x="193.585938" xlink:href="#m7a2589edd0" y="147.745398"/>
      </g>
     </g>
     <g id="text_29">
      <!-- 0.0 -->
      <g transform="translate(200.585938 151.544616)scale(0.1 -0.1)">
       <use xlink:href="#DejaVuSans-48"/>
       <use x="63.623047" xlink:href="#DejaVuSans-46"/>
       <use x="95.410156" xlink:href="#DejaVuSans-48"/>
      </g>
     </g>
    </g>
    <g id="ytick_12">
     <g id="line2d_30">
      <g>
       <use style="stroke:#000000;stroke-width:0.8;" x="193.585938" xlink:href="#m7a2589edd0" y="111.573375"/>
      </g>
     </g>
     <g id="text_30">
      <!-- 0.5 -->
      <g transform="translate(200.585938 115.372593)scale(0.1 -0.1)">
       <use xlink:href="#DejaVuSans-48"/>
       <use x="63.623047" xlink:href="#DejaVuSans-46"/>
       <use x="95.410156" xlink:href="#DejaVuSans-53"/>
      </g>
     </g>
    </g>
    <g id="ytick_13">
     <g id="line2d_31">
      <g>
       <use style="stroke:#000000;stroke-width:0.8;" x="193.585938" xlink:href="#m7a2589edd0" y="75.401352"/>
      </g>
     </g>
     <g id="text_31">
      <!-- 1.0 -->
      <g transform="translate(200.585938 79.20057)scale(0.1 -0.1)">
       <use xlink:href="#DejaVuSans-49"/>
       <use x="63.623047" xlink:href="#DejaVuSans-46"/>
       <use x="95.410156" xlink:href="#DejaVuSans-48"/>
      </g>
     </g>
    </g>
    <g id="ytick_14">
     <g id="line2d_32">
      <g>
       <use style="stroke:#000000;stroke-width:0.8;" x="193.585938" xlink:href="#m7a2589edd0" y="39.229329"/>
      </g>
     </g>
     <g id="text_32">
      <!-- 1.5 -->
      <g transform="translate(200.585938 43.028547)scale(0.1 -0.1)">
       <use xlink:href="#DejaVuSans-49"/>
       <use x="63.623047" xlink:href="#DejaVuSans-46"/>
       <use x="95.410156" xlink:href="#DejaVuSans-53"/>
      </g>
     </g>
    </g>
    <g id="text_33">
     <!-- y -->
     <g transform="translate(228.0875 90.9775)rotate(-90)scale(0.1 -0.1)">
      <use xlink:href="#DejaVuSans-121"/>
     </g>
    </g>
   </g>
   <g id="line2d_33">
    <path clip-path="url(#pa7a8cea007)" d="M 58.589347 147.745398 
L 58.760885 147.499144 
L 59.018193 146.445434 
L 59.532809 143.028634 
L 60.476271 134.95015 
L 61.677041 122.808272 
L 62.620504 111.224756 
L 63.392427 98.969379 
L 63.992813 85.390883 
L 64.421659 70.172858 
L 65.279352 31.153055 
L 65.53666 28.952565 
L 65.793968 28.323689 
L 65.965506 28.311665 
L 66.222814 28.577399 
L 66.823199 29.662946 
L 70.511279 36.822441 
L 72.91282 40.914314 
L 75.142822 44.286482 
L 77.287054 47.141607 
L 79.431287 49.625835 
L 81.48975 51.677125 
L 83.719752 53.800603 
L 83.97706 54.696212 
L 84.234368 56.361858 
L 84.577445 60.612403 
L 84.920522 68.573077 
L 85.349368 85.310407 
L 86.292831 126.42969 
L 86.635908 133.163393 
L 86.893216 135.415666 
L 87.150524 136.027532 
L 87.322062 135.801732 
L 87.57937 134.811244 
L 88.008217 132.044751 
L 88.694371 126.008869 
L 89.637833 115.613246 
L 90.409757 104.889706 
L 91.010142 93.911362 
L 91.524758 80.385288 
L 91.867835 66.37238 
L 92.55399 32.693409 
L 92.811298 29.525114 
L 93.068605 28.468079 
L 93.240144 28.31755 
L 93.411683 28.391716 
L 93.75476 28.862685 
L 94.783992 30.888584 
L 97.44284 36.049652 
L 99.84438 40.225292 
L 102.074382 43.676055 
L 104.218615 46.60594 
L 106.362847 49.162555 
L 108.42131 51.279688 
L 110.479774 53.086468 
L 110.994389 53.62389 
L 111.251697 54.346179 
L 111.509005 55.725112 
L 111.766313 58.174289 
L 112.10939 64.126466 
L 112.452467 74.521865 
L 113.052853 102.521053 
L 113.653238 126.541478 
L 113.996315 133.216035 
L 114.253623 135.436767 
L 114.510931 136.027221 
L 114.682469 135.791406 
L 114.939777 134.790329 
L 115.368624 132.013323 
L 116.054778 125.968349 
L 116.99824 115.56219 
L 117.770164 104.824231 
L 118.370549 93.822523 
L 118.885165 80.249178 
L 119.228242 66.158841 
L 119.914397 32.615333 
L 120.171705 29.495917 
L 120.429012 28.460671 
L 120.600551 28.317206 
L 120.857859 28.485238 
L 121.372475 29.343511 
L 126.261325 38.648412 
L 128.577096 42.404004 
L 130.807098 45.600274 
L 132.95133 48.289216 
L 135.009794 50.52749 
L 137.068257 52.447356 
L 138.354796 53.631853 
L 138.612104 54.362245 
L 138.869412 55.75465 
L 139.12672 58.225329 
L 139.469797 64.222626 
L 139.812874 74.677831 
L 140.41326 102.726455 
L 140.927875 124.184357 
L 141.270953 132.061915 
L 141.61403 135.457442 
L 141.871338 136.02663 
L 142.042876 135.780871 
L 142.300184 134.769279 
L 142.729031 131.981827 
L 143.415185 125.927796 
L 144.358647 115.511094 
L 145.130571 104.758669 
L 145.730956 93.733479 
L 146.245572 80.112517 
L 146.588649 65.943953 
L 147.274804 32.538403 
L 147.532111 29.467239 
L 147.789419 28.453486 
L 147.960958 28.316986 
L 148.218266 28.490195 
L 148.732882 29.351492 
L 153.621732 38.655506 
L 155.937503 42.410307 
L 158.167505 45.605814 
L 160.311737 48.29404 
L 162.3702 50.531655 
L 164.428664 52.450903 
L 165.715203 53.639916 
L 165.972511 54.378479 
L 166.229819 55.78446 
L 166.487127 58.276793 
L 166.830204 64.319438 
L 167.173281 74.834514 
L 167.773666 102.931604 
L 168.288282 124.311253 
L 168.631359 132.126284 
L 168.974437 135.477696 
L 169.145975 135.985044 
L 169.317514 135.948933 
L 169.574822 135.158865 
L 170.003668 132.589982 
L 170.689823 126.720869 
L 171.633285 116.510494 
L 172.490978 104.693 
L 173.091363 93.644198 
L 173.605979 79.975249 
L 173.949056 65.727613 
L 174.635211 32.462568 
L 174.892518 29.439068 
L 175.149826 28.446522 
L 175.321365 28.316891 
L 175.578673 28.495204 
L 176.093289 29.359483 
L 180.896369 38.515051 
L 183.212141 42.285501 
L 185.442142 45.496072 
L 187.157528 47.68769 
L 187.157528 47.68769 
" style="fill:none;stroke:#ff0000;stroke-linecap:square;stroke-width:1.5;"/>
   </g>
   <g id="patch_14">
    <path d="M 52.160938 153.718125 
L 52.160938 22.318125 
" style="fill:none;stroke:#000000;stroke-linecap:square;stroke-linejoin:miter;stroke-width:0.8;"/>
   </g>
   <g id="patch_15">
    <path d="M 193.585938 153.718125 
L 193.585938 22.318125 
" style="fill:none;stroke:#000000;stroke-linecap:square;stroke-linejoin:miter;stroke-width:0.8;"/>
   </g>
   <g id="patch_16">
    <path d="M 52.160938 153.718125 
L 193.585938 153.718125 
" style="fill:none;stroke:#000000;stroke-linecap:square;stroke-linejoin:miter;stroke-width:0.8;"/>
   </g>
   <g id="patch_17">
    <path d="M 52.160938 22.318125 
L 193.585938 22.318125 
" style="fill:none;stroke:#000000;stroke-linecap:square;stroke-linejoin:miter;stroke-width:0.8;"/>
   </g>
  </g>
  <g id="axes_4">
   <g id="matplotlib.axis_6">
    <g id="ytick_15">
     <g id="line2d_34">
      <g>
       <use style="stroke:#000000;stroke-width:0.8;" x="428.185938" xlink:href="#m7a2589edd0" y="147.745398"/>
      </g>
     </g>
     <g id="text_34">
      <!-- 0.0 -->
      <g transform="translate(435.185938 151.544616)scale(0.1 -0.1)">
       <use xlink:href="#DejaVuSans-48"/>
       <use x="63.623047" xlink:href="#DejaVuSans-46"/>
       <use x="95.410156" xlink:href="#DejaVuSans-48"/>
      </g>
     </g>
    </g>
    <g id="ytick_16">
     <g id="line2d_35">
      <g>
       <use style="stroke:#000000;stroke-width:0.8;" x="428.185938" xlink:href="#m7a2589edd0" y="111.573375"/>
      </g>
     </g>
     <g id="text_35">
      <!-- 0.5 -->
      <g transform="translate(435.185938 115.372593)scale(0.1 -0.1)">
       <use xlink:href="#DejaVuSans-48"/>
       <use x="63.623047" xlink:href="#DejaVuSans-46"/>
       <use x="95.410156" xlink:href="#DejaVuSans-53"/>
      </g>
     </g>
    </g>
    <g id="ytick_17">
     <g id="line2d_36">
      <g>
       <use style="stroke:#000000;stroke-width:0.8;" x="428.185938" xlink:href="#m7a2589edd0" y="75.401352"/>
      </g>
     </g>
     <g id="text_36">
      <!-- 1.0 -->
      <g transform="translate(435.185938 79.20057)scale(0.1 -0.1)">
       <use xlink:href="#DejaVuSans-49"/>
       <use x="63.623047" xlink:href="#DejaVuSans-46"/>
       <use x="95.410156" xlink:href="#DejaVuSans-48"/>
      </g>
     </g>
    </g>
    <g id="ytick_18">
     <g id="line2d_37">
      <g>
       <use style="stroke:#000000;stroke-width:0.8;" x="428.185938" xlink:href="#m7a2589edd0" y="39.229329"/>
      </g>
     </g>
     <g id="text_37">
      <!-- 1.5 -->
      <g transform="translate(435.185938 43.028547)scale(0.1 -0.1)">
       <use xlink:href="#DejaVuSans-49"/>
       <use x="63.623047" xlink:href="#DejaVuSans-46"/>
       <use x="95.410156" xlink:href="#DejaVuSans-53"/>
      </g>
     </g>
    </g>
    <g id="text_38">
     <!-- y -->
     <g transform="translate(462.6875 90.9775)rotate(-90)scale(0.1 -0.1)">
      <use xlink:href="#DejaVuSans-121"/>
     </g>
    </g>
   </g>
   <g id="line2d_38">
    <path clip-path="url(#p46a942f613)" d="M 293.189347 147.745398 
L 293.360885 147.499144 
L 293.618193 146.445434 
L 294.132809 143.028634 
L 295.076271 134.95015 
L 296.277041 122.808272 
L 297.220504 111.224756 
L 297.992427 98.969379 
L 298.592813 85.390883 
L 299.021659 70.172858 
L 299.879352 31.153055 
L 300.13666 28.952565 
L 300.393968 28.323689 
L 300.565506 28.311665 
L 300.822814 28.577399 
L 301.423199 29.662946 
L 305.111279 36.822441 
L 307.51282 40.914314 
L 309.742822 44.286482 
L 311.887054 47.141607 
L 314.031287 49.625835 
L 316.08975 51.677125 
L 318.319752 53.800603 
L 318.57706 54.696212 
L 318.834368 56.361858 
L 319.177445 60.612403 
L 319.520522 68.573077 
L 319.949368 85.310407 
L 320.892831 126.42969 
L 321.235908 133.163393 
L 321.493216 135.415666 
L 321.750524 136.027532 
L 321.922062 135.801732 
L 322.17937 134.811244 
L 322.608217 132.044751 
L 323.294371 126.008869 
L 324.237833 115.613246 
L 325.009757 104.889706 
L 325.610142 93.911362 
L 326.124758 80.385288 
L 326.467835 66.37238 
L 327.15399 32.693409 
L 327.411298 29.525114 
L 327.668605 28.468079 
L 327.840144 28.31755 
L 328.011683 28.391716 
L 328.35476 28.862685 
L 329.383992 30.888584 
L 332.04284 36.049652 
L 334.44438 40.225292 
L 336.674382 43.676055 
L 338.818615 46.60594 
L 340.962847 49.162555 
L 343.02131 51.279688 
L 345.079774 53.086468 
L 345.594389 53.62389 
L 345.851697 54.346179 
L 346.109005 55.725112 
L 346.366313 58.174289 
L 346.70939 64.126466 
L 347.052467 74.521865 
L 347.652853 102.521053 
L 348.253238 126.541478 
L 348.596315 133.216035 
L 348.853623 135.436767 
L 349.110931 136.027221 
L 349.282469 135.791406 
L 349.539777 134.790329 
L 349.968624 132.013323 
L 350.654778 125.968349 
L 351.59824 115.56219 
L 352.370164 104.824231 
L 352.970549 93.822523 
L 353.485165 80.249178 
L 353.828242 66.158841 
L 354.514397 32.615333 
L 354.771705 29.495917 
L 355.029012 28.460671 
L 355.200551 28.317206 
L 355.457859 28.485238 
L 355.972475 29.343511 
L 360.861325 38.648412 
L 363.177096 42.404004 
L 365.407098 45.600274 
L 367.55133 48.289216 
L 369.609794 50.52749 
L 371.668257 52.447356 
L 372.954796 53.631853 
L 373.212104 54.362245 
L 373.469412 55.75465 
L 373.72672 58.225329 
L 374.069797 64.222626 
L 374.412874 74.677831 
L 375.01326 102.726455 
L 375.527875 124.184357 
L 375.870953 132.061915 
L 376.21403 135.457442 
L 376.471338 136.02663 
L 376.642876 135.780871 
L 376.900184 134.769279 
L 377.329031 131.981827 
L 378.015185 125.927796 
L 378.958647 115.511094 
L 379.730571 104.758669 
L 380.330956 93.733479 
L 380.845572 80.112517 
L 381.188649 65.943953 
L 381.874804 32.538403 
L 382.132111 29.467239 
L 382.389419 28.453486 
L 382.560958 28.316986 
L 382.818266 28.490195 
L 383.332882 29.351492 
L 388.221732 38.655506 
L 390.537503 42.410307 
L 392.767505 45.605814 
L 394.911737 48.29404 
L 396.9702 50.531655 
L 399.028664 52.450903 
L 400.315203 53.639916 
L 400.572511 54.378479 
L 400.829819 55.78446 
L 401.087127 58.276793 
L 401.430204 64.319438 
L 401.773281 74.834514 
L 402.373666 102.931604 
L 402.888282 124.311253 
L 403.231359 132.126284 
L 403.574437 135.477696 
L 403.745975 135.985044 
L 403.917514 135.948933 
L 404.174822 135.158865 
L 404.603668 132.589982 
L 405.289823 126.720869 
L 406.233285 116.510494 
L 407.090978 104.693 
L 407.691363 93.644198 
L 408.205979 79.975249 
L 408.549056 65.727613 
L 409.235211 32.462568 
L 409.492518 29.439068 
L 409.749826 28.446522 
L 409.921365 28.316891 
L 410.178673 28.495204 
L 410.693289 29.359483 
L 415.496369 38.515051 
L 417.812141 42.285501 
L 420.042142 45.496072 
L 421.757528 47.68769 
L 421.757528 47.68769 
" style="fill:none;stroke:#ff0000;stroke-linecap:square;stroke-width:1.5;"/>
   </g>
   <g id="patch_18">
    <path d="M 286.760938 153.718125 
L 286.760938 22.318125 
" style="fill:none;stroke:#000000;stroke-linecap:square;stroke-linejoin:miter;stroke-width:0.8;"/>
   </g>
   <g id="patch_19">
    <path d="M 428.185938 153.718125 
L 428.185938 22.318125 
" style="fill:none;stroke:#000000;stroke-linecap:square;stroke-linejoin:miter;stroke-width:0.8;"/>
   </g>
   <g id="patch_20">
    <path d="M 286.760938 153.718125 
L 428.185938 153.718125 
" style="fill:none;stroke:#000000;stroke-linecap:square;stroke-linejoin:miter;stroke-width:0.8;"/>
   </g>
   <g id="patch_21">
    <path d="M 286.760938 22.318125 
L 428.185938 22.318125 
" style="fill:none;stroke:#000000;stroke-linecap:square;stroke-linejoin:miter;stroke-width:0.8;"/>
   </g>
  </g>
 </g>
 <defs>
  <clipPath id="pa7a8cea007">
   <rect height="131.4" width="141.425" x="52.160938" y="22.318125"/>
  </clipPath>
  <clipPath id="p46a942f613">
   <rect height="131.4" width="141.425" x="286.760938" y="22.318125"/>
  </clipPath>
 </defs>
</svg>
