<?xml version="1.0" encoding="utf-8" standalone="no"?>
<!DOCTYPE svg PUBLIC "-//W3C//DTD SVG 1.1//EN"
  "http://www.w3.org/Graphics/SVG/1.1/DTD/svg11.dtd">
<!-- Created with matplotlib (https://matplotlib.org/) -->
<svg height="204.902156pt" version="1.1" viewBox="0 0 282.814887 204.902156" width="282.814887pt" xmlns="http://www.w3.org/2000/svg" xmlns:xlink="http://www.w3.org/1999/xlink">
 <metadata>
  <rdf:RDF xmlns:cc="http://creativecommons.org/ns#" xmlns:dc="http://purl.org/dc/elements/1.1/" xmlns:rdf="http://www.w3.org/1999/02/22-rdf-syntax-ns#">
   <cc:Work>
    <dc:type rdf:resource="http://purl.org/dc/dcmitype/StillImage"/>
    <dc:date>2022-03-07T21:16:47.712335</dc:date>
    <dc:format>image/svg+xml</dc:format>
    <dc:creator>
     <cc:Agent>
      <dc:title>Matplotlib v3.3.2, https://matplotlib.org/</dc:title>
     </cc:Agent>
    </dc:creator>
   </cc:Work>
  </rdf:RDF>
 </metadata>
 <defs>
  <style type="text/css">*{stroke-linecap:butt;stroke-linejoin:round;}</style>
 </defs>
 <g id="figure_1">
  <g id="patch_1">
   <path d="M 0 204.902156 
L 282.814887 204.902156 
L 282.814887 0 
L 0 0 
z
" style="fill:none;"/>
  </g>
  <g id="axes_1">
   <g id="patch_2">
    <path d="M 46.304688 170.845906 
L 269.504687 170.845906 
L 269.504687 7.765906 
L 46.304688 7.765906 
z
" style="fill:#ffffff;"/>
   </g>
   <g id="matplotlib.axis_1">
    <g id="xtick_1">
     <g id="line2d_1">
      <defs>
       <path d="M 0 0 
L 0 -3.5 
" id="m18b6e8eb9d" style="stroke:#000000;stroke-width:0.8;"/>
      </defs>
      <g>
       <use style="stroke:#000000;stroke-width:0.8;" x="264.482075" xlink:href="#m18b6e8eb9d" y="170.845906"/>
      </g>
     </g>
     <g id="line2d_2">
      <defs>
       <path d="M 0 0 
L 0 3.5 
" id="m4a60b9b067" style="stroke:#000000;stroke-width:0.8;"/>
      </defs>
      <g>
       <use style="stroke:#000000;stroke-width:0.8;" x="264.482075" xlink:href="#m4a60b9b067" y="7.765906"/>
      </g>
     </g>
     <g id="text_1">
      <!-- 33.8 -->
      <g transform="translate(253.349262 181.944343)scale(0.1 -0.1)">
       <defs>
        <path d="M 40.578125 39.3125 
Q 47.65625 37.796875 51.625 33 
Q 55.609375 28.21875 55.609375 21.1875 
Q 55.609375 10.40625 48.1875 4.484375 
Q 40.765625 -1.421875 27.09375 -1.421875 
Q 22.515625 -1.421875 17.65625 -0.515625 
Q 12.796875 0.390625 7.625 2.203125 
L 7.625 11.71875 
Q 11.71875 9.328125 16.59375 8.109375 
Q 21.484375 6.890625 26.8125 6.890625 
Q 36.078125 6.890625 40.9375 10.546875 
Q 45.796875 14.203125 45.796875 21.1875 
Q 45.796875 27.640625 41.28125 31.265625 
Q 36.765625 34.90625 28.71875 34.90625 
L 20.21875 34.90625 
L 20.21875 43.015625 
L 29.109375 43.015625 
Q 36.375 43.015625 40.234375 45.921875 
Q 44.09375 48.828125 44.09375 54.296875 
Q 44.09375 59.90625 40.109375 62.90625 
Q 36.140625 65.921875 28.71875 65.921875 
Q 24.65625 65.921875 20.015625 65.03125 
Q 15.375 64.15625 9.8125 62.3125 
L 9.8125 71.09375 
Q 15.4375 72.65625 20.34375 73.4375 
Q 25.25 74.21875 29.59375 74.21875 
Q 40.828125 74.21875 47.359375 69.109375 
Q 53.90625 64.015625 53.90625 55.328125 
Q 53.90625 49.265625 50.4375 45.09375 
Q 46.96875 40.921875 40.578125 39.3125 
z
" id="DejaVuSans-51"/>
        <path d="M 10.6875 12.40625 
L 21 12.40625 
L 21 0 
L 10.6875 0 
z
" id="DejaVuSans-46"/>
        <path d="M 31.78125 34.625 
Q 24.75 34.625 20.71875 30.859375 
Q 16.703125 27.09375 16.703125 20.515625 
Q 16.703125 13.921875 20.71875 10.15625 
Q 24.75 6.390625 31.78125 6.390625 
Q 38.8125 6.390625 42.859375 10.171875 
Q 46.921875 13.96875 46.921875 20.515625 
Q 46.921875 27.09375 42.890625 30.859375 
Q 38.875 34.625 31.78125 34.625 
z
M 21.921875 38.8125 
Q 15.578125 40.375 12.03125 44.71875 
Q 8.5 49.078125 8.5 55.328125 
Q 8.5 64.0625 14.71875 69.140625 
Q 20.953125 74.21875 31.78125 74.21875 
Q 42.671875 74.21875 48.875 69.140625 
Q 55.078125 64.0625 55.078125 55.328125 
Q 55.078125 49.078125 51.53125 44.71875 
Q 48 40.375 41.703125 38.8125 
Q 48.828125 37.15625 52.796875 32.3125 
Q 56.78125 27.484375 56.78125 20.515625 
Q 56.78125 9.90625 50.3125 4.234375 
Q 43.84375 -1.421875 31.78125 -1.421875 
Q 19.734375 -1.421875 13.25 4.234375 
Q 6.78125 9.90625 6.78125 20.515625 
Q 6.78125 27.484375 10.78125 32.3125 
Q 14.796875 37.15625 21.921875 38.8125 
z
M 18.3125 54.390625 
Q 18.3125 48.734375 21.84375 45.5625 
Q 25.390625 42.390625 31.78125 42.390625 
Q 38.140625 42.390625 41.71875 45.5625 
Q 45.3125 48.734375 45.3125 54.390625 
Q 45.3125 60.0625 41.71875 63.234375 
Q 38.140625 66.40625 31.78125 66.40625 
Q 25.390625 66.40625 21.84375 63.234375 
Q 18.3125 60.0625 18.3125 54.390625 
z
" id="DejaVuSans-56"/>
       </defs>
       <use xlink:href="#DejaVuSans-51"/>
       <use x="63.623047" xlink:href="#DejaVuSans-51"/>
       <use x="127.246094" xlink:href="#DejaVuSans-46"/>
       <use x="159.033203" xlink:href="#DejaVuSans-56"/>
      </g>
     </g>
    </g>
    <g id="xtick_2">
     <g id="line2d_3">
      <g>
       <use style="stroke:#000000;stroke-width:0.8;" x="219.935623" xlink:href="#m18b6e8eb9d" y="170.845906"/>
      </g>
     </g>
     <g id="line2d_4">
      <g>
       <use style="stroke:#000000;stroke-width:0.8;" x="219.935623" xlink:href="#m4a60b9b067" y="7.765906"/>
      </g>
     </g>
     <g id="text_2">
      <!-- 34.0 -->
      <g transform="translate(208.80281 181.944343)scale(0.1 -0.1)">
       <defs>
        <path d="M 37.796875 64.3125 
L 12.890625 25.390625 
L 37.796875 25.390625 
z
M 35.203125 72.90625 
L 47.609375 72.90625 
L 47.609375 25.390625 
L 58.015625 25.390625 
L 58.015625 17.1875 
L 47.609375 17.1875 
L 47.609375 0 
L 37.796875 0 
L 37.796875 17.1875 
L 4.890625 17.1875 
L 4.890625 26.703125 
z
" id="DejaVuSans-52"/>
        <path d="M 31.78125 66.40625 
Q 24.171875 66.40625 20.328125 58.90625 
Q 16.5 51.421875 16.5 36.375 
Q 16.5 21.390625 20.328125 13.890625 
Q 24.171875 6.390625 31.78125 6.390625 
Q 39.453125 6.390625 43.28125 13.890625 
Q 47.125 21.390625 47.125 36.375 
Q 47.125 51.421875 43.28125 58.90625 
Q 39.453125 66.40625 31.78125 66.40625 
z
M 31.78125 74.21875 
Q 44.046875 74.21875 50.515625 64.515625 
Q 56.984375 54.828125 56.984375 36.375 
Q 56.984375 17.96875 50.515625 8.265625 
Q 44.046875 -1.421875 31.78125 -1.421875 
Q 19.53125 -1.421875 13.0625 8.265625 
Q 6.59375 17.96875 6.59375 36.375 
Q 6.59375 54.828125 13.0625 64.515625 
Q 19.53125 74.21875 31.78125 74.21875 
z
" id="DejaVuSans-48"/>
       </defs>
       <use xlink:href="#DejaVuSans-51"/>
       <use x="63.623047" xlink:href="#DejaVuSans-52"/>
       <use x="127.246094" xlink:href="#DejaVuSans-46"/>
       <use x="159.033203" xlink:href="#DejaVuSans-48"/>
      </g>
     </g>
    </g>
    <g id="xtick_3">
     <g id="line2d_5">
      <g>
       <use style="stroke:#000000;stroke-width:0.8;" x="175.38917" xlink:href="#m18b6e8eb9d" y="170.845906"/>
      </g>
     </g>
     <g id="line2d_6">
      <g>
       <use style="stroke:#000000;stroke-width:0.8;" x="175.38917" xlink:href="#m4a60b9b067" y="7.765906"/>
      </g>
     </g>
     <g id="text_3">
      <!-- 34.2 -->
      <g transform="translate(164.256358 181.944343)scale(0.1 -0.1)">
       <defs>
        <path d="M 19.1875 8.296875 
L 53.609375 8.296875 
L 53.609375 0 
L 7.328125 0 
L 7.328125 8.296875 
Q 12.9375 14.109375 22.625 23.890625 
Q 32.328125 33.6875 34.8125 36.53125 
Q 39.546875 41.84375 41.421875 45.53125 
Q 43.3125 49.21875 43.3125 52.78125 
Q 43.3125 58.59375 39.234375 62.25 
Q 35.15625 65.921875 28.609375 65.921875 
Q 23.96875 65.921875 18.8125 64.3125 
Q 13.671875 62.703125 7.8125 59.421875 
L 7.8125 69.390625 
Q 13.765625 71.78125 18.9375 73 
Q 24.125 74.21875 28.421875 74.21875 
Q 39.75 74.21875 46.484375 68.546875 
Q 53.21875 62.890625 53.21875 53.421875 
Q 53.21875 48.921875 51.53125 44.890625 
Q 49.859375 40.875 45.40625 35.40625 
Q 44.1875 33.984375 37.640625 27.21875 
Q 31.109375 20.453125 19.1875 8.296875 
z
" id="DejaVuSans-50"/>
       </defs>
       <use xlink:href="#DejaVuSans-51"/>
       <use x="63.623047" xlink:href="#DejaVuSans-52"/>
       <use x="127.246094" xlink:href="#DejaVuSans-46"/>
       <use x="159.033203" xlink:href="#DejaVuSans-50"/>
      </g>
     </g>
    </g>
    <g id="xtick_4">
     <g id="line2d_7">
      <g>
       <use style="stroke:#000000;stroke-width:0.8;" x="130.842718" xlink:href="#m18b6e8eb9d" y="170.845906"/>
      </g>
     </g>
     <g id="line2d_8">
      <g>
       <use style="stroke:#000000;stroke-width:0.8;" x="130.842718" xlink:href="#m4a60b9b067" y="7.765906"/>
      </g>
     </g>
     <g id="text_4">
      <!-- 34.4 -->
      <g transform="translate(119.709905 181.944343)scale(0.1 -0.1)">
       <use xlink:href="#DejaVuSans-51"/>
       <use x="63.623047" xlink:href="#DejaVuSans-52"/>
       <use x="127.246094" xlink:href="#DejaVuSans-46"/>
       <use x="159.033203" xlink:href="#DejaVuSans-52"/>
      </g>
     </g>
    </g>
    <g id="xtick_5">
     <g id="line2d_9">
      <g>
       <use style="stroke:#000000;stroke-width:0.8;" x="86.296265" xlink:href="#m18b6e8eb9d" y="170.845906"/>
      </g>
     </g>
     <g id="line2d_10">
      <g>
       <use style="stroke:#000000;stroke-width:0.8;" x="86.296265" xlink:href="#m4a60b9b067" y="7.765906"/>
      </g>
     </g>
     <g id="text_5">
      <!-- 34.6 -->
      <g transform="translate(75.163453 181.944343)scale(0.1 -0.1)">
       <defs>
        <path d="M 33.015625 40.375 
Q 26.375 40.375 22.484375 35.828125 
Q 18.609375 31.296875 18.609375 23.390625 
Q 18.609375 15.53125 22.484375 10.953125 
Q 26.375 6.390625 33.015625 6.390625 
Q 39.65625 6.390625 43.53125 10.953125 
Q 47.40625 15.53125 47.40625 23.390625 
Q 47.40625 31.296875 43.53125 35.828125 
Q 39.65625 40.375 33.015625 40.375 
z
M 52.59375 71.296875 
L 52.59375 62.3125 
Q 48.875 64.0625 45.09375 64.984375 
Q 41.3125 65.921875 37.59375 65.921875 
Q 27.828125 65.921875 22.671875 59.328125 
Q 17.53125 52.734375 16.796875 39.40625 
Q 19.671875 43.65625 24.015625 45.921875 
Q 28.375 48.1875 33.59375 48.1875 
Q 44.578125 48.1875 50.953125 41.515625 
Q 57.328125 34.859375 57.328125 23.390625 
Q 57.328125 12.15625 50.6875 5.359375 
Q 44.046875 -1.421875 33.015625 -1.421875 
Q 20.359375 -1.421875 13.671875 8.265625 
Q 6.984375 17.96875 6.984375 36.375 
Q 6.984375 53.65625 15.1875 63.9375 
Q 23.390625 74.21875 37.203125 74.21875 
Q 40.921875 74.21875 44.703125 73.484375 
Q 48.484375 72.75 52.59375 71.296875 
z
" id="DejaVuSans-54"/>
       </defs>
       <use xlink:href="#DejaVuSans-51"/>
       <use x="63.623047" xlink:href="#DejaVuSans-52"/>
       <use x="127.246094" xlink:href="#DejaVuSans-46"/>
       <use x="159.033203" xlink:href="#DejaVuSans-54"/>
      </g>
     </g>
    </g>
    <g id="text_6">
     <!-- Time BP (kyr) -->
     <g transform="translate(124.417187 195.622468)scale(0.1 -0.1)">
      <defs>
       <path d="M -0.296875 72.90625 
L 61.375 72.90625 
L 61.375 64.59375 
L 35.5 64.59375 
L 35.5 0 
L 25.59375 0 
L 25.59375 64.59375 
L -0.296875 64.59375 
z
" id="DejaVuSans-84"/>
       <path d="M 9.421875 54.6875 
L 18.40625 54.6875 
L 18.40625 0 
L 9.421875 0 
z
M 9.421875 75.984375 
L 18.40625 75.984375 
L 18.40625 64.59375 
L 9.421875 64.59375 
z
" id="DejaVuSans-105"/>
       <path d="M 52 44.1875 
Q 55.375 50.25 60.0625 53.125 
Q 64.75 56 71.09375 56 
Q 79.640625 56 84.28125 50.015625 
Q 88.921875 44.046875 88.921875 33.015625 
L 88.921875 0 
L 79.890625 0 
L 79.890625 32.71875 
Q 79.890625 40.578125 77.09375 44.375 
Q 74.3125 48.1875 68.609375 48.1875 
Q 61.625 48.1875 57.5625 43.546875 
Q 53.515625 38.921875 53.515625 30.90625 
L 53.515625 0 
L 44.484375 0 
L 44.484375 32.71875 
Q 44.484375 40.625 41.703125 44.40625 
Q 38.921875 48.1875 33.109375 48.1875 
Q 26.21875 48.1875 22.15625 43.53125 
Q 18.109375 38.875 18.109375 30.90625 
L 18.109375 0 
L 9.078125 0 
L 9.078125 54.6875 
L 18.109375 54.6875 
L 18.109375 46.1875 
Q 21.1875 51.21875 25.484375 53.609375 
Q 29.78125 56 35.6875 56 
Q 41.65625 56 45.828125 52.96875 
Q 50 49.953125 52 44.1875 
z
" id="DejaVuSans-109"/>
       <path d="M 56.203125 29.59375 
L 56.203125 25.203125 
L 14.890625 25.203125 
Q 15.484375 15.921875 20.484375 11.0625 
Q 25.484375 6.203125 34.421875 6.203125 
Q 39.59375 6.203125 44.453125 7.46875 
Q 49.3125 8.734375 54.109375 11.28125 
L 54.109375 2.78125 
Q 49.265625 0.734375 44.1875 -0.34375 
Q 39.109375 -1.421875 33.890625 -1.421875 
Q 20.796875 -1.421875 13.15625 6.1875 
Q 5.515625 13.8125 5.515625 26.8125 
Q 5.515625 40.234375 12.765625 48.109375 
Q 20.015625 56 32.328125 56 
Q 43.359375 56 49.78125 48.890625 
Q 56.203125 41.796875 56.203125 29.59375 
z
M 47.21875 32.234375 
Q 47.125 39.59375 43.09375 43.984375 
Q 39.0625 48.390625 32.421875 48.390625 
Q 24.90625 48.390625 20.390625 44.140625 
Q 15.875 39.890625 15.1875 32.171875 
z
" id="DejaVuSans-101"/>
       <path id="DejaVuSans-32"/>
       <path d="M 19.671875 34.8125 
L 19.671875 8.109375 
L 35.5 8.109375 
Q 43.453125 8.109375 47.28125 11.40625 
Q 51.125 14.703125 51.125 21.484375 
Q 51.125 28.328125 47.28125 31.5625 
Q 43.453125 34.8125 35.5 34.8125 
z
M 19.671875 64.796875 
L 19.671875 42.828125 
L 34.28125 42.828125 
Q 41.5 42.828125 45.03125 45.53125 
Q 48.578125 48.25 48.578125 53.8125 
Q 48.578125 59.328125 45.03125 62.0625 
Q 41.5 64.796875 34.28125 64.796875 
z
M 9.8125 72.90625 
L 35.015625 72.90625 
Q 46.296875 72.90625 52.390625 68.21875 
Q 58.5 63.53125 58.5 54.890625 
Q 58.5 48.1875 55.375 44.234375 
Q 52.25 40.28125 46.1875 39.3125 
Q 53.46875 37.75 57.5 32.78125 
Q 61.53125 27.828125 61.53125 20.40625 
Q 61.53125 10.640625 54.890625 5.3125 
Q 48.25 0 35.984375 0 
L 9.8125 0 
z
" id="DejaVuSans-66"/>
       <path d="M 19.671875 64.796875 
L 19.671875 37.40625 
L 32.078125 37.40625 
Q 38.96875 37.40625 42.71875 40.96875 
Q 46.484375 44.53125 46.484375 51.125 
Q 46.484375 57.671875 42.71875 61.234375 
Q 38.96875 64.796875 32.078125 64.796875 
z
M 9.8125 72.90625 
L 32.078125 72.90625 
Q 44.34375 72.90625 50.609375 67.359375 
Q 56.890625 61.8125 56.890625 51.125 
Q 56.890625 40.328125 50.609375 34.8125 
Q 44.34375 29.296875 32.078125 29.296875 
L 19.671875 29.296875 
L 19.671875 0 
L 9.8125 0 
z
" id="DejaVuSans-80"/>
       <path d="M 31 75.875 
Q 24.46875 64.65625 21.28125 53.65625 
Q 18.109375 42.671875 18.109375 31.390625 
Q 18.109375 20.125 21.3125 9.0625 
Q 24.515625 -2 31 -13.1875 
L 23.1875 -13.1875 
Q 15.875 -1.703125 12.234375 9.375 
Q 8.59375 20.453125 8.59375 31.390625 
Q 8.59375 42.28125 12.203125 53.3125 
Q 15.828125 64.359375 23.1875 75.875 
z
" id="DejaVuSans-40"/>
       <path d="M 9.078125 75.984375 
L 18.109375 75.984375 
L 18.109375 31.109375 
L 44.921875 54.6875 
L 56.390625 54.6875 
L 27.390625 29.109375 
L 57.625 0 
L 45.90625 0 
L 18.109375 26.703125 
L 18.109375 0 
L 9.078125 0 
z
" id="DejaVuSans-107"/>
       <path d="M 32.171875 -5.078125 
Q 28.375 -14.84375 24.75 -17.8125 
Q 21.140625 -20.796875 15.09375 -20.796875 
L 7.90625 -20.796875 
L 7.90625 -13.28125 
L 13.1875 -13.28125 
Q 16.890625 -13.28125 18.9375 -11.515625 
Q 21 -9.765625 23.484375 -3.21875 
L 25.09375 0.875 
L 2.984375 54.6875 
L 12.5 54.6875 
L 29.59375 11.921875 
L 46.6875 54.6875 
L 56.203125 54.6875 
z
" id="DejaVuSans-121"/>
       <path d="M 41.109375 46.296875 
Q 39.59375 47.171875 37.8125 47.578125 
Q 36.03125 48 33.890625 48 
Q 26.265625 48 22.1875 43.046875 
Q 18.109375 38.09375 18.109375 28.8125 
L 18.109375 0 
L 9.078125 0 
L 9.078125 54.6875 
L 18.109375 54.6875 
L 18.109375 46.1875 
Q 20.953125 51.171875 25.484375 53.578125 
Q 30.03125 56 36.53125 56 
Q 37.453125 56 38.578125 55.875 
Q 39.703125 55.765625 41.0625 55.515625 
z
" id="DejaVuSans-114"/>
       <path d="M 8.015625 75.875 
L 15.828125 75.875 
Q 23.140625 64.359375 26.78125 53.3125 
Q 30.421875 42.28125 30.421875 31.390625 
Q 30.421875 20.453125 26.78125 9.375 
Q 23.140625 -1.703125 15.828125 -13.1875 
L 8.015625 -13.1875 
Q 14.5 -2 17.703125 9.0625 
Q 20.90625 20.125 20.90625 31.390625 
Q 20.90625 42.671875 17.703125 53.65625 
Q 14.5 64.65625 8.015625 75.875 
z
" id="DejaVuSans-41"/>
      </defs>
      <use xlink:href="#DejaVuSans-84"/>
      <use x="57.958984" xlink:href="#DejaVuSans-105"/>
      <use x="85.742188" xlink:href="#DejaVuSans-109"/>
      <use x="183.154297" xlink:href="#DejaVuSans-101"/>
      <use x="244.677734" xlink:href="#DejaVuSans-32"/>
      <use x="276.464844" xlink:href="#DejaVuSans-66"/>
      <use x="345.068359" xlink:href="#DejaVuSans-80"/>
      <use x="405.371094" xlink:href="#DejaVuSans-32"/>
      <use x="437.158203" xlink:href="#DejaVuSans-40"/>
      <use x="476.171875" xlink:href="#DejaVuSans-107"/>
      <use x="530.457031" xlink:href="#DejaVuSans-121"/>
      <use x="589.636719" xlink:href="#DejaVuSans-114"/>
      <use x="630.75" xlink:href="#DejaVuSans-41"/>
     </g>
    </g>
   </g>
   <g id="matplotlib.axis_2">
    <g id="ytick_1">
     <g id="line2d_11">
      <defs>
       <path d="M 0 0 
L 3.5 0 
" id="mfbc1519525" style="stroke:#000000;stroke-width:0.8;"/>
      </defs>
      <g>
       <use style="stroke:#000000;stroke-width:0.8;" x="46.304688" xlink:href="#mfbc1519525" y="164.590231"/>
      </g>
     </g>
     <g id="line2d_12">
      <defs>
       <path d="M 0 0 
L -3.5 0 
" id="mda8640b8e4" style="stroke:#000000;stroke-width:0.8;"/>
      </defs>
      <g>
       <use style="stroke:#000000;stroke-width:0.8;" x="269.504687" xlink:href="#mda8640b8e4" y="164.590231"/>
      </g>
     </g>
     <g id="text_7">
      <!-- −48 -->
      <g transform="translate(21.7 168.38945)scale(0.1 -0.1)">
       <defs>
        <path d="M 10.59375 35.5 
L 73.1875 35.5 
L 73.1875 27.203125 
L 10.59375 27.203125 
z
" id="DejaVuSans-8722"/>
       </defs>
       <use xlink:href="#DejaVuSans-8722"/>
       <use x="83.789062" xlink:href="#DejaVuSans-52"/>
       <use x="147.412109" xlink:href="#DejaVuSans-56"/>
      </g>
     </g>
    </g>
    <g id="ytick_2">
     <g id="line2d_13">
      <g>
       <use style="stroke:#000000;stroke-width:0.8;" x="46.304688" xlink:href="#mfbc1519525" y="133.872028"/>
      </g>
     </g>
     <g id="line2d_14">
      <g>
       <use style="stroke:#000000;stroke-width:0.8;" x="269.504687" xlink:href="#mda8640b8e4" y="133.872028"/>
      </g>
     </g>
     <g id="text_8">
      <!-- −46 -->
      <g transform="translate(21.7 137.671247)scale(0.1 -0.1)">
       <use xlink:href="#DejaVuSans-8722"/>
       <use x="83.789062" xlink:href="#DejaVuSans-52"/>
       <use x="147.412109" xlink:href="#DejaVuSans-54"/>
      </g>
     </g>
    </g>
    <g id="ytick_3">
     <g id="line2d_15">
      <g>
       <use style="stroke:#000000;stroke-width:0.8;" x="46.304688" xlink:href="#mfbc1519525" y="103.153826"/>
      </g>
     </g>
     <g id="line2d_16">
      <g>
       <use style="stroke:#000000;stroke-width:0.8;" x="269.504687" xlink:href="#mda8640b8e4" y="103.153826"/>
      </g>
     </g>
     <g id="text_9">
      <!-- −44 -->
      <g transform="translate(21.7 106.953045)scale(0.1 -0.1)">
       <use xlink:href="#DejaVuSans-8722"/>
       <use x="83.789062" xlink:href="#DejaVuSans-52"/>
       <use x="147.412109" xlink:href="#DejaVuSans-52"/>
      </g>
     </g>
    </g>
    <g id="ytick_4">
     <g id="line2d_17">
      <g>
       <use style="stroke:#000000;stroke-width:0.8;" x="46.304688" xlink:href="#mfbc1519525" y="72.435624"/>
      </g>
     </g>
     <g id="line2d_18">
      <g>
       <use style="stroke:#000000;stroke-width:0.8;" x="269.504687" xlink:href="#mda8640b8e4" y="72.435624"/>
      </g>
     </g>
     <g id="text_10">
      <!-- −42 -->
      <g transform="translate(21.7 76.234842)scale(0.1 -0.1)">
       <use xlink:href="#DejaVuSans-8722"/>
       <use x="83.789062" xlink:href="#DejaVuSans-52"/>
       <use x="147.412109" xlink:href="#DejaVuSans-50"/>
      </g>
     </g>
    </g>
    <g id="ytick_5">
     <g id="line2d_19">
      <g>
       <use style="stroke:#000000;stroke-width:0.8;" x="46.304688" xlink:href="#mfbc1519525" y="41.717421"/>
      </g>
     </g>
     <g id="line2d_20">
      <g>
       <use style="stroke:#000000;stroke-width:0.8;" x="269.504687" xlink:href="#mda8640b8e4" y="41.717421"/>
      </g>
     </g>
     <g id="text_11">
      <!-- −40 -->
      <g transform="translate(21.7 45.51664)scale(0.1 -0.1)">
       <use xlink:href="#DejaVuSans-8722"/>
       <use x="83.789062" xlink:href="#DejaVuSans-52"/>
       <use x="147.412109" xlink:href="#DejaVuSans-48"/>
      </g>
     </g>
    </g>
    <g id="ytick_6">
     <g id="line2d_21">
      <g>
       <use style="stroke:#000000;stroke-width:0.8;" x="46.304688" xlink:href="#mfbc1519525" y="10.999219"/>
      </g>
     </g>
     <g id="line2d_22">
      <g>
       <use style="stroke:#000000;stroke-width:0.8;" x="269.504687" xlink:href="#mda8640b8e4" y="10.999219"/>
      </g>
     </g>
     <g id="text_12">
      <!-- −38 -->
      <g transform="translate(21.7 14.798437)scale(0.1 -0.1)">
       <use xlink:href="#DejaVuSans-8722"/>
       <use x="83.789062" xlink:href="#DejaVuSans-51"/>
       <use x="147.412109" xlink:href="#DejaVuSans-56"/>
      </g>
     </g>
    </g>
    <g id="text_13">
     <!-- $\delta^{18}$O (‰) -->
     <g transform="translate(15.620312 113.455906)rotate(-90)scale(0.1 -0.1)">
      <defs>
       <path d="M 54.25 63.328125 
Q 49.953125 66.75 38.28125 66.75 
Q 25.921875 66.75 24.8125 61.03125 
Q 23.921875 56.546875 36.375 54.203125 
Q 46.140625 52.390625 50.828125 46.921875 
Q 56.5 40.328125 53.859375 26.8125 
Q 51.3125 13.875 43.171875 6.25 
Q 34.96875 -1.421875 23.25 -1.421875 
Q 11.578125 -1.421875 6.34375 6.25 
Q 1.125 13.875 3.765625 27.296875 
Q 5.671875 37.25 13.921875 45.3125 
Q 17.140625 48.4375 21.140625 50.203125 
Q 14.265625 54.046875 15.625 60.9375 
Q 18.21875 74.21875 39.75 74.21875 
Q 50.53125 74.21875 55.71875 70.796875 
z
M 27.390625 47.75 
Q 23.828125 46.34375 20.40625 42.78125 
Q 15.140625 37.25 13.234375 27.296875 
Q 11.28125 17.390625 14.359375 11.8125 
Q 17.484375 6.203125 24.75 6.203125 
Q 31.9375 6.203125 37.203125 11.859375 
Q 42.53125 17.53125 44.34375 26.8125 
Q 46.1875 36.53125 42.671875 41.21875 
Q 38.921875 46.234375 32.859375 46.78125 
Q 29.78125 47.078125 27.390625 47.75 
z
" id="DejaVuSans-Oblique-948"/>
       <path d="M 12.40625 8.296875 
L 28.515625 8.296875 
L 28.515625 63.921875 
L 10.984375 60.40625 
L 10.984375 69.390625 
L 28.421875 72.90625 
L 38.28125 72.90625 
L 38.28125 8.296875 
L 54.390625 8.296875 
L 54.390625 0 
L 12.40625 0 
z
" id="DejaVuSans-49"/>
       <path d="M 39.40625 66.21875 
Q 28.65625 66.21875 22.328125 58.203125 
Q 16.015625 50.203125 16.015625 36.375 
Q 16.015625 22.609375 22.328125 14.59375 
Q 28.65625 6.59375 39.40625 6.59375 
Q 50.140625 6.59375 56.421875 14.59375 
Q 62.703125 22.609375 62.703125 36.375 
Q 62.703125 50.203125 56.421875 58.203125 
Q 50.140625 66.21875 39.40625 66.21875 
z
M 39.40625 74.21875 
Q 54.734375 74.21875 63.90625 63.9375 
Q 73.09375 53.65625 73.09375 36.375 
Q 73.09375 19.140625 63.90625 8.859375 
Q 54.734375 -1.421875 39.40625 -1.421875 
Q 24.03125 -1.421875 14.8125 8.828125 
Q 5.609375 19.09375 5.609375 36.375 
Q 5.609375 53.65625 14.8125 63.9375 
Q 24.03125 74.21875 39.40625 74.21875 
z
" id="DejaVuSans-79"/>
       <path d="M 111.921875 32.078125 
Q 107.671875 32.078125 105.21875 28.46875 
Q 102.78125 24.859375 102.78125 18.40625 
Q 102.78125 12.0625 105.21875 8.421875 
Q 107.671875 4.78125 111.921875 4.78125 
Q 116.0625 4.78125 118.484375 8.421875 
Q 120.90625 12.0625 120.90625 18.40625 
Q 120.90625 24.8125 118.484375 28.4375 
Q 116.0625 32.078125 111.921875 32.078125 
z
M 111.921875 38.28125 
Q 119.625 38.28125 124.171875 32.90625 
Q 128.71875 27.546875 128.71875 18.40625 
Q 128.71875 9.28125 124.140625 3.921875 
Q 119.578125 -1.421875 111.921875 -1.421875 
Q 104.109375 -1.421875 99.5625 3.921875 
Q 95.015625 9.28125 95.015625 18.40625 
Q 95.015625 27.59375 99.578125 32.9375 
Q 104.15625 38.28125 111.921875 38.28125 
z
M 22.3125 74.21875 
Q 30.03125 74.21875 34.609375 68.875 
Q 39.203125 63.53125 39.203125 54.390625 
Q 39.203125 45.171875 34.640625 39.84375 
Q 30.078125 34.515625 22.3125 34.515625 
Q 14.546875 34.515625 10.03125 39.859375 
Q 5.515625 45.21875 5.515625 54.390625 
Q 5.515625 63.484375 10.046875 68.84375 
Q 14.59375 74.21875 22.3125 74.21875 
z
M 66.40625 74.21875 
L 74.21875 74.21875 
L 28.609375 -1.421875 
L 20.796875 -1.421875 
z
M 22.3125 68.015625 
Q 18.109375 68.015625 15.6875 64.375 
Q 13.28125 60.75 13.28125 54.390625 
Q 13.28125 47.953125 15.671875 44.328125 
Q 18.0625 40.71875 22.3125 40.71875 
Q 26.5625 40.71875 28.96875 44.328125 
Q 31.390625 47.953125 31.390625 54.390625 
Q 31.390625 60.6875 28.953125 64.34375 
Q 26.515625 68.015625 22.3125 68.015625 
z
M 72.703125 38.28125 
Q 80.421875 38.28125 84.953125 32.90625 
Q 89.5 27.546875 89.5 18.40625 
Q 89.5 9.28125 84.9375 3.921875 
Q 80.375 -1.421875 72.703125 -1.421875 
Q 64.890625 -1.421875 60.34375 3.921875 
Q 55.8125 9.28125 55.8125 18.40625 
Q 55.8125 27.59375 60.375 32.9375 
Q 64.9375 38.28125 72.703125 38.28125 
z
M 72.703125 32.078125 
Q 68.453125 32.078125 66.03125 28.46875 
Q 63.625 24.859375 63.625 18.40625 
Q 63.625 12.0625 66.03125 8.421875 
Q 68.453125 4.78125 72.703125 4.78125 
Q 76.859375 4.78125 79.265625 8.421875 
Q 81.6875 12.0625 81.6875 18.40625 
Q 81.6875 24.8125 79.265625 28.4375 
Q 76.859375 32.078125 72.703125 32.078125 
z
" id="DejaVuSans-8240"/>
      </defs>
      <use transform="translate(0 0.765625)" xlink:href="#DejaVuSans-Oblique-948"/>
      <use transform="translate(68.382161 39.046875)scale(0.7)" xlink:href="#DejaVuSans-49"/>
      <use transform="translate(112.918294 39.046875)scale(0.7)" xlink:href="#DejaVuSans-56"/>
      <use transform="translate(160.188802 0.765625)" xlink:href="#DejaVuSans-79"/>
      <use transform="translate(238.89974 0.765625)" xlink:href="#DejaVuSans-32"/>
      <use transform="translate(270.686849 0.765625)" xlink:href="#DejaVuSans-40"/>
      <use transform="translate(309.700521 0.765625)" xlink:href="#DejaVuSans-8240"/>
      <use transform="translate(443.880208 0.765625)" xlink:href="#DejaVuSans-41"/>
     </g>
    </g>
   </g>
   <g id="LineCollection_1">
    <path clip-path="url(#p4218916dc1)" d="M 259.359233 86.231933 
L 56.450142 86.231933 
" style="fill:none;stroke:#000000;stroke-dasharray:5.55,2.4;stroke-dashoffset:0;stroke-width:1.5;"/>
   </g>
   <g id="line2d_23">
    <path clip-path="url(#p4218916dc1)" d="M 259.359233 86.231933 
L 259.136501 96.850099 
L 258.913768 88.234233 
L 258.691036 98.154663 
L 258.468304 101.600774 
L 258.245572 119.026567 
L 258.022839 92.830811 
L 257.800107 112.100501 
L 257.577375 117.06195 
L 257.13191 103.11936 
L 256.909178 100.962275 
L 256.463714 69.652787 
L 256.240981 100.215632 
L 256.018249 88.76734 
L 255.795517 93.659383 
L 255.572784 85.169314 
L 255.350052 91.54793 
L 255.12732 87.108415 
L 254.904588 86.763589 
L 254.681855 53.624324 
L 254.459123 100.037057 
L 254.236391 113.35719 
L 254.013659 117.516201 
L 253.790926 116.806701 
L 253.568194 85.80487 
L 253.345462 106.089643 
L 253.12273 112.418313 
L 252.899997 97.182938 
L 252.677265 90.217733 
L 252.454533 90.709104 
L 252.231801 72.442719 
L 252.009068 84.544522 
L 251.786336 113.770342 
L 251.563604 109.871208 
L 251.340872 111.436453 
L 251.118139 78.131515 
L 250.672675 49.987328 
L 250.449942 46.864183 
L 250.22721 76.497134 
L 250.004478 84.198512 
L 249.781746 71.787312 
L 249.559013 73.351344 
L 249.336281 61.623443 
L 249.113549 75.595438 
L 248.890817 72.130593 
L 248.668084 78.431301 
L 248.445352 69.693044 
L 248.22262 44.708205 
L 247.999888 61.753579 
L 247.777155 46.421211 
L 247.554423 45.318561 
L 247.331691 41.130223 
L 247.108959 55.960171 
L 246.886226 62.711761 
L 246.663494 72.901899 
L 246.440762 54.153123 
L 246.218029 98.569412 
L 245.772565 43.662108 
L 245.549833 46.909765 
L 245.3271 71.401919 
L 245.104368 52.852232 
L 244.881636 78.258844 
L 244.658904 83.248704 
L 244.436171 83.531285 
L 244.213439 86.983946 
L 243.990707 83.920082 
L 243.767975 67.202132 
L 243.545242 77.378519 
L 243.32251 78.928203 
L 243.099778 96.045071 
L 242.877046 90.235326 
L 242.654313 76.363035 
L 242.431581 81.538084 
L 241.986116 130.677352 
L 241.763384 97.98991 
L 241.31792 75.23642 
L 241.095187 90.822418 
L 240.872455 89.954415 
L 240.649723 97.893358 
L 240.426991 128.873912 
L 240.204258 129.726417 
L 239.758794 96.211503 
L 239.536062 115.667682 
L 239.313329 84.606038 
L 238.867865 109.991783 
L 238.645133 99.274691 
L 238.4224 94.947929 
L 238.199668 80.263798 
L 237.976936 85.194816 
L 237.754204 107.175239 
L 237.531471 91.82036 
L 237.308739 113.612805 
L 237.086007 85.702787 
L 236.863274 114.090795 
L 236.640542 112.457905 
L 236.41781 138.96401 
L 235.972345 86.516516 
L 235.749613 85.537683 
L 235.526881 73.88042 
L 235.304149 95.921348 
L 235.081416 88.820791 
L 234.858684 71.068975 
L 234.41322 87.268214 
L 233.967755 92.949735 
L 233.745023 108.292611 
L 233.299558 81.853432 
L 233.076826 82.532787 
L 232.631361 90.17914 
L 232.185897 120.067223 
L 231.740432 109.841369 
L 231.5177 109.959994 
L 231.294968 91.563289 
L 231.072236 102.601231 
L 230.849503 78.640497 
L 230.626771 89.030511 
L 230.181307 96.40852 
L 229.958574 77.005419 
L 229.735842 76.918886 
L 229.51311 106.854528 
L 229.290378 109.14005 
L 229.067645 117.462943 
L 228.844913 112.956814 
L 228.399449 87.876856 
L 228.176716 75.895153 
L 227.953984 79.336915 
L 227.731252 68.692025 
L 227.508519 66.135049 
L 227.285787 71.769958 
L 226.61759 41.077507 
L 226.394858 56.765924 
L 226.172126 49.64831 
L 225.949394 92.991017 
L 225.726661 98.173309 
L 225.503929 84.957952 
L 225.281197 38.712182 
L 225.058465 58.033436 
L 224.835732 56.011109 
L 224.390268 71.489189 
L 224.167536 73.445257 
L 223.944803 81.639287 
L 223.722071 84.001389 
L 223.499339 56.976939 
L 223.276606 70.489324 
L 223.053874 110.781503 
L 222.60841 86.773912 
L 222.385677 85.599577 
L 222.162945 85.964846 
L 221.940213 66.874668 
L 221.717481 64.040998 
L 221.494748 69.769895 
L 221.272016 99.04464 
L 221.049284 106.269223 
L 220.826552 77.033861 
L 220.603819 83.374718 
L 220.381087 66.481948 
L 220.158355 94.214372 
L 219.935623 86.031624 
L 219.71289 88.599003 
L 219.490158 79.065462 
L 219.267426 104.4197 
L 219.044693 110.645968 
L 218.821961 113.195781 
L 218.599229 129.003772 
L 218.376497 98.008463 
L 218.153764 116.134024 
L 217.931032 73.805543 
L 217.7083 97.397744 
L 217.485568 89.087691 
L 217.262835 63.672527 
L 217.040103 94.93707 
L 216.817371 90.914644 
L 216.594639 91.815367 
L 216.371906 91.249222 
L 216.149174 66.469699 
L 215.926442 93.796613 
L 215.70371 83.208104 
L 215.258245 45.257234 
L 215.035513 41.525228 
L 214.812781 52.957356 
L 214.590048 77.248966 
L 214.367316 85.273924 
L 214.144584 58.850411 
L 213.921851 96.447644 
L 213.699119 98.890195 
L 213.476387 105.263712 
L 213.253655 93.383709 
L 213.030922 88.620442 
L 212.80819 92.834574 
L 212.585458 103.366504 
L 212.139993 91.143998 
L 211.917261 54.190144 
L 211.694529 57.861773 
L 211.249064 88.543832 
L 211.026332 102.036779 
L 210.8036 104.081386 
L 210.580868 95.864932 
L 210.358135 108.874677 
L 210.135403 76.883733 
L 209.912671 77.922399 
L 209.689938 67.068909 
L 209.467206 74.747293 
L 209.244474 53.197026 
L 209.021742 53.871216 
L 208.799009 83.198557 
L 208.576277 90.429813 
L 208.353545 105.461294 
L 208.130813 77.925031 
L 207.90808 98.826136 
L 207.685348 94.649226 
L 207.462616 95.320867 
L 207.239884 89.840199 
L 207.017151 103.834854 
L 206.348955 76.199678 
L 206.126222 78.971972 
L 205.458025 144.671777 
L 205.235293 127.797083 
L 205.012561 127.993817 
L 204.789829 117.262565 
L 204.344364 78.180751 
L 204.121632 70.111506 
L 203.8989 70.945431 
L 203.676167 85.047256 
L 203.453435 87.457147 
L 203.230703 104.254249 
L 203.007971 78.280585 
L 202.562506 16.978559 
L 202.117042 45.858975 
L 201.894309 82.166006 
L 201.671577 76.618431 
L 201.448845 65.609723 
L 201.00338 97.205733 
L 200.780648 90.640651 
L 200.557916 89.11717 
L 200.335183 85.75989 
L 200.112451 94.034047 
L 199.889719 112.656403 
L 199.666987 99.451413 
L 199.444254 117.884704 
L 199.221522 110.929999 
L 198.99879 114.399946 
L 198.776058 121.306195 
L 198.553325 124.30257 
L 198.330593 133.109248 
L 197.662396 49.463148 
L 197.439664 69.26256 
L 196.9942 50.530155 
L 196.10327 103.95855 
L 195.880538 109.046007 
L 195.657806 101.724208 
L 195.435074 100.118757 
L 195.212341 86.826648 
L 194.989609 103.318523 
L 194.544145 64.033323 
L 194.321412 71.241196 
L 194.09868 55.961693 
L 193.430483 65.170745 
L 192.985019 76.840159 
L 192.762287 81.33357 
L 192.539554 69.653343 
L 192.316822 77.304566 
L 192.09409 100.004787 
L 191.871357 107.227245 
L 191.648625 88.687492 
L 191.425893 81.626569 
L 191.203161 82.93504 
L 190.980428 85.621048 
L 190.757696 79.568875 
L 190.534964 79.089838 
L 190.312232 67.184942 
L 190.089499 64.30579 
L 189.866767 100.765259 
L 189.644035 115.910665 
L 189.421303 119.221903 
L 189.19857 126.554089 
L 188.975838 119.811228 
L 188.753106 98.388771 
L 188.530374 89.161945 
L 188.307641 107.43277 
L 188.084909 100.909456 
L 187.862177 100.023298 
L 187.639445 88.416429 
L 187.416712 84.876959 
L 187.19398 76.613961 
L 186.971248 117.768162 
L 186.748515 107.128454 
L 186.525783 84.295078 
L 186.303051 74.325665 
L 185.857586 88.592584 
L 185.634854 89.197234 
L 185.412122 80.94782 
L 185.18939 86.163696 
L 184.743925 71.599311 
L 184.521193 72.606813 
L 184.298461 93.685343 
L 184.075728 95.975957 
L 183.852996 94.202005 
L 183.407532 40.257775 
L 183.184799 51.16867 
L 182.962067 70.223291 
L 182.739335 57.920818 
L 182.29387 94.795403 
L 181.848406 65.703043 
L 181.625673 68.132296 
L 181.402941 78.879918 
L 181.180209 70.423601 
L 180.957477 72.95625 
L 180.512012 60.878841 
L 180.28928 67.844352 
L 180.066548 81.741408 
L 179.843815 70.685016 
L 179.621083 86.417035 
L 179.398351 114.97807 
L 179.175619 100.191157 
L 178.952886 93.750807 
L 178.730154 72.348248 
L 178.507422 128.047004 
L 178.284689 124.884346 
L 178.061957 92.420637 
L 177.839225 94.212057 
L 177.616493 103.206073 
L 177.39376 90.301237 
L 177.171028 87.745387 
L 176.948296 56.947182 
L 176.725564 88.19839 
L 176.502831 100.667463 
L 176.280099 89.723524 
L 176.057367 91.467667 
L 175.834635 84.872785 
L 175.611902 89.938662 
L 175.38917 80.228389 
L 174.943706 93.543123 
L 174.720973 87.657104 
L 174.498241 84.739079 
L 174.275509 97.583772 
L 174.052777 82.549763 
L 173.607312 108.36348 
L 173.38458 99.485404 
L 173.161847 100.628808 
L 172.716383 81.492996 
L 172.493651 83.443115 
L 172.270918 92.058268 
L 172.048186 84.377986 
L 171.602722 62.928266 
L 171.379989 74.567703 
L 171.157257 69.461006 
L 170.934525 89.777259 
L 170.711793 49.006702 
L 170.48906 65.349845 
L 170.266328 58.360778 
L 170.043596 41.101929 
L 169.820864 58.361936 
L 169.598131 52.865562 
L 169.375399 69.295139 
L 169.152667 62.285047 
L 168.707202 69.559714 
L 168.261738 96.722897 
L 167.816273 117.050071 
L 167.593541 100.695116 
L 167.370809 93.54736 
L 167.148076 80.474072 
L 166.925344 106.274641 
L 166.47988 84.480682 
L 166.257147 66.1563 
L 166.034415 58.132975 
L 165.811683 79.577701 
L 165.588951 74.299315 
L 164.920754 99.620319 
L 164.698021 130.31603 
L 164.475289 113.438442 
L 164.252557 115.262582 
L 163.807092 60.061252 
L 163.58436 86.233067 
L 163.138896 105.019113 
L 162.916163 104.548457 
L 162.693431 101.70632 
L 162.247967 89.562496 
L 162.025234 117.945018 
L 161.802502 85.236037 
L 161.57977 77.975678 
L 161.357038 78.591921 
L 161.134305 81.598752 
L 160.911573 108.076518 
L 160.688841 108.811744 
L 160.243376 120.991536 
L 159.797912 119.996941 
L 159.575179 137.756586 
L 159.129715 82.378673 
L 158.906983 96.378632 
L 158.68425 93.039304 
L 158.461518 88.004507 
L 158.238786 66.848905 
L 158.016054 78.974289 
L 157.793321 98.947324 
L 157.570589 87.975918 
L 157.125125 99.500661 
L 156.902392 83.239722 
L 156.67966 48.247491 
L 156.234196 77.085517 
L 155.788731 63.166306 
L 155.565999 85.378091 
L 155.343266 86.863081 
L 155.120534 85.93341 
L 154.67507 69.540836 
L 154.452337 79.547445 
L 154.229605 101.733475 
L 154.006873 72.466672 
L 153.784141 70.09186 
L 153.338676 86.938405 
L 153.115944 111.373075 
L 152.893212 94.485727 
L 152.670479 115.484427 
L 152.447747 113.814302 
L 152.225015 133.053329 
L 152.002283 116.746343 
L 151.77955 108.993576 
L 151.556818 88.848592 
L 151.334086 91.604833 
L 150.888621 48.798507 
L 150.665889 73.821437 
L 150.443157 74.933819 
L 150.220424 55.918594 
L 149.997692 75.488263 
L 149.552228 122.483259 
L 149.329495 98.4668 
L 149.106763 130.895069 
L 148.884031 112.086288 
L 148.661299 122.43336 
L 148.215834 87.597169 
L 147.993102 84.885469 
L 147.547637 92.709253 
L 147.324905 91.323282 
L 147.102173 85.318709 
L 146.879441 75.047682 
L 146.656708 76.100191 
L 146.433976 65.499763 
L 145.988511 77.137509 
L 145.765779 69.540042 
L 145.543047 52.645132 
L 145.320315 81.656766 
L 145.097582 89.751774 
L 144.87485 91.381075 
L 144.652118 102.539589 
L 144.429386 82.631276 
L 144.206653 73.342579 
L 143.983921 86.302981 
L 143.761189 53.883389 
L 143.538457 72.013585 
L 143.092992 85.61828 
L 142.87026 92.822041 
L 142.647528 59.668604 
L 142.424795 72.895252 
L 142.202063 69.565052 
L 141.756598 92.174462 
L 141.533866 92.352592 
L 141.311134 95.17444 
L 141.088402 82.158121 
L 140.865669 85.402632 
L 140.642937 58.527469 
L 140.420205 62.219148 
L 139.97474 95.703424 
L 139.752008 98.083039 
L 139.529276 112.137036 
L 139.306544 77.73074 
L 138.861079 107.025292 
L 138.638347 108.16618 
L 138.415615 97.646553 
L 138.192882 65.906044 
L 137.97015 89.758199 
L 137.747418 68.558431 
L 137.524686 85.503358 
L 137.301953 85.669463 
L 137.079221 89.173627 
L 136.856489 75.281025 
L 136.633756 80.661656 
L 136.411024 108.01985 
L 136.188292 99.044074 
L 135.96556 97.161075 
L 135.742827 124.984242 
L 135.520095 110.671617 
L 135.297363 113.688148 
L 135.074631 86.803603 
L 134.851898 90.641078 
L 134.629166 83.43738 
L 134.406434 87.96371 
L 134.183702 77.195344 
L 133.960969 74.897956 
L 133.738237 88.757494 
L 133.515505 74.775569 
L 133.07004 105.76761 
L 132.847308 97.386172 
L 132.624576 112.737514 
L 132.401843 98.634624 
L 131.956379 61.051646 
L 131.733647 61.279322 
L 131.510914 66.38245 
L 131.06545 57.301229 
L 130.619985 123.96407 
L 130.397253 122.149435 
L 130.174521 128.314878 
L 129.729056 83.134829 
L 129.506324 79.137568 
L 129.283592 48.799135 
L 129.06086 39.135473 
L 128.838127 65.825287 
L 128.615395 38.464463 
L 128.392663 59.342108 
L 128.16993 49.352547 
L 127.947198 68.251294 
L 127.724466 59.599912 
L 127.501734 41.810982 
L 127.279001 65.914643 
L 127.056269 34.253281 
L 126.833537 51.882237 
L 126.610805 54.398485 
L 126.388072 27.38531 
L 126.16534 36.852257 
L 125.942608 34.792619 
L 125.719876 34.352264 
L 125.497143 46.976258 
L 125.051679 104.993754 
L 124.828947 111.225919 
L 124.606214 113.321328 
L 124.383482 130.182606 
L 124.16075 115.900755 
L 123.938018 114.536223 
L 123.715285 94.033032 
L 123.269821 109.205513 
L 123.047088 111.117763 
L 122.824356 116.046121 
L 122.378892 93.490873 
L 122.156159 70.292537 
L 121.933427 99.178109 
L 121.710695 78.550773 
L 121.487963 74.334313 
L 121.26523 83.1986 
L 121.042498 75.021308 
L 120.819766 101.271587 
L 120.597034 83.375675 
L 120.374301 107.872874 
L 120.151569 107.505408 
L 119.928837 95.655286 
L 119.483372 121.290049 
L 119.26064 107.958606 
L 119.037908 84.756628 
L 118.815175 107.00356 
L 118.592443 77.803594 
L 118.369711 84.380195 
L 118.146979 85.314347 
L 117.924246 87.580774 
L 117.478782 44.956662 
L 116.810585 87.512295 
L 116.365121 77.218456 
L 116.142388 77.547522 
L 115.696924 50.382333 
L 115.474192 48.496339 
L 115.251459 77.573687 
L 115.028727 81.742443 
L 114.805995 91.124508 
L 114.583262 81.296381 
L 114.36053 97.367404 
L 114.137798 91.74673 
L 113.915066 75.880363 
L 113.692333 90.607612 
L 113.469601 81.532969 
L 113.246869 95.5226 
L 113.024137 101.121346 
L 112.801404 99.143976 
L 112.578672 86.507217 
L 112.35594 95.524204 
L 112.133208 89.669217 
L 111.687743 109.05498 
L 111.465011 89.195041 
L 111.019546 141.870243 
L 110.796814 123.27694 
L 110.574082 126.197973 
L 110.35135 109.613796 
L 110.128617 76.992263 
L 109.905885 78.898807 
L 109.237688 94.421047 
L 109.014956 92.047139 
L 108.792224 107.791441 
L 108.569491 139.637455 
L 108.346759 131.811433 
L 108.124027 100.345737 
L 107.901295 86.303456 
L 107.678562 91.356425 
L 107.45583 79.985326 
L 107.233098 79.746857 
L 107.010366 73.207148 
L 106.564901 44.417355 
L 106.342169 47.967584 
L 106.119437 59.148898 
L 105.673972 96.098752 
L 105.45124 79.821809 
L 105.228507 115.94426 
L 105.005775 116.205539 
L 104.560311 104.218484 
L 104.337578 113.392593 
L 104.114846 100.677519 
L 103.892114 101.952276 
L 103.669382 120.126583 
L 103.446649 128.967522 
L 103.001185 106.14354 
L 102.778453 108.75471 
L 102.55572 103.732229 
L 102.332988 109.683894 
L 102.110256 92.189455 
L 101.887524 85.386172 
L 101.664791 63.302517 
L 101.442059 73.0505 
L 101.219327 71.729968 
L 100.996594 76.178863 
L 100.773862 65.352626 
L 100.55113 65.684265 
L 100.328398 72.196189 
L 100.105665 74.691216 
L 99.882933 79.497649 
L 99.660201 87.939645 
L 99.437469 116.212692 
L 99.214736 114.579183 
L 98.769272 88.659096 
L 98.54654 104.268911 
L 98.323807 92.0609 
L 98.101075 93.648879 
L 97.878343 79.642314 
L 97.655611 101.375899 
L 97.432878 100.80186 
L 96.987414 109.3755 
L 96.764682 105.648858 
L 96.541949 115.192081 
L 96.319217 110.995063 
L 96.096485 102.89381 
L 95.873752 78.625163 
L 95.428288 67.751892 
L 95.205556 85.860058 
L 94.982823 73.78452 
L 94.760091 76.886362 
L 94.314627 56.739697 
L 94.091894 47.289832 
L 93.869162 54.503273 
L 93.64643 66.750378 
L 93.423698 90.110304 
L 93.200965 75.772664 
L 92.978233 48.565493 
L 92.755501 35.559747 
L 92.310036 81.510281 
L 92.087304 71.839627 
L 91.641839 105.184214 
L 91.196375 92.853162 
L 90.973643 111.080232 
L 90.75091 117.302571 
L 90.305446 85.496626 
L 90.082714 81.113649 
L 89.859981 65.931704 
L 89.414517 99.093674 
L 89.191785 85.286634 
L 88.969052 102.344133 
L 88.74632 99.638895 
L 88.523588 105.905894 
L 88.300856 116.621886 
L 87.855391 101.79175 
L 87.632659 77.643731 
L 87.409926 113.826505 
L 87.187194 98.586496 
L 86.964462 101.228224 
L 86.74173 110.18425 
L 86.518997 84.393647 
L 86.296265 101.38142 
L 85.850801 114.181181 
L 85.628068 90.845971 
L 85.405336 82.721141 
L 85.182604 102.787051 
L 84.737139 109.481155 
L 84.291675 64.367715 
L 84.068943 81.057736 
L 83.84621 65.16898 
L 83.623478 67.234688 
L 83.400746 92.046916 
L 82.955281 95.49324 
L 82.732549 101.349827 
L 82.509817 84.468402 
L 82.287084 107.755707 
L 81.84162 92.269635 
L 81.618888 102.937814 
L 81.396155 139.704957 
L 81.173423 153.998292 
L 80.727959 108.297816 
L 80.505226 108.35666 
L 80.282494 102.965584 
L 79.83703 136.258569 
L 79.168833 106.925896 
L 78.946101 103.755488 
L 78.723368 91.400119 
L 78.500636 112.036782 
L 78.277904 101.567397 
L 78.055171 119.435573 
L 77.832439 85.387774 
L 77.609707 81.035486 
L 77.386975 59.935716 
L 77.164242 63.508058 
L 76.94151 82.642322 
L 76.718778 84.391871 
L 76.496046 106.604829 
L 76.273313 79.610958 
L 76.050581 110.043166 
L 75.827849 104.637066 
L 75.605117 74.531226 
L 75.382384 84.632669 
L 75.159652 69.757958 
L 74.93692 68.643482 
L 74.714188 63.424971 
L 74.491455 65.49726 
L 74.268723 73.093058 
L 74.045991 91.874446 
L 73.823259 94.407435 
L 73.600526 88.271411 
L 73.377794 97.570724 
L 73.155062 117.606113 
L 72.932329 91.041023 
L 72.709597 79.464182 
L 72.486865 88.181826 
L 72.264133 64.027838 
L 72.0414 72.31394 
L 71.818668 71.875544 
L 71.150471 87.035714 
L 70.705007 120.964223 
L 70.482275 97.629717 
L 70.259542 88.596252 
L 70.03681 97.855315 
L 69.814078 88.993023 
L 69.368613 56.200857 
L 69.145881 77.957563 
L 68.923149 54.235963 
L 68.700416 70.328311 
L 68.477684 40.089268 
L 67.586755 87.210232 
L 67.141291 70.105245 
L 66.695826 105.606433 
L 66.473094 93.283484 
L 66.250362 95.409379 
L 66.027629 65.143374 
L 65.804897 93.348668 
L 65.582165 96.081576 
L 65.359433 110.940416 
L 65.1367 88.950184 
L 64.913968 101.993591 
L 64.691236 96.571123 
L 64.468503 117.47508 
L 64.245771 88.885303 
L 64.023039 96.889538 
L 63.800307 112.869536 
L 63.577574 94.316822 
L 63.354842 135.491958 
L 63.13211 131.030133 
L 62.909378 142.13998 
L 62.686645 105.065822 
L 62.463913 87.378557 
L 62.018449 99.062912 
L 61.795716 99.17616 
L 61.572984 96.573738 
L 61.350252 112.202263 
L 61.12752 98.938257 
L 60.904787 106.957892 
L 60.682055 86.186258 
L 60.459323 83.002671 
L 60.236591 84.245955 
L 60.013858 110.478641 
L 59.791126 91.656054 
L 59.568394 87.88888 
L 59.345661 75.403464 
L 59.122929 101.415309 
L 58.900197 103.358401 
L 58.677465 125.790997 
L 58.454732 114.651032 
L 58.232 83.147242 
L 58.009268 84.26831 
L 57.786536 98.574791 
L 57.563803 91.235048 
L 57.341071 94.149854 
L 57.118339 105.875244 
L 56.895607 79.854882 
L 56.450142 87.277985 
L 56.450142 87.277985 
" style="fill:none;stroke:#000000;stroke-linecap:square;"/>
   </g>
   <g id="patch_3">
    <path d="M 46.304688 170.845906 
L 46.304688 7.765906 
" style="fill:none;stroke:#000000;stroke-linecap:square;stroke-linejoin:miter;stroke-width:0.8;"/>
   </g>
   <g id="patch_4">
    <path d="M 269.504687 170.845906 
L 269.504687 7.765906 
" style="fill:none;stroke:#000000;stroke-linecap:square;stroke-linejoin:miter;stroke-width:0.8;"/>
   </g>
   <g id="patch_5">
    <path d="M 46.304687 170.845906 
L 269.504687 170.845906 
" style="fill:none;stroke:#000000;stroke-linecap:square;stroke-linejoin:miter;stroke-width:0.8;"/>
   </g>
   <g id="patch_6">
    <path d="M 46.304687 7.765906 
L 269.504687 7.765906 
" style="fill:none;stroke:#000000;stroke-linecap:square;stroke-linejoin:miter;stroke-width:0.8;"/>
   </g>
   <g id="legend_1">
    <g id="patch_7">
     <path d="M 151.904687 30.444031 
L 262.504687 30.444031 
Q 264.504687 30.444031 264.504687 28.444031 
L 264.504687 14.765906 
Q 264.504687 12.765906 262.504687 12.765906 
L 151.904687 12.765906 
Q 149.904687 12.765906 149.904687 14.765906 
L 149.904687 28.444031 
Q 149.904687 30.444031 151.904687 30.444031 
z
" style="fill:#ffffff;opacity:0.8;stroke:#cccccc;stroke-linejoin:miter;"/>
    </g>
    <g id="line2d_24">
     <path d="M 153.904687 20.864343 
L 153.904687 20.864343 
" style="fill:none;stroke:#000000;stroke-linecap:square;"/>
    </g>
    <g id="line2d_25"/>
    <g id="text_14">
     <!-- Var$_\mathrm{s}$: 1.84$\quad\sigma_{\mathrm{\varepsilon}}$: 0.98 -->
     <g transform="translate(161.904687 24.364343)scale(0.1 -0.1)">
      <defs>
       <path d="M 28.609375 0 
L 0.78125 72.90625 
L 11.078125 72.90625 
L 34.1875 11.53125 
L 57.328125 72.90625 
L 67.578125 72.90625 
L 39.796875 0 
z
" id="DejaVuSans-86"/>
       <path d="M 34.28125 27.484375 
Q 23.390625 27.484375 19.1875 25 
Q 14.984375 22.515625 14.984375 16.5 
Q 14.984375 11.71875 18.140625 8.90625 
Q 21.296875 6.109375 26.703125 6.109375 
Q 34.1875 6.109375 38.703125 11.40625 
Q 43.21875 16.703125 43.21875 25.484375 
L 43.21875 27.484375 
z
M 52.203125 31.203125 
L 52.203125 0 
L 43.21875 0 
L 43.21875 8.296875 
Q 40.140625 3.328125 35.546875 0.953125 
Q 30.953125 -1.421875 24.3125 -1.421875 
Q 15.921875 -1.421875 10.953125 3.296875 
Q 6 8.015625 6 15.921875 
Q 6 25.140625 12.171875 29.828125 
Q 18.359375 34.515625 30.609375 34.515625 
L 43.21875 34.515625 
L 43.21875 35.40625 
Q 43.21875 41.609375 39.140625 45 
Q 35.0625 48.390625 27.6875 48.390625 
Q 23 48.390625 18.546875 47.265625 
Q 14.109375 46.140625 10.015625 43.890625 
L 10.015625 52.203125 
Q 14.9375 54.109375 19.578125 55.046875 
Q 24.21875 56 28.609375 56 
Q 40.484375 56 46.34375 49.84375 
Q 52.203125 43.703125 52.203125 31.203125 
z
" id="DejaVuSans-97"/>
       <path d="M 44.28125 53.078125 
L 44.28125 44.578125 
Q 40.484375 46.53125 36.375 47.5 
Q 32.28125 48.484375 27.875 48.484375 
Q 21.1875 48.484375 17.84375 46.4375 
Q 14.5 44.390625 14.5 40.28125 
Q 14.5 37.15625 16.890625 35.375 
Q 19.28125 33.59375 26.515625 31.984375 
L 29.59375 31.296875 
Q 39.15625 29.25 43.1875 25.515625 
Q 47.21875 21.78125 47.21875 15.09375 
Q 47.21875 7.46875 41.1875 3.015625 
Q 35.15625 -1.421875 24.609375 -1.421875 
Q 20.21875 -1.421875 15.453125 -0.5625 
Q 10.6875 0.296875 5.421875 2 
L 5.421875 11.28125 
Q 10.40625 8.6875 15.234375 7.390625 
Q 20.0625 6.109375 24.8125 6.109375 
Q 31.15625 6.109375 34.5625 8.28125 
Q 37.984375 10.453125 37.984375 14.40625 
Q 37.984375 18.0625 35.515625 20.015625 
Q 33.0625 21.96875 24.703125 23.78125 
L 21.578125 24.515625 
Q 13.234375 26.265625 9.515625 29.90625 
Q 5.8125 33.546875 5.8125 39.890625 
Q 5.8125 47.609375 11.28125 51.796875 
Q 16.75 56 26.8125 56 
Q 31.78125 56 36.171875 55.265625 
Q 40.578125 54.546875 44.28125 53.078125 
z
" id="DejaVuSans-115"/>
       <path d="M 11.71875 12.40625 
L 22.015625 12.40625 
L 22.015625 0 
L 11.71875 0 
z
M 11.71875 51.703125 
L 22.015625 51.703125 
L 22.015625 39.3125 
L 11.71875 39.3125 
z
" id="DejaVuSans-58"/>
       <path d="M 34.671875 47.5625 
Q 27.25 47.5625 22.21875 42.1875 
Q 16.890625 36.578125 15.140625 27.296875 
Q 13.1875 17.484375 16.3125 11.8125 
Q 19.390625 6.203125 26.65625 6.203125 
Q 33.84375 6.203125 39.109375 11.859375 
Q 44.4375 17.53125 46.34375 27.296875 
Q 48.046875 36.234375 45.015625 42.1875 
Q 42.1875 47.5625 34.671875 47.5625 
z
M 36.078125 54.734375 
L 65.921875 54.6875 
L 64.15625 45.703125 
L 54.109375 45.703125 
Q 57.90625 38.09375 55.859375 27.296875 
Q 53.21875 13.875 45.0625 6.25 
Q 36.859375 -1.421875 25.140625 -1.421875 
Q 13.375 -1.421875 8.203125 6.25 
Q 3.03125 13.875 5.671875 27.296875 
Q 8.25 40.765625 16.40625 48.390625 
Q 23.1875 54.734375 36.078125 54.734375 
z
" id="DejaVuSans-Oblique-963"/>
       <path d="M 19.28125 29.5 
Q 13.8125 30.671875 10.890625 33.84375 
Q 7.953125 36.96875 7.953125 41.5 
Q 7.953125 48.390625 13.53125 52.25 
Q 19.046875 56.0625 28.609375 56.0625 
Q 32.328125 56.0625 36.46875 55.46875 
Q 40.625 54.890625 45.40625 53.71875 
L 45.40625 45.5625 
Q 40.671875 46.96875 36.765625 47.609375 
Q 32.8125 48.25 29.34375 48.25 
Q 23.53125 48.25 20.171875 46 
Q 16.75 43.75 16.75 40.625 
Q 16.75 37.203125 20.0625 35.015625 
Q 23.34375 32.859375 29 32.859375 
L 36.578125 32.859375 
L 36.578125 25.4375 
L 29.34375 25.4375 
Q 22.65625 25.4375 19.140625 22.953125 
Q 15.328125 20.21875 15.328125 15.921875 
Q 15.328125 11.53125 19.4375 8.796875 
Q 23.578125 6.0625 30.953125 6.0625 
Q 35.5 6.0625 39.65625 6.9375 
Q 43.796875 7.859375 47.265625 9.671875 
L 47.265625 1.3125 
Q 42.875 -0.046875 38.765625 -0.734375 
Q 34.625 -1.421875 30.71875 -1.421875 
Q 19.09375 -1.421875 12.796875 3.03125 
Q 6.5 7.46875 6.5 15.921875 
Q 6.5 21.1875 9.859375 24.75 
Q 13.234375 28.328125 19.28125 29.5 
z
" id="DejaVuSans-949"/>
       <path d="M 10.984375 1.515625 
L 10.984375 10.5 
Q 14.703125 8.734375 18.5 7.8125 
Q 22.3125 6.890625 25.984375 6.890625 
Q 35.75 6.890625 40.890625 13.453125 
Q 46.046875 20.015625 46.78125 33.40625 
Q 43.953125 29.203125 39.59375 26.953125 
Q 35.25 24.703125 29.984375 24.703125 
Q 19.046875 24.703125 12.671875 31.3125 
Q 6.296875 37.9375 6.296875 49.421875 
Q 6.296875 60.640625 12.9375 67.421875 
Q 19.578125 74.21875 30.609375 74.21875 
Q 43.265625 74.21875 49.921875 64.515625 
Q 56.59375 54.828125 56.59375 36.375 
Q 56.59375 19.140625 48.40625 8.859375 
Q 40.234375 -1.421875 26.421875 -1.421875 
Q 22.703125 -1.421875 18.890625 -0.6875 
Q 15.09375 0.046875 10.984375 1.515625 
z
M 30.609375 32.421875 
Q 37.25 32.421875 41.125 36.953125 
Q 45.015625 41.5 45.015625 49.421875 
Q 45.015625 57.28125 41.125 61.84375 
Q 37.25 66.40625 30.609375 66.40625 
Q 23.96875 66.40625 20.09375 61.84375 
Q 16.21875 57.28125 16.21875 49.421875 
Q 16.21875 41.5 20.09375 36.953125 
Q 23.96875 32.421875 30.609375 32.421875 
z
" id="DejaVuSans-57"/>
      </defs>
      <use transform="translate(0 0.78125)" xlink:href="#DejaVuSans-86"/>
      <use transform="translate(68.408203 0.78125)" xlink:href="#DejaVuSans-97"/>
      <use transform="translate(129.6875 0.78125)" xlink:href="#DejaVuSans-114"/>
      <use transform="translate(171.757812 -15.625)scale(0.7)" xlink:href="#DejaVuSans-115"/>
      <use transform="translate(210.961914 0.78125)" xlink:href="#DejaVuSans-58"/>
      <use transform="translate(244.65332 0.78125)" xlink:href="#DejaVuSans-32"/>
      <use transform="translate(276.44043 0.78125)" xlink:href="#DejaVuSans-49"/>
      <use transform="translate(340.063477 0.78125)" xlink:href="#DejaVuSans-46"/>
      <use transform="translate(369.225586 0.78125)" xlink:href="#DejaVuSans-56"/>
      <use transform="translate(432.848633 0.78125)" xlink:href="#DejaVuSans-52"/>
      <use transform="translate(593.883789 0.78125)" xlink:href="#DejaVuSans-Oblique-963"/>
      <use transform="translate(657.262695 -15.625)scale(0.7)" xlink:href="#DejaVuSans-949"/>
      <use transform="translate(697.833984 0.78125)" xlink:href="#DejaVuSans-58"/>
      <use transform="translate(731.525391 0.78125)" xlink:href="#DejaVuSans-32"/>
      <use transform="translate(763.3125 0.78125)" xlink:href="#DejaVuSans-48"/>
      <use transform="translate(826.935547 0.78125)" xlink:href="#DejaVuSans-46"/>
      <use transform="translate(858.722656 0.78125)" xlink:href="#DejaVuSans-57"/>
      <use transform="translate(922.345703 0.78125)" xlink:href="#DejaVuSans-56"/>
     </g>
    </g>
   </g>
  </g>
 </g>
 <defs>
  <clipPath id="p4218916dc1">
   <rect height="163.08" width="223.2" x="46.304688" y="7.765906"/>
  </clipPath>
 </defs>
</svg>
